<?xml version="1.0" encoding="utf-8"?>
<svg xmlns="http://www.w3.org/2000/svg" viewBox="-578.258 -1109.119 2263.214 2713.498">
  <g transform="matrix(0.1, 0, 0, -0.1, -696.810791, 2204.947754)" fill="#000000" stroke="none">
    <path d="M10023 32615 c-36 -35 -62 -82 -88 -160 -35 -104 -104 -444 -108 -527 -1 -29 -5 -55 -8 -58 -10 -9 -59 -428 -69 -585 -5 -82 -14 -262 -20 -400 -6 -137 -14 -261 -16 -275 -12 -53 -119 -361 -175 -502 -32 -81 -59 -150 -59 -153 0 -3 -15 -38 -34 -78 -18 -40 -37 -84 -41 -97 -4 -14 -19 -49 -32 -78 -13 -29 -21 -57 -18 -62 3 -6 1 -10 -5 -10 -6 0 -16 -15 -22 -32 -7 -18 -10 -33 -8 -33 2 0 -8 -18 -21 -40 -14 -22 -47 -87 -74 -145 -27 -58 -74 -150 -103 -205 -30 -55 -75 -138 -99 -185 -25 -47 -54 -97 -65 -112 -11 -16 -16 -33 -12 -39 4 -7 3 -9 -3 -6 -6 4 -19 -10 -29 -31 -10 -20 -21 -39 -24 -42 -3 -3 -37 -54 -74 -115 -69 -110 -219 -336 -299 -452 -44 -63 -51 -72 -134 -182 -26 -35 -66 -89 -88 -120 -23 -31 -52 -61 -65 -68 -14 -6 -39 -26 -55 -43 -28 -30 -29 -32 -12 -45 10 -7 27 -11 37 -8 38 10 293 275 331 343 9 16 18 27 21 25 3 -3 22 21 43 52 22 32 61 86 87 120 78 99 159 227 153 241 -2 7 -1 11 4 7 5 -3 19 11 31 30 12 20 27 41 33 48 7 7 18 24 26 37 31 54 76 128 110 180 39 61 72 118 98 170 10 19 24 41 31 48 6 7 12 19 12 27 0 7 3 15 8 17 22 10 274 522 302 613 6 22 18 54 26 72 24 53 110 273 139 356 15 42 31 77 34 77 21 0 -20 -894 -69 -1493 -12 -149 -22 -365 -23 -510 -2 -244 -1 -253 21 -294 36 -69 89 -83 136 -37 31 31 83 135 125 251 17 45 48 124 69 175 22 51 43 104 47 118 4 14 18 50 30 80 13 30 45 107 70 170 26 63 62 148 81 188 19 41 31 79 28 85 -4 7 -4 9 1 5 4 -4 29 38 55 92 26 55 53 107 60 115 6 8 9 18 6 24 -3 5 0 11 7 14 6 3 21 22 32 43 71 136 202 288 294 339 127 72 192 1 266 -290 9 -38 19 -77 22 -85 3 -8 7 -26 9 -40 7 -60 77 -349 94 -385 5 -11 12 -30 15 -42 4 -13 11 -23 16 -23 6 0 8 -4 5 -9 -11 -17 55 -130 107 -184 89 -93 177 -123 279 -93 30 8 64 23 75 33 12 10 37 30 57 46 24 19 34 33 30 45 -5 14 -4 14 4 2 13 -17 44 15 127 131 66 93 215 386 215 424 0 7 6 18 14 24 8 7 17 22 20 35 3 13 21 57 39 97 19 41 40 89 47 107 7 17 16 32 20 32 4 0 12 -48 19 -107 24 -222 73 -451 123 -576 24 -62 44 -91 94 -143 70 -71 95 -84 158 -84 51 0 107 34 151 91 17 22 35 45 41 52 27 31 65 108 58 118 -4 8 -3 9 4 5 7 -4 12 -1 12 8 0 9 4 16 8 16 11 0 90 169 127 270 15 41 33 89 40 105 7 17 32 81 56 142 24 62 47 113 52 113 10 0 9 -64 -3 -135 -11 -66 -40 -310 -70 -593 -11 -101 -26 -238 -34 -305 -9 -67 -17 -142 -20 -167 -2 -25 -12 -119 -22 -210 l-18 -165 -63 -123 c-35 -68 -60 -128 -57 -134 4 -6 3 -8 -3 -5 -11 7 -72 -112 -108 -208 -13 -33 -46 -122 -74 -198 -28 -76 -49 -142 -46 -148 4 -5 2 -9 -3 -9 -10 0 -42 -91 -42 -119 0 -9 -4 -21 -9 -26 -6 -6 -16 -39 -24 -75 -8 -36 -26 -112 -40 -170 -14 -58 -30 -136 -36 -175 -6 -38 -20 -128 -32 -200 -26 -163 -29 -412 -5 -469 16 -39 55 -61 88 -50 29 9 87 73 108 119 10 22 30 78 45 125 15 47 31 94 36 105 5 11 18 54 28 95 10 41 31 120 46 175 102 374 150 568 160 648 3 23 16 91 29 152 14 60 30 150 36 200 7 49 16 101 20 115 5 14 11 50 14 80 3 30 12 98 22 150 9 52 16 109 17 125 0 17 2 24 5 17 2 -7 16 6 32 31 15 24 60 88 100 142 56 76 69 100 59 107 -11 7 -10 8 3 6 16 -3 57 39 113 116 11 15 42 50 68 78 38 39 46 53 35 60 -10 8 -9 9 3 5 11 -4 50 29 119 99 57 57 125 118 151 136 28 19 47 39 44 46 -3 7 0 10 6 6 6 -3 27 7 47 24 21 16 48 32 60 36 14 5 21 13 18 21 -3 9 0 12 8 9 7 -3 21 2 30 11 9 9 16 14 16 11 0 -4 17 4 38 17 20 13 39 24 42 25 3 0 66 29 140 65 74 35 145 67 158 71 12 4 20 12 17 17 -3 5 1 6 9 3 8 -3 49 10 90 30 41 20 78 36 83 36 5 0 28 9 51 20 67 32 71 29 48 -38 -8 -22 -17 -53 -20 -69 -3 -15 -12 -55 -20 -88 -49 -203 -65 -570 -32 -755 22 -128 55 -225 66 -195 6 15 7 10 7 -15 -1 -25 9 -51 33 -85 65 -94 141 -179 179 -199 14 -7 51 -27 81 -45 104 -59 171 -74 284 -68 56 3 128 13 161 22 177 49 394 190 670 438 189 169 252 236 234 249 -11 8 -10 9 4 4 14 -5 37 13 90 70 111 119 117 127 111 149 -4 14 -3 16 4 7 7 -11 14 -8 31 14 12 15 19 34 16 41 -3 8 0 11 6 8 24 -15 107 119 95 152 -3 8 -1 11 4 8 16 -10 12 11 -5 25 -21 18 -73 -5 -142 -62 -129 -108 -142 -121 -137 -130 3 -5 1 -7 -3 -6 -5 2 -118 -106 -251 -239 -132 -133 -255 -249 -272 -260 -17 -10 -33 -28 -36 -40 -4 -13 -10 -20 -15 -17 -5 3 -19 -4 -31 -15 -12 -12 -25 -21 -30 -21 -4 0 -4 -7 -1 -17 4 -11 3 -14 -6 -9 -7 5 -35 -7 -68 -31 -70 -48 -193 -123 -201 -123 -4 0 -19 -6 -33 -14 -95 -49 -242 -67 -334 -41 -66 19 -158 65 -192 97 -12 12 -27 17 -34 13 -8 -5 -10 -4 -5 3 4 6 0 19 -9 29 -102 116 -151 239 -176 443 -24 199 16 591 82 790 l33 100 56 26 c148 69 170 81 163 89 -5 4 -2 5 4 1 16 -9 74 24 66 37 -3 5 0 7 8 5 12 -4 61 18 127 57 9 6 39 24 66 40 57 33 99 69 165 138 59 62 70 83 71 130 0 78 -57 115 -183 119 -77 3 -171 -17 -160 -35 4 -6 1 -7 -6 -3 -16 10 -105 -49 -173 -116 -66 -64 -161 -190 -186 -247 -10 -22 -21 -38 -24 -35 -3 3 -11 -10 -17 -28 -13 -36 -48 -78 -67 -78 -6 0 -43 -14 -80 -31 -38 -17 -82 -37 -99 -44 -16 -7 -59 -27 -95 -43 -36 -16 -107 -48 -159 -70 -108 -47 -383 -193 -376 -200 2 -3 -12 -13 -33 -23 -39 -20 -175 -125 -180 -140 -2 -5 -8 -9 -14 -9 -5 0 -23 -12 -38 -27 -16 -16 -35 -33 -42 -39 -57 -49 -178 -186 -172 -196 4 -6 3 -8 -3 -5 -16 10 -178 -179 -266 -310 -39 -58 -51 -55 -43 10 3 28 11 104 16 167 6 63 17 169 25 235 14 108 42 377 43 415 1 8 8 76 16 150 31 267 38 364 34 441 -5 84 -23 119 -61 119 -28 0 -69 -50 -90 -109 -17 -49 -42 -106 -122 -276 -17 -38 -35 -83 -39 -99 -4 -16 -23 -60 -42 -99 -19 -39 -32 -77 -29 -84 2 -8 1 -12 -4 -9 -4 3 -29 -34 -56 -82 -91 -166 -182 -282 -222 -282 -23 0 -80 46 -112 91 -16 21 -32 35 -36 31 -5 -4 -5 -2 -2 4 3 6 -4 42 -17 80 -13 38 -29 94 -35 124 -7 30 -15 62 -18 70 -4 8 -6 18 -5 21 1 8 -16 127 -23 159 -3 14 -14 88 -25 165 -19 149 -28 183 -54 204 -40 34 -133 -27 -121 -79 4 -17 3 -21 -3 -11 -11 16 -13 14 -47 -74 -15 -38 -35 -83 -45 -100 -10 -16 -21 -41 -25 -55 -7 -21 -95 -202 -161 -330 -10 -19 -39 -67 -66 -107 -26 -39 -46 -77 -45 -85 2 -7 2 -10 -1 -5 -2 4 -34 -24 -70 -61 -148 -153 -237 -164 -342 -45 -62 70 -130 231 -165 388 -8 33 -28 123 -44 200 -45 205 -47 211 -94 325 -33 80 -64 129 -84 129 -7 1 -13 5 -13 11 0 5 -19 19 -42 31 -126 64 -306 -51 -476 -305 -22 -33 -31 -55 -27 -70 5 -15 4 -17 -3 -7 -8 11 -14 5 -30 -25 -11 -21 -42 -82 -69 -134 -28 -52 -67 -133 -88 -180 -20 -47 -47 -107 -60 -135 -12 -27 -28 -67 -36 -87 -7 -21 -16 -38 -19 -38 -3 0 -12 -24 -20 -52 -7 -29 -19 -62 -25 -73 -10 -16 -106 -255 -110 -275 -1 -3 -11 -25 -22 -50 -11 -25 -28 -67 -38 -95 -36 -100 -75 -177 -88 -173 -8 3 -13 39 -15 119 -4 133 15 610 28 719 5 41 12 136 15 210 3 74 10 194 15 265 11 147 25 455 40 905 11 314 19 396 50 490 10 30 28 91 40 135 12 44 28 98 36 120 18 53 64 210 69 232 2 10 17 68 35 128 65 230 91 336 120 507 5 27 11 52 14 56 6 10 31 200 50 385 16 149 14 206 -11 305 -29 112 -101 144 -170 77z m67 4 c0 -6 -4 -7 -10 -4 -5 3 -10 11 -10 16 0 6 5 7 10 4 6 -3 10 -11 10 -16z m-52 -39 c-7 -10 -14 -18 -15 -16 -6 6 9 36 18 36 5 0 4 -9 -3 -20z m79 -85 c18 -69 16 -142 -6 -340 -17 -146 -72 -443 -101 -540 -5 -16 -23 -91 -41 -165 -18 -74 -38 -149 -46 -167 -7 -17 -13 -35 -12 -40 1 -4 0 -15 -4 -23 -14 -37 -36 -109 -47 -152 -23 -89 -33 -55 -26 90 18 353 106 992 165 1189 12 39 21 75 21 81 0 6 11 37 25 67 31 72 53 71 72 0z m60 -157 c-3 -8 -6 -5 -6 6 -1 11 2 17 5 13 3 -3 4 -12 1 -19z m-240 -50 c-3 -8 -6 -5 -6 6 -1 11 2 17 5 13 3 -3 4 -12 1 -19z m-40 -240 c-3 -8 -6 -5 -6 6 -1 11 2 17 5 13 3 -3 4 -12 1 -19z m207 -244 c3 -8 2 -12 -4 -9 -6 3 -10 10 -10 16 0 14 7 11 14 -7z m-7 -76 c-3 -8 -6 -5 -6 6 -1 11 2 17 5 13 3 -3 4 -12 1 -19z m-270 -80 c-3 -7 -5 -2 -5 12 0 14 2 19 5 13 2 -7 2 -19 0 -25z m207 -244 c3 -8 2 -12 -4 -9 -6 3 -10 10 -10 16 0 14 7 11 14 -7z m-70 -239 c5 -22 4 -26 -4 -15 -5 8 -10 24 -10 34 0 26 6 18 14 -19z m-194 -70 c0 -8 -4 -15 -10 -15 -5 0 -7 7 -4 15 4 8 8 15 10 15 2 0 4 -7 4 -15z m37 -37 c-3 -8 -6 -5 -6 6 -1 11 2 17 5 13 3 -3 4 -12 1 -19z m100 0 c-3 -8 -6 -5 -6 6 -1 11 2 17 5 13 3 -3 4 -12 1 -19z m-130 -450 c-3 -8 -6 -5 -6 6 -1 11 2 17 5 13 3 -3 4 -12 1 -19z m10 -200 c-3 -7 -5 -2 -5 12 0 14 2 19 5 13 2 -7 2 -19 0 -25z m-40 -280 c-3 -8 -6 -5 -6 6 -1 11 2 17 5 13 3 -3 4 -12 1 -19z m-160 -30 c-3 -7 -5 -2 -5 12 0 14 2 19 5 13 2 -7 2 -19 0 -25z m140 0 c-3 -8 -6 -5 -6 6 -1 11 2 17 5 13 3 -3 4 -12 1 -19z m-245 -350 c-7 -7 -12 -8 -12 -2 0 14 12 26 19 19 2 -3 -1 -11 -7 -17z m-38 -14 c3 -8 2 -12 -4 -9 -6 3 -10 10 -10 16 0 14 7 11 14 -7z m5919 0 c8 -8 -3 -34 -15 -34 -6 0 -6 6 1 14 10 11 8 15 -6 19 -14 4 -14 5 -2 6 9 0 18 -2 22 -5z m-5961 -34 c-2 -16 -6 -30 -8 -30 -2 0 -4 14 -4 30 0 17 4 30 8 30 5 0 7 -13 4 -30z m5926 -36 c36 -10 26 -38 -29 -85 -81 -69 -117 -93 -224 -150 -55 -29 -102 -56 -103 -61 -2 -4 -7 -6 -12 -3 -4 3 -20 -1 -35 -9 -14 -8 -23 -16 -18 -18 4 -3 2 -3 -5 -2 -7 2 -23 -2 -37 -8 -30 -13 -43 -5 -25 17 10 12 10 19 2 27 -7 7 -12 17 -12 23 0 5 7 2 14 -8 13 -17 17 -14 56 43 72 105 186 206 265 231 26 9 134 10 163 3z m-245 -11 c-7 -2 -19 -2 -25 0 -7 3 -2 5 12 5 14 0 19 -2 13 -5z m-4426 -19 c-3 -3 -12 -4 -19 -1 -8 3 -5 6 6 6 11 1 17 -2 13 -5z m4703 -28 c0 -2 -8 -10 -17 -17 -16 -13 -17 -12 -4 4 13 16 21 21 21 13z m-2240 -10 c0 -2 -7 -7 -16 -10 -8 -3 -12 -2 -9 4 6 10 25 14 25 6z m-2587 -41 c-3 -9 -8 -14 -10 -11 -3 3 -2 9 2 15 9 16 15 13 8 -4z m-1132 -38 c-10 -9 -11 -8 -5 6 3 10 9 15 12 12 3 -3 0 -11 -7 -18z m1109 3 c0 -5 -5 -10 -11 -10 -5 0 -7 5 -4 10 3 6 8 10 11 10 2 0 4 -4 4 -10z m-1193 -32 c-3 -8 -6 -5 -6 6 -1 11 2 17 5 13 3 -3 4 -12 1 -19z m2818 12 c3 -5 -1 -10 -9 -10 -9 0 -16 5 -16 10 0 6 4 10 9 10 6 0 13 -4 16 -10z m2732 -52 c-3 -8 -6 -5 -6 6 -1 11 2 17 5 13 3 -3 4 -12 1 -19z m-2680 -10 c-3 -8 -6 -5 -6 6 -1 11 2 17 5 13 3 -3 4 -12 1 -19z m-40 -60 c-3 -8 -6 -5 -6 6 -1 11 2 17 5 13 3 -3 4 -12 1 -19z m893 18 c0 -3 -4 -8 -10 -11 -5 -3 -10 -1 -10 4 0 6 5 11 10 11 6 0 10 -2 10 -4z m-3773 -48 c-3 -8 -6 -5 -6 6 -1 11 2 17 5 13 3 -3 4 -12 1 -19z m3830 -20 c-3 -8 -6 -5 -6 6 -1 11 2 17 5 13 3 -3 4 -12 1 -19z m-3390 -30 c-3 -8 -6 -5 -6 6 -1 11 2 17 5 13 3 -3 4 -12 1 -19z m683 -2 c0 -3 -4 -8 -10 -11 -5 -3 -10 -1 -10 4 0 6 5 11 10 11 6 0 10 -2 10 -4z m2610 -6 c0 -5 -5 -10 -11 -10 -5 0 -7 5 -4 10 3 6 8 10 11 10 2 0 4 -4 4 -10z m137 -42 c-3 -8 -6 -5 -6 6 -1 11 2 17 5 13 3 -3 4 -12 1 -19z m-1156 -11 c-10 -9 -11 -8 -5 6 3 10 9 15 12 12 3 -3 0 -11 -7 -18z m-18 -147 c3 -11 1 -18 -4 -14 -5 3 -9 12 -9 20 0 20 7 17 13 -6z m-2296 -42 c-3 -7 -5 -2 -5 12 0 14 2 19 5 13 2 -7 2 -19 0 -25z m1350 10 c-3 -8 -6 -5 -6 6 -1 11 2 17 5 13 3 -3 4 -12 1 -19z m1200 0 c-3 -8 -6 -5 -6 6 -1 11 2 17 5 13 3 -3 4 -12 1 -19z m-287 -2 c0 -3 -4 -8 -10 -11 -5 -3 -10 -1 -10 4 0 6 5 11 10 11 6 0 10 -2 10 -4z m-1723 -98 c-3 -8 -6 -5 -6 6 -1 11 2 17 5 13 3 -3 4 -12 1 -19z m1624 -31 c-10 -9 -11 -8 -5 6 3 10 9 15 12 12 3 -3 0 -11 -7 -18z m-2848 -62 c-3 -9 -8 -14 -10 -11 -3 3 -2 9 2 15 9 16 15 13 8 -4z m2862 5 c3 -5 1 -10 -4 -10 -6 0 -11 5 -11 10 0 6 2 10 4 10 3 0 8 -4 11 -10z m940 0 c3 -5 1 -10 -4 -10 -6 0 -11 5 -11 10 0 6 2 10 4 10 3 0 8 -4 11 -10z m-3778 -47 c-3 -10 -5 -4 -5 12 0 17 2 24 5 18 2 -7 2 -21 0 -30z m4940 -29 c-3 -3 -12 -4 -19 -1 -8 3 -5 6 6 6 11 1 17 -2 13 -5z m-5017 -14 c0 -5 -2 -10 -4 -10 -3 0 -8 5 -11 10 -3 6 -1 10 4 10 6 0 11 -4 11 -10z m767 -12 c-3 -8 -6 -5 -6 6 -1 11 2 17 5 13 3 -3 4 -12 1 -19z m4113 2 c0 -5 -5 -10 -11 -10 -5 0 -7 5 -4 10 3 6 8 10 11 10 2 0 4 -4 4 -10z m-2063 -32 c-3 -8 -6 -5 -6 6 -1 11 2 17 5 13 3 -3 4 -12 1 -19z m-2090 -95 c-3 -10 -5 -4 -5 12 0 17 2 24 5 18 2 -7 2 -21 0 -30z m6890 1 c-3 -3 -12 -4 -19 -1 -8 3 -5 6 6 6 11 1 17 -2 13 -5z m-3870 -36 c-3 -8 -6 -5 -6 6 -1 11 2 17 5 13 3 -3 4 -12 1 -19z m993 -3 c14 -19 14 -19 -2 -6 -10 7 -18 18 -18 24 0 6 1 8 3 6 1 -2 9 -13 17 -24z m-3653 -47 c-3 -8 -6 -5 -6 6 -1 11 2 17 5 13 3 -3 4 -12 1 -19z m-1197 -14 c0 -8 -5 -12 -10 -9 -6 4 -8 11 -5 16 9 14 15 11 15 -7z m1187 -36 c-3 -8 -6 -5 -6 6 -1 11 2 17 5 13 3 -3 4 -12 1 -19z m2488 -6 c-3 -3 -11 0 -18 7 -9 10 -8 11 6 5 10 -3 15 -9 12 -12z m-1000 -52 c3 -6 -1 -7 -9 -4 -18 7 -21 14 -7 14 6 0 13 -4 16 -10z m-2710 -10 c3 -5 1 -10 -4 -10 -6 0 -11 5 -11 10 0 6 2 10 4 10 3 0 8 -4 11 -10z m1152 -72 c-3 -8 -6 -5 -6 6 -1 11 2 17 5 13 3 -3 4 -12 1 -19z m-1237 -48 c0 -5 -5 -10 -11 -10 -5 0 -7 5 -4 10 3 6 8 10 11 10 2 0 4 -4 4 -10z m4630 6 c0 -3 -4 -8 -10 -11 -5 -3 -10 -1 -10 4 0 6 5 11 10 11 6 0 10 -2 10 -4z m2820 -40 c0 -2 -7 -7 -16 -10 -8 -3 -12 -2 -9 4 6 10 25 14 25 6z m140 -40 c0 -3 -4 -8 -10 -11 -5 -3 -10 -1 -10 4 0 6 5 11 10 11 6 0 10 -2 10 -4z m-3169 -169 c-10 -9 -11 -8 -5 6 3 10 9 15 12 12 3 -3 0 -11 -7 -18z m2789 -102 c-7 -9 -15 -13 -17 -11 -7 7 7 26 19 26 6 0 6 -6 -2 -15z m-2807 -22 c-7 -2 -19 -2 -25 0 -7 3 -2 5 12 5 14 0 19 -2 13 -5z m-3438 -72 c-3 -6 -11 -11 -16 -11 -5 0 -4 6 3 14 14 16 24 13 13 -3z m6202 -37 c-3 -3 -12 -4 -19 -1 -8 3 -5 6 6 6 11 1 17 -2 13 -5z m-472 -174 c3 -5 1 -10 -4 -10 -6 0 -11 5 -11 10 0 6 2 10 4 10 3 0 8 -4 11 -10z m-278 -76 c-3 -3 -12 -4 -19 -1 -8 3 -5 6 6 6 11 1 17 -2 13 -5z m160 -70 c-3 -3 -12 -4 -19 -1 -8 3 -5 6 6 6 11 1 17 -2 13 -5z m38 -4 c-3 -5 -12 -10 -18 -10 -7 0 -6 4 3 10 19 12 23 12 15 0z m-278 -6 c-3 -3 -12 -4 -19 -1 -8 3 -5 6 6 6 11 1 17 -2 13 -5z m-2193 -99 c4 -19 3 -25 -2 -17 -6 9 -13 -8 -20 -55 -20 -133 -75 -429 -88 -478 -8 -27 -29 -111 -48 -185 -92 -364 -151 -575 -189 -680 -23 -63 -42 -119 -42 -125 0 -5 -7 -10 -15 -10 -13 0 -15 19 -13 118 2 100 8 166 38 372 32 222 91 444 179 673 25 68 44 128 40 134 -4 7 -3 8 4 4 7 -4 12 -1 12 6 0 14 69 180 100 241 11 20 17 45 13 55 -4 13 -2 12 9 -3 8 -11 18 -33 22 -50z m16 30 c0 -5 -5 -3 -10 5 -5 8 -10 20 -10 25 0 6 5 3 10 -5 5 -8 10 -19 10 -25z m37 -37 c-3 -8 -6 -5 -6 6 -1 11 2 17 5 13 3 -3 4 -12 1 -19z m-154 -93 c-3 -9 -8 -14 -10 -11 -3 3 -2 9 2 15 9 16 15 13 8 -4z m114 -67 c-3 -7 -5 -2 -5 12 0 14 2 19 5 13 2 -7 2 -19 0 -25z m50 0 c-3 -8 -6 -5 -6 6 -1 11 2 17 5 13 3 -3 4 -12 1 -19z m-269 -79 c-3 -8 -7 -3 -11 10 -4 17 -3 21 5 13 5 -5 8 -16 6 -23z m-11 -61 c-3 -8 -6 -5 -6 6 -1 11 2 17 5 13 3 -3 4 -12 1 -19z m160 -150 c-3 -8 -6 -5 -6 6 -1 11 2 17 5 13 3 -3 4 -12 1 -19z m-280 -220 c-3 -8 -6 -5 -6 6 -1 11 2 17 5 13 3 -3 4 -12 1 -19z m203 -108 c0 -5 -5 -10 -11 -10 -5 0 -7 5 -4 10 3 6 8 10 11 10 2 0 4 -4 4 -10z m-13 -77 c-3 -10 -5 -2 -5 17 0 19 2 27 5 18 2 -10 2 -26 0 -35z m-286 -196 c-10 -9 -11 -8 -5 6 3 10 9 15 12 12 3 -3 0 -11 -7 -18z m256 -69 c-3 -8 -6 -5 -6 6 -1 11 2 17 5 13 3 -3 4 -12 1 -19z m-170 -475 c-3 -10 -5 -4 -5 12 0 17 2 24 5 18 2 -7 2 -21 0 -30z" style="fill: rgb(197, 108, 77);"/>
    <path d="M12770 23137 c-38 -19 -76 -123 -89 -242 -6 -55 -13 -212 -17 -350 l-7 -250 -41 -45 c-54 -59 -143 -138 -183 -162 -40 -24 -43 -48 -7 -48 33 0 103 47 177 119 l58 56 -3 -306 -3 -306 -35 -39 c-52 -58 -107 -153 -136 -236 -45 -127 -20 -239 54 -246 28 -3 35 2 60 42 44 68 79 189 98 329 9 69 20 129 23 134 21 28 155 132 271 209 74 49 138 90 142 92 4 2 16 -15 28 -38 53 -103 153 -158 270 -147 89 8 198 74 279 169 l34 40 27 -59 c33 -72 76 -103 141 -103 94 0 189 87 275 252 l48 93 8 -63 c14 -124 57 -214 113 -238 19 -8 39 -14 44 -14 16 0 81 61 81 76 0 20 -14 17 -35 -6 -10 -11 -26 -20 -36 -20 -39 0 -85 114 -101 252 -12 98 -24 128 -54 128 -8 0 -37 -47 -68 -107 -30 -60 -69 -129 -88 -154 -41 -57 -121 -127 -154 -135 -65 -17 -122 39 -131 129 -5 50 -2 61 30 120 49 86 83 209 97 347 6 63 15 144 20 180 13 89 12 184 -2 215 -16 36 -51 33 -76 -7 -61 -100 -129 -425 -139 -672 l-6 -139 -81 -81 c-98 -99 -165 -137 -239 -138 -74 -1 -138 30 -177 83 -52 72 -50 80 20 156 106 113 149 198 135 270 -7 38 -45 63 -97 63 -91 0 -151 -98 -168 -274 -5 -60 -15 -115 -22 -123 -6 -8 -70 -53 -142 -101 -72 -48 -157 -109 -188 -135 l-58 -48 0 312 0 312 50 81 c71 116 107 208 125 319 33 208 16 378 -46 439 -31 31 -43 33 -79 15z m78 -107 c20 -57 22 -78 18 -170 -9 -181 -44 -311 -119 -438 l-22 -37 -3 210 c-3 225 8 369 35 438 35 89 59 89 91 -3z m1078 -359 c-4 -36 -11 -97 -16 -136 -5 -38 -14 -108 -20 -154 -11 -76 -59 -245 -76 -260 -12 -10 5 188 26 314 11 66 32 162 45 213 14 52 25 96 25 98 0 3 5 2 11 -2 7 -4 9 -29 5 -73z m-592 -387 c20 -8 20 -44 1 -91 -14 -34 -115 -166 -138 -180 -17 -10 -2 168 17 205 33 64 71 85 120 66z m-696 -841 c-4 -37 -15 -92 -24 -122 -21 -73 -70 -181 -82 -181 -29 0 -29 110 0 187 20 55 96 183 109 183 3 0 2 -30 -3 -67z"/>
    <path d="M19456 23018 c-3 -13 -8 -126 -11 -253 -4 -126 -12 -277 -18 -335 l-12 -105 -100 -12 c-55 -6 -101 -12 -102 -12 -2 -1 -3 -12 -3 -26 0 -30 16 -31 128 -11 49 8 72 9 72 2 -1 -6 -8 -63 -16 -126 -23 -178 -28 -293 -15 -318 29 -55 49 -12 71 152 10 72 21 170 25 218 8 100 1 93 118 104 43 3 76 9 73 12 -3 3 -42 8 -86 12 -44 4 -83 10 -87 14 -3 3 -1 66 5 139 15 160 16 506 2 541 -12 32 -38 34 -44 4z"/>
    <path d="M5127 22823 c-25 -49 -66 -273 -112 -601 -22 -163 -26 -176 -66 -250 -47 -87 -131 -202 -177 -246 l-31 -29 -10 26 c-13 34 -27 34 -35 2 -12 -48 24 -83 67 -66 39 16 155 153 203 241 l19 35 5 -129 c4 -106 8 -131 22 -139 23 -15 39 1 111 108 95 142 201 269 238 288 46 22 54 10 69 -101 32 -235 62 -315 135 -358 54 -31 109 -31 177 0 29 14 67 28 83 31 48 10 138 114 242 281 10 15 12 -2 12 -92 1 -98 4 -115 24 -145 54 -80 154 -52 255 73 47 56 89 117 179 255 10 14 12 -3 11 -92 0 -127 16 -181 61 -208 49 -29 83 -22 144 28 31 25 66 60 78 77 29 41 150 168 160 168 4 0 7 -33 7 -73 -1 -125 68 -232 186 -288 77 -36 127 -43 206 -29 102 19 174 61 263 153 42 45 77 87 77 94 0 31 -27 19 -104 -46 -104 -89 -172 -121 -271 -128 -95 -7 -165 18 -225 84 -55 59 -70 98 -70 183 l0 70 31 0 c52 0 125 38 154 80 25 36 44 93 45 133 0 27 -37 57 -72 57 -61 0 -140 -81 -183 -187 -11 -28 -24 -43 -41 -47 -31 -8 -91 -62 -167 -151 -70 -83 -133 -134 -164 -135 -15 0 -28 10 -39 31 -13 26 -15 60 -12 198 l3 166 39 93 c36 86 38 94 23 109 -31 32 -66 -21 -103 -154 -26 -95 -108 -235 -214 -366 -95 -118 -161 -157 -200 -122 -16 15 -20 32 -21 89 -3 228 -44 273 -124 131 -20 -36 -38 -65 -40 -65 -2 0 7 24 20 53 28 62 51 199 41 250 -8 44 -56 87 -97 87 -74 0 -179 -179 -225 -384 -27 -119 -27 -134 2 -202 3 -7 -9 -17 -27 -23 -38 -13 -98 0 -122 27 -26 29 -54 102 -67 177 -41 242 -52 275 -95 275 -67 0 -141 -73 -305 -303 -30 -42 -58 -77 -62 -77 -4 0 -4 66 -1 148 5 137 8 153 40 237 74 190 113 399 113 602 0 87 -10 123 -35 123 -8 0 -21 -12 -28 -27z m13 -268 c-16 -129 -70 -337 -70 -269 0 14 52 341 72 449 1 5 3 -12 6 -40 2 -27 -1 -90 -8 -140z m2100 -347 c0 -71 -55 -137 -120 -145 l-42 -6 31 61 c17 33 42 69 57 81 29 23 74 28 74 9z m-1268 -25 c22 -20 24 -91 4 -175 -25 -109 -171 -320 -209 -305 -56 21 43 371 132 466 33 35 47 38 73 14z"/>
    <path d="M1976 22617 c-19 -27 -73 -223 -116 -412 -17 -77 -59 -251 -92 -387 -52 -206 -60 -249 -49 -262 18 -21 47 -5 54 31 27 125 122 519 146 603 35 122 91 270 102 270 9 0 12 -32 34 -315 29 -383 72 -532 165 -580 63 -33 108 -16 192 72 68 72 137 176 188 286 l39 82 -1 -95 c0 -117 14 -175 54 -211 62 -59 137 -46 204 37 40 48 89 153 104 221 7 30 23 60 43 81 43 45 140 113 204 141 68 31 102 19 135 -47 29 -60 31 -190 5 -274 l-18 -58 -45 0 c-25 0 -55 -5 -67 -11 -32 -17 -87 -70 -103 -101 -21 -41 -18 -114 6 -138 45 -45 112 -11 176 88 21 31 41 61 44 65 4 5 31 -4 61 -19 59 -31 175 -48 167 -24 -2 8 -21 19 -42 26 -21 8 -53 27 -71 43 -19 16 -43 32 -55 36 -17 5 -20 12 -16 28 31 108 39 151 38 206 -3 140 -58 237 -138 248 -35 4 -54 -1 -124 -38 -46 -24 -103 -60 -127 -81 -24 -21 -48 -38 -52 -38 -5 0 -11 14 -15 32 -8 40 -49 94 -86 113 -66 34 -137 9 -192 -70 -21 -29 -37 -43 -47 -40 -9 2 -21 1 -26 -3 -6 -4 -42 -68 -79 -142 -100 -197 -199 -330 -273 -365 -34 -16 -37 -16 -62 2 -14 11 -37 39 -50 62 -30 54 -67 239 -80 400 -6 69 -15 183 -21 254 -14 174 -29 204 -84 179 l-24 -10 14 46 c8 25 21 53 29 62 8 9 12 20 8 23 -14 14 -43 6 -57 -16z m946 -444 c10 -8 25 -35 34 -58 25 -67 8 -92 -88 -128 -81 -31 -140 -32 -152 -2 -8 22 17 106 48 153 44 70 105 83 158 35z m13 -240 c-13 -55 -58 -132 -101 -174 -39 -38 -47 -42 -71 -33 -38 13 -63 61 -70 140 -6 61 -5 67 11 61 48 -19 93 -17 156 7 83 31 83 31 75 -1z m378 -234 c-30 -53 -98 -123 -111 -115 -7 4 -12 21 -12 38 0 43 65 108 109 108 l32 0 -18 -31z"/>
    <path d="M19110 22529 c0 -21 21 -48 54 -68 69 -43 78 -11 12 43 -44 36 -66 45 -66 25z"/>
    <path d="M17502 22447 c-47 -48 -41 -64 12 -33 70 41 79 26 145 -229 47 -182 66 -232 91 -240 39 -12 49 0 103 130 51 121 107 200 126 179 5 -5 23 -54 41 -109 64 -197 110 -267 187 -281 59 -11 111 21 180 115 33 44 73 105 89 136 16 30 32 55 35 55 3 0 13 -33 24 -72 34 -137 84 -208 144 -208 40 0 101 70 142 163 30 69 35 75 43 55 52 -124 90 -189 116 -203 37 -19 70 -19 98 1 26 18 19 38 -12 30 -11 -3 -26 -2 -32 2 -13 8 -71 122 -104 205 -27 69 -58 91 -89 63 -11 -10 -22 -30 -26 -44 -9 -36 -83 -170 -107 -194 -20 -20 -20 -20 -44 3 -15 14 -37 62 -60 133 -46 142 -49 148 -82 144 -21 -2 -36 -19 -77 -90 -65 -113 -136 -203 -176 -223 -71 -37 -107 4 -179 200 -62 169 -71 185 -109 185 -42 0 -89 -58 -152 -189 -30 -61 -57 -111 -61 -111 -4 0 -12 19 -18 43 -42 164 -85 308 -101 340 -44 85 -93 100 -147 44z"/>
    <path d="M22755 22425 c-39 -17 -103 -78 -144 -139 -101 -146 -142 -376 -79 -443 80 -85 172 -68 338 64 47 38 97 73 112 80 26 12 27 11 33 -26 22 -132 151 -176 334 -116 85 28 107 49 78 70 -14 10 -29 10 -75 -1 -69 -16 -158 -18 -199 -3 -38 13 -60 56 -67 129 -17 176 -39 241 -107 315 -73 79 -149 103 -224 70z m164 -84 c46 -37 101 -138 101 -187 0 -45 -96 -147 -206 -220 -126 -83 -175 -94 -219 -49 -31 30 -33 82 -6 188 23 89 49 143 103 215 75 100 146 117 227 53z"/>
    <path d="M21485 22416 c-50 -16 -117 -50 -172 -87 -51 -35 -59 -36 -67 -4 -4 14 -24 37 -46 51 -34 23 -47 26 -87 20 -92 -12 -172 -94 -181 -185 -4 -42 -1 -50 19 -65 42 -29 102 -21 189 26 43 24 81 41 84 38 10 -11 -15 -145 -34 -185 -48 -100 -107 -129 -203 -101 -88 26 -136 91 -173 236 -22 88 -30 100 -63 100 -25 0 -38 -14 -101 -102 -172 -243 -265 -314 -299 -230 -6 15 -13 94 -14 176 -3 127 -5 149 -20 157 -9 6 -17 21 -17 35 0 110 -172 127 -275 28 -108 -103 -205 -295 -205 -404 0 -48 37 -94 86 -106 66 -17 168 76 296 269 39 59 73 107 76 107 2 0 1 -47 -3 -104 -8 -125 9 -202 51 -235 81 -64 194 22 347 262 31 48 61 87 66 87 5 0 12 -21 16 -47 16 -108 44 -174 98 -227 58 -58 104 -76 191 -76 78 0 125 26 169 92 39 59 57 133 57 233 0 51 4 65 23 81 44 39 104 75 160 94 96 34 154 23 181 -35 23 -48 31 -162 14 -210 -12 -38 -15 -40 -67 -47 -139 -20 -258 -149 -221 -239 33 -79 152 -27 271 120 l36 44 89 -41 c107 -49 130 -53 214 -43 69 8 68 10 -25 37 -33 9 -101 39 -151 67 l-91 50 13 53 c13 57 5 163 -16 219 -16 43 -59 84 -99 95 -45 13 -66 12 -116 -4z m-296 -92 c36 -46 28 -60 -59 -104 -78 -39 -132 -50 -145 -29 -11 17 3 55 32 90 61 72 135 90 172 43z m-955 -10 c19 -18 19 -19 6 -64 -5 -20 -26 -51 -45 -70 -39 -37 -43 -50 -19 -50 13 0 11 -8 -12 -37 -61 -82 -166 -192 -198 -207 -45 -21 -53 -20 -70 7 -14 20 -14 29 -1 77 35 134 154 313 230 346 41 18 90 17 109 -2z m1337 -353 c-34 -47 -132 -132 -150 -129 -27 5 -24 43 6 78 28 33 113 80 146 80 17 0 17 -2 -2 -29z"/>
    <path d="M14646 22412 c-3 -5 2 -12 13 -15 27 -7 31 -51 31 -327 0 -216 3 -250 19 -285 25 -54 53 -77 94 -77 50 0 83 29 167 147 41 58 78 105 83 105 4 0 7 -17 7 -37 1 -49 29 -110 69 -150 55 -55 151 -69 224 -32 61 32 162 138 250 264 145 209 269 272 317 162 29 -67 35 -153 15 -225 -16 -57 -20 -62 -46 -62 -107 0 -209 -63 -209 -129 0 -132 132 -134 231 -3 l41 54 42 -8 c22 -4 73 -8 111 -9 63 0 70 2 70 20 0 16 -14 25 -65 42 -36 12 -77 22 -92 22 -32 1 -33 2 -13 76 17 68 6 181 -24 250 -48 108 -167 112 -280 9 -24 -22 -81 -91 -128 -154 -99 -133 -150 -190 -212 -232 -59 -40 -97 -45 -153 -20 -70 31 -102 112 -82 210 7 35 52 58 133 69 98 13 166 70 185 155 15 66 11 90 -19 122 -77 83 -263 -45 -322 -220 -9 -27 -35 -69 -57 -94 -23 -25 -75 -89 -115 -143 -40 -54 -84 -105 -97 -114 -22 -14 -26 -14 -43 1 -30 27 -41 94 -41 243 -1 193 -15 332 -38 363 -20 26 -56 38 -66 22z m752 -133 c4 -50 -32 -99 -88 -120 -55 -21 -141 -41 -147 -35 -10 10 49 104 89 142 86 83 139 87 146 13z m463 -498 c-17 -30 -82 -82 -99 -79 -21 4 -28 44 -12 64 13 15 61 32 98 33 19 1 21 -2 13 -18z"/>
    <path d="M14555 22396 c-20 -14 -19 -21 17 -168 10 -42 23 -55 32 -32 7 18 -13 195 -23 207 -4 4 -16 1 -26 -7z"/>
    <path d="M17252 22278 c-5 -7 -29 -49 -52 -93 -62 -117 -140 -232 -202 -296 -45 -47 -59 -56 -80 -52 -44 8 -63 -55 -22 -71 56 -21 193 124 316 334 l38 65 0 -105 c0 -115 15 -165 62 -208 35 -32 93 -40 118 -17 27 24 25 33 -6 27 -33 -6 -90 47 -104 98 -5 19 -10 94 -10 167 0 72 -3 138 -6 147 -7 19 -37 21 -52 4z"/>
    <path d="M10834 22220 c-28 -63 -100 -140 -131 -140 -9 0 -40 16 -69 36 -61 42 -93 41 -120 -4 -79 -129 -161 -226 -199 -236 -59 -15 -100 49 -116 182 -10 81 -28 132 -47 132 -17 0 -50 -47 -68 -95 -49 -134 -142 -265 -189 -265 -48 0 -79 60 -126 250 -12 48 -18 55 -40 58 -25 3 -31 -5 -87 -121 -61 -125 -108 -187 -142 -187 -22 0 -49 65 -75 183 -18 82 -49 140 -79 145 -60 12 -104 -40 -159 -188 -20 -52 -38 -88 -40 -80 -3 8 -10 36 -16 63 -31 130 -77 204 -148 234 -74 30 -171 -25 -217 -123 l-27 -57 -19 31 c-23 38 -48 52 -92 52 -38 0 -83 -20 -77 -35 2 -5 26 -10 53 -10 42 0 52 -4 70 -28 19 -26 21 -42 22 -166 0 -76 4 -143 8 -149 12 -19 44 -14 57 10 8 15 10 57 5 137 -6 114 -6 117 22 176 52 108 137 151 202 103 44 -32 67 -81 104 -227 27 -107 35 -126 51 -126 21 0 26 12 77 174 28 92 70 161 97 161 26 0 35 -18 55 -115 34 -159 65 -215 118 -215 64 0 96 33 161 169 34 68 62 120 63 115 42 -188 65 -241 117 -273 97 -60 171 12 294 289 11 23 12 20 12 -24 1 -79 30 -164 68 -202 87 -88 173 -41 306 167 19 31 40 59 45 63 5 3 24 -6 43 -20 75 -56 123 -55 188 5 47 44 47 45 27 -89 -8 -52 -20 -142 -26 -200 l-13 -104 -56 -56 c-75 -74 -117 -140 -144 -225 -19 -60 -22 -93 -22 -230 0 -182 7 -230 36 -246 79 -42 117 52 204 514 21 114 39 185 50 197 15 17 145 75 255 114 83 30 190 95 190 116 0 11 -4 20 -9 20 -34 0 -381 -130 -406 -151 -36 -33 -35 -6 9 335 13 104 22 195 19 203 -3 7 -13 13 -24 13 -12 0 -26 -18 -45 -60z m-79 -682 c-3 -13 -16 -81 -30 -153 -46 -246 -87 -405 -105 -405 -13 0 -23 143 -17 249 6 120 33 198 92 274 48 60 69 72 60 35z"/>
    <path d="M19309 19740 c-117 -21 -252 -192 -293 -370 -8 -36 -18 -99 -22 -140 -6 -70 -10 -79 -49 -124 -58 -66 -86 -152 -93 -284 -4 -81 -1 -111 12 -146 52 -136 239 -186 396 -108 177 88 344 319 384 531 41 216 -4 436 -115 556 -63 68 -144 99 -220 85z m110 -69 c148 -76 223 -347 162 -583 -50 -194 -196 -383 -355 -461 -99 -49 -234 -30 -283 39 -30 42 -45 106 -38 166 18 153 44 221 104 275 32 29 34 34 19 45 -15 12 -15 20 -3 88 27 152 90 285 172 366 87 85 147 103 222 65z"/>
    <path d="M20522 19597 c-18 -21 -52 -104 -97 -237 l-42 -125 -60 -12 c-88 -18 -113 -29 -113 -53 0 -29 19 -33 86 -21 31 6 59 9 62 7 2 -3 -5 -53 -15 -113 -23 -128 -48 -172 -168 -294 -84 -85 -164 -134 -246 -149 -105 -20 -208 37 -227 125 -28 130 140 425 243 425 26 0 16 -38 -21 -80 -43 -47 -38 -62 12 -35 69 37 103 116 65 154 -43 43 -136 17 -202 -56 -134 -148 -199 -342 -155 -458 22 -56 91 -118 151 -135 77 -21 174 -8 253 36 91 49 126 79 202 168 l65 77 7 -85 c6 -87 16 -115 52 -154 50 -56 115 -64 170 -21 43 33 150 177 206 276 76 134 84 137 75 32 -8 -95 1 -143 37 -195 49 -71 135 -84 200 -29 45 37 120 127 170 202 44 66 56 75 38 27 -6 -16 -14 -65 -17 -109 -5 -71 -3 -83 16 -106 44 -56 103 -43 190 42 51 50 129 173 246 389 74 136 205 353 210 348 2 -2 -36 -83 -86 -181 -52 -103 -89 -189 -89 -206 0 -48 30 -62 115 -54 42 3 79 1 90 -5 17 -9 15 -12 -16 -27 -59 -31 -158 -105 -189 -143 -47 -57 -63 -117 -51 -193 16 -98 67 -152 143 -153 83 -1 180 70 228 165 25 49 30 70 30 132 0 41 -7 96 -15 123 -8 27 -15 50 -15 52 0 1 12 2 28 2 15 0 65 -22 112 -48 122 -68 173 -91 222 -98 50 -8 68 -19 68 -44 0 -32 84 -106 137 -121 75 -22 323 -19 391 4 63 22 172 93 172 112 0 24 -17 25 -63 5 -24 -11 -84 -29 -133 -41 -74 -18 -108 -20 -199 -16 -127 6 -178 19 -211 52 -35 35 -30 49 28 76 96 44 188 145 188 205 0 38 -29 64 -70 64 -61 0 -171 -102 -215 -199 l-19 -43 -46 6 c-25 3 -106 35 -180 71 -114 55 -143 65 -188 65 -40 0 -65 7 -98 26 -39 23 -53 26 -117 23 -44 -3 -71 0 -70 6 2 14 109 230 166 338 26 48 47 101 47 117 0 57 -54 57 -98 0 -27 -35 -126 -197 -149 -245 -86 -177 -255 -444 -324 -513 -47 -48 -94 -76 -109 -67 -23 14 -5 177 36 332 9 34 14 69 10 78 -11 30 -38 11 -57 -40 -24 -63 -160 -246 -235 -314 -94 -86 -134 -90 -174 -19 -22 38 -25 57 -28 175 -3 101 -7 133 -18 137 -22 8 -40 -3 -53 -31 -29 -64 -165 -255 -232 -326 -75 -79 -97 -89 -140 -67 -42 23 -53 67 -52 200 1 109 4 133 26 185 13 33 32 86 41 117 16 56 17 57 59 62 23 3 119 15 212 27 94 12 208 29 255 38 75 15 85 19 88 40 l4 23 -94 -7 c-51 -3 -151 -13 -223 -21 -247 -28 -255 -28 -255 -12 0 8 4 28 9 44 5 16 22 84 37 151 22 101 25 125 14 138 -15 18 -24 19 -38 2z m2228 -557 c0 -27 -75 -107 -123 -132 -21 -10 -41 -17 -44 -15 -13 14 67 121 111 148 40 24 56 24 56 -1z m-733 -137 c11 -25 17 -66 17 -115 0 -69 -4 -82 -34 -132 -19 -30 -53 -69 -77 -87 -92 -65 -162 -44 -183 56 -14 68 -1 122 41 170 47 54 176 142 212 144 4 1 15 -16 24 -36z"/>
    <path d="M17293 19528 c-48 -51 -138 -315 -170 -496 -15 -86 -18 -91 -29 -69 -24 46 -62 61 -151 62 -75 0 -85 -2 -124 -30 -94 -66 -151 -188 -153 -326 -1 -104 27 -143 121 -163 77 -17 175 46 272 173 29 39 55 71 56 71 2 0 12 -16 24 -35 45 -76 145 -98 234 -51 45 24 46 24 63 5 9 -10 33 -23 53 -29 86 -24 273 -1 280 35 3 17 -3 18 -65 12 -98 -9 -214 21 -214 55 0 5 24 37 53 71 65 77 129 191 162 288 39 115 31 159 -31 159 -50 0 -111 -61 -178 -178 -65 -115 -80 -154 -95 -253 -13 -82 -27 -102 -88 -118 -69 -19 -126 24 -138 104 -5 33 2 61 38 155 55 143 94 283 131 476 18 98 -4 133 -51 82z m-18 -220 c-29 -130 -84 -294 -85 -253 0 39 88 340 98 331 2 -3 -4 -38 -13 -78z m408 -102 c8 -19 -36 -139 -74 -202 -36 -59 -119 -167 -125 -162 -17 18 98 284 150 346 30 35 41 39 49 18z m-646 -259 c26 -25 19 -88 -17 -158 -34 -68 -33 -84 5 -49 14 13 25 20 25 16 0 -14 -144 -157 -172 -172 -55 -28 -134 -10 -145 34 -10 40 5 149 27 199 27 61 65 110 104 134 40 25 147 23 173 -4z"/>
    <path d="M8188 19443 c-14 -16 -35 -47 -47 -70 -33 -65 -89 -249 -116 -375 l-23 -113 -93 -88 c-95 -90 -168 -137 -214 -137 -22 0 -26 -4 -23 -22 2 -18 11 -24 35 -26 46 -5 126 40 213 118 l75 67 0 -131 c0 -124 2 -134 27 -183 97 -182 273 -176 402 15 51 76 74 146 80 247 l5 70 78 27 c95 34 111 34 123 6 6 -13 14 -97 18 -188 7 -143 11 -172 31 -213 49 -101 113 -146 207 -147 60 0 101 25 177 110 l48 53 22 -21 c36 -34 79 -45 124 -33 68 18 180 153 249 300 l27 56 13 -50 c34 -132 101 -218 195 -251 78 -27 276 -25 340 3 59 27 136 92 185 155 l39 52 6 -67 c11 -135 111 -200 241 -156 67 22 147 69 148 87 0 17 -18 15 -85 -8 -74 -25 -140 -26 -182 -1 -36 23 -53 81 -53 186 0 71 -17 94 -54 73 -17 -9 -18 -8 -12 8 4 10 10 44 13 74 4 46 1 60 -19 90 -69 102 -203 35 -312 -155 -50 -88 -81 -197 -73 -258 7 -49 -3 -53 -97 -34 -115 24 -165 66 -206 175 -35 92 -35 216 1 530 10 94 10 105 -5 120 -16 16 -18 16 -32 -2 -8 -11 -14 -36 -14 -55 0 -35 -29 -285 -36 -308 -2 -9 -14 -5 -39 11 -49 34 -136 51 -178 36 -58 -20 -104 -58 -145 -119 -22 -33 -42 -66 -45 -73 -2 -8 -20 5 -46 34 -111 125 -294 144 -331 34 -19 -58 -9 -78 17 -34 12 20 36 44 53 53 29 15 35 15 78 1 63 -22 122 -62 166 -115 29 -35 36 -50 31 -73 -19 -99 -13 -91 -59 -84 -22 3 -52 9 -66 12 -48 13 -6 -15 51 -34 49 -15 54 -20 57 -49 4 -43 -26 -99 -84 -156 -69 -66 -92 -74 -157 -51 -42 16 -58 28 -84 68 -43 63 -50 94 -61 261 -14 217 -34 239 -177 191 -44 -14 -84 -26 -90 -26 -5 0 -32 11 -59 25 -88 45 -176 22 -176 -45 0 -48 50 -62 159 -46 l53 8 -7 -43 c-24 -157 -95 -270 -207 -329 -21 -11 -50 -20 -65 -20 -43 0 -98 43 -124 97 -22 44 -24 59 -23 203 l1 155 57 83 c31 46 72 115 92 154 67 133 96 315 56 351 -26 24 -44 21 -74 -10z m47 -80 c-12 -84 -36 -165 -67 -227 -33 -65 -79 -138 -84 -133 -3 3 26 123 52 213 14 51 56 147 77 182 18 27 28 11 22 -35z m1296 -418 c110 -57 31 -220 -134 -279 -89 -31 -133 -40 -141 -28 -3 5 -6 34 -8 63 -3 85 62 204 137 251 35 22 95 19 146 -7z m811 -2 c28 -26 23 -89 -14 -164 -21 -44 -57 -89 -112 -144 -134 -133 -166 -137 -145 -19 21 119 114 275 194 325 37 23 53 24 77 2z m-1907 -86 c18 -10 15 -12 -25 -24 -50 -15 -100 -9 -100 12 0 30 76 38 125 12z m1943 -122 c-6 -14 -13 -23 -15 -21 -5 5 15 46 22 46 3 0 -1 -11 -7 -25z m-916 -137 c-50 -72 -117 -128 -154 -128 -37 0 -78 34 -78 64 1 58 7 63 88 68 47 3 95 13 122 25 25 11 47 19 48 17 2 -1 -10 -22 -26 -46z"/>
    <path d="M14697 19407 c-8 -12 -38 -70 -67 -127 -104 -207 -246 -406 -376 -529 -69 -65 -93 -81 -113 -79 -20 2 -27 -2 -29 -18 -4 -29 22 -48 54 -40 61 16 300 280 387 429 16 27 31 46 34 43 3 -2 -4 -33 -16 -68 -36 -111 -73 -290 -78 -383 -5 -82 -3 -92 17 -117 33 -42 68 -37 181 28 116 66 175 89 249 99 30 3 63 9 72 11 10 3 29 -8 48 -30 17 -19 55 -44 83 -56 46 -20 57 -21 100 -11 27 6 63 17 81 25 17 8 54 17 81 20 89 11 172 89 215 203 73 195 60 365 -36 473 -50 55 -110 80 -192 80 -51 0 -119 -30 -156 -69 -87 -90 -204 -371 -214 -512 -5 -76 2 -70 -106 -84 -57 -8 -184 -60 -269 -110 -76 -45 -91 -43 -95 15 -7 99 73 431 168 693 21 60 36 115 33 123 -8 21 -39 17 -56 -9z m761 -112 c60 -18 113 -73 136 -143 18 -52 20 -156 5 -222 -14 -64 -87 -210 -107 -216 -9 -3 -38 -14 -64 -25 -26 -10 -68 -19 -95 -19 -63 0 -214 27 -227 40 -22 22 -9 132 29 250 69 212 135 311 230 342 31 10 38 9 93 -7z"/>
    <path d="M12781 19391 c-28 -28 -78 -136 -106 -229 -24 -83 -45 -237 -45 -337 0 -47 -5 -60 -43 -111 -102 -138 -262 -254 -351 -254 -65 0 -122 36 -151 94 -32 63 -32 92 -2 100 30 7 82 59 114 114 26 44 62 173 63 224 0 29 -40 68 -69 68 -56 0 -145 -127 -176 -249 -10 -36 -19 -72 -21 -79 -3 -10 -10 -9 -34 4 -24 15 -32 16 -42 5 -11 -10 -5 -20 30 -50 26 -23 42 -45 42 -59 0 -40 39 -135 67 -165 63 -66 172 -93 258 -64 85 29 208 132 308 257 21 27 29 31 34 20 3 -8 22 -31 42 -52 53 -52 132 -74 219 -60 84 14 172 57 172 83 0 23 -12 24 -87 4 -73 -19 -116 -19 -181 0 -63 19 -86 43 -101 101 -11 42 -9 50 23 122 62 140 89 253 102 419 6 85 5 92 -14 102 -27 14 -29 14 -51 -8z m5 -224 c-9 -45 -27 -114 -41 -152 l-25 -70 4 80 c4 79 36 219 59 259 12 20 12 20 15 -6 2 -15 -4 -65 -12 -111z m-584 -173 c12 -11 -40 -172 -69 -215 -35 -51 -61 -75 -70 -66 -9 10 24 133 52 196 36 77 66 107 87 85z"/>
    <path d="M4877 19303 c-20 -39 -63 -204 -77 -294 l-12 -76 -86 -17 c-99 -20 -102 -21 -102 -46 0 -24 18 -30 71 -19 24 4 59 8 78 9 l34 0 -7 -92 c-8 -107 -36 -175 -112 -271 -74 -95 -153 -133 -235 -116 -27 6 -49 12 -49 14 0 1 18 39 40 83 41 82 61 157 53 195 -14 65 -27 88 -53 102 -78 40 -126 10 -365 -231 -157 -158 -208 -203 -235 -209 -53 -12 -70 16 -70 120 0 77 3 88 46 179 54 114 71 210 39 222 -10 4 -25 3 -34 -2 -27 -16 -79 -135 -92 -209 -15 -93 -26 -111 -118 -204 -62 -64 -88 -82 -127 -94 -121 -35 -186 41 -204 240 -13 130 -22 156 -53 151 -17 -2 -33 -25 -69 -95 -64 -126 -111 -195 -169 -247 -55 -49 -97 -64 -127 -45 -33 21 -44 57 -52 172 -4 60 -12 113 -18 119 -5 5 -20 8 -33 6 -19 -2 -35 -25 -82 -118 -120 -238 -174 -309 -215 -284 -43 26 -87 159 -98 294 -9 114 -24 150 -63 150 -60 0 -116 -78 -241 -334 l-87 -178 -6 62 c-4 35 -7 128 -7 207 0 172 -11 213 -59 213 -25 0 -42 -15 -111 -92 -44 -51 -102 -124 -127 -163 -25 -38 -62 -90 -82 -115 -20 -24 -70 -92 -111 -150 -52 -72 -82 -105 -95 -105 -31 0 -33 -51 -4 -60 19 -6 30 1 63 37 23 25 66 80 96 124 29 43 71 99 91 124 20 25 56 77 81 115 40 63 158 210 182 227 6 4 14 4 18 2 4 -3 8 -99 8 -213 0 -231 4 -267 31 -282 31 -16 56 6 91 84 118 263 237 461 266 443 7 -4 12 -34 12 -72 0 -128 52 -304 105 -354 12 -11 39 -23 59 -27 34 -5 40 -2 80 40 28 29 70 97 119 193 l75 149 6 -70 c4 -39 9 -84 12 -102 6 -39 60 -99 98 -109 40 -10 100 13 152 59 54 47 86 92 153 217 l51 95 0 -65 c1 -136 45 -247 116 -290 91 -57 200 -27 309 84 l63 64 4 -53 c11 -126 104 -162 210 -80 24 19 104 100 178 181 146 159 197 206 253 229 48 20 65 11 78 -38 14 -51 -2 -107 -59 -212 -38 -69 -39 -70 -87 -77 -62 -9 -103 -26 -115 -49 -14 -25 -12 -73 2 -87 30 -30 127 0 162 50 14 20 18 20 89 9 41 -7 87 -9 103 -5 84 20 173 92 232 187 34 56 37 58 45 36 30 -77 43 -100 72 -129 42 -41 105 -50 170 -25 63 23 159 125 253 265 l77 115 7 -67 c16 -170 94 -291 221 -346 41 -18 89 -15 152 9 44 16 81 44 170 127 123 117 188 173 221 190 19 10 23 7 45 -41 29 -63 113 -147 175 -176 25 -12 74 -29 108 -38 54 -14 65 -15 91 -2 59 28 45 44 -69 80 -122 38 -176 76 -240 169 -49 71 -75 86 -115 65 -16 -8 -31 -21 -34 -29 -3 -8 -15 -20 -26 -25 -20 -11 -20 -11 -1 31 10 24 24 73 31 110 11 59 10 70 -5 92 -20 32 -56 34 -102 5 -42 -25 -83 -84 -131 -184 -44 -93 -53 -154 -28 -191 17 -27 17 -27 -21 -61 -120 -105 -238 -93 -320 34 -36 54 -74 168 -74 219 0 49 -19 84 -46 84 -17 0 -33 -15 -60 -57 -48 -76 -153 -210 -195 -250 -57 -52 -110 -83 -145 -83 -68 0 -120 76 -131 195 -4 49 0 77 21 145 14 46 26 89 26 96 0 15 11 19 135 38 130 21 306 63 319 76 19 19 -10 27 -67 19 -28 -4 -79 -8 -112 -9 -33 0 -103 -9 -155 -20 -52 -10 -96 -17 -98 -15 -2 1 4 52 13 111 8 60 16 143 18 184 2 70 1 75 -20 78 -16 2 -26 -5 -36 -25z m0 -230 c-3 -10 -5 -2 -5 17 0 19 2 27 5 18 2 -10 2 -26 0 -35z m-10 -55 c-3 -7 -5 -2 -5 12 0 14 2 19 5 13 2 -7 2 -19 0 -25z m1183 -145 c0 -35 -28 -122 -54 -170 -34 -62 -101 -136 -118 -130 -23 8 -10 59 42 164 59 117 130 192 130 136z m-1814 -559 c-22 -16 -46 -19 -46 -5 0 10 52 31 60 24 3 -3 -4 -11 -14 -19z"/>
    <path d="M15431 16496 c-17 -35 -49 -82 -72 -105 -36 -36 -47 -41 -85 -41 -31 0 -44 -4 -44 -14 0 -18 22 -26 72 -26 36 0 47 6 95 53 29 30 54 51 54 48 5 -25 -4 -264 -17 -446 -13 -192 -44 -431 -59 -455 -3 -4 -31 -11 -62 -15 -163 -20 -260 -124 -271 -292 -10 -160 18 -233 92 -233 94 0 187 140 261 395 19 66 26 79 42 77 10 -2 113 -5 228 -7 207 -4 211 -4 251 20 47 28 76 60 154 169 l55 77 5 -83 c6 -92 19 -124 55 -138 62 -24 123 43 231 254 36 71 77 147 92 170 l26 41 7 -30 c4 -16 17 -77 29 -135 12 -58 34 -133 50 -167 33 -73 108 -156 164 -185 56 -29 152 -35 215 -14 27 9 67 16 88 16 26 0 54 10 84 29 54 34 73 55 137 149 52 76 55 77 66 27 18 -75 87 -134 157 -135 70 0 180 89 246 200 l32 55 1 -75 c1 -168 66 -286 146 -266 26 7 66 77 79 141 5 24 -1 19 -30 -28 -23 -36 -43 -57 -53 -55 -30 6 -54 105 -62 262 -6 116 -11 152 -24 164 -23 23 -43 8 -69 -53 -52 -120 -130 -221 -199 -256 -65 -33 -114 -20 -143 39 -28 58 -31 191 -7 282 11 41 37 162 58 268 38 195 38 227 4 227 -32 0 -87 -126 -110 -255 -7 -36 -14 -75 -16 -87 l-4 -22 -43 19 c-55 26 -91 25 -152 -4 -92 -42 -183 -174 -210 -303 -17 -83 -23 -206 -12 -250 l9 -33 -49 0 c-72 0 -116 16 -166 61 -60 53 -101 137 -133 274 -41 179 -45 190 -75 193 -24 3 -32 -6 -72 -70 -24 -40 -67 -117 -95 -170 -53 -103 -123 -203 -153 -218 -29 -16 -41 14 -48 118 -4 54 -11 103 -15 110 -14 23 -45 14 -52 -15 -10 -42 -147 -213 -188 -235 -11 -6 0 9 25 34 27 26 62 76 85 123 36 73 39 85 39 164 0 69 -4 94 -22 127 -66 123 -164 125 -242 4 -78 -121 -133 -362 -102 -450 l11 -33 -140 5 c-78 3 -143 7 -145 10 -3 2 4 49 15 104 18 93 24 158 50 544 11 163 13 370 4 394 -14 36 -43 17 -73 -48z m1884 -483 c42 -20 50 -43 42 -118 -9 -93 -97 -232 -198 -314 -85 -68 -104 -77 -125 -60 -14 12 -15 27 -10 107 9 117 27 179 77 264 39 66 81 108 129 127 35 14 45 13 85 -6z m-1332 -33 c81 -96 51 -264 -68 -383 -52 -51 -119 -92 -135 -82 -19 12 -30 80 -21 136 21 127 81 282 128 331 35 36 65 35 96 -2z m-623 -540 c0 -29 -67 -215 -102 -282 -61 -119 -136 -172 -158 -114 -16 43 -23 169 -11 212 26 97 102 167 199 184 67 11 72 11 72 0z"/>
    <path d="M13631 16441 c-102 -110 -230 -543 -208 -706 6 -44 6 -44 -61 -106 -137 -127 -225 -162 -306 -124 -49 23 -64 48 -72 117 -6 55 -6 57 22 71 62 32 110 114 121 205 4 37 2 52 -12 65 -72 73 -183 -93 -193 -289 -5 -104 6 -149 46 -190 106 -107 266 -75 427 85 l50 50 29 -55 c67 -128 203 -175 350 -120 75 29 146 73 146 92 0 18 -1 18 -80 -10 -37 -14 -95 -28 -128 -32 -108 -12 -195 45 -236 157 l-18 46 35 54 c83 131 134 261 167 429 28 145 36 255 20 275 -21 25 -69 19 -99 -14z m59 -73 c-1 -24 -5 -61 -9 -83 -5 -22 -16 -77 -25 -123 -23 -113 -127 -362 -152 -362 -20 0 36 308 76 424 22 66 88 186 101 186 5 0 9 -19 9 -42z m-615 -492 c-8 -41 -66 -137 -72 -119 -10 30 58 176 74 160 2 -3 1 -21 -2 -41z"/>
    <path d="M20973 16433 c-11 -21 -42 -101 -67 -178 -26 -77 -49 -146 -52 -154 -4 -11 -8 -11 -23 3 -30 27 -105 46 -141 36 -136 -39 -235 -216 -260 -464 -9 -90 -8 -110 6 -145 22 -56 56 -81 109 -81 58 0 107 41 211 175 13 17 16 17 21 5 12 -29 65 -69 100 -76 49 -9 225 50 345 117 50 28 91 49 92 47 18 -41 43 -69 81 -96 72 -49 143 -67 261 -67 97 1 106 3 178 38 41 21 99 60 128 87 51 46 52 49 36 66 -19 19 -32 15 -159 -56 -54 -31 -174 -53 -239 -45 -104 13 -210 71 -210 115 0 8 30 47 68 85 97 101 152 187 152 239 0 86 -53 90 -138 11 -71 -66 -126 -155 -149 -239 -9 -33 -21 -66 -27 -73 -24 -27 -187 -106 -287 -140 -97 -33 -108 -35 -135 -22 -58 28 -56 94 6 239 41 96 80 229 121 405 39 173 41 199 14 203 -15 2 -27 -8 -42 -35z m-191 -369 c42 -22 50 -44 33 -100 -7 -27 -21 -87 -30 -134 -12 -64 -24 -97 -50 -135 -55 -80 -120 -149 -160 -170 l-36 -20 -26 29 c-24 29 -25 33 -19 115 13 155 50 272 114 355 61 81 104 95 174 60z m778 12 c0 -21 -74 -127 -120 -171 -34 -32 -41 -36 -35 -18 11 40 54 109 96 157 42 47 59 57 59 32z"/>
    <path d="M4280 16200 c-56 -56 -138 -297 -159 -465 -6 -49 -11 -135 -11 -191 0 -97 -1 -103 -30 -143 -34 -47 -162 -135 -218 -151 -126 -35 -294 36 -343 145 -26 57 -24 77 17 116 90 87 142 176 130 224 -9 37 -59 59 -100 45 -66 -22 -109 -98 -124 -222 l-10 -76 -150 -164 c-83 -89 -161 -169 -173 -177 -54 -33 -64 42 -50 374 6 138 16 321 22 408 6 87 8 165 5 174 -4 8 -15 13 -28 11 -21 -3 -24 -10 -30 -83 -14 -151 -39 -340 -52 -395 -8 -30 -17 -68 -21 -85 l-7 -30 -21 26 c-36 44 -87 69 -140 69 -63 0 -97 -19 -141 -78 -47 -65 -68 -148 -70 -282 -1 -103 0 -108 27 -144 16 -20 44 -44 62 -53 102 -49 199 55 291 312 l33 90 0 -130 c1 -146 10 -190 46 -229 51 -55 112 -24 225 112 79 95 171 195 175 190 1 -2 13 -23 25 -47 43 -86 133 -148 254 -176 77 -18 145 -8 221 32 60 31 158 105 181 136 10 14 18 18 21 10 43 -113 180 -157 288 -94 64 38 164 118 172 137 8 22 -5 30 -28 16 -18 -12 -95 -54 -159 -89 -14 -7 -49 -13 -78 -13 -45 0 -58 4 -82 28 -15 16 -34 47 -41 70 -12 41 -11 46 29 130 64 134 90 211 117 347 33 163 37 285 11 314 -24 26 -60 27 -86 1z m60 -89 c0 -116 -56 -344 -115 -465 l-35 -71 5 114 c8 156 39 296 92 414 33 72 53 75 53 8z m-730 -404 c0 -25 -17 -54 -67 -110 l-33 -37 0 30 c0 17 6 46 14 64 27 66 86 102 86 53z m-763 -167 c46 -28 67 -73 59 -129 -3 -24 -13 -55 -21 -67 -8 -13 -15 -31 -15 -40 0 -53 -115 -204 -156 -204 -52 0 -84 54 -84 142 0 235 99 370 217 298z"/>
    <path d="M6065 16198 c-89 -46 -145 -124 -145 -203 0 -62 17 -115 36 -115 11 0 14 18 14 77 0 70 2 79 33 119 42 57 127 102 162 86 13 -6 31 -25 40 -41 23 -45 38 -175 31 -268 -11 -152 -103 -468 -182 -624 -13 -26 -20 -49 -17 -53 16 -15 34 -2 59 42 15 26 43 64 63 85 32 34 33 54 2 25 -12 -11 -13 -9 -6 7 34 88 78 231 106 340 27 108 32 148 31 235 -1 161 -29 262 -82 293 -38 23 -96 21 -145 -5z"/>
    <path d="M8520 16161 c-121 -77 -220 -242 -255 -422 -35 -187 -27 -318 27 -426 28 -55 116 -138 178 -165 71 -32 167 -35 240 -8 72 27 151 100 195 180 26 47 30 66 30 132 0 61 -4 82 -21 105 -27 38 -113 80 -180 89 -129 16 -300 -75 -387 -205 l-16 -23 -7 37 c-10 56 2 251 21 319 32 121 122 271 197 326 27 21 44 25 97 25 62 0 64 -1 101 -42 23 -26 42 -62 51 -95 8 -29 19 -52 24 -51 22 4 27 31 16 85 -15 71 -74 142 -129 158 -69 19 -133 12 -182 -19z m276 -602 c50 -16 79 -54 78 -103 -3 -135 -165 -280 -292 -261 -81 12 -166 64 -205 126 -25 39 -17 57 57 127 119 111 241 149 362 111z"/>
    <path d="M7547 16136 c-75 -28 -185 -152 -158 -179 9 -9 25 2 65 44 91 95 164 114 217 58 45 -49 62 -122 57 -253 -4 -95 -9 -122 -36 -191 -18 -44 -46 -104 -62 -133 l-31 -52 -31 16 c-38 20 -128 15 -175 -9 -41 -22 -77 -104 -68 -158 9 -52 39 -89 73 -89 46 1 109 36 161 91 27 28 54 48 60 45 6 -4 38 -42 70 -85 116 -151 207 -191 317 -136 45 22 140 106 104 92 -8 -3 -42 -17 -75 -31 -107 -46 -142 -34 -246 85 -35 41 -82 91 -104 112 -36 35 -38 40 -25 60 110 176 153 356 124 527 -26 150 -125 228 -237 186z m-7 -754 l21 -17 -31 -40 c-48 -61 -120 -104 -147 -87 -7 4 -15 25 -18 47 -7 48 21 101 57 108 54 10 97 6 118 -11z"/>
    <path d="M18151 16001 c-21 -21 -56 -119 -46 -129 7 -7 20 8 47 57 37 67 51 35 84 -189 13 -91 24 -168 24 -171 0 -3 11 -18 25 -33 30 -32 81 -35 118 -5 15 11 58 68 97 127 119 181 122 186 130 171 4 -8 15 -47 24 -88 20 -88 37 -130 77 -192 52 -82 118 -92 197 -29 54 43 86 87 142 193 19 37 38 67 43 67 4 0 7 -18 7 -40 0 -46 32 -137 61 -174 32 -41 96 -69 141 -63 42 6 142 67 158 97 13 25 8 25 -58 0 -71 -27 -114 -26 -150 5 -40 33 -60 87 -72 192 -7 63 -15 92 -29 106 -27 27 -54 15 -75 -36 -10 -23 -46 -86 -79 -139 -66 -108 -134 -171 -176 -166 -34 4 -73 64 -101 152 -44 142 -57 171 -82 185 -23 13 -29 13 -50 -1 -14 -9 -43 -47 -65 -85 -50 -82 -157 -218 -180 -227 -9 -4 -20 -3 -24 1 -4 4 -17 67 -28 138 -37 229 -63 295 -118 295 -13 0 -31 -8 -42 -19z"/>
    <path d="M6825 15974 c-45 -23 -81 -61 -134 -139 -75 -113 -121 -283 -121 -451 l0 -64 -72 47 c-57 37 -83 48 -125 51 -61 5 -130 -16 -159 -50 -19 -21 -19 -21 0 -15 50 19 110 29 140 24 19 -3 74 -32 122 -65 135 -91 201 -122 276 -129 124 -11 220 37 309 154 58 75 88 162 96 275 5 76 3 96 -17 150 -63 174 -205 270 -315 212z m134 -64 c47 -24 87 -69 117 -135 41 -87 30 -236 -25 -343 -76 -148 -215 -212 -356 -164 -44 15 -50 21 -57 52 -6 32 4 186 18 248 28 132 116 295 183 339 42 28 70 29 120 3z"/>
    <path d="M10429 15823 c-55 -50 -87 -116 -104 -216 -5 -34 -12 -41 -58 -63 -66 -30 -82 -31 -65 -4 18 28 2 36 -36 17 -45 -21 -56 -55 -26 -79 28 -22 34 -22 109 1 l61 19 0 -42 c0 -133 102 -259 196 -242 66 13 136 94 246 284 56 97 120 178 148 187 11 3 28 2 38 -4 25 -13 66 -108 94 -216 18 -68 29 -92 49 -108 41 -30 72 -8 132 93 172 295 187 314 187 243 0 -54 18 -160 37 -218 42 -129 128 -169 277 -127 62 18 89 43 69 63 -8 8 -30 7 -85 -6 -67 -16 -76 -16 -110 -2 -21 9 -46 30 -57 48 -21 34 -54 164 -66 258 -7 53 -31 91 -58 91 -31 0 -37 -8 -215 -294 -72 -114 -76 -117 -92 -59 -56 216 -104 293 -182 293 -55 -1 -118 -68 -223 -240 -84 -136 -131 -196 -167 -211 -59 -24 -92 -8 -131 66 -17 31 -21 56 -20 111 l1 72 70 68 c102 101 134 178 96 232 -24 34 -66 29 -115 -15z m68 -64 c-16 -38 -106 -141 -107 -122 0 24 47 118 74 147 35 37 53 23 33 -25z"/>
    <path d="M6723 13508 c-6 -7 -16 -44 -23 -83 -7 -38 -16 -77 -21 -86 -6 -13 -42 -18 -186 -28 -216 -15 -223 -16 -223 -41 0 -38 33 -43 223 -35 l179 7 -6 -279 c-3 -164 -10 -294 -16 -317 -23 -76 -109 -242 -150 -289 -51 -58 -86 -77 -140 -77 -55 0 -98 20 -142 66 -61 64 -63 80 -18 171 49 99 69 174 77 285 l6 87 -31 30 c-17 17 -38 31 -47 31 -33 0 -75 -31 -100 -75 -49 -82 -70 -291 -40 -390 13 -45 13 -50 -5 -75 -31 -43 -88 -82 -130 -87 -121 -17 -214 102 -270 344 -16 68 -34 131 -41 139 -7 8 -24 14 -38 12 -34 -4 -59 -51 -122 -229 -61 -174 -125 -323 -150 -345 -17 -15 -20 -15 -43 0 -42 27 -72 88 -177 355 -35 90 -57 121 -88 121 -44 0 -64 -39 -124 -235 -80 -261 -113 -325 -154 -299 -41 25 -94 136 -127 268 -19 70 -32 89 -59 80 -17 -5 -19 -3 -12 12 4 11 10 49 12 86 5 59 3 72 -21 111 -31 55 -91 87 -159 87 -41 0 -52 -5 -87 -40 -51 -51 -75 -100 -105 -213 -88 -334 -21 -597 153 -597 46 0 77 29 115 105 22 46 66 175 97 285 l13 45 22 -70 c53 -166 100 -225 180 -225 41 0 47 3 69 38 23 36 66 159 121 347 33 114 54 161 65 149 5 -5 30 -67 56 -139 67 -186 108 -268 152 -305 46 -38 74 -46 111 -31 45 19 81 96 171 370 74 224 91 246 105 136 20 -145 70 -275 137 -351 18 -20 55 -48 83 -60 89 -42 166 -28 245 43 49 44 53 45 63 27 15 -29 84 -92 120 -110 49 -26 156 -30 201 -9 79 38 162 153 227 319 l27 69 12 -39 c18 -56 73 -143 117 -186 56 -54 123 -81 219 -86 72 -4 89 -1 136 20 30 14 71 42 91 62 36 35 38 36 61 21 37 -25 170 -45 230 -35 56 9 123 33 175 64 l34 20 -6 -90 c-3 -49 -11 -150 -17 -224 -6 -74 -10 -178 -8 -230 3 -84 5 -95 22 -98 24 -5 46 23 46 59 0 50 36 146 127 338 63 132 170 288 215 312 31 17 44 -3 83 -127 53 -168 116 -230 195 -189 40 20 91 125 147 300 32 100 38 114 41 85 4 -57 34 -203 48 -236 17 -40 69 -84 99 -84 32 0 87 49 113 102 12 24 47 108 78 188 62 161 122 278 154 298 18 11 22 9 40 -20 11 -18 28 -53 37 -78 36 -96 105 -174 184 -209 44 -20 46 -23 52 -70 3 -28 21 -83 40 -123 73 -158 227 -221 341 -140 52 37 145 157 193 247 83 159 153 245 188 231 25 -9 45 -52 69 -147 32 -123 42 -148 74 -181 18 -20 36 -28 59 -28 52 0 94 48 161 185 62 126 147 265 162 265 5 0 11 -26 14 -57 16 -162 27 -209 67 -290 41 -87 73 -119 164 -165 48 -25 145 -34 202 -19 101 28 273 177 273 239 0 33 -16 27 -78 -29 -67 -59 -188 -120 -253 -127 -36 -3 -57 2 -106 26 -103 52 -152 133 -178 295 -9 51 -18 106 -20 123 -7 40 -41 84 -65 84 -10 0 -32 -11 -48 -25 -32 -27 -135 -191 -195 -310 -19 -38 -48 -82 -64 -98 -29 -27 -30 -27 -47 -8 -9 10 -31 67 -47 127 -34 119 -56 163 -94 188 -64 42 -126 3 -215 -137 -161 -252 -234 -337 -299 -352 -36 -8 -86 12 -133 53 -38 34 -87 133 -95 192 -5 35 -2 40 24 54 44 22 124 114 154 177 26 53 49 155 49 218 0 44 -38 81 -83 81 -41 0 -106 -52 -141 -113 -34 -58 -64 -158 -72 -233 -4 -36 -11 -67 -16 -70 -16 -10 -85 43 -116 88 -15 24 -45 78 -65 120 -54 114 -91 132 -152 76 -27 -25 -60 -87 -141 -267 -118 -262 -136 -294 -168 -289 -26 4 -58 94 -76 213 -17 115 -28 152 -48 160 -28 10 -56 -34 -93 -146 -19 -57 -56 -149 -84 -204 -75 -150 -101 -142 -166 52 -45 136 -81 182 -132 169 -65 -16 -171 -157 -287 -381 l-62 -120 6 75 c3 41 9 136 12 210 l7 135 49 59 c93 112 122 198 134 403 6 95 4 116 -10 138 -34 52 -90 24 -127 -63 -37 -85 -109 -399 -109 -472 0 -24 -9 -36 -41 -60 -90 -65 -224 -91 -324 -62 -69 20 -71 24 -47 80 37 86 53 163 58 287 5 104 3 125 -13 155 -38 74 -117 61 -165 -26 -33 -61 -47 -139 -50 -274 -3 -99 -1 -109 25 -159 l28 -54 -27 -28 c-41 -43 -102 -63 -177 -57 -134 11 -221 92 -274 252 -30 94 -33 160 -19 443 l9 182 41 6 c23 3 146 9 275 13 207 6 235 9 245 25 8 12 8 22 0 35 -10 15 -32 17 -250 15 -132 -2 -253 -5 -271 -8 l-32 -6 -3 93 c-2 75 -6 93 -19 96 -9 1 -20 -3 -26 -10z m1257 -490 c0 -150 -52 -330 -109 -382 -18 -17 -19 -16 -11 26 5 24 16 86 25 138 15 82 58 239 72 263 13 21 23 1 23 -45z m-603 -198 c-5 -104 -40 -243 -73 -287 -12 -16 -14 -14 -30 22 -13 33 -16 61 -11 155 6 137 20 200 54 237 l26 27 20 -25 c17 -22 19 -35 14 -129z m2290 134 c3 -9 -1 -52 -10 -95 -18 -91 -56 -160 -121 -215 l-41 -35 -3 56 c-7 127 81 305 150 305 10 0 21 -7 25 -16z m-3437 -128 c0 -71 -23 -161 -61 -240 -43 -90 -53 -71 -47 83 6 125 24 190 61 216 31 22 47 2 47 -59z m-1805 -72 c86 -40 91 -144 17 -294 -15 -30 -28 -58 -30 -62 -2 -5 3 -8 11 -8 14 0 51 48 80 105 l16 30 -5 -40 c-15 -110 -113 -377 -156 -422 -44 -46 -100 -18 -139 69 -46 105 -21 400 47 543 41 87 90 112 159 79z"/>
    <path d="M17855 13489 c-29 -36 -200 -372 -261 -514 -60 -142 -219 -319 -332 -369 -46 -21 -50 -39 -9 -44 40 -5 97 30 187 115 48 45 80 69 77 58 -15 -50 -27 -144 -27 -204 1 -90 29 -145 95 -188 71 -47 104 -51 168 -20 65 33 146 112 130 128 -8 8 -20 5 -45 -14 -81 -61 -139 -72 -196 -37 -78 48 -93 150 -48 335 33 134 36 142 110 254 66 98 161 288 212 419 21 55 25 78 17 90 -18 29 -48 26 -78 -9z"/>
    <path d="M21512 13494 c-32 -22 -28 -44 7 -44 28 0 30 -3 36 -52 4 -29 5 -207 3 -395 -3 -334 -3 -342 18 -370 25 -34 62 -48 99 -39 16 4 80 60 160 140 107 107 143 137 180 150 76 25 102 5 202 -159 36 -60 58 -85 86 -98 35 -18 39 -18 62 -3 37 24 40 57 22 206 -10 74 -17 172 -17 217 0 99 10 113 79 113 66 0 253 26 331 45 73 19 94 33 84 59 -6 16 -17 18 -103 12 -337 -23 -411 -35 -442 -75 -20 -25 -21 -33 -15 -166 4 -77 11 -167 17 -201 6 -33 9 -76 7 -95 l-3 -34 -69 94 c-73 98 -138 151 -185 151 -47 0 -145 -57 -226 -131 -174 -160 -199 -173 -209 -107 -3 18 -7 184 -9 368 -5 341 -10 389 -45 418 -21 16 -43 15 -70 -4z"/>
    <path d="M15078 13443 c-73 -79 -201 -443 -224 -638 -8 -72 -25 -107 -98 -203 -55 -72 -70 -112 -42 -112 8 0 38 29 66 65 28 36 55 63 60 60 4 -2 10 -28 14 -56 14 -103 61 -175 140 -217 45 -23 63 -27 146 -27 107 0 176 18 251 66 l46 29 69 -16 c108 -26 328 -24 420 4 78 24 139 60 139 82 0 19 -38 18 -135 -5 -78 -18 -341 -25 -389 -10 -21 6 -19 10 41 73 44 46 76 91 100 143 65 137 73 195 32 236 -49 49 -149 17 -232 -76 -89 -99 -162 -236 -162 -303 0 -18 9 -48 20 -65 l20 -33 -23 -14 c-39 -24 -158 -49 -213 -43 -64 7 -126 37 -154 77 -30 42 -50 121 -51 202 -1 63 1 71 50 151 122 203 190 410 191 583 0 77 -35 97 -82 47z m20 -140 c-10 -84 -30 -154 -78 -268 -34 -82 -80 -170 -80 -153 0 27 36 168 67 257 33 96 89 231 96 231 2 0 0 -30 -5 -67z m580 -425 c21 -21 13 -54 -38 -156 -41 -82 -62 -111 -112 -156 -34 -30 -73 -60 -86 -68 -21 -11 -26 -10 -38 7 -8 10 -14 29 -14 42 0 59 73 188 153 271 67 69 108 87 135 60z"/>
    <path d="M20800 13399 c-53 -18 -75 -32 -127 -85 l-63 -64 -30 21 c-26 20 -37 21 -107 16 -43 -3 -126 -15 -185 -27 l-108 -22 -35 31 c-42 36 -134 66 -178 57 -106 -21 -155 -124 -76 -156 35 -15 139 -15 189 0 19 5 47 10 62 10 25 0 29 -6 48 -67 17 -55 20 -81 14 -138 -12 -129 -57 -244 -126 -327 -70 -85 -149 -82 -199 6 -22 37 -24 52 -22 156 1 112 6 137 46 231 22 50 7 72 -27 40 -75 -71 -112 -350 -59 -455 47 -95 143 -133 225 -90 89 46 173 190 199 341 15 83 7 226 -15 277 -9 22 -14 41 -12 44 6 5 164 30 249 38 57 6 70 4 87 -11 25 -23 25 -51 1 -106 -11 -24 -25 -72 -31 -107 -10 -57 -9 -67 9 -106 17 -35 21 -62 21 -157 1 -175 41 -262 144 -314 115 -57 242 -16 386 124 62 60 87 93 115 154 38 79 65 209 65 312 0 66 -24 174 -48 221 -71 136 -254 204 -412 153z m207 -70 c144 -48 201 -179 175 -401 -23 -190 -112 -318 -287 -411 -110 -59 -225 -11 -260 107 -18 59 -20 235 -5 422 12 145 21 167 97 234 79 69 173 86 280 49z m-924 -74 c20 -9 37 -21 37 -25 0 -9 -102 -30 -151 -30 -76 0 -91 26 -36 61 38 24 92 22 150 -6z m477 -307 c0 -31 -3 -39 -11 -31 -7 7 -8 24 -4 42 9 43 15 39 15 -11z"/>
    <path d="M18469 13366 c-41 -14 -115 -71 -124 -94 -9 -23 12 -39 33 -24 83 59 117 72 177 70 54 -3 60 -5 69 -30 6 -18 5 -36 -4 -59 -18 -43 -117 -147 -194 -205 -33 -26 -61 -51 -61 -57 0 -6 20 -15 44 -19 121 -21 223 -184 225 -358 1 -62 -4 -84 -26 -130 -27 -53 -91 -128 -135 -157 -27 -18 -118 -43 -156 -43 -49 0 -103 35 -125 82 -37 76 -45 220 -16 292 15 38 -20 10 -43 -35 -21 -39 -23 -54 -20 -139 6 -137 36 -199 119 -241 60 -31 179 -20 263 23 47 25 121 106 156 171 54 101 51 239 -7 368 -29 65 -135 174 -179 185 -23 6 -36 24 -16 24 4 0 45 32 89 70 87 76 139 141 148 189 9 44 -13 99 -46 116 -35 18 -122 19 -171 1z"/>
    <path d="M3400 13339 c-131 -25 -237 -102 -288 -209 -22 -44 -27 -69 -26 -125 0 -78 22 -205 35 -205 17 0 18 19 7 107 -11 81 -10 98 7 154 24 80 83 142 175 187 92 44 146 50 189 20 77 -52 105 -141 99 -311 -4 -119 -13 -137 -67 -137 -45 0 -129 -46 -151 -82 -26 -43 -27 -118 -2 -141 54 -50 158 13 215 129 11 24 27 44 35 44 30 0 105 -46 154 -95 96 -95 168 -289 168 -451 0 -159 -108 -344 -253 -432 -74 -45 -191 -73 -312 -75 -86 -2 -107 1 -152 22 -83 37 -182 159 -183 224 0 11 -5 15 -11 11 -8 -4 -10 -27 -6 -64 16 -185 197 -286 449 -251 163 23 261 68 358 165 113 112 176 274 167 426 -15 256 -133 467 -308 547 l-60 28 8 40 c4 22 8 87 8 145 -1 126 -22 201 -72 260 -55 64 -106 83 -183 69z m138 -611 c-49 -87 -129 -126 -136 -66 -5 39 48 95 101 106 23 5 45 7 50 5 4 -3 -3 -23 -15 -45z"/>
    <path d="M3307 13149 c-38 -22 -42 -77 -40 -509 1 -228 6 -447 11 -486 11 -81 30 -129 52 -129 18 0 18 -19 5 623 l-8 453 21 6 c12 3 22 11 22 18 0 18 -43 35 -63 24z"/>
    <path d="M19180 12895 c0 -8 9 -15 20 -15 11 0 20 7 20 15 0 8 -9 15 -20 15 -11 0 -20 -7 -20 -15z"/>
    <path d="M13164 12760 c-11 -4 -44 -34 -72 -65 -96 -105 -183 -323 -166 -419 10 -60 59 -106 113 -106 78 0 173 70 271 199 l54 71 17 -63 c36 -136 71 -178 164 -197 55 -11 165 -5 165 10 0 4 -22 10 -50 13 -111 13 -159 64 -205 213 -28 91 -42 108 -84 102 l-30 -4 6 80 c5 74 3 84 -19 116 -13 19 -35 40 -48 47 -28 14 -85 16 -116 3z m110 -82 c18 -26 22 -143 6 -197 -6 -23 -6 -39 1 -47 15 -19 0 -41 -80 -117 -103 -97 -163 -110 -200 -45 -13 22 -12 34 2 94 23 94 87 221 143 283 38 42 52 51 79 51 24 0 39 -7 49 -22z"/>
    <path d="M19242 12648 c-7 -7 -12 -22 -12 -35 0 -30 35 -31 50 -2 21 38 -9 66 -38 37z"/>
    <path d="M12945 7910 c-44 -10 -96 -34 -145 -65 -33 -21 -40 -29 -29 -36 9 -5 10 -9 2 -9 -6 0 -13 -6 -16 -12 -2 -7 -3 -5 -2 5 5 27 -8 20 -63 -35 -29 -29 -73 -73 -97 -98 -33 -33 -43 -50 -39 -65 4 -14 3 -16 -4 -6 -12 17 -27 -3 -16 -21 4 -7 4 -10 -1 -6 -4 4 -16 -4 -27 -17 -30 -39 -29 -39 -103 73 -21 32 -93 102 -104 102 -7 0 -10 4 -6 9 10 17 -83 64 -125 64 -65 0 -160 -93 -147 -143 3 -11 0 -18 -6 -17 -10 2 -41 -82 -50 -139 -3 -16 -10 -41 -16 -56 -17 -45 -7 -417 14 -508 20 -88 51 -182 72 -223 21 -41 93 -118 104 -111 5 3 8 0 7 -7 -3 -13 44 -41 72 -44 8 -1 24 -5 36 -8 28 -10 173 19 194 38 9 8 21 15 26 15 11 1 71 55 106 98 16 19 25 39 22 50 -5 13 -4 14 4 3 7 -10 15 -6 36 21 28 37 34 54 14 42 -7 -4 -8 -3 -4 5 4 6 11 9 15 6 5 -2 29 22 53 54 55 71 70 96 60 106 -4 5 -2 5 4 2 6 -3 18 8 28 24 14 24 15 33 6 44 -8 9 -8 15 -2 15 6 0 12 -5 14 -12 5 -14 105 155 112 192 1 3 9 16 18 30 9 14 26 50 38 80 13 30 35 82 51 116 30 67 51 137 51 172 0 12 4 25 9 28 14 9 10 122 -6 159 -8 20 -21 38 -29 41 -9 3 -13 10 -10 15 6 10 -56 40 -78 38 -7 -1 -26 -4 -43 -9z m105 -30 c0 -5 -2 -10 -4 -10 -3 0 -8 5 -11 10 -3 6 -1 10 4 10 6 0 11 -4 11 -10z m-53 -16 c-3 -3 -12 -4 -19 -1 -8 3 -5 6 6 6 11 1 17 -2 13 -5z m-52 -14 c3 -5 1 -10 -4 -10 -6 0 -11 5 -11 10 0 6 2 10 4 10 3 0 8 -4 11 -10z m90 -70 c7 -48 0 -93 -31 -191 -22 -70 -24 -86 -13 -104 11 -18 11 -19 -4 -6 -16 12 -18 12 -16 -5 0 -4 -3 -10 -8 -13 -10 -7 -66 -126 -65 -138 0 -4 -5 -15 -13 -23 -7 -8 -25 -40 -40 -70 -27 -54 -83 -148 -132 -222 -14 -21 -22 -42 -17 -49 4 -8 3 -10 -4 -5 -6 4 -19 -6 -29 -21 -10 -15 -28 -39 -40 -53 -13 -14 -23 -28 -23 -32 0 -4 -29 -40 -63 -80 -35 -40 -62 -80 -60 -88 4 -13 3 -13 -6 0 -10 13 -13 13 -25 -2 -15 -21 -76 -44 -138 -53 -69 -10 -141 25 -182 87 -10 15 -23 25 -29 21 -5 -3 -7 -1 -3 5 3 6 0 28 -8 49 -13 33 -35 106 -41 138 -30 142 -40 315 -25 445 6 54 21 125 36 165 15 39 27 80 28 92 0 11 4 19 7 17 3 -2 16 8 28 22 18 20 28 25 49 20 15 -4 32 -7 39 -8 7 -1 10 -5 7 -9 -2 -5 10 -25 29 -46 18 -21 49 -60 67 -88 83 -124 98 -143 104 -138 3 4 6 0 6 -9 0 -19 34 -50 45 -41 4 5 5 2 1 -5 -11 -18 12 -42 32 -35 11 3 13 2 5 -4 -7 -5 -9 -13 -5 -19 6 -10 48 -36 62 -40 3 0 14 -4 24 -9 20 -9 46 15 46 43 0 22 -20 53 -30 47 -6 -4 -7 1 -3 11 4 12 3 15 -5 10 -8 -5 -10 -2 -6 8 4 9 -10 34 -33 62 -24 31 -34 49 -25 51 6 3 13 14 13 26 1 18 2 18 6 4 4 -14 16 -4 54 44 27 34 46 66 42 72 -3 5 -1 7 4 4 6 -4 41 21 78 56 94 87 168 136 230 153 51 13 72 1 80 -46z m-185 46 c0 -2 -7 -7 -16 -10 -8 -3 -12 -2 -9 4 6 10 25 14 25 6z m-623 -62 c-3 -3 -12 -4 -19 -1 -8 3 -5 6 6 6 11 1 17 -2 13 -5z m563 -8 c0 -2 -7 -7 -16 -10 -8 -3 -12 -2 -9 4 6 10 25 14 25 6z m-643 -22 c-3 -3 -12 -4 -19 -1 -8 3 -5 6 6 6 11 1 17 -2 13 -5z m53 -34 c0 -5 -2 -10 -4 -10 -3 0 -8 5 -11 10 -3 6 -1 10 4 10 6 0 11 -4 11 -10z m430 -98 c0 -4 -10 -13 -22 -21 -23 -14 -23 -14 -4 8 20 22 26 25 26 13z m-310 -12 c0 -5 -5 -10 -11 -10 -5 0 -7 5 -4 10 3 6 8 10 11 10 2 0 4 -4 4 -10z m747 -52 c-3 -8 -6 -5 -6 6 -1 11 2 17 5 13 3 -3 4 -12 1 -19z m-680 -40 c-3 -7 -5 -2 -5 12 0 14 2 19 5 13 2 -7 2 -19 0 -25z m114 -21 c-10 -9 -11 -8 -5 6 3 10 9 15 12 12 3 -3 0 -11 -7 -18z m-524 -149 c-3 -8 -6 -5 -6 6 -1 11 2 17 5 13 3 -3 4 -12 1 -19z m615 -43 c-2 -14 -6 -25 -8 -25 -2 0 -4 11 -4 25 0 14 4 25 9 25 4 0 6 -11 3 -25z m329 -68 c-10 -9 -11 -8 -5 6 3 10 9 15 12 12 3 -3 0 -11 -7 -18z m-944 -249 c-3 -8 -6 -5 -6 6 -1 11 2 17 5 13 3 -3 4 -12 1 -19z m733 -48 c0 -5 -2 -10 -4 -10 -3 0 -8 5 -11 10 -3 6 -1 10 4 10 6 0 11 -4 11 -10z m-12 -50 c-7 -10 -14 -17 -17 -15 -4 4 18 35 25 35 2 0 -1 -9 -8 -20z m-127 -163 c-10 -9 -11 -8 -5 6 3 10 9 15 12 12 3 -3 0 -11 -7 -18z m-481 -1 c0 -3 -4 -8 -10 -11 -5 -3 -10 -1 -10 4 0 6 5 11 10 11 6 0 10 -2 10 -4z m391 -64 c-7 -2 -18 1 -23 6 -8 8 -4 9 13 5 13 -4 18 -8 10 -11z" style="fill: rgb(197, 108, 77);"/>
  </g>
</svg>