<?xml version="1.0" encoding="utf-8"?>
<svg xmlns="http://www.w3.org/2000/svg" viewBox="-686.689 -965.892 2160.126 2431.784">
  <g transform="matrix(0.1, 0, 0, -0.1, -996.437622, 2112.083252)" fill="#000000" stroke="none">
    <path d="M10713 30265 c-25 -20 -34 -38 -43 -82 -14 -66 -19 -483 -7 -628 15 -191 37 -400 46 -438 5 -21 8 -77 6 -125 -2 -74 -9 -106 -49 -217 -25 -71 -44 -136 -41 -143 3 -7 1 -10 -4 -7 -5 3 -13 -5 -17 -17 -4 -13 -17 -45 -29 -73 -76 -166 -123 -288 -119 -303 4 -13 3 -14 -4 -4 -12 17 -68 -90 -57 -109 5 -7 4 -10 -2 -6 -8 5 -88 -126 -171 -283 -13 -25 -41 -67 -61 -95 -84 -112 -92 -126 -85 -137 4 -6 3 -8 -3 -5 -5 3 -37 -29 -70 -71 -34 -42 -73 -88 -87 -101 -14 -13 -23 -28 -19 -34 3 -6 2 -7 -3 -4 -6 3 -52 -30 -102 -74 -51 -43 -89 -79 -85 -80 4 -1 -3 -4 -17 -8 -32 -9 -40 -41 -10 -41 23 0 110 57 110 72 0 4 4 8 10 8 28 0 235 204 225 221 -5 7 -4 10 3 5 13 -8 122 128 187 233 6 9 12 18 15 21 31 28 237 413 303 565 79 184 107 257 101 267 -4 6 -3 8 2 5 6 -3 30 53 54 124 25 71 47 129 51 129 3 0 11 -37 17 -82 36 -265 51 -395 57 -488 10 -172 25 -333 36 -365 28 -90 104 -82 147 15 37 82 143 413 138 427 -3 8 -2 12 2 9 5 -3 17 21 26 52 10 31 31 86 47 121 16 35 29 69 29 76 0 7 7 18 15 25 9 7 14 19 11 27 -3 8 -2 12 3 9 4 -3 13 6 19 19 16 35 89 112 139 146 37 26 109 47 98 29 -2 -3 5 -14 15 -23 11 -9 34 -42 51 -72 24 -42 34 -53 41 -43 6 9 7 6 3 -9 -7 -25 62 -186 76 -177 5 3 6 -2 3 -10 -5 -12 93 -214 143 -293 36 -58 109 -137 151 -164 53 -34 137 -47 193 -30 21 7 39 16 39 22 0 6 4 8 9 5 8 -5 55 26 82 54 85 90 190 316 223 480 3 14 10 43 15 65 18 76 46 220 45 232 -1 6 4 9 11 7 7 -3 29 -44 50 -92 20 -48 43 -94 49 -102 7 -8 24 -35 38 -60 52 -90 163 -179 223 -180 52 0 134 91 165 184 6 20 14 35 17 32 3 -2 5 -218 5 -478 l1 -473 -26 -70 c-30 -83 -69 -221 -91 -325 -8 -41 -29 -138 -45 -215 -50 -231 -56 -287 -52 -450 1 -49 4 -66 11 -55 8 12 10 11 10 -6 0 -56 63 -52 99 6 49 81 143 734 145 1011 1 59 4 105 9 102 4 -2 7 5 7 16 0 11 5 23 10 26 6 3 10 13 10 22 0 9 7 24 16 34 9 10 17 29 18 42 0 14 3 24 6 22 3 -2 17 17 30 43 14 26 42 75 63 109 22 36 36 67 31 74 -4 7 -3 9 3 6 9 -6 73 72 73 89 0 4 7 12 16 19 14 10 14 16 5 36 -11 21 -10 22 2 7 13 -16 15 -16 36 6 13 14 20 29 17 35 -4 5 -1 13 5 17 8 5 10 2 5 -7 -4 -8 2 -3 13 10 12 12 18 28 14 34 -3 5 -1 7 4 4 6 -4 28 15 49 41 96 118 218 241 298 302 31 23 53 47 49 53 -3 6 -1 7 5 3 6 -4 43 10 83 29 59 30 71 33 66 18 -4 -10 -23 -65 -43 -122 -44 -127 -64 -277 -60 -446 4 -130 19 -202 60 -284 34 -67 97 -141 119 -141 6 0 15 -7 21 -16 7 -9 24 -17 38 -17 14 -1 24 -5 22 -8 -6 -11 109 -39 157 -39 24 0 62 5 84 11 107 28 251 101 238 121 -3 7 -1 8 6 4 13 -9 164 122 155 135 -3 5 2 6 10 3 19 -7 22 12 4 20 -7 2 -4 4 8 3 34 -3 159 149 202 245 20 47 16 68 -15 68 -24 0 -148 -142 -135 -154 4 -4 2 -6 -5 -4 -6 2 -38 -24 -70 -57 -122 -125 -208 -195 -294 -239 -99 -50 -181 -71 -242 -61 -65 11 -159 58 -191 96 -16 19 -33 33 -37 32 -5 -2 -5 5 -2 14 5 12 3 14 -7 8 -9 -5 -11 -4 -6 4 4 6 3 17 -3 24 -5 7 -19 46 -30 88 -22 78 -30 250 -17 339 4 25 9 63 12 85 11 87 52 210 95 290 20 36 39 56 70 71 24 13 36 23 28 26 -8 3 0 5 16 5 38 0 145 69 156 100 10 26 -19 63 -48 63 -43 0 -151 -59 -136 -74 3 -3 1 -6 -5 -6 -7 0 -28 -17 -47 -39 -19 -21 -55 -46 -80 -55 -25 -10 -43 -22 -40 -27 4 -5 0 -6 -8 -4 -17 7 -69 -19 -59 -30 4 -5 1 -5 -6 -1 -7 4 -25 -2 -41 -13 -16 -12 -32 -21 -35 -21 -14 0 -44 -34 -39 -43 3 -6 1 -7 -5 -3 -16 10 -102 -56 -97 -73 4 -8 0 -11 -10 -8 -20 8 -28 -8 -16 -31 7 -14 6 -19 -4 -19 -7 0 -11 6 -8 14 8 21 -3 15 -43 -22 -20 -19 -34 -35 -31 -35 2 0 -16 -21 -42 -47 -46 -47 -168 -195 -264 -320 -55 -72 -147 -228 -147 -249 0 -9 -3 -13 -8 -10 -4 2 -16 -16 -26 -40 -20 -48 -31 -55 -39 -24 -3 11 -1 18 4 14 5 -3 9 238 9 594 0 539 -2 601 -16 613 -24 20 -41 -9 -43 -77 -2 -63 -7 -103 -22 -181 -6 -29 -7 -58 -3 -64 4 -8 3 -9 -4 -5 -8 5 -12 0 -12 -12 0 -11 -7 -36 -15 -56 -9 -20 -13 -42 -9 -48 4 -6 3 -8 -3 -5 -11 7 -36 -43 -36 -69 0 -8 -2 -12 -5 -10 -2 3 -16 -10 -32 -27 -20 -23 -25 -34 -17 -40 7 -5 4 -6 -8 -3 -11 2 -34 7 -52 11 -18 4 -49 24 -71 45 -22 22 -43 36 -47 32 -5 -4 -5 -2 -2 4 8 14 -81 150 -95 146 -5 -1 -7 2 -4 7 8 12 -35 110 -65 152 -16 22 -28 29 -47 27 -37 -4 -65 -63 -91 -193 -35 -173 -69 -282 -123 -390 -28 -55 -54 -105 -60 -112 -5 -7 -6 -18 -2 -24 4 -7 3 -9 -3 -6 -6 4 -16 0 -23 -8 -7 -8 -9 -15 -6 -15 4 0 -9 -14 -29 -31 -30 -27 -34 -34 -23 -48 11 -14 11 -14 -4 -3 -13 11 -22 10 -50 -8 -49 -30 -124 -27 -174 6 -70 47 -108 96 -191 246 -33 60 -64 105 -68 100 -5 -4 -5 -2 -1 5 3 6 1 23 -5 37 -10 22 -15 24 -28 13 -14 -10 -14 -10 -3 5 11 14 3 36 -51 150 -109 228 -169 268 -287 193 -30 -19 -53 -35 -49 -35 3 0 -17 -23 -43 -51 -49 -52 -153 -243 -142 -260 3 -5 1 -9 -5 -9 -6 0 -16 -19 -22 -42 -7 -24 -16 -47 -19 -53 -4 -5 -22 -57 -39 -115 -18 -58 -37 -113 -42 -123 -5 -10 -7 -22 -4 -27 4 -6 1 -10 -5 -10 -7 0 -9 -7 -6 -16 3 -8 2 -13 -3 -10 -8 5 -49 -115 -42 -123 1 -2 -1 -7 -6 -10 -13 -10 -44 -82 -38 -91 7 -11 -23 -6 -34 6 -9 8 -17 83 -42 389 -12 146 -46 422 -54 435 -3 5 -8 40 -11 77 -3 38 -7 75 -10 83 -12 35 -15 146 -5 184 6 22 13 59 15 81 2 22 13 106 25 187 28 198 35 318 35 608 1 268 -2 283 -60 329 -35 27 -52 26 -91 -4z m68 -25 c35 -19 52 -70 57 -170 6 -128 -14 -522 -33 -642 -8 -54 -14 -101 -13 -105 1 -5 -1 -19 -5 -33 -3 -14 -9 -46 -12 -73 -11 -87 -25 -42 -41 133 -18 209 -24 347 -24 581 0 263 1 276 20 297 24 25 25 25 51 12z m67 -71 c-3 -20 -5 -19 -9 9 -3 20 -2 29 4 23 5 -5 7 -19 5 -32z m-1 -551 c-3 -8 -6 -5 -6 6 -1 11 2 17 5 13 3 -3 4 -12 1 -19z m640 -744 c-3 -3 -12 -4 -19 -1 -8 3 -5 6 6 6 11 1 17 -2 13 -5z m2760 -20 c-3 -3 -12 -4 -19 -1 -8 3 -5 6 6 6 11 1 17 -2 13 -5z m-35 -56 c-7 -7 -12 -8 -12 -2 0 14 12 26 19 19 2 -3 -1 -11 -7 -17z m-157 -8 c-3 -5 -12 -10 -18 -10 -7 0 -6 4 3 10 19 12 23 12 15 0z m-2725 -29 c0 -6 -4 -12 -8 -15 -5 -3 -9 1 -9 9 0 8 4 15 9 15 4 0 8 -4 8 -9z m1388 -16 c-3 -3 -9 2 -12 12 -6 14 -5 15 5 6 7 -7 10 -15 7 -18z m1446 -1 c3 -8 2 -12 -4 -9 -6 3 -10 10 -10 16 0 14 7 11 14 -7z m-264 -64 c0 -5 -2 -10 -4 -10 -3 0 -8 5 -11 10 -3 6 -1 10 4 10 6 0 11 -4 11 -10z m-966 -179 c4 -5 -3 -7 -14 -4 -23 6 -26 13 -6 13 8 0 17 -4 20 -9z m-2097 -323 c-3 -8 -6 -5 -6 6 -1 11 2 17 5 13 3 -3 4 -12 1 -19z m1173 -78 c0 -5 -4 -10 -10 -10 -5 0 -10 5 -10 10 0 6 5 10 10 10 6 0 10 -4 10 -10z m1393 -15 c-3 -9 -8 -14 -10 -11 -3 3 -2 9 2 15 9 16 15 13 8 -4z m1481 -91 c3 -8 2 -12 -4 -9 -6 3 -10 10 -10 16 0 14 7 11 14 -7z m-1667 -16 c-3 -8 -6 -5 -6 6 -1 11 2 17 5 13 3 -3 4 -12 1 -19z m-2904 -23 c-3 -9 -8 -14 -10 -11 -3 3 -2 9 2 15 9 16 15 13 8 -4z m4537 -35 c0 -5 -4 -10 -10 -10 -5 0 -10 5 -10 10 0 6 5 10 10 10 6 0 10 -4 10 -10z m-440 -100 c8 -5 11 -10 5 -10 -5 0 -17 5 -25 10 -8 5 -10 10 -5 10 6 0 17 -5 25 -10z m-1263 -432 c-3 -51 -13 -142 -21 -203 -8 -60 -17 -137 -21 -169 -3 -32 -7 -62 -10 -65 -2 -4 -11 -49 -19 -101 -14 -84 -26 -139 -43 -204 -4 -15 -8 -13 -24 13 -10 17 -19 37 -18 44 0 6 4 3 8 -8 5 -13 11 23 15 95 10 174 11 185 16 190 3 3 14 48 24 100 23 116 75 358 82 383 12 39 16 12 11 -75z m20 -220 c-3 -8 -6 -5 -6 6 -1 11 2 17 5 13 3 -3 4 -12 1 -19z m-160 -190 c-3 -8 -6 -5 -6 6 -1 11 2 17 5 13 3 -3 4 -12 1 -19z" style="fill: rgb(197, 108, 77);"/>
    <path d="M6446 22627 c-21 -30 -32 -99 -46 -272 -20 -244 -27 -281 -67 -354 -49 -89 -90 -149 -126 -188 -17 -18 -28 -35 -26 -38 9 -9 78 66 119 128 21 34 47 71 55 82 15 19 16 18 11 -15 -3 -19 -10 -87 -15 -150 -5 -63 -15 -145 -21 -181 -14 -81 -10 -134 9 -134 8 0 40 43 70 96 48 83 130 206 173 260 20 24 53 39 67 29 9 -5 16 -48 21 -141 4 -74 13 -150 20 -169 29 -80 113 -136 191 -127 67 8 163 60 229 123 31 30 64 54 73 54 9 0 34 -27 56 -59 30 -44 48 -61 72 -66 42 -9 47 0 15 26 -14 11 -36 39 -47 60 -42 84 -77 97 -136 52 l-35 -27 35 69 c99 198 61 366 -55 245 -75 -80 -168 -311 -154 -386 6 -32 5 -33 -33 -45 -32 -9 -46 -9 -71 1 -86 36 -109 81 -121 243 -10 140 -21 171 -65 175 -42 4 -79 -35 -192 -203 -95 -141 -102 -143 -84 -21 6 39 16 134 22 211 9 117 17 159 50 260 37 115 61 232 59 292 -1 15 -11 -17 -24 -72 -12 -55 -30 -122 -39 -150 l-16 -50 5 110 c10 190 21 289 34 313 13 24 36 29 45 10 3 -7 5 -4 3 7 -3 30 -42 31 -61 2z m721 -703 c11 -30 -18 -148 -53 -214 -38 -73 -121 -173 -135 -164 -36 22 48 246 134 357 31 40 44 46 54 21z"/>
    <path d="M13679 22562 c-47 -44 -66 -95 -104 -272 -18 -85 -28 -171 -32 -270 l-6 -145 -38 -36 c-57 -53 -86 -66 -111 -50 -24 15 -36 6 -22 -17 20 -31 66 -26 116 13 26 19 50 35 54 35 4 0 4 -75 1 -166 l-6 -166 -46 -49 c-59 -63 -85 -120 -84 -184 3 -109 28 -148 72 -107 27 26 49 92 71 212 19 105 33 119 204 206 l121 62 23 -46 c32 -64 65 -85 141 -90 82 -5 143 24 227 108 33 33 62 60 65 60 3 0 5 -11 5 -24 0 -55 15 -91 56 -134 42 -43 45 -44 93 -40 32 3 66 16 98 36 48 31 135 128 189 212 27 42 29 43 32 20 9 -73 50 -130 94 -130 15 0 28 5 28 10 0 6 -7 10 -16 10 -26 0 -54 80 -55 159 -1 44 -6 74 -14 81 -7 6 -16 7 -19 2 -3 -5 -20 -36 -38 -70 -68 -126 -214 -274 -286 -288 -39 -8 -75 13 -99 59 -27 52 -22 171 12 237 53 105 73 212 102 541 6 73 -5 93 -36 65 -40 -36 -120 -388 -137 -601 l-6 -80 -82 -80 c-44 -45 -97 -89 -118 -98 -80 -37 -175 -10 -204 58 -13 33 -10 65 6 65 5 0 33 23 63 50 61 55 107 136 107 185 0 40 -39 99 -67 103 -58 8 -137 -120 -149 -243 -4 -39 -10 -77 -15 -86 -4 -9 -54 -39 -111 -67 -57 -28 -122 -63 -146 -78 l-44 -26 4 178 3 179 48 80 c61 103 112 261 143 443 27 157 23 186 -24 203 -19 7 -30 2 -63 -29z m75 -18 c12 -30 -32 -266 -74 -392 -31 -96 -57 -153 -85 -187 -41 -49 12 393 61 512 29 70 83 107 98 67z m722 -266 c-4 -35 -11 -106 -17 -158 -9 -95 -52 -266 -71 -285 -7 -7 -8 7 -3 45 12 103 46 305 59 355 8 28 17 62 20 78 12 50 19 28 12 -35z m-422 -320 c21 -29 20 -64 -3 -114 -20 -43 -76 -105 -112 -125 -22 -11 -22 -10 -17 53 6 66 41 151 78 188 26 26 35 25 54 -2z m-548 -598 c-10 -73 -46 -184 -56 -174 -17 17 -14 118 5 154 17 35 44 70 53 70 2 0 2 -23 -2 -50z"/>
    <path d="M3836 22448 c-2 -7 -9 -38 -15 -69 -8 -36 -20 -63 -35 -76 -32 -28 -97 -203 -191 -518 -15 -49 -36 -117 -46 -149 -24 -75 -25 -119 -3 -114 9 2 20 10 25 18 11 22 139 384 189 538 24 72 47 132 50 132 4 0 14 -37 23 -83 23 -115 110 -377 155 -467 42 -84 85 -120 121 -100 32 17 59 80 87 203 15 62 32 137 39 167 33 146 80 305 110 373 4 10 3 17 -3 17 -35 0 -107 -208 -183 -530 -44 -186 -62 -217 -102 -172 -43 47 -145 321 -182 487 -9 44 -23 102 -30 128 -12 43 -11 57 7 122 20 73 19 105 -2 105 -6 0 -12 -6 -14 -12z"/>
    <path d="M19431 22416 c-19 -20 -24 -42 -32 -123 -5 -54 -13 -129 -19 -168 -5 -38 -9 -96 -10 -127 0 -65 -13 -78 -73 -78 -47 0 -97 -19 -97 -37 0 -13 10 -14 63 -9 34 4 71 8 81 9 19 2 20 -4 17 -124 -3 -143 5 -219 24 -219 23 0 29 33 35 195 l5 160 82 21 c46 11 86 24 90 29 5 4 -34 5 -86 2 l-94 -6 6 112 c15 254 24 337 41 356 15 16 13 31 -4 31 -4 0 -17 -11 -29 -24z"/>
    <path d="M21259 22196 c-75 -21 -150 -60 -228 -119 l-75 -56 -13 37 c-6 20 -26 49 -43 65 -41 36 -85 36 -136 -2 -50 -36 -66 -55 -98 -116 -47 -90 -29 -165 40 -165 35 0 107 35 148 70 41 36 51 35 42 -7 -12 -55 -63 -129 -100 -147 -35 -17 -38 -16 -96 10 -70 31 -95 26 -151 -32 -54 -56 -97 -40 -124 48 -21 70 -35 94 -66 112 -20 12 -34 14 -46 7 -27 -14 -85 -78 -133 -146 -54 -76 -120 -145 -138 -145 -12 0 -14 22 -10 133 3 72 8 139 12 147 3 8 1 22 -4 30 -16 26 -45 -13 -46 -63 0 -23 -4 -87 -8 -142 -8 -94 -7 -101 13 -122 48 -51 94 -20 195 132 67 101 110 148 133 143 20 -4 46 -52 63 -117 15 -56 52 -91 97 -91 27 0 45 10 84 47 l51 47 31 -18 c71 -42 88 -48 122 -42 73 14 142 112 164 231 6 32 12 59 13 60 2 1 40 30 86 64 118 87 170 112 247 119 73 5 97 -7 120 -63 37 -89 26 -185 -34 -282 -31 -50 -32 -50 -92 -57 -79 -8 -137 -40 -166 -91 -30 -53 -29 -90 3 -121 19 -20 31 -24 52 -19 29 7 120 90 155 143 l22 33 93 -7 c64 -4 92 -3 92 5 0 13 -43 36 -98 51 l-43 11 22 37 c31 52 59 139 59 181 0 46 -24 135 -44 166 -30 46 -94 62 -167 41z m-373 -101 c20 -20 25 -33 22 -67 -3 -38 -9 -46 -66 -89 -95 -74 -172 -86 -172 -27 0 29 55 130 87 159 60 55 92 61 129 24z m404 -392 c-1 -16 -118 -133 -133 -133 -28 0 -40 36 -23 68 18 35 37 51 73 62 36 11 83 12 83 3z"/>
    <path d="M22910 22198 c-55 -18 -159 -130 -203 -219 -41 -81 -65 -186 -53 -232 3 -15 19 -41 34 -58 56 -62 124 -37 254 92 l69 70 -6 -68 c-7 -82 4 -108 60 -140 68 -38 142 -32 251 21 90 44 216 136 222 162 5 20 -6 18 -57 -15 -25 -16 -91 -51 -146 -78 -85 -41 -108 -48 -160 -48 -85 0 -115 20 -115 79 0 24 9 73 20 108 22 71 25 98 9 98 -6 0 -56 -46 -112 -103 -103 -104 -185 -167 -219 -167 -10 0 -28 10 -39 21 -71 71 66 371 196 430 63 29 116 24 136 -12 13 -26 -9 -66 -77 -140 -30 -32 -54 -61 -54 -64 0 -23 134 95 155 136 37 71 1 130 -82 135 -26 2 -64 -2 -83 -8z"/>
    <path d="M4895 22146 c-26 -11 -127 -113 -168 -170 -13 -18 -15 -16 -21 25 -17 117 -121 183 -189 121 -10 -9 -29 -35 -40 -57 -19 -36 -21 -58 -21 -205 -1 -153 1 -168 22 -208 68 -127 177 -40 217 173 18 91 18 92 113 201 82 94 118 113 156 83 32 -25 48 -94 50 -222 1 -128 -5 -141 -72 -144 -94 -3 -140 -49 -110 -109 28 -58 73 -57 139 3 l40 36 57 -27 c35 -17 70 -26 87 -24 l30 3 -35 18 c-19 10 -54 35 -77 56 -41 37 -42 40 -32 71 8 20 10 76 7 153 -6 141 -24 199 -69 222 -34 18 -45 18 -84 1z m-279 -41 c32 -22 54 -77 54 -135 0 -62 -10 -82 -54 -109 -43 -27 -80 -27 -107 0 -19 19 -21 29 -16 94 6 79 35 150 64 158 31 8 38 7 59 -8z m17 -365 c-31 -81 -71 -123 -97 -101 -27 22 -46 79 -46 135 0 55 0 55 26 46 38 -15 76 -12 109 8 28 18 30 18 33 2 2 -10 -10 -50 -25 -90z m327 -58 c0 -11 -41 -48 -61 -55 -31 -10 -56 44 -26 56 20 9 87 8 87 -1z"/>
    <path d="M15063 22121 c-10 -15 -9 -20 1 -24 9 -4 15 -40 19 -121 7 -113 36 -266 59 -309 16 -30 39 -46 67 -47 17 0 47 24 105 85 74 78 130 125 149 125 4 0 7 -34 7 -76 0 -74 1 -78 34 -109 38 -35 89 -50 139 -40 88 19 222 129 384 317 68 79 90 98 118 104 40 7 58 -4 82 -50 21 -41 22 -167 1 -226 -31 -87 -40 -100 -67 -100 -37 0 -89 -35 -97 -65 -8 -34 19 -75 51 -75 24 0 43 14 69 52 14 19 19 20 63 10 225 -48 243 -50 243 -18 0 16 -32 29 -153 61 -48 12 -90 25 -94 28 -3 3 7 40 21 82 59 171 13 345 -92 345 -55 0 -91 -25 -173 -120 -226 -261 -368 -349 -457 -283 -37 27 -46 59 -38 126 l7 57 57 15 c141 39 183 67 184 124 1 38 -31 76 -79 92 -30 10 -40 8 -81 -13 -50 -26 -108 -105 -114 -156 -2 -18 -17 -35 -45 -54 -23 -16 -79 -67 -126 -113 -46 -47 -91 -85 -99 -85 -20 0 -53 77 -67 155 -20 117 -31 204 -31 245 0 41 -14 80 -28 80 -4 0 -13 -9 -19 -19z m617 -76 c76 -39 50 -92 -62 -126 -39 -11 -77 -23 -84 -26 -10 -4 -14 3 -14 24 0 39 52 110 93 128 40 18 33 18 67 0z m460 -475 c-6 -11 -15 -20 -20 -20 -14 0 -12 27 3 33 23 10 28 7 17 -13z"/>
    <path d="M19869 22117 c-57 -38 -134 -151 -173 -254 -74 -192 -63 -300 31 -319 26 -5 37 0 73 32 23 21 61 63 85 94 44 57 100 159 92 166 -3 3 -29 -30 -60 -73 -75 -106 -147 -176 -178 -171 -40 5 -50 42 -34 123 26 139 95 277 173 348 46 40 81 47 107 20 17 -16 17 -52 -1 -110 -3 -13 -2 -23 3 -23 18 0 43 60 43 103 0 37 -5 49 -26 66 -36 28 -92 27 -135 -2z"/>
    <path d="M7746 22102 c-8 -16 -27 -87 -42 -158 -35 -170 -40 -389 -10 -423 41 -46 84 -23 182 96 83 101 136 144 198 161 l39 11 -6 -60 c-7 -75 6 -120 45 -164 62 -71 209 -85 321 -31 64 31 247 201 247 230 0 9 -2 16 -5 16 -9 0 -108 -72 -154 -112 -24 -21 -74 -53 -110 -71 -55 -27 -76 -32 -131 -31 -119 2 -160 41 -160 152 l0 69 40 7 c63 10 149 55 165 87 22 41 19 122 -3 142 -21 20 -54 22 -85 6 -35 -18 -104 -99 -128 -152 -16 -34 -30 -49 -48 -53 -77 -16 -116 -39 -188 -113 -42 -42 -91 -95 -111 -119 -24 -30 -42 -42 -56 -40 -20 3 -21 8 -20 158 1 137 5 169 32 279 17 68 29 128 26 133 -10 15 -23 8 -38 -20z m588 -98 c18 -7 21 -47 6 -91 -8 -23 -23 -34 -63 -51 -80 -32 -97 -35 -97 -20 0 25 59 116 92 142 36 28 39 29 62 20z"/>
    <path d="M18082 22068 c9 -42 99 -340 115 -382 20 -52 60 -106 78 -106 24 0 60 55 109 168 72 165 109 189 136 84 53 -207 95 -282 158 -282 72 0 98 30 168 195 26 61 49 112 51 114 7 9 15 -11 34 -85 31 -126 92 -199 145 -175 26 12 28 35 3 37 -8 0 -19 2 -26 2 -15 2 -78 134 -87 181 -8 46 -32 81 -55 81 -14 0 -33 -29 -74 -112 -55 -112 -116 -198 -141 -198 -45 0 -86 75 -136 247 -26 92 -52 115 -100 86 -24 -14 -48 -51 -101 -155 -38 -76 -74 -138 -79 -138 -18 0 -57 94 -105 250 -26 85 -54 167 -61 183 -17 33 -38 36 -32 5z"/>
    <path d="M19070 22068 c0 -19 48 -64 57 -54 10 9 -8 36 -35 54 -19 13 -22 13 -22 0z"/>
    <path d="M10264 22050 c-34 -14 -75 -70 -123 -170 l-46 -95 -5 92 c-4 77 -9 96 -27 114 -14 15 -27 19 -40 15 -16 -7 -16 -9 7 -26 24 -18 24 -21 28 -205 4 -165 6 -186 21 -183 12 3 17 20 22 78 12 130 95 312 158 344 28 15 31 15 59 -9 36 -30 66 -99 82 -190 17 -98 24 -117 44 -129 22 -14 47 15 72 82 35 97 67 161 90 183 13 12 26 20 29 18 2 -3 7 -43 10 -89 9 -132 34 -262 58 -305 13 -22 39 -49 59 -59 34 -19 37 -19 62 -2 30 19 40 38 93 184 21 56 42 104 48 105 5 1 13 -22 17 -51 10 -71 44 -147 74 -167 31 -20 77 -19 97 3 8 9 39 64 68 122 l53 105 7 -64 c5 -54 11 -69 34 -89 22 -18 35 -22 59 -18 46 9 71 40 133 160 l56 111 12 -50 c21 -92 44 -115 115 -115 36 0 47 6 89 48 26 26 62 78 81 115 18 36 36 65 40 62 4 -2 10 -25 13 -50 9 -65 51 -141 88 -161 41 -21 77 -6 124 49 36 42 42 40 26 -9 -15 -45 -68 -223 -85 -286 -15 -51 -21 -60 -58 -79 -73 -37 -177 -120 -208 -164 -67 -98 -91 -219 -72 -368 8 -59 16 -85 33 -103 32 -34 54 -30 103 20 53 55 96 162 165 413 32 115 55 179 67 187 10 8 50 24 89 36 138 45 303 144 280 169 -8 8 -30 0 -78 -25 -68 -36 -278 -116 -285 -109 -5 5 59 234 98 354 17 50 30 102 30 116 0 36 -26 32 -46 -7 -47 -93 -127 -174 -158 -162 -22 8 -62 80 -71 124 -24 128 -61 168 -86 93 -19 -60 -67 -139 -111 -182 -39 -40 -66 -49 -103 -35 -21 9 -45 56 -45 92 0 35 -22 67 -42 60 -8 -3 -29 -35 -47 -70 -49 -96 -103 -171 -134 -188 -27 -14 -29 -14 -48 9 -15 18 -19 39 -19 91 0 131 -23 133 -84 8 -68 -140 -101 -188 -130 -188 -44 0 -65 42 -91 176 -3 17 -16 42 -27 54 l-21 23 -19 -23 c-10 -12 -18 -28 -18 -35 0 -11 -15 -49 -59 -150 -53 -120 -60 -127 -102 -105 -43 24 -75 135 -88 307 -9 115 -19 143 -51 143 -27 0 -50 -35 -110 -164 -30 -64 -57 -116 -60 -116 -5 0 -18 50 -41 157 -13 66 -56 141 -92 163 -36 22 -34 22 -63 10z m1766 -668 c0 -16 -80 -282 -111 -365 -37 -104 -85 -181 -116 -185 -18 -3 -23 4 -32 48 -16 75 -14 202 5 257 31 89 78 149 160 203 75 49 94 58 94 42z"/>
    <path d="M17821 21911 c-70 -141 -158 -278 -224 -347 -37 -39 -38 -62 -3 -48 30 11 141 174 216 317 14 26 28 47 32 47 3 0 8 -55 10 -122 3 -111 5 -126 28 -160 29 -43 68 -68 104 -68 30 0 35 16 7 25 -11 3 -33 21 -50 40 -39 44 -54 119 -50 249 2 55 0 107 -4 114 -16 25 -37 10 -66 -47z"/>
    <path d="M14820 19698 c-154 -312 -330 -587 -459 -716 -44 -45 -81 -86 -81 -92 0 -29 45 -2 111 68 110 115 246 319 376 567 41 77 73 133 70 125 -2 -8 -20 -64 -40 -125 -19 -60 -44 -146 -56 -190 -11 -44 -27 -108 -36 -143 -22 -85 -22 -138 0 -162 25 -27 45 -25 96 11 24 16 60 41 80 55 20 13 62 29 94 34 54 9 61 7 131 -25 56 -26 74 -40 74 -55 0 -11 13 -34 29 -52 24 -27 36 -32 89 -36 62 -4 120 4 108 15 -4 4 -28 6 -54 5 -53 -2 -115 24 -120 49 -3 15 7 16 82 12 81 -6 89 -4 150 26 74 36 114 77 157 162 47 95 71 198 72 324 2 99 0 115 -23 160 -46 93 -102 85 -214 -29 -59 -62 -78 -92 -146 -231 -43 -88 -88 -196 -100 -240 -12 -44 -25 -84 -30 -88 -4 -5 -36 4 -71 18 -53 23 -71 26 -118 20 -70 -9 -104 -23 -180 -74 -33 -23 -65 -41 -70 -41 -41 0 47 334 194 737 46 127 51 163 23 163 -7 0 -69 -114 -138 -252z m818 6 c22 -36 23 -47 19 -154 -13 -305 -169 -505 -364 -466 -53 10 -58 13 -55 36 13 90 142 404 198 480 57 78 144 154 169 146 6 -1 20 -20 33 -42z"/>
    <path d="M19449 19858 c-5 -51 -11 -94 -24 -163 -8 -44 -19 -112 -25 -152 -7 -40 -18 -77 -26 -84 -16 -13 -19 -49 -4 -49 15 0 2 -44 -42 -140 -55 -120 -116 -209 -167 -242 -35 -24 -108 -23 -148 2 -51 31 -56 49 -48 184 13 238 14 231 -17 234 -15 2 -40 -4 -55 -13 l-28 -16 42 5 c23 4 44 2 48 -3 3 -6 -4 -45 -15 -87 -28 -107 -28 -246 0 -292 25 -41 70 -68 127 -77 96 -14 185 73 267 260 20 44 36 76 36 70 1 -5 1 -56 0 -112 -1 -112 12 -157 58 -207 56 -59 112 -54 188 16 40 37 100 130 123 192 16 41 4 31 -37 -32 -66 -101 -92 -129 -146 -158 l-53 -28 -30 22 c-49 34 -63 77 -63 185 0 51 3 128 6 169 l7 76 56 10 c31 6 97 16 146 22 77 10 144 21 263 46 34 7 28 34 -8 34 -29 0 -245 -29 -379 -51 -35 -5 -66 -8 -69 -5 -5 5 -2 28 38 266 10 63 16 118 14 122 -8 13 -34 9 -35 -4z"/>
    <path d="M8933 19813 c-50 -54 -126 -258 -158 -428 -10 -50 -22 -85 -33 -94 -12 -9 -14 -15 -4 -18 7 -3 12 -23 12 -51 0 -54 19 -132 44 -180 40 -78 160 -113 251 -73 27 12 64 33 83 48 41 31 98 145 107 212 10 72 14 78 47 85 17 3 57 18 89 32 89 40 90 38 83 -113 -6 -117 -4 -133 16 -188 39 -103 116 -154 212 -139 57 10 128 77 168 158 l29 61 1 -84 c0 -83 0 -83 38 -121 70 -71 165 -61 240 24 17 19 49 67 72 107 l42 71 20 -43 c56 -126 190 -185 323 -144 31 10 81 33 111 51 53 32 58 33 107 23 65 -12 134 -4 212 26 33 13 70 26 83 30 13 4 21 12 19 18 -4 13 -86 11 -123 -3 -33 -13 -181 -23 -187 -13 -3 5 16 44 43 87 51 83 70 143 70 227 0 42 -5 55 -29 80 -45 44 -84 40 -136 -14 -74 -78 -147 -257 -131 -322 4 -16 21 -41 39 -57 30 -29 30 -30 12 -41 -124 -73 -241 -75 -321 -5 -44 39 -53 57 -64 121 -6 42 -3 68 16 134 26 91 40 200 48 381 5 99 3 122 -8 122 -7 0 -18 -6 -24 -12 -22 -27 -71 -312 -81 -473 l-7 -110 -55 -90 c-90 -148 -141 -188 -218 -169 -73 18 -88 130 -39 299 49 171 100 219 192 181 63 -26 79 -104 39 -198 -22 -51 -122 -128 -168 -128 -8 0 -15 -4 -15 -10 0 -26 94 7 151 52 152 122 117 338 -55 340 -24 1 -56 -7 -73 -17 -31 -18 -86 -99 -98 -145 -11 -44 -27 -80 -35 -80 -4 0 -10 13 -13 29 -15 72 -144 148 -236 138 -51 -6 -87 -30 -121 -82 l-25 -38 -3 49 c-5 79 -40 101 -104 68 -17 -9 -55 -24 -85 -35 l-53 -18 -24 38 c-47 74 -125 95 -166 44 -11 -15 -19 -33 -18 -41 5 -27 58 -56 111 -62 l52 -5 -1 -45 c0 -60 -48 -162 -92 -202 -44 -38 -107 -67 -147 -68 -17 0 -51 10 -75 23 -56 28 -92 93 -98 180 -4 56 -3 60 31 95 84 86 217 489 177 537 -18 22 -38 19 -67 -12z m44 -40 c-24 -145 -62 -263 -126 -391 -29 -57 -51 -85 -51 -64 0 27 34 185 51 242 45 141 98 250 122 250 6 0 7 -15 4 -37z m1918 -333 c19 -20 22 -65 9 -125 -15 -73 -110 -225 -140 -225 -8 0 -26 11 -40 25 -22 23 -24 30 -18 73 15 103 72 219 126 257 29 20 41 19 63 -5z m-1719 -44 c19 -19 34 -41 34 -50 0 -19 4 -19 -62 -5 -80 17 -94 33 -58 69 28 28 47 25 86 -14z m571 -71 c33 -15 61 -36 73 -57 59 -94 -37 -297 -150 -318 -96 -18 -183 79 -184 206 -1 56 2 64 38 110 22 27 49 57 60 66 31 25 101 23 163 -7z"/>
    <path d="M13063 19778 c-22 -28 -95 -201 -138 -328 -36 -105 -50 -167 -64 -280 l-19 -145 -63 -57 c-82 -74 -127 -94 -177 -82 -39 10 -59 37 -68 97 -5 28 0 36 39 67 58 45 81 80 108 162 20 64 21 69 5 93 -40 60 -105 4 -160 -137 -41 -105 -46 -166 -20 -242 19 -56 60 -86 117 -86 46 0 83 18 158 76 30 24 58 44 61 44 3 0 8 -14 12 -32 3 -18 23 -47 46 -69 45 -43 105 -58 170 -41 48 12 160 82 160 100 0 18 -10 15 -85 -20 -105 -49 -177 -40 -222 28 -25 39 -21 104 9 145 83 113 154 290 168 421 11 105 13 258 4 282 -7 19 -28 21 -41 4z m8 -225 c-14 -148 -29 -200 -88 -318 -46 -92 -63 -118 -70 -112 -2 3 1 46 8 97 18 152 148 547 158 480 1 -14 -2 -80 -8 -147z m-411 -291 c0 -58 -95 -211 -117 -188 -12 11 36 141 68 185 32 45 49 46 49 3z"/>
    <path d="M20600 19699 c-23 -44 -104 -285 -121 -358 -7 -32 -7 -53 1 -72 11 -25 8 -33 -21 -76 -50 -73 -140 -161 -173 -169 -45 -11 -52 9 -60 168 -7 148 -20 194 -51 182 -17 -7 -20 -31 -4 -36 7 -2 12 -48 14 -123 1 -66 3 -135 4 -153 1 -41 40 -82 76 -82 54 0 157 104 218 220 20 37 31 46 85 67 69 25 180 39 234 29 34 -6 78 -38 78 -56 0 -6 -15 -10 -34 -10 -86 0 -161 -52 -237 -163 -53 -77 -72 -131 -65 -186 16 -120 104 -104 260 47 65 64 126 162 126 203 0 31 13 28 42 -9 32 -39 49 -74 82 -162 28 -74 46 -76 127 -7 35 29 80 63 100 74 l36 21 23 -54 c41 -99 139 -147 300 -148 109 0 162 16 214 64 50 47 42 61 -18 31 -77 -38 -143 -47 -252 -33 -108 14 -154 35 -185 86 -10 17 -19 43 -19 57 0 21 9 30 52 50 108 49 181 157 147 217 -57 101 -207 -6 -241 -172 -12 -57 -15 -61 -68 -94 -30 -19 -78 -54 -106 -78 -52 -44 -74 -45 -74 -2 0 34 -58 134 -117 200 -32 37 -66 78 -77 93 -31 45 -78 58 -178 51 -47 -3 -107 -13 -133 -22 -55 -18 -75 -13 -75 18 0 29 95 334 115 370 8 14 15 33 15 42 0 29 -19 17 -40 -25z m948 -381 c38 -38 -17 -130 -105 -177 -31 -17 -58 -29 -60 -27 -7 7 18 99 38 137 30 60 98 96 127 67z m-650 -154 c7 -66 -69 -177 -180 -268 -67 -55 -113 -75 -131 -57 -7 7 -12 38 -12 69 0 66 25 124 87 202 46 58 81 79 147 89 62 10 85 1 89 -35z"/>
    <path d="M6303 19658 c-6 -7 -23 -65 -38 -128 -38 -161 -36 -157 -87 -164 -74 -11 -182 -38 -210 -53 -34 -16 -38 -38 -5 -29 93 27 139 37 193 42 l62 7 -13 -64 c-32 -150 -97 -302 -147 -344 -37 -31 -67 -29 -135 11 -48 28 -50 35 -27 90 11 26 16 67 15 130 -1 142 -32 194 -107 180 -44 -9 -85 -44 -141 -125 -71 -101 -168 -223 -201 -254 -19 -19 -38 -28 -53 -25 -23 3 -24 8 -27 80 -3 74 -1 81 38 151 40 74 65 165 54 199 -9 28 -42 21 -63 -13 -11 -18 -31 -79 -45 -137 -20 -87 -30 -110 -58 -139 -69 -71 -104 -82 -190 -57 -33 10 -61 73 -68 155 -7 80 -21 112 -45 103 -22 -9 -25 -42 -4 -47 16 -4 19 -15 19 -77 0 -116 41 -170 138 -186 55 -9 82 -1 136 41 l46 35 0 -49 c0 -85 50 -122 119 -87 38 20 145 151 198 244 38 67 104 139 138 152 24 9 32 8 49 -10 35 -34 36 -230 1 -276 -11 -15 -16 -17 -26 -6 -22 21 -83 15 -106 -10 -37 -42 -37 -158 1 -196 15 -15 19 -15 50 2 21 11 44 37 61 67 25 46 47 61 59 40 11 -17 97 -51 130 -51 22 0 45 9 65 26 29 24 101 153 101 180 0 8 5 14 11 14 8 0 9 -19 5 -60 -8 -75 6 -133 41 -159 44 -35 78 -28 135 31 39 40 69 90 135 225 47 95 100 189 117 209 29 34 33 35 48 21 9 -9 32 -67 52 -130 40 -128 83 -195 146 -227 55 -28 119 -35 166 -19 22 7 50 12 62 10 18 -2 42 15 92 63 37 36 72 66 78 66 5 0 28 -15 52 -32 142 -109 189 -131 235 -110 37 17 31 38 -12 46 -21 3 -60 21 -88 41 -27 19 -72 51 -100 70 -57 40 -82 43 -118 15 l-26 -21 24 54 c26 57 42 158 31 201 -8 34 -53 36 -84 3 -31 -33 -99 -201 -112 -280 -14 -76 -25 -87 -89 -87 -53 0 -89 15 -129 53 -42 40 -63 80 -97 185 -28 86 -65 142 -94 142 -35 0 -79 -63 -192 -275 -76 -143 -140 -225 -176 -225 -11 0 -28 9 -38 20 -17 18 -18 34 -11 188 4 92 10 185 14 206 l7 39 115 23 c166 33 194 44 95 38 -44 -3 -104 -10 -133 -16 -30 -5 -56 -7 -59 -4 -4 3 8 64 26 136 18 71 30 134 26 140 -8 14 -20 13 -32 -2z m930 -345 c-6 -53 -40 -153 -51 -153 -4 0 -18 -18 -32 -40 -14 -22 -29 -40 -34 -40 -12 0 -2 42 34 142 47 131 95 183 83 91z m-1804 -45 c-7 -29 -14 -47 -17 -40 -5 15 18 105 26 98 2 -3 -1 -29 -9 -58z m377 -302 c19 -14 18 -16 -9 -71 -43 -88 -79 -87 -80 3 0 28 5 57 12 66 17 20 51 21 77 2z"/>
    <path d="M17043 19548 c-36 -69 -61 -125 -83 -193 -12 -38 -24 -73 -26 -76 -2 -3 -29 -2 -60 3 -74 11 -109 -1 -168 -58 -71 -67 -126 -206 -126 -315 0 -41 50 -89 92 -89 49 0 130 52 179 114 l43 55 12 -29 c14 -33 68 -60 121 -60 19 0 63 11 98 26 50 19 69 23 84 15 24 -13 91 -15 91 -2 0 5 19 6 43 4 42 -5 117 18 117 36 0 4 -19 5 -42 0 -26 -5 -59 -4 -82 3 -34 8 -42 7 -52 -7 -10 -13 -16 -14 -33 -5 -12 6 -21 13 -21 16 0 3 24 33 54 66 101 111 156 277 108 321 -45 41 -103 3 -157 -102 -31 -62 -65 -184 -65 -233 0 -28 -6 -41 -22 -52 -37 -24 -111 -40 -151 -32 -31 6 -38 12 -46 41 -11 41 -1 92 29 142 12 20 23 53 26 72 2 20 8 47 14 61 19 49 77 285 72 298 -7 22 -31 12 -49 -20z m340 -234 c-1 -23 -15 -68 -31 -101 -35 -69 -109 -166 -121 -158 -10 5 28 159 52 215 24 56 57 91 81 88 18 -3 21 -9 19 -44z m-472 -83 c4 -3 1 -46 -7 -94 -12 -80 -17 -95 -56 -145 -46 -59 -117 -117 -157 -127 -15 -4 -30 0 -43 12 -29 26 -20 126 20 213 28 61 97 141 132 153 18 6 102 -3 111 -12z"/>
    <path d="M18574 19416 c-10 -8 -16 -18 -11 -22 4 -4 7 -2 7 4 0 14 39 16 72 3 38 -14 76 -56 86 -94 11 -38 2 -144 -18 -218 -13 -48 -73 -117 -118 -136 -59 -25 -134 12 -171 84 -25 50 -3 212 30 220 21 6 25 23 8 40 -17 17 -37 5 -56 -31 -24 -45 -30 -210 -10 -257 36 -86 153 -125 236 -78 79 44 121 132 128 269 5 83 3 102 -15 143 -17 38 -30 52 -64 67 -51 23 -78 25 -104 6z"/>
    <path d="M3995 19351 c-11 -5 -46 -35 -78 -67 -47 -47 -73 -88 -130 -203 -68 -136 -103 -181 -127 -166 -14 9 -13 221 2 284 11 51 4 78 -18 63 -5 -4 -29 -38 -53 -77 -24 -38 -70 -106 -102 -150 -51 -70 -84 -111 -194 -240 -14 -16 -25 -33 -25 -37 0 -17 23 -18 42 -1 43 38 229 291 294 399 8 14 11 -13 10 -112 -1 -116 1 -134 18 -153 11 -11 25 -21 32 -21 34 0 77 58 142 194 72 148 105 195 170 240 76 52 88 18 78 -208 -4 -82 -9 -159 -11 -171 -7 -30 10 -53 31 -40 19 12 33 38 106 190 31 64 60 111 69 113 12 2 23 -17 42 -80 88 -281 239 -260 333 47 l18 60 7 -77 c19 -184 128 -265 220 -160 44 49 127 232 106 232 -3 0 -23 -37 -46 -82 -51 -104 -99 -158 -139 -158 -53 0 -96 79 -106 199 -9 102 -35 132 -60 69 -70 -173 -93 -221 -121 -252 -40 -44 -72 -46 -107 -8 -26 27 -68 102 -68 121 0 31 -43 121 -61 126 -32 11 -56 -19 -122 -155 -66 -136 -76 -138 -58 -11 17 120 -6 291 -39 291 -4 0 -14 2 -22 4 -7 3 -22 1 -33 -3z"/>
    <path d="M19795 19340 c-4 -6 -2 -16 4 -23 5 -7 15 -42 21 -77 19 -119 37 -179 64 -215 51 -67 118 -38 177 76 28 56 18 59 -21 6 -17 -24 -45 -55 -63 -67 l-31 -23 -27 33 c-21 24 -34 59 -49 129 -12 53 -26 111 -33 130 -13 36 -31 49 -42 31z"/>
    <path d="M4120 17175 c-5 -13 -25 -109 -45 -212 -20 -103 -39 -194 -41 -202 -3 -10 -13 -6 -35 17 -21 21 -46 34 -84 42 -94 20 -149 -21 -210 -157 -40 -86 -53 -145 -64 -278 -9 -111 0 -151 40 -179 75 -52 185 39 275 228 25 51 41 73 58 77 23 6 23 4 29 -65 10 -128 58 -211 135 -237 46 -15 109 10 156 61 l35 39 23 -42 c42 -76 121 -107 186 -73 15 8 54 42 86 75 l60 61 21 -41 c24 -49 87 -97 141 -109 47 -11 114 4 114 25 0 11 -11 15 -37 15 -93 0 -159 47 -184 130 -12 40 -11 44 48 168 34 70 68 146 77 169 33 89 49 271 26 312 -17 33 -59 24 -87 -18 -46 -69 -111 -330 -120 -486 -4 -73 -11 -109 -25 -132 -24 -40 -114 -118 -151 -132 -64 -25 -144 52 -134 127 3 20 22 78 43 127 31 74 38 102 38 160 1 68 0 70 -24 70 -20 0 -30 -9 -47 -45 -32 -66 -52 -147 -60 -235 -6 -78 -7 -79 -57 -131 -65 -67 -94 -75 -145 -41 -30 20 -44 40 -61 84 -21 55 -22 68 -17 268 7 229 14 287 54 445 26 101 26 140 3 140 -6 0 -15 -11 -20 -25z m800 -206 c16 -28 -11 -192 -45 -283 -31 -81 -86 -186 -99 -186 -22 0 42 356 78 435 26 58 48 69 66 34z m-970 -194 c67 -35 75 -82 31 -195 -68 -178 -146 -302 -215 -341 l-38 -21 -27 20 c-26 19 -26 21 -24 129 2 115 19 201 53 268 11 21 20 45 20 52 0 7 19 33 43 58 38 39 49 45 86 45 23 0 55 -7 71 -15z m514 -137 c-15 -85 -53 -190 -54 -146 0 18 26 137 36 162 11 29 24 17 18 -16z"/>
    <path d="M12858 17118 c-40 -64 -125 -326 -147 -453 -5 -33 -13 -102 -17 -154 l-7 -94 -51 -61 c-28 -33 -74 -76 -101 -95 -43 -31 -57 -36 -106 -36 -81 1 -123 34 -139 111 -15 70 -7 104 23 104 59 0 127 87 127 163 0 58 -51 92 -96 63 -27 -18 -65 -75 -81 -121 -6 -16 -16 -29 -23 -27 -9 2 -11 -5 -6 -25 3 -15 7 -67 9 -114 3 -101 23 -143 82 -176 99 -56 182 -36 288 68 38 38 71 69 73 69 2 0 4 -10 4 -22 0 -41 47 -124 85 -154 28 -21 48 -28 83 -28 53 1 112 27 112 50 0 12 -11 13 -62 8 -56 -5 -66 -3 -92 17 -43 34 -66 93 -66 171 0 57 6 78 40 150 36 76 79 224 94 323 13 87 25 256 20 270 -9 22 -30 18 -46 -7z m16 -140 c-7 -95 -29 -201 -65 -315 -38 -120 -54 -131 -46 -32 9 108 93 419 113 419 2 0 2 -33 -2 -72z m-475 -337 c18 -11 10 -81 -13 -116 -19 -29 -72 -59 -87 -49 -13 7 -2 78 17 116 12 24 50 58 64 58 3 0 11 -4 19 -9z"/>
    <path d="M8711 17087 c-60 -19 -125 -93 -180 -202 -57 -115 -69 -163 -77 -319 -8 -132 10 -228 57 -312 63 -111 177 -189 279 -188 65 0 98 16 163 79 63 60 93 128 108 242 12 93 12 93 -17 150 -34 69 -89 103 -164 103 -88 0 -268 -114 -334 -211 l-34 -50 -7 28 c-10 38 -7 186 5 271 23 165 137 356 225 378 34 8 84 -13 91 -40 5 -21 -3 -65 -25 -135 -20 -65 9 -16 35 59 30 86 23 117 -32 143 -39 19 -45 19 -93 4z m244 -513 c23 -11 40 -30 55 -62 21 -43 21 -51 10 -122 -15 -97 -50 -169 -107 -220 -65 -57 -109 -68 -178 -46 -30 9 -74 31 -97 49 -56 43 -103 118 -94 151 15 62 138 180 246 236 63 33 116 38 165 14z"/>
    <path d="M14755 17053 c-23 -110 -64 -186 -119 -219 -17 -10 -25 -19 -18 -22 23 -7 77 34 112 86 l35 53 7 -33 c28 -139 37 -576 13 -686 -42 -201 -157 -372 -283 -421 -62 -25 -102 -26 -141 -7 -49 26 -104 129 -116 217 -9 66 -18 88 -31 68 -14 -23 -7 -112 15 -174 45 -127 111 -182 209 -172 71 7 125 37 195 105 80 79 130 160 168 272 28 85 32 111 36 240 6 160 -12 438 -42 680 -2 14 -4 28 -4 33 -2 20 -31 4 -36 -20z"/>
    <path d="M6765 17031 c-42 -20 -239 -211 -217 -211 10 0 62 44 162 138 50 47 124 71 159 53 26 -15 45 -74 44 -146 0 -106 -77 -303 -168 -431 -43 -59 -45 -61 -97 -67 -29 -3 -65 -11 -81 -18 -51 -23 -85 -107 -55 -137 29 -29 84 -2 154 76 l41 45 69 -27 c42 -17 104 -32 159 -38 134 -15 296 -46 351 -69 27 -10 37 -10 65 4 19 8 47 19 62 23 45 11 141 106 168 166 18 42 23 71 23 143 0 83 -2 95 -33 153 -43 79 -130 161 -197 185 -70 25 -129 23 -158 -6 -84 -84 -110 -431 -41 -554 l25 -45 -33 6 c-17 3 -91 12 -162 21 -122 14 -179 26 -247 53 l-27 11 63 96 c64 95 114 206 143 320 18 71 13 177 -12 225 -27 52 -89 64 -160 31z m618 -204 c57 -24 130 -101 163 -172 29 -60 32 -158 8 -228 -32 -94 -136 -177 -223 -177 -62 0 -84 14 -116 71 l-30 54 1 170 c0 152 3 176 23 227 36 92 65 101 174 55z m-739 -523 c-48 -62 -124 -99 -124 -59 0 46 36 80 101 94 48 11 53 4 23 -35z"/>
    <path d="M7930 17021 c-61 -19 -147 -91 -196 -165 -29 -45 -11 -37 52 23 111 106 212 144 266 102 30 -24 53 -110 45 -165 -21 -139 -67 -251 -153 -372 -42 -60 -45 -62 -98 -68 -87 -11 -145 -62 -146 -127 0 -35 23 -53 56 -45 15 4 55 34 90 68 l64 61 47 -18 c27 -10 53 -21 58 -25 9 -7 110 -48 158 -64 22 -7 67 3 67 14 0 5 -10 12 -22 15 -24 7 -270 115 -277 121 -2 2 14 30 36 61 96 138 153 288 153 404 0 134 -37 190 -124 188 -28 0 -62 -4 -76 -8z m-118 -743 c-31 -29 -59 -48 -69 -46 -51 10 -1 86 63 98 21 3 43 4 48 2 5 -3 -14 -27 -42 -54z"/>
    <path d="M19180 16933 c-32 -84 -80 -243 -80 -263 0 -30 -12 -30 -46 0 -31 26 -88 50 -123 50 -8 0 -34 -11 -57 -25 -36 -21 -50 -39 -78 -98 -65 -138 -90 -329 -50 -385 29 -39 87 -65 126 -57 35 8 136 98 169 152 l20 33 25 -30 c14 -16 43 -35 64 -41 50 -15 121 8 179 58 23 19 43 34 45 32 1 -2 12 -18 24 -35 43 -62 165 -86 297 -59 83 17 118 36 99 55 -8 8 -25 7 -58 -1 -56 -14 -215 -6 -254 13 -14 7 -34 27 -45 45 l-18 32 50 102 c56 112 68 179 32 179 -35 0 -131 -175 -131 -240 0 -49 -114 -130 -184 -130 -47 0 -79 33 -73 75 3 17 18 62 35 102 17 40 36 101 42 135 27 158 31 188 40 263 4 44 6 83 4 87 -14 22 -35 2 -54 -49z m11 -155 c-21 -123 -43 -208 -53 -208 -5 0 -6 17 -3 38 10 60 59 251 64 246 2 -2 -1 -37 -8 -76z m-181 -124 c39 -26 50 -45 50 -83 0 -41 -24 -127 -41 -148 -7 -7 -9 -17 -5 -21 4 -4 14 2 22 12 14 19 14 19 14 -3 0 -27 -62 -112 -123 -168 -58 -54 -94 -57 -131 -12 -32 38 -33 68 -6 201 34 164 82 238 155 238 22 0 52 -7 65 -16z"/>
    <path d="M16551 16903 c-24 -90 -43 -214 -64 -409 -11 -100 -125 -271 -204 -306 -53 -23 -80 -16 -102 26 -12 22 -13 44 -3 134 17 168 89 343 147 358 60 15 112 -62 101 -153 -10 -85 -50 -158 -140 -252 -28 -29 -42 -49 -31 -43 60 32 157 155 185 236 33 91 25 159 -24 211 -41 43 -74 52 -121 29 -74 -35 -149 -212 -164 -385 -5 -63 -9 -127 -8 -144 2 -27 -2 -30 -53 -46 -100 -32 -216 -17 -235 29 -4 9 -9 83 -12 164 -5 169 -11 202 -39 206 -15 2 -28 -17 -67 -100 -51 -111 -145 -247 -188 -272 -41 -24 -74 -20 -103 14 -31 38 -41 97 -33 211 4 48 3 90 -2 93 -13 9 -28 -15 -36 -59 -13 -74 -111 -237 -171 -284 -88 -69 -181 -10 -191 122 -11 131 39 330 98 393 42 45 140 19 194 -52 26 -34 30 -47 30 -104 0 -55 -6 -75 -36 -132 -20 -38 -33 -68 -29 -68 17 0 82 116 92 164 15 68 4 116 -35 168 -42 54 -79 76 -148 84 -50 6 -58 4 -87 -21 -69 -58 -112 -186 -119 -352 -6 -119 -5 -124 22 -179 23 -47 35 -60 72 -76 32 -14 55 -18 80 -13 54 10 128 85 177 180 l41 80 3 -40 c5 -80 14 -107 49 -146 28 -31 42 -39 70 -39 66 0 113 40 182 153 23 37 41 70 41 72 0 17 75 153 81 149 5 -3 9 -72 9 -153 0 -137 2 -150 22 -177 12 -16 23 -30 24 -32 1 -2 28 -10 59 -18 64 -17 117 -10 207 28 l47 20 27 -21 c39 -31 99 -28 155 7 37 24 68 60 145 170 10 13 14 6 29 -43 23 -80 68 -125 124 -125 23 0 55 7 70 15 43 22 107 99 156 189 l45 81 0 -66 c0 -67 19 -114 38 -94 6 6 12 75 14 155 3 131 1 145 -15 148 -10 2 -19 -4 -23 -15 -21 -66 -64 -156 -104 -217 -107 -162 -190 -193 -243 -92 -17 35 -20 57 -19 142 1 56 11 154 22 219 13 70 19 132 15 155 -4 21 -2 41 3 44 5 3 7 16 5 30 -3 13 0 27 6 30 6 4 11 18 11 32 0 17 -5 24 -20 24 -14 0 -22 -10 -29 -37z"/>
    <path d="M17123 16749 c-30 -11 -29 -29 1 -29 36 0 43 -17 56 -125 6 -55 15 -130 20 -167 8 -74 28 -113 61 -123 46 -15 85 36 168 228 19 43 37 74 41 70 3 -5 12 -41 18 -81 24 -144 101 -239 212 -261 77 -15 123 -3 186 49 27 22 52 40 56 40 5 0 8 7 8 15 0 8 -1 15 -3 15 -2 0 -34 -16 -72 -36 -63 -32 -76 -35 -128 -31 -102 9 -160 66 -207 202 -11 32 -20 68 -20 80 0 13 -8 33 -19 46 -26 32 -36 22 -105 -115 -67 -132 -108 -187 -126 -170 -6 7 -16 47 -21 90 -6 42 -12 81 -15 85 -2 4 -9 42 -14 85 -14 107 -47 152 -97 133z"/>
    <path d="M10589 16701 c-48 -50 -81 -120 -101 -216 -16 -80 -17 -82 -28 -65 -6 8 -10 25 -10 38 0 36 -17 25 -23 -15 -5 -31 -2 -42 18 -63 14 -14 25 -33 25 -41 0 -70 52 -143 113 -160 74 -20 125 24 207 176 81 151 118 205 141 205 14 0 39 -88 45 -160 13 -153 50 -159 179 -30 57 58 97 90 111 90 17 0 32 -19 69 -84 45 -81 73 -106 113 -106 16 1 16 1 0 14 -10 7 -30 39 -45 72 -59 124 -97 163 -147 148 -11 -3 -62 -47 -113 -97 -51 -50 -96 -87 -100 -83 -4 4 -13 42 -19 84 -13 88 -44 166 -71 181 -43 22 -87 -27 -198 -221 -72 -126 -121 -164 -180 -142 -21 9 -55 76 -55 111 0 22 10 34 41 53 42 26 126 115 149 160 23 43 40 130 30 155 -11 29 -39 45 -76 45 -20 0 -41 -14 -75 -49z m109 7 c17 -17 14 -67 -6 -110 -29 -64 -153 -200 -168 -185 -8 8 15 113 38 176 23 59 81 131 107 131 9 0 22 -5 29 -12z"/>
    <path d="M7004 14578 c-4 -6 -19 -50 -34 -97 l-26 -86 -176 -5 c-97 -3 -180 -8 -184 -12 -4 -4 -1 -14 6 -23 10 -12 42 -15 177 -15 l165 0 -7 -52 c-4 -29 -13 -84 -21 -123 -8 -38 -17 -117 -21 -175 -6 -114 -20 -153 -93 -260 -48 -70 -159 -177 -193 -185 -36 -9 -87 21 -109 65 -26 52 -24 147 6 223 27 69 66 208 66 235 0 32 -24 56 -51 49 -46 -12 -71 -75 -81 -211 -13 -158 -13 -160 -50 -201 -41 -47 -77 -65 -131 -65 -77 0 -129 60 -191 222 -21 53 -44 102 -51 108 -23 19 -48 -4 -84 -77 -126 -255 -137 -273 -162 -273 -35 0 -54 47 -89 215 -19 91 -25 108 -43 119 -27 17 -54 -19 -132 -179 -79 -162 -134 -238 -168 -233 -36 5 -58 59 -68 165 -5 53 -13 101 -18 106 -18 18 -36 0 -49 -48 -19 -70 -57 -151 -109 -227 -44 -65 -70 -90 -116 -107 -31 -12 -80 12 -96 45 -16 35 -14 168 4 261 31 164 140 323 220 323 69 0 110 -80 87 -167 -14 -51 -15 -63 -4 -63 12 0 42 90 42 125 -1 47 -35 112 -69 129 -69 36 -132 12 -201 -75 -79 -100 -110 -183 -130 -354 -16 -129 -7 -181 40 -227 31 -31 45 -38 77 -38 96 0 179 104 269 335 5 14 10 -1 15 -51 7 -73 22 -113 59 -151 32 -35 70 -30 112 15 42 44 49 56 132 233 61 130 79 159 89 142 3 -5 12 -53 22 -108 19 -114 52 -196 89 -220 21 -14 29 -15 53 -3 28 13 35 25 157 277 18 36 37 66 43 68 6 2 19 -20 28 -49 47 -142 105 -235 169 -270 61 -34 160 -15 210 41 22 24 36 27 36 9 1 -102 107 -187 197 -157 52 17 181 149 222 227 18 35 37 60 41 55 4 -4 15 -31 24 -59 16 -50 66 -109 112 -132 78 -40 177 -33 259 19 l47 30 47 -18 c30 -12 72 -18 121 -18 85 1 149 25 252 96 33 22 62 38 65 35 4 -3 -2 -52 -12 -108 -10 -57 -26 -147 -35 -200 -13 -73 -25 -111 -49 -149 -38 -62 -57 -125 -47 -163 5 -22 11 -27 33 -24 30 3 55 45 74 123 7 28 16 66 20 85 17 69 278 406 353 455 33 22 51 2 65 -69 6 -33 22 -83 35 -113 62 -134 152 -75 256 168 49 114 57 123 64 73 28 -184 39 -215 87 -234 58 -24 89 4 196 175 96 152 137 205 150 192 4 -4 -4 -40 -17 -80 -32 -98 -34 -213 -4 -254 72 -98 168 -96 275 4 51 47 152 181 184 243 22 42 84 110 101 110 25 0 32 -34 36 -174 4 -129 6 -140 27 -157 42 -34 65 -14 218 188 113 150 192 233 224 233 21 0 29 -45 29 -170 1 -108 19 -196 49 -238 46 -65 137 -69 217 -8 107 82 303 351 276 378 -7 7 -21 -4 -44 -38 -77 -111 -191 -235 -272 -295 -84 -62 -146 -22 -165 106 -6 42 -11 100 -11 130 0 74 -18 150 -39 169 -42 38 -115 -17 -243 -182 -110 -144 -178 -225 -194 -235 -20 -11 -22 1 -27 138 -4 133 -19 180 -62 191 -37 9 -77 -21 -126 -95 -196 -296 -306 -376 -396 -286 l-36 36 6 77 c4 42 17 111 30 152 26 83 13 74 140 95 44 7 108 60 127 104 14 34 3 62 -35 87 -20 13 -30 14 -59 4 -44 -14 -126 -86 -150 -132 -11 -21 -37 -44 -64 -59 -48 -25 -76 -59 -206 -259 -97 -148 -135 -148 -162 1 -23 129 -35 163 -61 167 -18 3 -30 -15 -87 -130 -70 -145 -131 -226 -160 -215 -21 8 -53 79 -66 148 -12 65 -32 97 -66 105 -35 9 -77 -23 -154 -116 -34 -41 -78 -95 -99 -120 -21 -25 -55 -69 -76 -98 -20 -29 -40 -51 -42 -48 -3 3 4 58 15 123 11 65 25 149 31 186 7 51 19 82 46 123 55 83 89 178 109 304 8 46 -14 80 -41 64 -38 -22 -100 -180 -124 -318 -8 -50 -19 -77 -40 -101 -40 -45 -165 -122 -241 -147 -55 -19 -70 -20 -126 -10 -35 6 -66 13 -69 16 -3 3 10 23 29 45 87 102 168 300 152 374 -17 83 -137 48 -200 -59 -57 -97 -96 -257 -76 -314 11 -29 9 -32 -28 -57 -58 -38 -159 -43 -215 -11 -50 29 -80 75 -94 139 -17 79 -13 119 23 246 18 65 39 156 46 203 7 47 14 91 16 98 2 9 47 12 178 12 180 0 206 3 206 25 0 20 -35 25 -207 25 -112 0 -163 4 -165 11 -2 7 0 45 5 86 5 41 6 81 3 89 -7 17 -32 18 -42 2z m6 -163 c0 -8 -4 -15 -10 -15 -5 0 -7 7 -4 15 4 8 8 15 10 15 2 0 4 -7 4 -15z m-11 -97 c0 -30 -47 -246 -49 -233 -3 13 -4 5 10 105 16 126 21 150 31 150 5 0 9 -10 8 -22z m987 -174 c-7 -63 -59 -206 -81 -224 -20 -17 -19 -12 14 118 39 153 80 217 67 106z m1274 -9 c30 -36 -46 -106 -121 -113 -27 -2 -49 -1 -49 2 0 16 56 79 89 102 41 28 63 30 81 9z m-1740 -55 c25 -47 -52 -227 -137 -319 -44 -47 -54 -53 -63 -41 -23 32 15 193 67 286 24 43 84 94 110 94 7 0 17 -9 23 -20z m-990 -14 c0 -23 -41 -150 -52 -161 -16 -15 1 126 18 153 16 25 34 29 34 8z"/>
    <path d="M13924 14571 c-100 -61 -220 -266 -268 -456 -24 -94 -37 -292 -24 -372 22 -142 98 -230 215 -249 52 -8 153 18 217 57 116 70 158 99 202 138 25 22 50 41 54 41 5 0 13 -15 19 -33 12 -35 50 -76 89 -96 51 -27 212 0 212 36 0 12 -7 14 -27 9 -16 -3 -51 -9 -80 -12 -63 -8 -100 14 -145 87 -19 31 -37 49 -49 49 -25 0 -24 8 7 77 61 138 66 253 13 305 -81 81 -187 -31 -268 -285 -37 -115 -39 -164 -10 -201 27 -34 19 -44 -73 -86 -129 -60 -220 -43 -285 53 -37 56 -48 114 -44 252 2 117 7 137 29 134 38 -3 51 3 103 54 104 100 153 181 189 308 28 102 27 153 -5 184 -29 30 -32 30 -71 6z m56 -92 c0 -89 -55 -222 -127 -306 -156 -184 -192 -174 -122 32 38 111 107 228 172 295 59 60 77 55 77 -21z m354 -358 c55 -61 5 -244 -102 -369 -24 -29 -56 -61 -70 -70 -23 -15 -25 -15 -39 4 -18 24 -12 76 23 192 34 111 67 177 112 225 41 42 52 45 76 18z"/>
    <path d="M4536 14444 c-84 -26 -156 -79 -195 -144 -32 -53 -26 -190 7 -190 5 0 6 27 4 60 -6 79 1 103 46 152 36 40 139 98 174 98 16 0 16 -4 3 -47 -8 -27 -19 -84 -25 -128 -6 -44 -20 -123 -30 -175 -49 -236 -76 -443 -66 -486 11 -42 22 -18 40 91 51 301 47 287 92 312 36 20 42 21 61 8 58 -40 104 -197 88 -300 -14 -99 -88 -202 -186 -263 -75 -46 -226 -47 -316 -3 -23 12 -46 21 -51 21 -23 0 -117 98 -138 145 -18 40 -23 45 -23 25 -2 -83 54 -152 172 -211 97 -50 162 -62 249 -50 89 12 130 34 208 107 73 70 109 140 117 235 11 119 -34 261 -98 312 l-32 25 23 32 c44 61 70 140 70 213 0 83 -18 130 -62 157 -39 23 -65 24 -132 4z m123 -34 c32 -16 54 -88 46 -147 -11 -89 -93 -233 -132 -233 -13 0 -14 7 -9 38 3 20 13 90 21 154 8 64 17 123 20 130 27 76 25 74 54 58z"/>
    <path d="M17025 14436 c-27 -7 -73 -24 -101 -38 -52 -27 -124 -98 -124 -122 0 -8 -3 -21 -6 -30 -12 -32 13 -15 29 19 29 62 173 143 255 144 28 1 35 -4 48 -34 19 -47 9 -104 -28 -160 -39 -59 -83 -95 -117 -95 -50 0 -95 -52 -57 -66 8 -3 36 4 62 15 58 26 65 26 99 -1 68 -53 86 -195 40 -311 -32 -78 -117 -184 -185 -227 -168 -108 -284 -52 -339 161 -14 53 -21 69 -26 56 -23 -57 31 -236 83 -278 14 -11 49 -26 79 -35 48 -14 58 -14 110 1 80 23 151 72 217 150 92 109 131 209 124 319 -5 79 -46 170 -87 194 -17 9 -31 20 -31 23 0 4 14 22 32 40 44 48 68 105 68 167 0 62 -20 107 -52 116 -29 7 -32 7 -93 -8z"/>
    <path d="M19755 14440 c-4 -6 -1 -17 5 -25 19 -22 3 -81 -105 -410 -110 -331 -124 -487 -41 -443 13 7 70 63 125 124 79 88 110 116 146 129 84 33 100 9 165 -254 23 -95 33 -111 66 -111 28 0 40 20 83 145 47 133 98 229 149 280 35 34 43 48 34 57 -8 8 -21 4 -53 -17 -62 -44 -138 -162 -184 -290 -12 -33 -26 -59 -31 -58 -5 1 -20 42 -34 90 -30 102 -66 179 -95 199 -54 39 -131 0 -267 -134 -122 -121 -122 -121 -89 23 24 102 51 194 95 320 55 159 91 321 80 353 -10 28 -37 41 -49 22z"/>
    <path d="M16510 14343 c-91 -223 -210 -428 -308 -534 -32 -35 -32 -56 1 -43 18 6 108 125 150 197 15 26 29 47 31 47 2 0 -7 -39 -21 -87 -47 -169 -54 -205 -51 -275 2 -54 7 -73 20 -82 22 -13 49 7 32 24 -10 10 7 171 22 210 3 8 21 69 39 135 18 66 59 192 90 280 63 178 67 198 44 203 -12 2 -25 -17 -49 -75z"/>
    <path d="M18977 14250 c-21 -4 -71 -24 -113 -45 l-75 -38 -22 20 c-33 30 -55 34 -140 23 -61 -7 -85 -6 -118 5 -51 18 -155 19 -189 2 -16 -8 -26 -22 -26 -37 -1 -14 -24 -68 -52 -120 -49 -92 -90 -224 -107 -341 -10 -70 20 -133 77 -159 57 -26 89 -25 146 4 61 31 122 98 162 175 55 109 95 341 70 402 -7 16 -10 33 -6 37 4 3 37 8 74 10 58 3 70 1 86 -17 19 -21 19 -22 -17 -55 -20 -19 -37 -41 -37 -51 0 -13 10 -8 41 20 38 34 43 36 52 19 6 -10 13 -92 17 -183 9 -193 24 -254 75 -306 56 -55 142 -60 216 -10 50 33 143 157 163 219 23 67 35 172 27 226 -9 57 -66 143 -111 168 -31 17 -128 44 -148 41 -4 -1 -24 -5 -45 -9z m-489 -49 c9 -5 1 -10 -25 -14 -79 -14 -119 -6 -96 16 9 10 106 8 121 -2z m654 -15 c23 -11 49 -37 69 -67 31 -49 32 -51 27 -147 -6 -113 -23 -162 -93 -252 -59 -77 -121 -115 -176 -107 -92 12 -117 68 -134 301 -8 100 -17 191 -20 203 -6 20 0 25 51 49 33 14 70 30 84 35 40 13 151 5 192 -15z m-571 -55 c8 -28 8 -59 0 -123 -26 -195 -119 -355 -238 -409 -36 -17 -49 -18 -82 -9 -22 6 -46 21 -55 35 -21 31 -21 113 0 190 9 33 20 77 25 98 5 21 32 83 59 138 l50 99 53 1 c28 0 75 4 102 9 28 4 55 8 62 9 7 0 17 -16 24 -38z"/>
    <path d="M12452 14113 c-119 -82 -251 -346 -252 -505 0 -44 28 -78 63 -78 49 0 141 88 202 193 15 26 30 45 35 42 4 -2 8 -27 9 -55 1 -63 12 -84 51 -100 38 -16 52 -5 22 16 -20 14 -22 24 -22 99 0 95 -12 138 -36 133 -9 -2 -41 -43 -71 -93 -60 -100 -121 -168 -165 -186 -46 -19 -54 -3 -40 86 28 180 187 435 271 435 45 0 62 -32 54 -98 -3 -29 -10 -55 -14 -58 -18 -11 -9 -25 10 -15 24 13 41 62 41 117 0 35 -5 47 -31 68 -39 33 -76 33 -127 -1z"/>
    <path d="M17616 14003 c-3 -3 -3 -10 0 -14 7 -12 34 -11 34 0 0 11 -26 22 -34 14z"/>
    <path d="M17585 13800 c-4 -6 -3 -16 3 -22 6 -6 12 -6 17 2 4 6 3 16 -3 22 -6 6 -12 6 -17 -2z"/>
    <path d="M13685 7891 c-39 -18 -115 -77 -115 -90 0 -3 -29 -37 -65 -75 -36 -37 -62 -72 -59 -77 3 -5 3 -9 1 -9 -3 0 -30 32 -62 71 -39 48 -62 69 -72 65 -11 -4 -13 -2 -9 9 3 10 -12 28 -48 55 -57 43 -116 61 -139 41 -8 -6 -16 -8 -19 -5 -14 13 -70 -29 -84 -63 -17 -39 -14 -87 12 -233 18 -100 88 -283 121 -314 12 -11 23 -26 23 -33 0 -17 81 -85 134 -112 66 -32 102 -24 169 42 72 70 246 337 307 472 44 98 48 200 8 250 -23 30 -49 31 -103 6z m85 -21 c5 -8 10 -28 10 -43 0 -16 4 -26 9 -23 14 9 -14 -116 -36 -159 -68 -133 -113 -215 -113 -208 0 4 -5 0 -11 -10 -5 -9 -7 -22 -4 -27 4 -6 1 -9 -5 -8 -16 4 -52 -60 -44 -75 4 -7 4 -9 -1 -5 -12 11 -35 -11 -35 -34 0 -10 -4 -17 -9 -14 -10 7 -25 -22 -22 -41 1 -8 -5 -10 -15 -6 -13 5 -16 3 -11 -10 3 -9 3 -16 -1 -14 -10 3 -93 -59 -87 -65 10 -10 -51 -1 -73 11 -12 6 -28 9 -34 5 -7 -4 -8 -3 -4 4 7 11 -51 48 -67 44 -5 -1 -6 2 -3 7 4 5 -2 14 -11 20 -10 6 -14 11 -9 11 4 0 -6 16 -23 35 -17 20 -31 40 -31 46 0 6 -5 7 -12 3 -7 -4 -8 -3 -4 4 4 6 -1 26 -11 44 -9 18 -18 35 -18 38 0 3 -6 21 -13 40 -24 72 -53 247 -51 310 2 62 14 90 39 90 6 0 9 3 6 8 -2 4 25 5 60 2 63 -5 65 -6 132 -73 37 -37 72 -64 77 -60 4 4 5 2 1 -5 -9 -14 38 -75 49 -64 5 4 5 2 1 -5 -3 -6 -2 -14 4 -18 5 -3 10 -15 10 -25 0 -19 32 -36 49 -25 15 9 1 36 -23 45 -20 8 -20 9 -1 10 11 1 46 31 80 72 101 118 119 137 154 160 40 26 87 30 101 8z m-240 -134 c0 -2 -8 -10 -17 -17 -16 -13 -17 -12 -4 4 13 16 21 21 21 13z" style="fill: rgb(197, 108, 77);"/>
  </g>
</svg>