<?xml version="1.0" standalone="no"?>
<!DOCTYPE svg PUBLIC "-//W3C//DTD SVG 20010904//EN"
 "http://www.w3.org/TR/2001/REC-SVG-20010904/DTD/svg10.dtd">
<svg version="1.0" xmlns="http://www.w3.org/2000/svg"
 width="2480.000000pt" height="3508.000000pt" viewBox="0 0 2480.000000 3508.000000"
 preserveAspectRatio="xMidYMid meet">

<g transform="translate(0.000000,3508.000000) scale(0.100000,-0.100000)"
fill="#000000" stroke="none">
<path d="M13190 25020 c-141 -11 -493 -115 -632 -187 -40 -21 -75 -39 -79 -41
-3 -1 -3 13 -1 31 5 42 -9 54 -73 60 -349 36 -413 38 -605 19 -335 -35 -448
-73 -927 -316 -191 -97 -245 -129 -331 -199 -56 -46 -157 -115 -224 -153 -66
-38 -141 -84 -167 -102 -25 -18 -71 -49 -101 -70 -30 -20 -100 -71 -155 -113
-55 -41 -140 -104 -190 -138 -49 -34 -110 -77 -135 -96 -76 -59 -151 -107
-240 -153 -47 -25 -103 -58 -125 -72 -22 -15 -76 -47 -120 -71 -44 -24 -125
-72 -180 -108 -102 -66 -428 -229 -590 -296 -49 -21 -151 -68 -225 -104 -74
-37 -151 -74 -170 -81 -19 -7 -180 -78 -358 -157 -177 -79 -325 -143 -328
-143 -11 0 -335 -129 -539 -215 -109 -46 -160 -65 -349 -131 -54 -19 -108 -41
-120 -49 -11 -7 -102 -43 -201 -80 -99 -36 -265 -106 -370 -155 -104 -48 -230
-100 -280 -115 -49 -15 -146 -50 -214 -77 -68 -27 -189 -69 -270 -93 -80 -24
-186 -58 -236 -75 -107 -36 -481 -135 -615 -162 -110 -22 -185 -33 -365 -53
-71 -8 -173 -22 -225 -30 -52 -9 -232 -20 -400 -27 -168 -6 -315 -15 -327 -19
-13 -5 -23 -17 -23 -27 0 -27 55 -32 327 -32 206 0 274 5 424 31 31 5 99 13
150 19 95 9 269 31 391 50 104 15 557 133 713 184 77 26 192 62 255 81 64 19
163 54 220 78 58 24 159 61 225 81 66 21 190 72 275 113 85 41 191 88 235 105
44 17 145 58 225 91 80 32 217 85 305 117 162 58 281 105 390 155 33 14 105
44 160 65 310 121 521 209 690 289 53 26 138 63 264 118 58 24 149 67 204 95
55 27 145 69 201 93 174 74 487 234 586 300 52 34 131 81 175 105 44 23 98 55
120 70 22 15 76 46 120 68 44 23 105 59 137 80 96 63 399 283 473 342 39 31
84 65 102 76 17 10 62 40 100 66 37 25 109 67 158 93 113 60 163 94 245 165
90 79 145 113 380 230 414 207 533 251 752 274 79 9 181 21 228 27 61 8 109 8
170 0 46 -6 113 -11 148 -11 35 0 83 -5 108 -11 39 -10 44 -14 38 -33 -16 -54
-62 -161 -112 -261 -65 -132 -73 -153 -118 -319 -37 -139 -126 -379 -181 -491
-91 -183 -269 -415 -424 -551 -62 -54 -133 -117 -158 -140 -96 -86 -295 -237
-384 -291 -109 -67 -281 -149 -392 -189 -72 -25 -96 -28 -240 -32 -138 -3
-171 -1 -241 17 -139 36 -317 101 -384 141 -76 46 -124 64 -145 56 -25 -9 -17
-25 21 -41 20 -8 58 -31 84 -50 64 -47 166 -93 320 -145 240 -80 474 -75 685
17 343 150 492 252 903 623 156 140 322 357 412 539 68 135 156 364 186 479
39 151 52 187 125 342 112 236 110 233 158 259 l44 24 -5 -69 c-8 -102 -48
-208 -99 -260 l-41 -42 25 -64 c14 -35 36 -120 48 -188 11 -69 23 -132 26
-140 3 -8 13 17 23 56 20 76 88 221 114 243 22 18 21 24 -16 99 -32 65 -33 69
-36 224 l-3 157 38 16 c36 15 154 52 383 118 105 30 106 31 365 31 293 1 328
-3 568 -68 218 -60 313 -94 502 -183 88 -41 187 -85 220 -98 107 -41 318 -135
385 -173 36 -20 115 -59 175 -87 61 -28 165 -86 232 -128 155 -98 207 -125
352 -182 87 -34 140 -64 211 -115 81 -60 175 -117 330 -203 85 -47 132 -76
230 -142 228 -153 291 -188 451 -251 108 -42 249 -112 329 -163 76 -48 130
-73 246 -116 222 -81 297 -117 469 -230 138 -91 284 -168 445 -236 132 -55
194 -91 352 -206 101 -74 229 -144 338 -186 316 -122 566 -180 1205 -278 39
-6 142 -26 231 -44 285 -59 346 -65 798 -75 232 -5 441 -14 466 -19 62 -14
400 -14 458 0 53 13 77 31 69 52 -4 11 -32 13 -159 9 -96 -3 -221 2 -336 12
-106 9 -289 16 -430 16 -393 1 -526 12 -826 69 -144 27 -389 70 -546 96 -571
92 -953 214 -1190 380 -44 30 -115 79 -157 109 -92 63 -147 92 -280 145 -131
52 -273 128 -411 218 -145 95 -278 162 -436 218 -124 44 -207 81 -256 115 -55
38 -224 122 -327 164 -180 72 -250 111 -518 288 -55 36 -167 103 -249 147 -82
44 -188 110 -235 146 -77 57 -215 135 -239 135 -22 0 -201 85 -279 133 -48 30
-117 72 -153 94 -36 22 -94 53 -130 68 -36 16 -99 47 -140 69 -145 76 -230
116 -365 171 -202 83 -234 97 -305 134 -141 74 -312 133 -575 201 -221 57
-427 71 -705 50z m-600 -570 c7 -19 21 -47 32 -62 22 -32 23 -51 2 -69 -17
-14 -56 -92 -91 -182 l-19 -48 -17 93 c-9 51 -28 123 -43 161 l-26 67 40 44
c37 40 69 107 88 186 7 30 10 21 15 -60 3 -52 12 -111 19 -130z"/>
<path d="M12663 24773 c-4 -9 6 -42 25 -77 17 -34 43 -90 57 -126 15 -36 40
-85 55 -110 42 -66 57 -107 84 -227 55 -251 78 -340 98 -378 65 -129 310 -463
425 -581 56 -57 156 -143 233 -200 153 -114 426 -285 500 -314 27 -10 95 -42
152 -69 57 -27 128 -54 158 -60 30 -5 96 -24 147 -40 89 -30 98 -31 270 -31
119 0 195 5 230 14 65 17 156 61 179 87 9 10 20 19 23 19 3 0 5 -36 3 -80 -4
-90 2 -106 83 -228 54 -83 73 -103 210 -223 153 -135 192 -164 345 -259 74
-46 187 -117 250 -158 144 -94 302 -185 400 -230 205 -93 589 -211 881 -268
130 -26 147 -27 592 -31 495 -6 530 -3 762 52 55 14 120 29 145 35 78 19 209
72 215 88 3 9 -1 22 -8 29 -12 12 -26 11 -93 -11 -114 -37 -389 -103 -479
-115 -45 -7 -258 -11 -513 -11 -414 0 -445 1 -587 24 -318 52 -740 184 -970
305 -131 69 -197 108 -380 226 -71 46 -181 117 -244 157 -132 85 -377 293
-439 374 -23 31 -58 84 -78 117 l-36 62 7 111 c7 108 6 113 -14 124 -30 15
-56 5 -86 -34 -14 -18 -46 -44 -72 -58 -90 -49 -142 -58 -332 -58 -175 0 -177
0 -276 35 -55 19 -114 35 -130 35 -17 0 -68 19 -115 43 -47 24 -116 56 -153
71 -64 25 -110 51 -327 186 -93 57 -244 167 -329 239 -74 64 -204 211 -264
301 -28 41 -65 93 -82 115 -18 22 -62 87 -99 145 -49 79 -70 123 -82 175 -8
39 -26 111 -39 160 -12 50 -32 130 -44 180 -14 60 -35 114 -64 165 -24 41 -54
100 -66 130 -69 164 -110 220 -128 173z"/>
<path d="M12509 23803 c-37 -9 -52 -100 -23 -141 19 -28 35 -28 62 1 29 30 31
106 4 130 -10 10 -20 16 -23 16 -2 -1 -11 -3 -20 -6z m35 -19 c31 -30 9 -124
-28 -124 -29 0 -36 81 -10 118 18 26 18 26 38 6z"/>
<path d="M11448 23593 c-8 -10 -32 -47 -53 -82 -21 -35 -76 -108 -122 -162
-235 -276 -487 -390 -1103 -498 -158 -28 -270 -41 -368 -42 -57 -1 -82 -5 -79
-12 14 -42 301 -27 657 34 299 50 534 136 705 257 89 62 207 179 279 274 55
73 126 204 126 233 0 20 -23 19 -42 -2z"/>
<path d="M12482 23518 c-7 -7 -12 -18 -12 -25 0 -8 8 -5 21 8 21 21 21 21 41
2 41 -41 32 -143 -12 -143 -24 0 -62 57 -56 83 5 21 -10 23 -18 1 -9 -24 20
-83 48 -95 52 -24 91 23 80 96 -10 67 -59 106 -92 73z"/>
<path d="M13797 23443 c-4 -3 -7 -22 -7 -41 0 -28 8 -43 42 -75 137 -130 564
-322 818 -368 110 -20 228 -16 283 9 64 28 107 60 107 78 0 27 -31 27 -85 0
-46 -22 -67 -26 -143 -26 -205 0 -440 73 -765 237 -153 77 -227 133 -227 171
0 22 -10 28 -23 15z"/>
<path d="M12511 23074 c-15 -34 -41 -156 -41 -195 0 -16 -4 -29 -8 -29 -5 0
-44 20 -88 45 -82 47 -94 51 -94 35 0 -5 5 -10 12 -10 6 0 44 -20 84 -45 39
-25 78 -45 85 -45 10 0 19 30 30 98 9 53 22 111 29 127 11 27 13 28 20 10 4
-11 13 -67 20 -125 7 -58 17 -113 22 -122 10 -21 31 -23 50 -5 73 72 214 175
224 164 3 -3 -25 -51 -62 -107 -74 -114 -124 -217 -124 -255 0 -14 9 -58 20
-97 20 -74 27 -172 11 -166 -10 4 -119 140 -144 181 -16 25 -47 38 -47 19 0
-16 -152 -173 -182 -188 -16 -9 -32 -13 -34 -11 -3 2 25 56 62 118 86 145 114
198 114 218 0 16 -219 235 -227 227 -10 -10 20 -45 107 -130 81 -79 91 -92 86
-117 -3 -15 -44 -94 -91 -175 -47 -82 -85 -152 -85 -155 0 -4 7 -10 16 -13 28
-11 98 39 179 126 l77 83 21 -29 c91 -122 140 -177 155 -174 27 5 28 105 3
188 -12 38 -21 80 -21 95 0 35 43 120 126 248 68 107 78 137 43 137 -25 0 -59
-22 -167 -113 -46 -38 -86 -67 -89 -63 -3 3 -12 49 -20 103 -25 171 -43 209
-72 147z"/>
<path d="M15651 22866 c-35 -42 41 -175 235 -412 106 -129 164 -182 316 -284
67 -46 144 -100 170 -121 73 -57 143 -94 258 -134 159 -55 498 -128 680 -146
93 -9 316 -42 469 -69 95 -17 194 -12 287 15 72 21 108 25 213 25 172 0 239
13 336 63 90 47 125 79 125 114 0 38 -22 36 -96 -7 -101 -59 -177 -80 -293
-80 -126 0 -250 -16 -315 -40 -63 -25 -180 -26 -316 -5 -52 8 -165 24 -250 35
-297 39 -366 50 -515 81 -193 40 -389 102 -461 145 -31 19 -88 58 -128 87 -39
30 -111 80 -161 112 -100 66 -216 177 -319 305 -90 113 -173 239 -189 286 -15
43 -28 51 -46 30z"/>
<path d="M9336 22678 c-7 -13 -26 -52 -42 -88 -71 -161 -224 -326 -470 -505
-202 -147 -303 -197 -515 -250 -242 -62 -662 -109 -908 -103 -105 2 -145 0
-148 -9 -7 -20 28 -30 143 -42 215 -22 698 30 964 104 201 57 316 116 517 267
269 203 428 394 473 568 6 25 13 53 16 63 8 25 -13 21 -30 -5z"/>
<path d="M9824 22492 c-6 -4 -25 -32 -41 -62 -84 -155 -143 -238 -228 -325
-177 -179 -429 -346 -652 -431 -171 -65 -454 -152 -630 -194 -475 -114 -806
-126 -1333 -50 -41 6 -127 14 -191 17 -139 7 -175 -3 -404 -109 -82 -39 -211
-96 -285 -128 -151 -65 -207 -90 -360 -160 -320 -147 -273 -129 -1050 -385
-255 -84 -690 -201 -910 -244 -58 -11 -188 -37 -290 -57 -148 -29 -209 -37
-305 -37 -67 -1 -131 4 -146 10 -30 13 -55 2 -46 -21 10 -24 50 -36 146 -42
117 -8 202 4 671 92 200 37 604 142 850 221 700 224 809 262 1012 354 354 161
441 200 513 229 39 16 102 44 140 63 39 19 124 58 190 88 109 49 127 54 205
57 72 3 492 -36 568 -53 12 -3 91 -10 175 -16 325 -21 790 58 1282 218 255 83
399 148 554 250 303 199 431 335 584 621 31 59 36 76 27 87 -14 16 -29 19 -46
7z"/>
<path d="M12503 22218 c-16 -21 -23 -47 -13 -53 5 -3 10 5 12 17 4 32 44 37
53 8 9 -28 -11 -52 -25 -30 -11 18 -23 8 -14 -13 10 -27 33 -28 50 -2 13 21
14 28 2 52 -14 31 -49 42 -65 21z"/>
<path d="M14418 22035 c-3 -5 -11 -30 -18 -55 -26 -97 -148 -309 -171 -294 -5
3 -9 -2 -9 -10 0 -52 73 37 134 163 25 52 46 101 46 108 0 7 5 13 10 13 6 0
10 -7 10 -16 0 -48 92 -226 139 -268 28 -25 27 -28 -15 -51 -55 -29 -94 -85
-128 -180 -6 -16 -13 -6 -36 48 -27 64 -70 132 -94 149 -25 18 -26 6 -1 -23
30 -36 65 -103 94 -179 17 -45 18 -59 9 -106 -12 -60 -1 -104 26 -104 22 0 29
51 16 118 -9 53 -8 66 12 118 15 39 39 76 71 108 50 50 64 53 135 31 34 -11
27 12 -10 31 -95 48 -191 209 -206 349 -4 33 -10 56 -14 50z m-7 -762 c-9 -16
-10 -14 -11 12 0 21 3 26 11 18 8 -8 8 -16 0 -30z"/>
<path d="M10891 21985 c0 -5 -3 -94 -6 -196 -2 -103 -7 -195 -10 -205 -3 -11
1 -5 9 11 11 21 15 68 16 160 1 147 1 147 59 -38 42 -133 56 -167 70 -167 4 0
17 17 29 39 12 21 46 56 74 78 99 75 171 123 176 118 3 -3 -15 -35 -40 -73
-26 -37 -55 -84 -65 -106 l-18 -38 40 -35 c22 -20 58 -47 80 -61 99 -62 184
-157 161 -179 -10 -10 -88 -10 -242 1 l-120 9 -33 -39 c-17 -21 -61 -97 -96
-169 l-64 -130 -1 60 c0 33 12 122 27 197 32 162 35 154 -75 188 -75 24 -162
72 -162 90 0 6 24 10 55 10 30 0 55 5 55 10 0 6 -28 10 -65 10 -50 0 -67 -4
-72 -16 -13 -34 83 -99 194 -129 34 -10 64 -24 67 -32 3 -8 -6 -71 -19 -139
-26 -128 -32 -290 -10 -288 6 0 44 69 85 152 41 83 85 162 98 174 22 22 29 23
210 23 l187 0 3 26 c4 35 -80 127 -168 185 -100 66 -113 80 -106 109 4 14 34
66 68 115 72 104 71 130 -3 83 -97 -62 -200 -145 -221 -178 -13 -19 -25 -35
-28 -35 -5 0 -100 283 -128 380 -5 19 -10 31 -11 25z"/>
<path d="M12506 21845 c-31 -28 -32 -46 -7 -100 27 -59 53 -79 88 -68 37 13
55 48 50 101 -9 83 -76 118 -131 67z m94 -7 c25 -27 28 -109 4 -132 -36 -36
-77 -6 -94 70 -7 31 -5 40 15 60 30 30 48 30 75 2z"/>
<path d="M20261 21611 c-24 -16 -7 -32 64 -60 69 -27 199 -99 345 -191 103
-65 288 -161 391 -204 130 -53 379 -123 509 -141 63 -9 156 -25 205 -36 137
-28 230 -39 345 -41 58 -1 111 -5 118 -11 8 -6 12 -6 12 2 0 8 43 11 140 11
140 0 324 21 362 41 10 6 18 18 16 27 -3 15 -15 16 -98 12 -52 -3 -234 -5
-405 -5 -295 0 -317 1 -455 27 -80 15 -193 35 -252 43 -130 19 -382 90 -498
140 -93 40 -260 127 -355 185 -139 84 -185 110 -260 148 -67 33 -144 62 -165
62 -3 0 -11 -4 -19 -9z"/>
<path d="M12556 21507 c-10 -52 -80 -189 -115 -224 -33 -33 -39 -45 -18 -38 7
2 41 -43 82 -110 39 -63 75 -115 81 -115 7 0 13 26 16 63 6 76 48 169 89 199
36 27 36 33 -1 54 -42 26 -88 94 -102 153 -13 59 -23 65 -32 18z m38 -81 c15
-30 43 -69 63 -86 l35 -31 -25 -27 c-36 -38 -74 -119 -82 -176 l-8 -48 -58 90
c-32 49 -62 93 -67 96 -6 3 9 35 32 69 24 35 51 87 61 115 11 29 20 52 21 52
1 0 14 -24 28 -54z"/>
<path d="M5420 21504 c-56 -34 -321 -180 -405 -225 -49 -26 -128 -61 -175 -79
-47 -17 -134 -52 -195 -78 -60 -25 -146 -60 -190 -77 -44 -18 -143 -60 -220
-95 -252 -111 -208 -97 -670 -227 -49 -14 -155 -45 -235 -70 -158 -50 -328
-94 -430 -113 -74 -13 -175 -59 -161 -73 6 -6 29 -3 58 6 26 8 98 23 158 32
99 15 322 71 436 109 24 8 130 37 234 65 400 107 445 123 721 251 88 40 381
158 504 203 105 38 244 105 345 167 36 22 109 62 163 89 106 54 145 84 140
109 -4 22 -46 25 -78 6z"/>
<path d="M19190 21473 c1 -11 19 -26 48 -40 26 -12 112 -61 192 -109 155 -94
288 -163 385 -200 33 -13 110 -44 170 -69 131 -55 357 -134 493 -170 53 -15
138 -38 187 -52 50 -14 160 -38 247 -54 86 -15 173 -32 195 -38 21 -6 88 -19
148 -29 61 -11 144 -29 185 -40 212 -59 472 -88 575 -65 28 7 67 15 88 18 20
3 37 11 37 16 0 6 -9 8 -19 4 -11 -3 -22 -1 -26 5 -4 7 -29 8 -68 5 -120 -12
-445 29 -597 74 -36 11 -99 24 -140 31 -41 6 -111 19 -155 29 -44 11 -134 29
-200 40 -66 12 -145 29 -175 38 -30 8 -106 28 -168 44 -242 61 -378 108 -685
233 -192 78 -262 114 -567 286 -109 62 -150 74 -150 43z"/>
<path d="M14868 20919 c-10 -5 -18 -16 -18 -22 0 -7 39 -77 86 -156 47 -78 84
-147 82 -152 -6 -19 -106 41 -120 72 -16 36 -26 37 -34 4 -12 -47 5 -89 57
-145 86 -93 88 -96 74 -198 -8 -58 -23 -110 -45 -156 -31 -66 -32 -70 -15 -83
22 -16 32 -16 109 -3 33 5 63 14 66 21 4 6 -1 54 -10 107 -10 53 -17 98 -16
99 2 2 23 -34 49 -80 51 -91 89 -222 107 -372 16 -130 46 -259 74 -322 42 -90
175 -284 246 -358 136 -141 137 -143 115 -286 -16 -112 -40 -174 -86 -227 -41
-46 -36 -79 28 -180 96 -155 163 -321 163 -407 0 -31 -19 -126 -45 -227 -25
-95 -54 -213 -65 -263 -83 -371 -147 -638 -178 -740 l-18 -60 -77 -6 c-108 -9
-161 -47 -234 -168 -30 -50 -33 -62 -33 -139 0 -90 10 -122 39 -122 32 0 135
75 173 127 37 49 138 247 138 271 0 6 6 12 13 12 18 0 13 -145 -17 -506 -14
-164 -27 -355 -31 -424 -3 -69 -10 -181 -15 -250 -5 -69 -14 -215 -20 -325
-11 -196 -10 -204 19 -415 16 -118 39 -303 51 -410 12 -107 30 -247 41 -310
20 -124 39 -299 39 -360 0 -23 -8 -46 -21 -61 -12 -13 -40 -50 -62 -83 -54
-76 -379 -349 -487 -409 -18 -9 -34 -26 -37 -37 -3 -11 -14 -22 -24 -25 -10
-4 -19 -12 -19 -19 0 -17 140 -28 212 -16 125 20 311 75 362 107 22 15 71 55
109 91 37 36 67 63 67 60 0 -2 -7 -49 -15 -103 -8 -54 -12 -108 -9 -120 8 -30
45 -49 102 -49 45 -1 48 1 66 39 19 38 19 43 3 210 -10 93 -17 196 -17 228 0
69 -23 125 -57 138 -13 5 -21 14 -18 19 4 6 16 72 26 147 11 74 38 203 60 287
22 83 48 192 59 241 26 128 60 473 71 725 18 442 29 573 79 915 11 77 20 158
20 180 0 34 9 81 37 203 9 38 -14 24 -31 -19 -17 -41 -26 -100 -46 -284 -6
-55 -22 -194 -36 -310 -13 -115 -24 -241 -24 -280 0 -38 -7 -133 -15 -210 -8
-77 -15 -187 -15 -245 0 -195 -40 -589 -72 -710 -72 -272 -102 -408 -113 -510
-3 -30 -8 -72 -11 -92 l-6 -38 -57 0 -58 0 -6 113 c-3 61 -16 182 -30 267 -14
85 -35 241 -47 345 -12 105 -35 285 -51 400 -23 157 -29 229 -24 285 3 41 10
158 15 260 17 340 40 682 65 966 13 155 22 305 18 333 -3 28 -2 51 2 51 18 0
69 -46 111 -102 l47 -60 -17 -48 c-10 -29 -16 -68 -14 -101 3 -47 6 -54 26
-57 14 -2 33 7 52 26 34 34 33 60 -1 141 -19 43 -19 44 1 72 34 46 99 97 148
113 50 17 157 21 194 7 40 -15 97 -212 138 -476 12 -77 35 -180 50 -230 16
-49 33 -114 39 -143 14 -66 27 -92 47 -92 8 0 94 70 192 155 97 86 199 169
228 186 29 16 112 82 185 147 72 64 146 126 163 138 17 11 56 37 86 58 86 57
273 204 283 222 8 13 5 15 -14 9 -31 -10 -65 -34 -171 -122 -47 -40 -117 -92
-155 -116 -37 -25 -133 -102 -213 -172 -80 -70 -162 -136 -184 -147 -21 -11
-66 -45 -100 -76 -240 -222 -295 -267 -307 -255 -5 5 -14 36 -20 68 -6 33 -24
101 -39 150 -16 50 -38 149 -50 220 -32 200 -57 315 -85 390 l-26 68 23 -15
c13 -8 37 -34 55 -57 32 -41 32 -42 26 -124 -7 -95 5 -130 40 -125 36 5 44 48
23 129 l-18 70 28 40 c74 107 203 159 276 111 61 -40 98 -131 68 -167 -20 -24
-6 -18 90 39 50 30 153 82 229 116 76 33 202 99 280 146 150 90 214 111 240
81 8 -10 14 -56 16 -126 l3 -109 49 -64 c26 -35 55 -75 64 -88 l17 -25 24 22
c13 13 38 26 56 29 l32 7 0 70 c0 103 -28 258 -51 280 -26 24 -24 34 9 51 47
24 81 68 88 114 6 37 4 42 -13 42 -59 0 -260 -74 -298 -110 -11 -11 -36 -26
-55 -35 -19 -9 -91 -52 -160 -96 -69 -44 -208 -120 -309 -170 -102 -50 -197
-99 -212 -110 -37 -26 -43 -24 -62 16 -23 48 -21 64 9 108 36 54 99 97 141 97
47 0 68 -13 94 -60 24 -41 39 -51 39 -25 0 26 -28 72 -56 94 -68 53 -190 -6
-249 -119 l-16 -30 -37 30 c-21 16 -51 32 -68 36 -70 14 -171 -40 -239 -125
-22 -28 -42 -51 -45 -51 -3 0 -15 17 -28 38 -99 158 -340 160 -482 5 l-48 -53
-22 34 c-29 49 -128 136 -152 136 -16 0 -19 4 -14 23 29 98 149 584 166 672
12 61 46 206 76 323 67 263 68 305 20 431 -40 103 -67 157 -135 270 -28 46
-51 95 -51 108 0 13 12 33 26 46 14 12 35 40 46 61 23 45 58 201 58 259 l0 39
98 -92 c53 -51 106 -99 118 -107 56 -36 76 16 126 327 14 92 28 97 21 8 l-6
-75 37 -41 c47 -52 85 -64 205 -66 78 -1 101 2 123 17 35 24 60 87 52 135 -6
36 -6 36 13 19 22 -19 83 -23 114 -6 17 9 22 5 35 -27 13 -30 13 -46 5 -80
-26 -101 -7 -340 41 -517 11 -43 19 -80 16 -82 -2 -2 -35 -13 -73 -24 -39 -11
-60 -20 -47 -20 39 -1 209 38 362 85 80 24 174 52 210 63 173 51 555 212 662
278 64 40 225 128 268 146 11 5 12 9 3 13 -18 8 6 54 28 54 16 0 39 23 65 66
9 16 14 17 27 6 20 -17 54 -7 62 19 9 26 24 24 54 -9 61 -67 91 -43 91 74 0
95 -31 154 -82 154 -14 0 -58 -62 -58 -83 0 -22 -25 -48 -40 -42 -22 9 -49 50
-56 83 -6 27 -3 30 30 36 86 16 276 136 276 174 0 22 -22 12 -59 -25 -61 -63
-241 -147 -265 -123 -5 5 -28 10 -49 10 -30 0 -40 -4 -44 -20 -4 -16 -14 -20
-44 -20 -36 0 -39 2 -40 28 0 15 -4 65 -9 112 -8 79 -7 86 12 103 13 11 37 17
68 17 38 0 53 5 74 26 14 15 26 29 26 33 0 3 4 23 9 44 12 52 -6 57 -19 5 -17
-61 -45 -88 -92 -88 -22 0 -61 -11 -90 -26 -44 -22 -61 -25 -105 -21 -55 6
-113 32 -120 54 -3 7 7 18 21 25 38 17 62 61 87 163 20 80 28 95 69 138 l46
47 33 -16 c25 -12 36 -13 44 -5 18 18 -6 46 -37 44 -24 -2 -26 1 -26 42 0 48
12 58 50 42 25 -10 25 -10 3 -14 -13 -3 -23 -9 -23 -15 0 -10 32 -8 146 10 87
14 137 64 100 101 -19 18 -31 13 -101 -43 l-36 -29 -67 13 c-37 7 -73 17 -79
23 -10 7 -13 -4 -13 -52 0 -58 -2 -64 -50 -123 -34 -42 -56 -81 -66 -118 -40
-144 -44 -155 -86 -192 l-42 -37 19 -22 c32 -35 94 -59 157 -59 l56 0 6 -62
c4 -35 7 -90 9 -123 l2 -60 48 -3 47 -3 0 -57 c0 -31 5 -86 10 -121 16 -98 4
-124 -80 -166 -38 -19 -109 -59 -160 -90 -50 -30 -112 -66 -138 -79 -81 -41
-523 -213 -607 -236 -44 -12 -109 -33 -145 -46 -88 -32 -201 -57 -211 -47 -14
15 -58 218 -70 322 -12 110 -9 181 12 249 l12 41 23 -18 c31 -25 107 -45 139
-37 33 8 55 58 55 125 0 74 -16 70 -23 -5 -8 -78 -18 -94 -61 -94 -54 0 -118
40 -146 90 -21 39 -25 58 -25 137 l0 92 81 79 c96 93 109 123 101 226 -6 78
-14 106 -29 106 -6 0 -8 -7 -5 -15 4 -8 9 -48 13 -89 9 -96 -13 -144 -97 -217
-78 -68 -89 -90 -89 -187 0 -79 0 -80 -30 -92 -65 -27 -118 12 -152 112 -38
109 -40 125 -24 182 20 69 66 130 124 167 58 37 138 128 147 169 4 16 4 39 0
50 -8 24 -7 24 34 4 36 -18 101 -15 126 6 18 15 39 86 31 106 -10 26 -26 14
-26 -20 0 -51 -29 -81 -77 -80 -52 2 -86 25 -108 74 -14 32 -17 57 -13 132 6
115 26 168 62 168 27 0 102 59 77 60 -8 0 -23 -8 -34 -17 -45 -42 -225 -2
-300 66 -22 20 -48 54 -58 76 -10 22 -19 32 -19 22 0 -29 37 -93 72 -122 40
-34 124 -73 178 -81 22 -4 40 -8 40 -11 0 -2 -8 -18 -17 -36 -14 -25 -18 -57
-18 -153 l0 -121 -27 -11 c-27 -10 -39 -32 -18 -32 6 0 10 5 10 10 0 16 47 11
54 -6 3 -9 6 -33 6 -54 0 -32 -9 -49 -49 -97 -27 -32 -74 -83 -106 -113 -56
-54 -105 -132 -105 -168 0 -10 -5 -23 -11 -29 -15 -15 2 -92 41 -190 50 -123
36 -203 -39 -223 -49 -13 -184 1 -228 23 -17 9 -41 29 -53 44 -32 40 -24 116
18 180 83 127 82 148 -13 195 -64 31 -65 31 -43 47 66 46 118 140 118 214 0
26 -4 47 -9 47 -5 0 -30 -9 -55 -20 -25 -10 -67 -22 -94 -25 l-47 -6 -25 57
c-14 32 -26 61 -28 65 -2 4 11 15 28 24 43 22 75 96 94 214 14 84 20 99 50
130 47 50 67 93 78 173 6 44 18 82 33 104 13 19 27 56 31 82 17 122 89 170
191 127 47 -20 62 -19 89 6 15 14 37 22 63 23 47 1 74 -20 134 -109 23 -33 58
-79 80 -102 34 -37 39 -48 42 -105 8 -140 77 -238 166 -238 79 0 130 120 74
175 -45 46 -135 27 -135 -28 1 -21 2 -20 21 6 41 55 127 20 114 -46 -18 -88
-86 -109 -151 -46 -40 39 -61 92 -67 172 l-5 57 38 0 c29 0 43 6 54 22 20 28
20 80 2 117 -30 57 -116 114 -145 96 -20 -12 -11 -35 17 -41 15 -4 38 -14 52
-22 14 -9 29 -17 35 -17 15 0 35 -46 35 -80 0 -38 -16 -55 -50 -55 -40 0 -91
45 -160 142 -90 127 -149 155 -218 104 -31 -23 -34 -23 -86 -8 -112 31 -183
-14 -205 -128 -20 -105 -61 -135 -152 -110 -77 21 -102 87 -59 158 39 64 100
69 100 7 0 -32 -7 -40 -32 -36 -11 2 -10 -17 2 -24 5 -3 19 -1 30 5 15 8 20
21 20 48 0 56 -19 76 -62 68 -73 -13 -120 -117 -87 -190 15 -32 87 -66 140
-66 l42 0 -6 -54 c-8 -76 -42 -148 -87 -185 -46 -37 -69 -46 -135 -55 -66 -8
-109 16 -119 68 -4 20 -2 44 4 55 24 46 129 93 156 70 9 -7 13 -21 11 -31 -3
-11 0 -18 9 -18 17 0 19 51 2 68 -46 46 -208 -44 -208 -117 0 -41 28 -89 61
-107 32 -16 96 -16 158 2 24 7 24 7 18 -48 -12 -101 -44 -185 -81 -213 -18
-14 -38 -25 -44 -25 -17 0 -16 -4 18 -63 24 -42 27 -56 17 -66 -9 -9 -9 -14 3
-21 31 -20 123 -8 203 25 14 6 17 2 17 -21 0 -70 -99 -204 -150 -204 -38 0
-20 -21 43 -50 34 -17 67 -30 73 -30 14 0 24 -23 24 -52 0 -10 -14 -39 -30
-64 -25 -35 -37 -44 -60 -44 -16 0 -32 5 -35 10 -14 22 -80 40 -149 40 l-72 0
-49 151 c-47 146 -74 208 -203 452 -71 136 -113 200 -158 242 -17 17 -58 80
-89 142 -57 109 -59 115 -64 210 l-6 98 -57 0 c-31 0 -60 3 -64 8 -4 4 -2 7 3
7 6 0 29 28 51 63 22 34 65 94 96 132 30 39 54 75 53 80 -2 6 -55 13 -118 16
-63 3 -143 11 -179 17 -114 19 -145 21 -162 11z m9 -41 c-3 -8 -6 -5 -6 6 -1
11 2 17 5 13 3 -3 4 -12 1 -19z m183 2 c63 -11 141 -20 173 -20 l57 0 -58 -77
c-32 -43 -69 -96 -82 -118 -31 -50 -56 -75 -75 -75 -10 0 -41 52 -86 148 -39
81 -73 150 -76 155 -7 11 22 9 147 -13z m-106 -300 c49 -25 71 -30 130 -30 39
0 86 4 104 9 l32 10 0 -52 c0 -122 75 -299 170 -402 56 -61 86 -107 140 -216
23 -46 60 -113 81 -150 46 -78 76 -149 135 -328 25 -74 49 -140 55 -147 7 -8
37 -13 84 -13 69 0 135 -17 148 -38 4 -6 -7 -87 -22 -180 -26 -153 -42 -213
-57 -213 -11 0 -143 110 -164 137 -12 15 -81 89 -154 164 -95 98 -151 166
-197 238 -124 195 -144 249 -174 467 -8 56 -26 152 -40 212 -23 97 -34 121
-97 223 -39 63 -80 120 -90 127 -10 7 -18 18 -18 24 0 6 -26 41 -59 77 -48 54
-84 111 -69 111 2 0 30 -14 62 -30z m108 -272 c4 -29 11 -85 14 -124 7 -81 11
-77 -78 -90 -59 -8 -61 1 -18 85 24 48 50 148 50 196 0 5 5 4 12 -3 6 -6 15
-35 20 -64z m3159 -189 c-35 -28 -51 -22 -17 7 15 14 31 22 35 19 3 -4 -5 -15
-18 -26z m-626 -3238 c32 -27 62 -57 66 -67 4 -11 8 -61 8 -113 l1 -94 -29 39
c-16 21 -41 52 -55 67 -15 18 -29 51 -36 85 -7 32 -15 74 -20 95 -4 20 -5 37
-1 37 3 0 33 -22 66 -49z m-2135 -129 c0 -4 -27 -62 -59 -128 -65 -131 -119
-197 -191 -234 -54 -28 -60 -20 -60 80 0 65 4 82 29 125 40 68 94 123 144 146
42 18 137 26 137 11z m270 -294 c0 -24 -30 -58 -52 -58 -12 0 -9 78 4 123 l12
41 18 -40 c10 -21 18 -51 18 -66z m539 37 c10 -52 5 -78 -13 -72 -17 6 -29 62
-22 103 9 46 23 34 35 -31z m-630 -2883 l43 -4 -4 -48 c-4 -37 -15 -60 -51
-108 -54 -70 -146 -155 -192 -176 -55 -27 -234 -67 -280 -64 l-45 3 138 112
c75 61 148 123 161 137 14 14 30 26 37 26 14 0 74 64 100 108 13 23 23 30 34
25 8 -3 35 -8 59 -11z m-622 -468 c-3 -3 -12 -4 -19 -1 -8 3 -5 6 6 6 11 1 17
-2 13 -5z m733 -14 c0 -5 -7 -10 -15 -10 -8 0 -15 5 -15 10 0 6 7 10 15 10 8
0 15 -4 15 -10z"/>
<path d="M7361 20901 c-17 -30 -13 -102 8 -162 38 -110 84 -209 97 -209 24 0
15 38 -27 123 -45 88 -69 162 -69 215 0 48 21 39 54 -23 31 -60 56 -69 66 -25
l6 25 18 -27 c23 -35 42 -36 50 -2 l7 25 29 -31 c28 -30 32 -31 53 -18 12 8
32 36 44 62 45 91 58 52 48 -140 -4 -90 -3 -144 2 -144 20 0 31 279 13 325
-17 44 -50 30 -79 -32 -13 -29 -30 -54 -37 -57 -14 -5 -18 -2 -53 44 l-20 25
-14 -34 -14 -34 -19 32 c-22 37 -44 41 -44 7 0 -44 -18 -37 -47 16 -30 57 -55
71 -72 39z"/>
<path d="M12408 20854 c-3 -3 -63 -11 -133 -19 -260 -29 -474 -124 -717 -318
-293 -234 -506 -597 -573 -979 -47 -266 -18 -551 81 -769 50 -111 245 -414
316 -490 24 -25 68 -75 98 -111 78 -92 129 -131 265 -205 151 -83 200 -103
372 -153 196 -56 347 -74 522 -61 173 13 398 70 469 119 15 10 59 36 97 57 39
21 88 52 110 69 92 71 213 177 228 199 8 13 43 53 77 88 76 79 205 270 273
404 88 176 127 397 127 721 0 170 -36 353 -95 481 -8 17 -15 35 -15 40 0 16
-116 192 -172 261 -161 197 -242 265 -513 430 -172 104 -352 174 -535 207
-142 25 -273 39 -282 29z m-9 -102 c-131 -139 -252 -348 -302 -522 -13 -44
-26 -83 -30 -86 -8 -8 -179 15 -197 26 -17 10 3 51 99 210 95 155 162 243 229
298 79 66 205 142 236 142 28 0 27 -1 -35 -68z m256 53 c185 -30 243 -53 443
-174 138 -84 211 -133 277 -185 66 -54 69 -59 37 -71 -15 -5 -64 -29 -109 -52
l-82 -43 -48 82 c-35 60 -80 114 -168 201 -123 122 -224 207 -246 207 -6 0 4
-12 23 -27 19 -16 92 -82 162 -148 125 -117 192 -198 234 -281 l21 -40 -87
-29 c-48 -16 -91 -30 -96 -30 -4 0 -18 27 -31 60 -35 94 -68 154 -133 242 -73
98 -225 254 -269 277 -44 22 -42 3 2 -24 80 -50 275 -282 332 -395 33 -66 68
-164 61 -171 -16 -15 -195 -56 -309 -70 -104 -13 -182 -15 -353 -11 -120 3
-220 8 -222 10 -8 7 53 191 90 270 47 104 129 224 223 330 88 100 85 99 248
72z m-343 -20 c-79 -45 -164 -119 -228 -198 -63 -77 -225 -339 -239 -385 -6
-21 -11 -23 -43 -17 -51 9 -252 78 -252 86 0 11 214 242 296 318 113 105 166
138 285 173 141 41 159 46 194 47 30 1 29 0 -13 -24z m-317 -55 c-4 -6 -24
-19 -46 -31 -48 -24 -248 -216 -351 -336 -72 -84 -73 -84 -113 -78 -34 4 -36
4 -15 -5 13 -6 26 -13 28 -15 2 -1 -14 -29 -36 -62 -111 -163 -228 -400 -249
-505 -6 -31 -4 -31 -55 -19 -21 5 -38 6 -38 2 0 -4 17 -12 38 -17 29 -7 36
-14 34 -29 -26 -210 -26 -548 2 -700 8 -43 13 -82 10 -84 -3 -3 -33 2 -67 11
-46 12 -57 13 -43 2 10 -7 42 -18 71 -24 l51 -11 23 -79 c13 -43 38 -108 56
-143 58 -112 191 -319 254 -393 l60 -72 -27 -5 c-23 -5 -34 1 -72 42 -103 111
-161 181 -214 261 -31 47 -74 110 -96 142 -51 71 -145 266 -163 338 -8 30 -23
121 -33 202 -16 128 -17 164 -7 275 32 351 185 692 428 952 118 126 326 275
500 357 80 38 78 37 70 24z m1210 -133 c6 -6 -12 2 -40 18 -27 15 -54 32 -60
38 -5 6 13 -2 40 -18 28 -15 55 -32 60 -38z m180 -111 c100 -68 238 -200 335
-320 71 -89 170 -243 170 -264 0 -8 6 -26 14 -40 52 -97 86 -285 86 -466 -1
-335 -38 -541 -131 -713 -78 -146 -189 -309 -268 -393 -39 -41 -71 -78 -71
-82 0 -4 -38 -39 -85 -78 l-84 -72 -28 20 c-16 11 -38 23 -50 26 -13 4 -23 11
-23 15 0 4 18 25 41 46 44 43 187 237 236 321 17 28 63 132 103 232 39 100 79
190 89 200 11 13 41 22 94 29 43 6 81 14 84 17 16 16 -14 18 -84 8 -42 -7 -78
-10 -80 -8 -3 3 3 31 12 63 37 123 45 185 52 390 l6 212 44 7 c62 9 62 22 1
20 l-52 -1 -27 143 c-33 172 -73 273 -148 379 -31 43 -74 107 -95 141 -40 67
-116 136 -238 217 -37 26 -68 49 -68 51 0 7 53 -25 165 -100z m150 -223 c160
-243 163 -249 207 -462 20 -103 26 -146 18 -151 -32 -20 -358 -62 -366 -48 -3
5 -12 70 -20 146 -20 199 -57 349 -111 455 -13 27 -23 50 -21 52 2 1 42 21 90
44 48 24 92 49 99 57 6 8 17 14 23 14 6 0 43 -48 81 -107z m-1908 -42 c43 -17
104 -37 136 -46 31 -9 57 -19 57 -22 0 -3 -18 -47 -39 -97 -58 -137 -93 -264
-126 -459 l-6 -39 -52 7 c-29 4 -104 21 -167 37 -63 17 -134 35 -157 41 -24 6
-43 16 -43 22 0 6 13 51 30 100 57 168 236 485 275 485 7 0 49 -13 92 -29z
m1616 -23 c47 -95 85 -252 106 -433 10 -93 18 -171 17 -173 -6 -5 -215 -32
-256 -32 l-46 0 4 123 c5 144 -12 374 -33 443 -16 55 -17 55 60 80 28 8 64 22
80 30 17 7 33 14 36 14 3 0 18 -24 32 -52z m-233 -65 c23 -85 30 -178 28 -373
l-3 -205 -220 -18 c-171 -13 -277 -16 -475 -11 -177 4 -252 2 -245 -5 16 -17
458 -26 615 -13 74 7 177 15 229 18 l94 7 -7 -154 c-6 -130 -46 -468 -62 -520
-3 -13 -42 -17 -237 -27 -127 -7 -327 -12 -443 -12 l-211 0 -11 53 c-6 28 -16
95 -22 147 -6 52 -15 131 -20 174 -6 44 -10 132 -10 198 l0 118 35 0 c44 0 46
18 3 22 l-33 3 2 68 c1 80 28 299 50 417 l16 86 257 -4 c282 -5 407 5 548 42
115 31 110 31 122 -11z m-1032 -5 c45 -6 82 -17 82 -23 0 -5 -7 -46 -15 -89
-19 -99 -55 -387 -55 -439 l0 -40 -152 8 c-84 4 -156 9 -159 11 -21 13 63 355
122 492 41 96 46 103 69 98 14 -3 62 -11 108 -18z m-603 -532 c66 -18 152 -39
190 -46 l71 -12 0 -202 c-1 -202 5 -254 49 -441 8 -37 15 -69 15 -72 0 -7
-366 5 -422 13 -20 3 -39 12 -42 20 -3 8 -13 64 -22 126 -14 92 -15 158 -11
358 7 271 11 303 36 296 9 -3 70 -21 136 -40z m2392 -193 c-3 -126 -9 -241
-15 -258 -5 -16 -20 -64 -32 -105 -12 -42 -28 -83 -34 -92 -11 -15 -174 -50
-338 -73 l-48 -7 15 48 c37 121 67 320 72 486 l6 166 86 12 c47 6 127 19 176
29 50 10 96 19 104 20 11 1 13 -36 8 -226z m-397 85 c0 -124 -19 -298 -44
-419 -35 -165 -44 -196 -62 -203 -9 -3 -74 -9 -146 -13 l-131 -6 7 34 c19 94
47 323 57 475 6 93 13 171 15 173 2 2 52 8 111 13 60 5 113 10 118 12 6 3 25
5 43 5 l32 1 0 -72z m-1387 25 c4 -2 7 -59 7 -126 0 -160 28 -430 55 -540 l7
-28 -163 3 -164 3 -17 75 c-39 162 -60 340 -53 450 3 58 8 122 11 144 l6 38
152 -7 c83 -4 154 -9 159 -12z m1678 -650 c-11 -27 -45 -111 -75 -188 -70
-174 -151 -299 -304 -472 -54 -61 -69 -73 -95 -73 -27 0 -186 29 -195 36 -2 1
15 33 38 71 75 122 168 325 211 458 23 72 46 134 49 138 4 5 57 17 116 27 60
11 138 25 174 33 106 23 103 25 81 -30z m-401 -28 c0 -3 -18 -60 -40 -128 -51
-155 -185 -426 -242 -490 l-43 -47 -81 6 -82 7 38 71 c40 74 84 209 141 433
39 150 25 139 166 142 48 1 90 4 92 7 6 6 51 5 51 -1z m-1728 -31 l176 -7 13
-46 c24 -86 87 -235 173 -406 l85 -170 -142 -8 c-78 -4 -155 -9 -171 -10 -26
-2 -39 9 -100 80 -97 112 -250 368 -287 479 -16 48 -29 92 -29 97 0 6 21 7 53
3 28 -3 131 -9 229 -12z m1418 -16 c-51 -221 -124 -452 -168 -533 l-38 -70
-245 -3 -245 -2 -24 75 c-22 69 -35 93 -45 83 -2 -2 7 -37 21 -77 13 -41 22
-76 21 -78 -2 -2 -52 -4 -111 -6 -105 -2 -107 -2 -121 23 -31 56 -178 359
-197 405 -12 28 -31 83 -44 123 l-23 72 161 -2 161 -3 27 -105 c59 -233 93
-340 109 -340 9 0 -21 120 -55 223 -18 55 -54 196 -54 215 0 9 59 12 258 13
141 1 311 5 377 9 66 3 148 7 181 8 l62 2 -8 -32z m-626 -800 c46 -95 83 -174
81 -176 -9 -11 -126 50 -168 87 -52 47 -207 228 -207 242 0 5 35 10 78 12 42
1 89 4 105 5 26 2 31 -6 111 -170z m396 165 c0 -22 -126 -189 -193 -256 -68
-69 -80 -77 -94 -65 -13 10 -163 309 -163 324 0 2 101 4 225 4 124 0 225 -3
225 -7z m199 -13 c9 -5 -25 -42 -112 -122 -143 -132 -264 -218 -308 -218 -37
0 -37 11 1 34 32 18 146 156 218 263 l42 62 72 -6 c40 -3 79 -9 87 -13z m-887
-42 c21 -29 79 -98 129 -155 88 -99 94 -104 159 -123 37 -11 72 -20 79 -20 6
0 11 -4 11 -9 0 -6 -11 -7 -27 -1 -16 4 -51 11 -80 14 -135 16 -293 87 -463
207 -36 25 -86 57 -111 72 -26 14 -49 33 -52 41 -7 18 23 22 193 24 l125 1 37
-51z m1032 26 c50 -9 95 -20 99 -24 13 -11 -86 -68 -313 -178 -237 -116 -301
-138 -200 -68 70 48 226 187 280 249 17 20 34 37 37 37 3 0 46 -7 97 -16z
m-1404 -25 c19 -16 48 -37 63 -45 60 -32 277 -184 263 -184 -23 0 -327 163
-381 205 -39 29 -43 41 -17 48 32 9 37 7 72 -24z m1619 -30 c49 -21 51 -23 35
-41 -27 -29 -237 -146 -312 -173 -109 -39 -261 -74 -347 -80 -44 -3 -92 -8
-107 -10 -16 -3 -28 -1 -28 4 0 4 22 11 49 14 26 3 90 22 142 42 119 47 388
183 454 229 27 20 53 36 56 36 4 0 30 -10 58 -21z"/>
<path d="M8472 20718 c-7 -7 -12 -20 -12 -30 0 -16 -9 -18 -65 -18 -103 0
-145 -33 -145 -115 0 -28 -6 -37 -30 -50 -16 -8 -34 -24 -40 -34 -13 -26 -13
-110 1 -150 11 -31 9 -35 -24 -69 -20 -21 -42 -55 -50 -76 l-13 -38 -19 28
c-10 16 -45 62 -77 102 -74 90 -164 233 -173 272 -9 40 -21 45 -58 27 -18 -9
-84 -38 -147 -66 l-115 -50 1 -60 c1 -38 11 -88 29 -138 50 -139 181 -398 274
-541 106 -163 158 -259 196 -359 15 -40 32 -76 39 -80 7 -5 22 -31 33 -60 12
-28 39 -76 61 -105 35 -48 40 -61 45 -128 4 -42 17 -127 31 -190 13 -63 27
-145 31 -182 l6 -66 -102 30 c-99 28 -137 46 -274 124 -33 18 -103 47 -155 64
-56 18 -188 79 -320 148 l-225 117 -7 55 c-4 30 -9 70 -12 88 -4 28 -2 32 19
32 l23 0 1 266 c1 209 -2 265 -11 262 -9 -3 -15 -36 -18 -99 l-5 -94 -78 -4
c-91 -4 -101 0 -254 87 l-112 63 6 106 c5 88 4 105 -8 101 -10 -3 -15 -28 -17
-96 -2 -75 -5 -90 -17 -85 -8 3 -12 9 -9 14 3 5 -2 9 -10 9 -33 0 -14 -27 47
-66 195 -128 236 -150 308 -165 42 -9 58 -8 95 6 25 9 47 15 49 13 2 -2 1 -31
-2 -66 -4 -42 -10 -62 -19 -62 -7 0 -25 -16 -40 -35 -14 -19 -32 -35 -39 -35
-6 0 -26 23 -43 50 -17 28 -36 50 -42 50 -20 0 -50 -20 -50 -34 0 -9 -17 -16
-45 -20 -49 -8 -65 -3 -65 20 0 12 -8 13 -34 9 -28 -6 -47 0 -107 34 -124 69
-117 56 -84 161 16 49 32 90 37 90 4 0 8 5 8 10 0 6 -5 10 -11 10 -12 0 -54
-92 -70 -155 -6 -25 -19 -50 -29 -55 -26 -14 -54 -180 -30 -180 5 0 19 34 31
75 12 41 25 75 30 75 7 0 146 -83 157 -95 11 -10 -21 -25 -54 -25 -17 0 -48
-12 -69 -26 -21 -14 -61 -29 -89 -34 -49 -8 -214 -80 -357 -155 -69 -36 -189
-81 -296 -110 -35 -10 -63 -22 -63 -27 0 -6 7 -7 16 -4 8 3 43 12 77 20 34 8
87 24 117 34 51 18 95 38 370 169 52 25 118 48 147 53 30 4 67 17 84 29 17 12
47 25 67 28 20 4 47 13 60 21 37 24 36 6 -2 -44 -20 -26 -35 -52 -33 -58 2 -6
20 -12 40 -14 20 -2 37 -7 37 -11 0 -18 -41 -59 -70 -71 -32 -13 -38 -28 -17
-49 10 -10 8 -15 -8 -27 -15 -12 -31 -14 -65 -8 -25 5 -70 8 -101 9 -52 0 -62
-4 -150 -62 -52 -34 -137 -80 -189 -102 -198 -81 -313 -142 -298 -156 4 -4 64
20 135 53 70 33 163 75 205 92 42 17 102 49 133 71 32 22 60 38 62 35 11 -11
-127 -895 -192 -1229 -15 -76 -29 -199 -35 -300 -5 -95 -17 -214 -25 -266 -18
-110 -12 -126 45 -118 19 3 42 8 50 11 12 5 18 -8 28 -61 22 -120 119 -387
193 -536 40 -78 95 -200 124 -272 74 -183 103 -247 122 -268 15 -16 15 -24 5
-64 -19 -68 -68 -183 -107 -248 -19 -31 -54 -92 -76 -134 -23 -42 -72 -119
-109 -171 -36 -52 -102 -149 -145 -215 -44 -66 -106 -156 -140 -200 -33 -44
-71 -98 -85 -120 -13 -22 -50 -72 -81 -111 -75 -94 -131 -176 -165 -243 -26
-52 -26 -55 -8 -68 10 -7 35 -13 55 -13 l38 0 -15 -36 c-9 -22 -14 -59 -12
-96 l3 -61 52 -29 53 -30 267 -3 c148 -2 288 -5 313 -7 41 -3 45 -1 48 20 6
37 -45 129 -86 157 -65 44 -100 48 -170 20 -34 -14 -66 -25 -72 -25 -15 0 -12
33 5 56 17 22 19 44 5 44 -13 0 -50 -60 -50 -81 0 -8 6 -24 14 -34 13 -19 16
-18 83 8 37 15 77 27 88 27 31 0 102 -39 120 -66 23 -35 45 -103 36 -108 -4
-3 -34 2 -67 11 -49 13 -97 14 -295 9 -232 -7 -237 -7 -283 16 -56 27 -63 47
-48 131 16 85 19 87 126 88 168 1 313 15 341 33 15 10 52 56 83 104 79 122
149 211 255 328 l92 101 8 -94 c13 -163 95 -463 126 -463 5 0 16 7 25 15 8 8
16 15 18 15 3 0 -2 -43 -9 -96 -18 -130 -19 -128 117 -120 59 4 127 2 155 -3
28 -5 132 -13 231 -16 157 -5 182 -4 187 9 7 17 -28 112 -49 135 -8 9 -50 16
-121 21 -154 11 -176 25 -190 126 -6 45 -16 56 -27 28 -7 -19 10 -90 30 -121
23 -37 80 -55 194 -62 l104 -6 19 -49 c9 -27 16 -51 13 -53 -2 -3 -110 0 -240
6 -130 6 -277 8 -326 4 l-90 -6 0 34 c1 70 29 193 47 206 9 8 44 22 78 32 75
24 206 82 254 113 47 30 51 72 18 177 -14 42 -28 96 -31 121 -4 25 -18 106
-31 180 -39 213 -45 293 -55 660 -9 344 -18 473 -45 625 -18 98 -65 671 -65
790 0 50 -4 85 -10 85 -14 0 -13 -126 5 -335 8 -99 20 -236 26 -305 5 -69 19
-181 29 -250 16 -106 41 -372 39 -420 0 -26 -59 139 -90 255 -17 61 -50 173
-74 251 -50 162 -108 433 -130 614 -9 68 -18 127 -21 129 -7 7 -5 -15 12 -159
21 -184 66 -405 118 -585 24 -82 50 -175 57 -205 12 -56 21 -82 84 -255 43
-115 50 -209 20 -267 -9 -18 -27 -60 -39 -93 -32 -84 -97 -210 -142 -275 -20
-30 -54 -85 -74 -122 -53 -94 -180 -265 -264 -356 -101 -109 -182 -211 -258
-329 l-66 -101 -54 -11 c-29 -5 -129 -13 -223 -16 -93 -4 -184 -8 -201 -10
-58 -6 -63 8 -25 80 19 35 56 93 83 127 102 133 216 289 309 423 177 256 292
431 320 487 17 35 39 74 49 88 36 51 99 187 121 261 l22 76 -21 31 c-19 26
-142 301 -142 316 0 3 -39 86 -86 184 -47 97 -105 231 -129 297 -56 156 -99
310 -92 328 5 13 232 75 337 92 24 4 74 19 110 32 67 25 94 26 228 7 29 -4 56
-1 80 9 21 8 63 20 94 27 32 6 61 17 65 23 5 7 6 249 4 540 -2 290 0 527 3
527 4 0 21 -7 39 -17 42 -21 269 -115 382 -158 108 -41 393 -120 488 -136 38
-6 95 -9 128 -7 32 2 59 4 59 4 0 -1 7 -50 15 -111 8 -60 15 -144 15 -185 0
-41 7 -124 16 -185 8 -60 17 -167 21 -238 4 -78 11 -134 19 -145 10 -14 30
-17 122 -17 82 0 108 -3 101 -11 -33 -40 -17 -199 28 -289 30 -59 143 -173
197 -199 31 -14 37 -22 32 -39 -3 -12 -17 -98 -32 -192 -36 -240 -81 -504
-105 -615 -11 -52 -31 -153 -44 -225 -13 -71 -35 -191 -49 -265 -26 -142 -55
-327 -106 -670 -17 -113 -35 -240 -42 -282 -15 -99 -6 -120 55 -137 25 -7 64
-11 88 -9 l44 3 7 -50 c3 -27 7 -81 7 -118 2 -116 23 -128 147 -81 l69 26 312
-13 c334 -13 356 -11 388 35 28 38 13 127 -23 141 -9 3 -57 10 -106 15 -50 5
-118 17 -151 28 -33 11 -78 23 -100 27 -22 3 -57 11 -79 16 -32 9 -36 12 -23
22 12 10 16 62 21 292 4 216 10 305 25 390 23 123 41 340 41 485 0 52 9 167
20 255 10 88 24 201 30 250 13 107 35 273 51 370 6 39 13 171 16 293 l6 224
18 -52 c10 -29 23 -84 28 -123 6 -40 20 -124 31 -187 11 -62 27 -170 35 -240
8 -69 19 -152 25 -185 6 -33 15 -157 20 -275 12 -254 20 -352 54 -645 32 -270
32 -304 5 -338 -22 -29 -62 -42 -188 -63 -97 -16 -153 -32 -147 -43 3 -4 19
-6 36 -3 l30 4 0 -86 c0 -72 3 -88 17 -93 20 -8 274 42 311 61 41 21 139 48
217 60 68 11 70 12 73 41 2 21 -6 40 -26 64 l-28 34 -83 -13 c-45 -7 -104 -10
-132 -7 -55 7 -64 -4 -19 -23 22 -9 50 -10 98 -5 119 14 132 13 156 -18 25
-34 17 -42 -58 -51 -44 -5 -109 -24 -251 -75 -37 -13 -214 -51 -237 -51 -16 0
-18 11 -18 85 0 47 4 85 9 85 4 0 48 7 96 15 99 17 134 33 165 72 21 26 22 35
17 138 -4 61 -13 175 -22 255 -29 263 -46 463 -54 640 -5 96 -16 216 -24 265
-9 50 -19 124 -22 165 -4 41 -18 136 -32 210 -21 118 -52 323 -53 357 0 6 -6
18 -13 25 -26 26 -37 97 -37 229 0 74 4 140 9 148 6 10 36 17 88 21 86 6 117
21 134 62 15 36 3 70 -77 228 -34 69 -74 157 -88 195 -27 76 -126 316 -180
435 -40 88 -70 180 -125 380 -22 80 -56 204 -75 275 -20 72 -36 146 -36 166 0
40 -7 35 125 84 114 42 184 83 572 332 237 153 396 283 400 328 1 14 -3 25 -9
25 -6 0 -8 10 -4 24 3 13 0 41 -8 62 -7 22 -16 53 -19 70 -5 28 -3 32 16 32
12 0 73 3 135 8 l113 7 -6 -64 c-4 -35 -20 -104 -36 -153 -16 -49 -28 -90 -27
-91 2 -1 36 -6 76 -9 86 -9 87 -8 42 104 -22 56 -29 92 -30 142 l0 67 38 6
c121 18 155 50 131 126 l-14 44 -60 -2 c-33 -1 -99 -4 -147 -8 l-86 -7 -26 41
c-15 22 -32 41 -38 41 -6 0 -33 -18 -59 -40 l-47 -40 -11 30 c-5 17 -17 30
-26 30 -17 0 -467 -266 -650 -384 -60 -39 -181 -121 -270 -183 -88 -62 -166
-113 -173 -113 -13 0 -13 26 0 155 1 11 -5 55 -12 98 l-14 77 31 33 c19 19 34
48 38 72 4 22 19 53 34 68 l26 28 -28 21 c-39 29 -52 58 -91 212 -20 75 -45
150 -56 166 -29 41 -34 37 -10 -8 11 -21 33 -94 49 -163 34 -147 41 -165 75
-207 27 -31 27 -31 7 -51 -11 -11 -23 -40 -27 -66 -5 -39 -12 -50 -43 -70
-101 -66 -191 -47 -191 39 0 14 -4 26 -10 26 -5 0 -10 -16 -10 -36 0 -26 8
-43 30 -66 27 -27 36 -30 73 -25 23 3 51 9 63 12 19 6 22 0 37 -77 21 -103 22
-95 -9 -101 -40 -7 -225 10 -237 22 -14 14 -27 14 -27 0 0 -26 36 -38 117 -39
45 0 84 -4 87 -9 3 -5 -12 -29 -34 -54 -40 -45 -41 -45 -71 -33 -18 7 -40 30
-53 52 -28 51 -57 52 -72 4 -23 -68 -39 -189 -27 -201 14 -14 49 4 85 44 22
24 37 31 79 34 29 2 64 1 77 -2 23 -6 21 -9 -39 -49 -35 -23 -113 -71 -174
-106 -128 -74 -120 -68 -112 -76 3 -3 72 34 152 83 81 48 173 102 204 118 74
40 146 87 321 209 164 115 256 173 485 307 88 51 205 121 260 155 55 35 103
60 107 56 4 -4 17 -70 28 -147 11 -77 25 -156 30 -175 6 -19 8 -59 4 -87 -6
-48 -11 -56 -60 -99 -89 -75 -158 -124 -359 -248 -104 -65 -212 -133 -240
-151 -101 -65 -223 -125 -325 -160 -121 -42 -313 -129 -318 -145 -7 -20 35 -9
114 29 123 59 119 59 120 3 2 -59 121 -516 178 -682 40 -115 86 -231 186 -465
21 -49 43 -108 50 -130 7 -22 46 -107 87 -188 80 -158 85 -183 40 -211 -27
-17 -164 -29 -173 -15 -4 6 -11 5 -21 -3 -20 -16 -97 -27 -288 -38 -220 -12
-392 -28 -440 -40 -52 -12 -137 -13 -169 0 -25 9 -26 12 -26 102 0 51 -7 140
-15 198 -9 58 -18 186 -21 285 -4 99 -10 185 -14 190 -5 6 -11 45 -15 88 l-7
77 115 0 c64 0 151 -6 194 -12 105 -17 225 -17 246 1 10 8 17 28 17 51 0 31
-7 44 -41 75 -53 48 -107 71 -221 96 -50 11 -95 22 -100 25 -4 3 10 38 33 79
22 41 38 79 34 85 -11 18 -60 11 -130 -18 l-68 -28 -58 30 -57 31 -7 65 c-4
36 -17 110 -30 165 -51 215 -55 368 -14 507 15 52 27 73 55 96 40 33 106 56
134 47 18 -6 20 -1 20 47 -1 70 -33 245 -49 261 -9 9 -17 5 -37 -21 -31 -40
-65 -42 -93 -6 -17 21 -21 41 -21 96 l0 70 30 -4 c17 -3 33 -1 35 3 3 4 -7 33
-21 64 -22 51 -23 60 -10 73 12 13 17 12 37 -2 27 -19 97 -21 120 -3 31 23 49
75 49 137 l0 62 31 -7 c39 -9 83 9 105 44 11 15 20 55 23 96 6 67 7 69 36 75
82 18 135 73 135 143 0 49 -22 77 -58 77 -13 0 -22 6 -22 14 0 8 -11 28 -24
43 -21 24 -32 28 -78 29 -29 0 -63 6 -75 12 -28 15 -66 15 -81 0z m57 -17 c10
-7 11 -13 2 -30 -8 -14 -8 -21 -1 -21 5 0 10 5 10 10 0 6 9 10 19 10 11 0 23
5 26 10 8 13 56 13 89 0 30 -11 44 -53 26 -75 -16 -19 -4 -33 12 -17 15 15 51
15 66 0 7 -7 12 -29 12 -50 0 -52 -44 -101 -107 -118 -27 -8 -51 -18 -55 -24
-4 -6 -8 -35 -8 -64 0 -103 -35 -143 -114 -128 -31 6 -34 4 -40 -25 -3 -17 -6
-50 -6 -73 0 -93 -66 -136 -142 -94 -32 18 -41 20 -47 9 -5 -8 -14 -10 -20 -7
-6 4 -11 0 -11 -8 0 -31 -46 -18 -84 24 -30 34 -36 47 -36 86 0 52 10 74 57
128 26 28 33 44 28 60 -3 11 -9 49 -12 83 -6 65 -4 68 61 121 9 7 16 26 16 42
0 74 36 100 136 100 49 0 66 4 69 15 3 8 7 22 10 30 5 17 23 19 44 6z m-719
-178 c22 -68 145 -254 273 -413 7 -8 19 -30 26 -48 19 -45 75 -92 110 -92 23
0 31 -6 39 -27 5 -16 13 -36 17 -45 5 -13 0 -17 -22 -20 -27 -3 -28 -4 -31
-72 -3 -76 9 -119 42 -141 30 -22 59 -18 86 10 13 14 27 25 31 25 6 0 21 -90
34 -207 5 -50 4 -53 -17 -53 -28 0 -106 -35 -131 -58 -30 -27 -67 -108 -73
-160 -12 -109 -14 -115 -31 -100 -28 23 -66 92 -93 168 -14 41 -31 84 -38 95
-6 11 -38 72 -70 136 -60 118 -106 193 -175 286 -21 28 -79 138 -128 245 -115
246 -127 277 -132 335 l-5 48 70 32 c38 18 96 42 129 54 33 12 62 26 65 30 9
15 12 11 24 -28z m2333 -398 c24 -50 77 -63 177 -41 42 9 90 16 107 16 28 0
33 -4 42 -36 20 -72 -21 -94 -174 -94 -49 0 -129 -6 -177 -14 l-87 -13 -6 46
c-3 25 -8 54 -10 63 -3 19 79 108 100 108 6 0 19 -16 28 -35z m191 -414 c14
-36 26 -66 26 -67 0 -4 -104 8 -108 12 -2 1 3 13 11 26 8 12 20 40 27 61 7 21
13 37 15 35 2 -2 15 -32 29 -67z m-3392 -498 c16 -20 34 -16 60 15 44 51 54
55 87 41 20 -9 32 -24 40 -49 13 -46 24 -170 14 -170 -4 0 -44 22 -89 49 -129
78 -235 133 -241 127 -4 -3 -4 -7 -2 -9 30 -22 429 -255 504 -293 55 -29 149
-77 208 -108 60 -30 154 -70 209 -87 56 -18 124 -48 152 -67 81 -55 153 -87
271 -121 60 -18 131 -42 157 -53 45 -19 48 -23 48 -57 0 -20 -14 -70 -31 -111
-16 -41 -33 -95 -36 -120 -3 -25 -12 -49 -20 -53 -12 -7 -12 -11 3 -21 12 -9
15 -20 10 -39 -6 -26 -9 -27 -74 -27 -37 0 -101 7 -142 16 -135 28 -377 102
-502 153 -317 129 -364 152 -373 181 -5 15 -12 19 -29 14 -27 -6 -179 62 -245
110 -25 19 -64 58 -86 86 -43 54 -140 128 -152 116 -5 -4 6 -17 22 -29 17 -12
44 -36 60 -55 128 -144 139 -154 235 -199 52 -25 96 -46 97 -47 1 -1 -7 -26
-17 -56 -10 -30 -21 -91 -24 -135 -28 -383 -39 -501 -51 -575 -8 -47 -15 -148
-15 -225 0 -77 -4 -147 -10 -155 -7 -12 -16 -13 -55 -2 -68 18 -106 15 -205
-18 -50 -16 -99 -30 -110 -30 -22 0 -308 -72 -383 -97 -28 -9 -52 -12 -57 -7
-5 5 -2 47 6 94 7 47 18 166 24 265 8 126 22 236 46 365 20 102 51 282 69 400
19 118 48 301 65 405 17 105 36 234 42 288 14 121 15 122 145 113 79 -6 99 -5
120 9 20 14 24 22 19 46 -3 16 -1 29 4 29 17 0 80 70 80 90 0 23 -26 39 -51
33 -27 -8 -24 4 17 54 23 28 42 42 52 39 10 -2 37 -1 62 2 l45 7 8 -59 c4 -33
13 -66 19 -73z m1628 -710 c0 -5 -16 -34 -36 -67 -53 -89 -50 -95 82 -127 62
-15 128 -35 149 -45 51 -24 105 -77 105 -102 0 -46 -67 -54 -235 -28 -55 9
-149 16 -209 16 l-109 0 6 45 c4 25 20 80 37 123 16 42 30 91 30 108 0 29 4
33 68 57 67 26 112 33 112 20z m-1412 -130 c21 -18 21 -27 23 -548 l3 -530
-67 -12 c-37 -7 -76 -17 -88 -24 l-21 -11 4 164 c3 89 13 204 21 253 9 50 26
213 37 362 20 274 34 363 56 363 6 0 21 -8 32 -17z m2142 -1532 c0 -315 -4
-397 -21 -525 -11 -83 -26 -209 -34 -281 -8 -71 -26 -220 -40 -330 -14 -110
-25 -243 -25 -295 -1 -147 -17 -342 -39 -480 -17 -103 -21 -170 -21 -382 l0
-258 -71 0 c-38 0 -100 -4 -137 -9 -148 -21 -202 -23 -202 -6 0 23 -21 18 -27
-6 -5 -19 -12 -21 -79 -17 -40 2 -79 9 -85 15 -17 17 -15 48 31 353 78 519
126 805 186 1100 41 201 82 440 114 660 17 113 34 220 39 238 8 28 7 34 -12
46 -104 62 -135 87 -178 140 -33 41 -56 82 -69 125 -24 77 -26 182 -4 216 17
27 40 30 369 46 105 5 213 13 240 18 28 4 54 8 58 7 4 -1 8 -169 7 -375z
m-2061 -1543 c16 -147 75 -461 99 -528 34 -93 35 -118 8 -143 -25 -23 -227
-111 -281 -123 -40 -9 -111 -50 -119 -69 -20 -53 -58 42 -110 275 -8 36 -17
112 -20 170 l-7 105 58 78 c33 43 70 99 83 125 14 26 49 83 79 127 30 44 66
107 82 140 15 33 44 96 65 140 l38 80 7 -135 c4 -74 12 -183 18 -242z m1899
-1059 c42 -12 122 -34 177 -50 55 -16 135 -31 177 -34 86 -7 97 -15 105 -73
10 -77 -32 -85 -412 -70 l-290 12 -78 -29 c-46 -16 -81 -24 -86 -19 -5 5 -12
64 -15 131 l-7 122 33 5 c188 29 301 31 396 5z"/>
<path d="M19457 20600 c-4 -57 -12 -94 -30 -130 -24 -48 -24 -50 -6 -50 30 0
68 -47 85 -107 8 -29 20 -53 25 -53 8 0 6 27 -6 66 -9 30 16 110 41 132 l27
23 -36 37 c-36 38 -76 113 -77 145 0 9 -4 17 -9 17 -4 0 -11 -36 -14 -80z m46
-33 c14 -23 34 -50 46 -61 l20 -19 -20 -28 c-11 -16 -23 -45 -26 -64 -3 -19
-8 -35 -12 -35 -3 0 -15 14 -26 30 -11 17 -28 33 -37 36 -22 7 -22 12 -4 55 8
19 17 55 21 82 4 26 9 47 10 47 2 0 14 -19 28 -43z"/>
<path d="M18378 20650 c-20 -11 -40 -24 -43 -30 -3 -6 15 2 42 16 43 23 56 25
123 21 42 -2 66 -1 55 4 -39 15 -138 9 -177 -11z"/>
<path d="M6654 20633 c-25 -26 -50 -88 -69 -176 -16 -73 -16 -81 -1 -122 19
-49 15 -64 -29 -105 -69 -64 -84 -154 -36 -220 16 -22 34 -60 40 -85 7 -27 17
-45 25 -45 25 0 -11 101 -55 159 -37 47 -19 110 53 189 35 38 39 48 33 75 -22
104 -10 199 36 289 16 31 25 38 49 38 35 0 99 -60 107 -102 7 -37 21 -35 31 5
7 27 13 32 38 32 32 0 33 -6 19 -92 -6 -36 -5 -43 8 -43 21 0 37 31 37 71 0
19 10 46 26 66 22 29 31 34 62 31 36 -3 37 -5 39 -43 1 -22 2 -46 2 -52 1 -7
8 -13 16 -13 11 0 15 11 15 39 0 54 8 71 34 71 30 0 43 -11 56 -45 9 -25 8
-37 -11 -78 -16 -34 -20 -50 -12 -58 16 -16 30 -4 43 39 25 76 100 122 114 70
24 -92 -20 -157 -144 -207 -115 -47 -255 -36 -338 26 -40 30 -65 26 -32 -5 62
-58 188 -88 289 -70 68 12 158 51 192 84 l25 24 12 -182 c8 -129 17 -204 32
-253 12 -38 22 -77 23 -85 1 -9 -27 -26 -85 -50 -50 -20 -88 -41 -88 -49 0
-17 34 -9 112 26 93 42 94 43 63 165 -19 76 -28 147 -35 272 -5 93 -6 174 -1
180 4 6 5 42 2 80 -5 51 -11 72 -26 82 -26 20 -39 18 -73 -11 l-30 -26 -7 23
c-4 13 -17 33 -28 46 -17 19 -30 22 -72 20 -27 -1 -65 1 -83 6 -29 7 -36 4
-66 -26 -30 -30 -36 -32 -52 -21 -22 16 -66 17 -82 1 -8 -8 -21 -1 -53 30 -46
47 -94 56 -125 25z"/>
<path d="M18608 20622 c52 -49 59 -100 36 -287 -5 -42 -2 -54 16 -77 29 -37
62 -36 94 3 33 39 35 15 5 -48 -28 -57 -57 -76 -103 -67 -92 17 -115 83 -92
260 17 129 9 182 -33 215 -59 47 -223 -15 -221 -83 1 -7 7 -1 15 13 15 28 70
55 133 65 29 4 43 1 62 -14 27 -22 27 -16 19 -277 -5 -132 7 -163 71 -189 61
-24 102 -21 132 12 62 66 75 141 33 189 l-24 28 6 -38 c5 -31 1 -42 -17 -62
-29 -31 -41 -31 -70 0 -23 24 -23 27 -12 102 7 43 12 98 12 123 0 72 -48 160
-87 160 -3 0 8 -13 25 -28z"/>
<path d="M18148 20633 c6 -2 18 -2 25 0 6 3 1 5 -13 5 -14 0 -19 -2 -12 -5z"/>
<path d="M18082 20605 c-17 -14 -40 -46 -52 -70 -21 -43 -21 -47 -6 -114 23
-100 21 -138 -10 -178 -46 -60 -108 -66 -158 -16 -56 56 -11 168 53 134 35
-19 37 -11 3 10 -30 20 -34 20 -57 5 -27 -18 -50 -85 -41 -122 8 -31 81 -84
115 -84 39 0 87 34 117 82 23 36 28 58 33 139 7 110 19 132 82 149 60 16 100
-8 161 -99 20 -30 23 -98 6 -136 -16 -35 -112 -82 -133 -65 -21 18 -19 58 5
72 25 16 26 28 2 28 -28 0 -42 -21 -42 -61 0 -40 21 -69 48 -69 32 1 98 37
125 69 52 63 45 133 -23 219 -44 56 -85 77 -136 69 -81 -13 -114 -63 -115
-174 l-1 -68 -19 82 c-19 78 -19 84 -4 117 10 20 35 51 56 71 44 40 36 48 -9
10z"/>
<path d="M18231 20616 c2 -2 15 -9 29 -15 24 -11 24 -11 6 3 -16 13 -49 24
-35 12z"/>
<path d="M10204 20485 c-7 -16 -4 -35 20 -165 8 -47 18 -106 21 -132 12 -94
20 -46 20 117 0 91 -3 165 -7 165 -3 0 -10 -28 -15 -62 l-9 -63 -11 60 c-6 33
-9 63 -7 67 6 9 266 -2 277 -12 9 -8 -16 -167 -35 -221 -6 -19 -19 -46 -30
-61 -25 -36 -23 -56 3 -32 33 30 50 70 70 171 22 110 24 162 7 168 -7 2 -77 6
-156 10 -123 5 -143 4 -148 -10z"/>
<path d="M16500 20474 c0 -49 93 -119 148 -112 21 2 27 8 27 27 0 28 -38 54
-92 66 -47 9 -42 -12 5 -24 71 -20 101 -61 33 -46 -38 8 -78 39 -102 79 -16
27 -19 28 -19 10z"/>
<path d="M5021 20390 c-77 -36 -138 -90 -170 -149 -37 -69 -77 -230 -85 -336
-3 -44 -5 -81 -6 -83 0 -1 -31 -22 -70 -47 -39 -25 -80 -61 -94 -82 -26 -41
-66 -188 -66 -246 0 -19 -13 -63 -29 -98 -24 -53 -30 -82 -35 -168 -3 -59 -2
-100 3 -95 5 5 11 50 13 99 3 76 9 102 36 159 18 37 32 82 32 100 0 55 40 200
66 238 13 21 48 51 78 68 81 46 89 58 96 158 9 110 44 251 81 322 28 55 76 98
149 136 39 20 131 23 266 9 57 -5 83 -4 88 4 5 7 15 6 33 -6 28 -19 108 -22
186 -9 40 7 51 6 68 -10 41 -37 68 -99 84 -194 20 -113 46 -165 97 -191 46
-24 48 -40 13 -143 -34 -103 -34 -195 1 -273 l26 -58 -18 -71 c-10 -39 -14
-82 -10 -97 10 -43 62 -94 113 -111 61 -21 70 -20 98 9 25 24 35 85 15 85 -5
0 -10 -9 -10 -20 0 -11 -9 -29 -19 -39 -16 -16 -26 -18 -55 -11 -45 10 -81 33
-102 65 -16 25 -16 73 2 162 4 22 -2 51 -21 100 -24 58 -27 77 -22 138 3 38
15 95 26 125 30 78 28 124 -5 147 -79 54 -80 55 -115 239 -8 44 -22 76 -48
110 -52 70 -74 78 -151 58 -58 -15 -65 -14 -109 1 -25 10 -58 17 -73 16 -64
-3 -119 -3 -213 3 -89 6 -105 5 -144 -14z"/>
<path d="M5441 20274 c-1 -34 -41 -100 -107 -173 -43 -47 -103 -81 -171 -96
-31 -6 -33 -5 -33 20 0 14 -7 41 -14 60 -13 29 -20 35 -46 35 -50 0 -70 -16
-70 -55 0 -36 32 -70 78 -82 23 -6 24 -8 17 -67 -9 -86 -33 -176 -58 -222 -28
-49 -97 -87 -144 -80 l-33 5 0 -98 c0 -141 -15 -179 -99 -242 -36 -27 -76 -52
-88 -55 -29 -8 -30 -24 -1 -24 11 0 55 25 96 56 97 73 111 104 112 237 l0 97
27 0 c40 0 110 38 137 74 35 45 64 141 72 234 l7 81 41 6 c77 12 143 52 202
123 71 86 98 141 85 173 -9 23 -10 23 -10 -7z m-346 -196 c11 -50 10 -72 -6
-75 -23 -5 -69 35 -69 61 0 30 7 36 41 36 21 0 30 -6 34 -22z"/>
<path d="M5530 20287 c0 -1 9 -20 20 -42 11 -22 16 -43 11 -49 -4 -6 -11 -33
-15 -60 -3 -27 -17 -69 -31 -94 -14 -25 -23 -47 -21 -50 11 -10 33 8 51 44 19
37 54 79 59 72 2 -1 14 -20 29 -41 24 -37 74 -73 85 -62 3 2 -6 14 -20 25 -14
10 -31 33 -38 50 -7 16 -15 28 -19 25 -10 -6 -37 44 -45 84 -7 38 -43 101 -57
101 -5 0 -9 -1 -9 -3z"/>
<path d="M6869 20228 c-17 -66 -66 -156 -94 -174 -14 -9 -28 -14 -31 -12 -3 3
-8 38 -11 77 -6 77 -24 88 -22 13 3 -110 28 -137 86 -88 46 39 124 226 94 226
-6 0 -15 -19 -22 -42z"/>
<path d="M16520 20213 c0 -5 -11 -21 -24 -38 l-24 -29 -51 23 c-45 21 -55 23
-89 13 -42 -13 -76 -44 -87 -79 -5 -19 -2 -23 14 -23 14 0 21 6 21 19 0 22 35
51 61 51 9 0 28 -9 42 -20 28 -22 59 -25 105 -9 45 15 80 99 41 99 -5 0 -9 -3
-9 -7z"/>
<path d="M18398 20214 c-28 -27 18 -121 72 -149 33 -17 90 -20 90 -5 0 6 -13
10 -29 10 -51 0 -112 60 -121 118 -3 19 -8 30 -12 26z"/>
<path d="M8672 20190 c-29 -27 -28 -40 3 -40 18 0 25 5 25 20 0 11 5 20 10 20
6 0 10 5 10 10 0 17 -25 11 -48 -10z"/>
<path d="M7140 20173 c-53 -4 -95 -22 -54 -24 14 0 12 -3 -8 -11 -34 -12 -37
-32 -4 -26 17 4 26 0 29 -12 4 -16 54 -36 64 -26 3 2 2 14 -2 26 -5 16 -13 20
-27 17 -42 -11 -4 9 44 23 54 16 78 41 36 38 -12 -1 -48 -3 -78 -5z"/>
<path d="M18607 20113 c-11 -10 -8 -25 3 -18 19 12 48 -6 61 -38 8 -19 14 -71
14 -129 0 -96 -1 -98 -32 -130 -49 -51 -73 -112 -73 -189 0 -55 -3 -67 -16
-65 -32 2 -39 -28 -25 -109 11 -69 11 -78 -5 -96 -9 -10 -25 -21 -35 -24 -11
-4 -19 -12 -19 -19 0 -18 97 -59 124 -52 21 5 141 -55 131 -66 -15 -15 10 -90
41 -125 19 -21 56 -81 81 -133 45 -90 64 -153 153 -500 24 -97 48 -285 60
-480 16 -255 71 -552 136 -737 36 -100 74 -161 74 -117 0 11 -4 24 -9 30 -17
19 -73 181 -97 283 -35 151 -71 388 -79 521 -10 202 -42 442 -71 540 -9 30
-33 121 -54 201 -42 159 -103 300 -168 387 -35 46 -61 116 -49 128 2 2 22 -12
44 -31 23 -19 47 -35 55 -35 33 0 142 -44 197 -80 33 -21 111 -77 174 -124
172 -129 487 -310 602 -346 22 -7 43 -15 47 -19 4 -3 -1 -35 -12 -70 -27 -85
-42 -225 -30 -271 5 -20 30 -71 54 -114 26 -46 67 -146 100 -244 65 -197 82
-321 73 -541 -5 -122 -11 -156 -56 -326 -49 -181 -104 -402 -152 -603 -20 -84
-25 -93 -48 -98 -45 -9 -68 -22 -139 -73 -79 -58 -97 -89 -97 -172 0 -42 5
-62 19 -78 34 -37 59 -27 118 45 86 107 97 125 119 191 l21 63 39 0 c47 0 129
-30 172 -63 18 -14 45 -47 60 -74 l27 -50 -41 -79 c-33 -63 -40 -86 -37 -119
8 -79 -11 -362 -32 -484 -24 -137 -24 -208 4 -406 9 -60 25 -204 36 -320 12
-115 27 -266 36 -335 8 -69 19 -187 24 -263 5 -76 15 -175 21 -220 18 -121 16
-135 -28 -210 -77 -131 -188 -225 -315 -266 -35 -11 -37 -14 -31 -44 8 -44 15
-49 71 -55 62 -5 103 8 182 59 l61 39 108 0 109 0 6 -34 c7 -34 28 -46 69 -38
21 4 22 38 2 150 -24 139 -14 607 20 852 7 58 18 146 24 195 20 172 48 684 57
1045 2 113 12 252 20 310 15 106 51 230 66 230 12 0 10 -52 -3 -89 -13 -37 -5
-81 16 -81 17 0 25 24 30 89 10 135 209 281 305 224 27 -16 29 -21 23 -53 -24
-108 5 -231 55 -238 49 -7 52 107 5 225 -27 69 -25 83 12 128 l24 30 1 -32 c0
-59 30 -177 61 -243 17 -36 41 -92 54 -125 44 -114 126 -278 169 -339 24 -34
98 -148 164 -254 67 -106 161 -243 209 -304 48 -62 120 -158 158 -214 175
-257 218 -315 296 -404 165 -188 184 -217 135 -204 -18 4 -26 1 -31 -14 -7
-24 -74 -92 -91 -92 -6 0 -23 26 -39 58 -20 43 -61 90 -159 187 -73 72 -180
186 -238 255 -57 69 -179 204 -269 301 -90 97 -189 205 -220 240 -112 129
-185 215 -229 269 -24 30 -79 92 -121 137 -43 46 -106 118 -140 160 -80 100
-190 213 -207 213 -7 0 4 -15 24 -32 21 -18 83 -89 140 -159 56 -69 133 -159
171 -200 38 -40 90 -101 117 -133 51 -64 115 -139 186 -220 25 -28 66 -76 92
-106 25 -30 106 -118 178 -195 73 -77 197 -214 275 -305 129 -149 196 -219
308 -323 41 -38 99 -146 87 -162 -5 -5 -6 -78 -4 -161 l5 -150 -35 -67 c-20
-37 -36 -74 -36 -82 0 -18 46 -20 76 -2 47 28 104 82 104 98 0 10 13 33 29 51
15 18 56 88 90 155 l62 122 37 -6 c20 -3 71 -15 112 -25 41 -11 85 -22 98 -25
20 -5 22 -2 22 33 0 22 -4 44 -8 51 -4 7 -50 28 -102 48 -237 89 -223 82 -252
127 -15 24 -69 88 -119 143 -82 90 -158 192 -304 411 -27 42 -101 141 -163
222 -62 81 -127 172 -144 202 -50 85 -144 235 -219 347 -68 100 -138 238 -185
361 -13 35 -36 85 -49 113 -30 57 -52 149 -57 236 l-4 62 59 32 c57 30 64 31
148 27 60 -4 101 -12 131 -27 25 -11 50 -21 56 -21 23 0 11 21 -23 41 -53 32
-128 177 -144 281 -9 55 4 75 77 122 23 14 48 40 57 56 14 28 14 33 -1 65 -19
40 -63 70 -117 80 -82 16 -187 -58 -187 -131 0 -35 0 -35 -23 -18 -12 10 -36
34 -52 54 -53 67 -179 214 -208 245 -39 42 -125 225 -148 315 -10 41 -35 188
-55 325 -33 235 -35 260 -29 420 3 94 11 210 17 258 l11 89 33 -7 c19 -3 70
-6 114 -6 91 0 125 12 237 84 88 58 146 122 173 193 29 78 27 110 -9 128 -15
8 -50 39 -76 68 -54 60 -77 106 -129 253 -32 90 -82 213 -101 247 -8 14 -15
34 -15 45 -1 37 -78 211 -118 266 -50 67 -72 81 -121 73 -110 -18 -116 -18
-161 2 -25 11 -68 38 -95 62 -26 23 -59 46 -72 51 -32 12 -129 11 -175 -1 -49
-14 -145 -119 -154 -169 -4 -19 -22 -56 -40 -82 -57 -78 -66 -111 -69 -249 -2
-135 -19 -194 -64 -234 -28 -25 -27 -45 7 -85 22 -26 38 -36 73 -40 39 -5 44
-9 47 -34 2 -18 12 -32 28 -39 18 -8 24 -19 24 -42 0 -45 15 -64 37 -50 14 9
24 7 46 -9 16 -11 48 -22 72 -25 39 -4 48 -1 73 24 16 16 31 36 34 44 4 12 10
10 32 -9 26 -24 46 -75 46 -119 0 -23 -55 -81 -77 -82 -18 0 -16 -15 9 -63 16
-31 23 -65 26 -127 3 -78 1 -90 -25 -140 -22 -44 -34 -56 -55 -58 -35 -4 -37
-22 -3 -22 30 0 57 25 87 82 32 62 33 197 1 251 -13 21 -23 41 -23 45 0 17 70
41 135 45 39 3 77 8 85 12 13 4 18 -7 28 -54 7 -32 23 -75 37 -95 14 -20 25
-42 25 -47 0 -6 9 -24 21 -40 21 -30 21 -31 4 -161 -32 -256 -21 -430 56 -898
25 -150 104 -331 187 -423 26 -29 92 -106 146 -170 100 -117 180 -184 246
-206 33 -10 36 -15 47 -71 6 -33 32 -105 56 -161 29 -64 40 -99 31 -95 -37 14
-143 18 -180 6 -86 -29 -177 -99 -210 -163 -14 -27 -15 -27 -46 -11 -75 39
-211 -21 -289 -129 -29 -41 -30 -40 -48 14 -6 20 -25 50 -42 67 -27 27 -39 32
-78 32 -76 0 -217 -53 -278 -104 l-30 -25 -39 56 c-48 69 -131 119 -214 129
l-55 6 27 112 c56 234 87 357 137 546 28 107 56 227 62 265 13 89 2 427 -17
515 -39 184 -72 270 -148 389 -61 94 -66 135 -37 268 12 54 24 108 27 121 6
29 18 28 105 -9 90 -39 129 -50 141 -43 6 4 -16 17 -49 31 -83 35 -236 95
-319 127 -107 40 -413 220 -556 326 -70 52 -152 110 -183 129 -56 34 -153 71
-186 71 -10 0 -32 13 -49 29 -45 41 -222 131 -245 125 -11 -2 -26 0 -33 5 -11
6 -8 14 12 34 28 29 32 55 15 121 -6 24 -9 54 -7 67 3 19 13 6 45 -61 55 -115
103 -152 243 -185 215 -51 339 -100 483 -193 43 -27 167 -91 276 -141 191 -88
205 -93 370 -126 95 -19 185 -35 201 -35 45 0 36 17 -12 25 -149 23 -343 71
-423 105 -155 66 -340 156 -401 196 -123 78 -351 173 -420 174 -11 0 -57 11
-103 24 -92 27 -133 57 -179 135 -38 64 -43 187 -12 270 12 33 30 67 41 77 18
16 19 16 19 -10 0 -35 21 -74 58 -109 65 -62 135 -11 137 99 0 37 -5 58 -19
73 -32 35 -42 26 -45 -36 -2 -65 -10 -78 -39 -69 -31 10 -52 66 -52 143 -1 73
-19 174 -38 210 -18 33 -59 53 -75 36z m1719 -161 c21 -16 46 -37 54 -46 20
-25 116 -66 155 -66 18 0 51 7 75 15 30 11 47 12 61 5 32 -17 95 -112 127
-191 43 -103 127 -324 173 -451 20 -58 46 -122 56 -141 24 -48 131 -167 149
-167 44 0 -20 -155 -90 -217 -24 -21 -79 -58 -122 -83 -67 -38 -88 -45 -146
-48 -102 -6 -153 5 -193 40 -21 18 -35 39 -35 53 0 12 -6 28 -14 35 -25 20
-59 137 -52 179 4 30 0 45 -22 76 -25 37 -27 49 -32 164 -4 91 -9 126 -18 129
-11 3 -13 -21 -10 -125 3 -123 5 -132 31 -169 48 -70 34 -91 -67 -101 l-66 -6
0 51 c0 63 -12 96 -46 127 -36 34 -65 31 -89 -8 -29 -46 -77 -49 -127 -7 -29
24 -38 39 -38 62 0 35 -24 68 -50 68 -10 0 -29 9 -43 20 -14 11 -40 20 -58 20
-31 0 -79 32 -79 52 0 5 11 24 24 41 43 57 54 104 58 242 5 148 19 192 81 259
l37 39 62 -7 c34 -4 69 -11 77 -16 18 -10 63 -72 95 -131 70 -129 157 -170
250 -116 48 27 65 52 48 69 -9 9 -18 6 -40 -15 -15 -14 -42 -32 -60 -38 -56
-19 -116 22 -176 121 -79 131 -103 149 -204 150 l-62 0 15 38 c36 84 97 121
201 122 62 0 76 -3 110 -28z m-1593 -205 c9 -14 26 -28 37 -32 33 -11 50 12
50 67 0 44 2 49 15 38 20 -17 20 -102 0 -140 -20 -38 -53 -39 -87 -2 -38 41
-48 66 -47 119 1 48 1 48 8 11 4 -20 15 -48 24 -61z m2621 -2791 c38 -16 66
-51 66 -82 0 -48 -135 -123 -194 -108 -35 8 -76 52 -76 81 0 88 111 148 204
109z m-1544 -716 c0 -33 -55 -137 -104 -196 -31 -37 -56 -72 -56 -76 0 -15
-48 -8 -54 8 -10 27 -6 108 7 134 18 35 164 138 200 140 4 0 7 -5 7 -10z m713
-60 c28 -22 53 -90 37 -100 -13 -8 -60 -154 -60 -187 0 -16 -7 -55 -15 -88
-10 -39 -16 -105 -16 -199 0 -78 -4 -213 -9 -301 -5 -88 -17 -295 -26 -460 -9
-165 -25 -372 -35 -460 -26 -210 -36 -325 -45 -522 -5 -127 -10 -163 -20 -163
-8 0 -14 5 -14 10 0 6 -7 10 -15 10 -8 0 -15 -4 -15 -10 0 -12 -69 -13 -87 -2
-17 11 -29 79 -43 242 -6 74 -20 216 -31 315 -11 99 -28 275 -39 390 -11 116
-27 260 -36 320 -25 180 -28 294 -10 398 24 137 36 252 36 339 l0 77 26 -14
c34 -17 76 -3 95 32 19 36 15 127 -9 195 l-20 57 26 27 c32 32 85 59 172 90
82 28 120 29 153 4z m462 -54 c8 -19 18 -67 21 -105 6 -61 5 -71 -9 -71 -26 0
-42 74 -38 173 1 46 8 47 26 3z m-817 -143 c21 -72 24 -112 12 -147 -12 -38
-42 -55 -65 -36 -22 18 -35 76 -25 110 10 35 51 110 60 110 4 0 12 -17 18 -37z"/>
<path d="M19983 19568 c-12 -6 -24 -16 -27 -23 -3 -10 2 -10 25 -2 22 9 37 8
62 -2 68 -28 106 -35 133 -26 48 17 41 35 -13 35 -26 0 -70 7 -97 15 -56 17
-54 17 -83 3z"/>
<path d="M20367 19463 c-4 -3 4 -16 18 -28 33 -31 41 -85 21 -138 -19 -50 -19
-57 -6 -57 5 0 21 17 35 37 29 43 33 99 10 143 -20 39 -61 61 -78 43z"/>
<path d="M20000 19440 c0 -5 7 -10 15 -10 8 0 15 5 15 10 0 6 -7 10 -15 10 -8
0 -15 -4 -15 -10z"/>
<path d="M17022 20058 c-27 -27 -8 -148 36 -234 64 -126 192 -148 200 -35 3
36 -1 46 -31 76 -19 19 -45 35 -58 35 -19 0 -16 -4 19 -30 46 -33 60 -69 43
-106 -24 -53 -110 -15 -152 69 -44 86 -65 210 -37 219 8 3 8 7 2 11 -6 3 -16
1 -22 -5z"/>
<path d="M16204 20005 c3 -9 6 -19 6 -21 0 -2 7 -4 16 -4 22 0 13 34 -10 38
-14 3 -17 0 -12 -13z"/>
<path d="M18395 19981 c-3 -5 9 -11 27 -13 28 -3 33 -7 36 -32 7 -57 -9 -117
-36 -144 -19 -18 -22 -23 -9 -19 10 4 21 7 23 7 3 0 16 24 29 53 27 56 31 91
15 131 -8 21 -16 26 -44 26 -19 0 -37 -4 -41 -9z"/>
<path d="M5653 19953 c-19 -7 -16 -62 3 -70 9 -3 25 3 37 16 17 17 19 25 11
39 -12 18 -31 24 -51 15z"/>
<path d="M5273 19903 c-8 -20 30 -53 62 -53 59 0 73 30 25 55 -38 20 -79 19
-87 -2z"/>
<path d="M3276 19829 c-8 -19 -21 -74 -30 -124 -9 -49 -21 -113 -27 -141 l-10
-51 -47 23 c-68 33 -86 36 -108 20 -19 -15 -19 -16 6 -62 21 -41 79 -95 113
-107 8 -2 -2 -58 -32 -178 -46 -182 -48 -229 -13 -229 26 0 52 31 124 150 85
140 92 150 98 150 3 0 18 -25 33 -56 29 -59 91 -147 125 -177 31 -28 66 -19
70 18 7 54 -19 149 -64 238 -24 49 -44 97 -44 108 0 48 36 105 158 248 88 104
65 119 -65 41 -46 -27 -86 -50 -89 -50 -3 0 -25 -13 -49 -30 -24 -16 -46 -30
-48 -30 -3 0 -8 21 -12 46 -11 78 -46 198 -60 213 -13 13 -16 10 -29 -20z m54
-144 c11 -60 25 -114 30 -119 6 -6 25 2 52 20 24 17 74 47 111 67 37 20 79 44
92 53 40 26 29 4 -34 -70 -79 -90 -110 -136 -127 -187 -15 -41 -14 -42 30
-138 51 -110 69 -171 64 -225 l-3 -38 -40 41 c-46 46 -101 133 -120 188 -7 21
-20 39 -28 41 -11 2 -76 -84 -107 -143 -25 -48 -74 -126 -95 -150 l-26 -30 5
62 c3 34 20 115 37 180 17 65 34 127 36 139 4 17 -5 27 -41 48 -45 26 -105
100 -93 113 6 5 49 -11 147 -55 3 -1 14 44 24 100 31 175 48 243 56 227 5 -8
18 -64 30 -124z"/>
<path d="M5540 19819 c0 -48 37 -139 56 -139 18 0 18 3 -6 50 -11 22 -23 60
-27 85 -7 56 -23 59 -23 4z"/>
<path d="M21679 19798 c0 -2 -5 -73 -10 -158 -5 -85 -10 -163 -11 -173 -3 -19
-37 -31 -155 -51 -76 -14 -89 -19 -80 -33 5 -8 199 -107 230 -117 15 -5 17
-19 17 -109 0 -70 4 -109 13 -121 13 -18 15 -17 34 10 11 16 32 54 47 85 41
88 46 89 113 31 32 -27 67 -59 77 -71 11 -11 23 -21 28 -21 16 0 8 76 -14 115
-11 22 -36 73 -54 113 l-33 72 32 -2 32 -3 7 70 c4 39 18 107 32 153 41 136
15 148 -85 41 l-66 -71 -23 44 c-13 23 -39 75 -58 113 -19 39 -40 73 -46 77
-11 8 -25 10 -27 6z m81 -160 c23 -53 48 -102 56 -109 13 -10 25 -1 76 55 33
37 62 65 64 63 2 -2 -3 -46 -11 -98 -9 -52 -18 -108 -21 -126 -4 -30 -7 -31
-39 -26 -20 3 -35 1 -35 -4 0 -6 20 -56 44 -111 67 -153 67 -151 -8 -92 -37
29 -72 50 -80 47 -8 -3 -33 -39 -55 -81 -59 -106 -65 -106 -57 -4 10 120 6
127 -111 183 -87 43 -95 49 -73 56 14 4 43 8 65 8 90 3 115 43 115 180 0 106
9 177 20 164 4 -4 26 -52 50 -105z"/>
<path d="M7000 19772 c0 -4 13 -24 30 -43 43 -53 130 -90 130 -55 0 7 -21 23
-48 34 -26 11 -58 32 -71 46 -24 26 -41 33 -41 18z"/>
<path d="M16994 19708 c27 -66 28 -152 5 -296 l-22 -138 26 -57 c30 -66 62
-87 102 -69 33 15 65 69 64 107 0 30 0 30 -18 -10 -22 -48 -53 -78 -77 -73
-10 2 -29 18 -41 37 -28 42 -30 108 -7 237 17 99 12 220 -12 267 -20 38 -36
34 -20 -5z"/>
<path d="M5716 19698 c-3 -13 -10 -58 -16 -101 -28 -195 -99 -320 -198 -350
-94 -29 -113 -24 -193 59 -40 40 -74 72 -77 70 -8 -9 29 -64 76 -113 35 -36
61 -54 86 -59 20 -3 36 -11 36 -18 0 -6 18 -42 40 -79 47 -82 47 -82 -90 -82
-171 0 -290 59 -344 170 -25 50 -29 71 -28 128 2 68 14 107 33 107 5 0 30 -19
55 -42 44 -41 47 -42 60 -23 8 10 14 39 14 63 0 50 -39 202 -52 202 -11 0 -10
-26 7 -95 16 -64 20 -155 8 -155 -5 0 -23 16 -42 36 -40 40 -69 42 -88 4 -19
-37 -16 -185 4 -238 14 -38 14 -45 1 -58 -25 -25 -93 -22 -123 6 -14 13 -28
20 -32 16 -5 -4 7 -21 26 -38 30 -26 39 -30 78 -25 24 2 53 13 64 23 19 17 20
17 52 -13 43 -41 78 -58 178 -83 120 -31 202 -24 339 28 139 53 145 55 159 38
17 -21 -5 -76 -72 -175 -56 -84 -64 -104 -49 -129 11 -16 67 -32 114 -32 21 0
38 -4 38 -10 0 -5 -4 -10 -8 -10 -13 0 -119 -108 -153 -154 -28 -38 -38 -76
-20 -76 5 0 11 11 15 24 8 33 130 162 183 192 24 15 42 31 40 38 -2 6 -34 14
-72 18 -135 13 -141 24 -71 122 57 80 86 139 86 174 0 61 -47 67 -159 22 -41
-17 -80 -29 -87 -26 -14 5 -84 126 -84 144 0 7 7 12 16 12 35 0 114 44 142 78
63 80 108 211 119 351 6 76 -1 109 -11 59z"/>
<path d="M5463 19535 c-12 -8 -28 -12 -36 -9 -40 15 -23 -92 21 -133 30 -28
75 -28 80 0 2 12 -3 17 -18 17 -21 0 -80 53 -80 71 0 5 14 2 32 -7 21 -11 46
-15 75 -11 55 6 76 22 62 48 -11 22 -39 25 -57 7 -10 -10 -16 -7 -28 10 -18
26 -23 27 -51 7z"/>
<path d="M5705 19345 c7 -45 61 -206 82 -247 7 -16 18 -28 23 -28 13 0 13 -2
-14 71 -13 35 -36 100 -51 144 -31 92 -51 122 -40 60z"/>
<path d="M5193 19196 c-28 -42 -50 -76 -48 -76 17 0 108 126 103 141 -2 6 -27
-24 -55 -65z"/>
<path d="M4811 19079 c-11 -12 -37 -56 -57 -97 -32 -65 -38 -86 -40 -151 -1
-72 -33 -213 -86 -383 l-20 -67 -44 36 c-24 20 -73 53 -108 72 -103 57 -229
146 -266 188 -36 40 -154 133 -171 133 -5 0 -15 -11 -21 -25 -10 -23 -17 -25
-70 -25 -98 0 -116 -38 -79 -161 34 -109 35 -155 6 -234 -14 -38 -29 -81 -33
-95 -4 -14 -25 -53 -47 -88 -22 -35 -73 -114 -112 -177 -40 -63 -73 -121 -73
-129 0 -19 30 -24 195 -30 73 -3 150 -11 177 -20 51 -16 132 -14 154 5 33 27
5 201 -60 377 -45 121 -46 125 -46 243 l0 119 42 -21 c24 -12 85 -54 138 -94
52 -39 106 -78 120 -85 94 -49 248 -190 369 -337 42 -52 63 -64 77 -42 4 6 17
57 29 113 28 125 65 272 78 310 10 26 12 27 23 11 22 -30 46 -156 47 -245 1
-93 -15 -143 -96 -305 -59 -118 -89 -152 -171 -189 -87 -40 -191 -112 -241
-167 -40 -45 -110 -150 -144 -216 -29 -58 -61 -201 -61 -274 0 -74 17 -115 63
-156 46 -40 92 -53 187 -53 93 0 167 19 214 55 26 20 36 23 36 13 0 -24 57
-96 90 -113 44 -23 178 -55 230 -55 48 0 73 13 127 63 l33 31 30 -29 c36 -34
38 -66 15 -198 -19 -108 -45 -179 -94 -253 -43 -66 -207 -244 -224 -244 -6 0
-22 -13 -36 -29 -60 -68 -214 -202 -227 -197 -8 3 -14 1 -14 -4 0 -15 33 -12
60 7 14 9 55 45 92 80 36 34 70 63 75 63 5 0 6 -32 2 -72 -18 -178 -6 -646 26
-1028 8 -96 20 -257 26 -357 l11 -182 -32 -132 c-20 -84 -32 -161 -33 -212 -2
-79 -2 -80 25 -88 18 -4 31 -3 37 5 6 7 25 72 42 144 17 73 35 130 39 127 5
-3 35 -55 66 -115 31 -60 67 -118 79 -130 25 -23 156 -80 185 -80 25 0 28 7
36 73 l7 56 -78 92 c-87 104 -215 293 -215 318 0 9 9 49 20 89 33 124 51 351
52 651 l0 276 34 140 c19 77 41 194 50 260 9 66 30 190 48 275 29 145 31 169
31 368 0 185 2 211 15 206 82 -31 231 -45 270 -24 10 5 30 29 45 52 l27 43 62
0 c75 0 105 19 141 89 21 41 25 64 25 130 0 92 -12 143 -66 287 -29 76 -46
106 -65 117 -28 17 -155 215 -176 275 -19 56 -3 418 23 494 21 66 33 76 119
102 74 22 104 45 144 111 27 46 29 147 2 205 -24 54 -111 130 -111 98 0 -5 16
-21 36 -37 124 -98 83 -325 -64 -352 -74 -13 -112 -41 -139 -101 -23 -51 -26
-72 -35 -270 -5 -118 -7 -230 -4 -247 4 -18 22 -59 42 -92 20 -32 50 -84 66
-114 37 -66 56 -90 84 -100 41 -16 118 -259 118 -370 -1 -133 -50 -200 -145
-200 l-42 0 7 68 c11 106 -24 164 -66 113 -24 -31 -26 -142 -2 -166 20 -20 13
-51 -22 -89 -27 -29 -27 -29 -123 -23 -82 5 -104 10 -160 39 -35 18 -77 49
-93 69 l-29 36 30 49 c16 27 36 71 42 97 12 42 11 49 -4 64 -38 38 -85 -32
-96 -141 -7 -77 -9 -81 -90 -143 -23 -18 -96 -15 -184 7 -95 24 -110 32 -140
73 -44 58 -43 68 18 148 67 88 109 172 130 256 18 71 10 99 -29 109 -53 13
-112 -43 -163 -151 -24 -52 -28 -76 -31 -173 l-4 -113 -32 -24 c-46 -35 -113
-48 -219 -43 -113 5 -151 23 -185 88 -20 39 -23 55 -18 115 7 102 38 205 86
289 91 159 180 243 336 317 59 27 91 50 117 81 46 56 129 225 158 317 30 100
22 203 -27 348 -47 142 -55 237 -25 321 24 71 27 102 5 57 l-14 -30 6 30 c3
16 9 32 13 35 13 9 20 39 11 45 -13 8 -32 -32 -45 -95 l-11 -55 -42 -3 c-37
-3 -42 0 -59 30 -11 22 -17 56 -18 99 0 59 5 76 41 145 22 44 50 84 62 90 12
6 19 14 15 17 -11 12 -21 8 -42 -14z m-626 -429 c39 -37 86 -75 105 -85 19
-10 57 -35 85 -55 27 -21 78 -52 113 -70 35 -18 74 -46 87 -62 13 -15 28 -28
34 -28 12 0 60 149 93 285 12 49 23 92 25 94 2 3 13 -5 26 -17 15 -14 36 -22
60 -22 l37 0 0 -57 c1 -32 5 -78 10 -103 6 -33 4 -52 -6 -71 -19 -37 -69 -220
-96 -348 l-22 -105 -35 45 c-113 139 -279 291 -369 338 -20 11 -79 52 -131 91
-52 40 -118 83 -146 97 -44 22 -53 31 -64 67 -10 37 -9 47 9 89 l21 47 47 -31
c26 -18 79 -62 117 -99z m-220 68 c-4 -13 -11 -27 -16 -32 -15 -17 -10 -52 12
-81 18 -22 23 -44 26 -118 4 -82 2 -97 -19 -137 -17 -33 -35 -51 -67 -67 -25
-13 -46 -21 -49 -19 -2 3 8 38 22 79 33 95 33 160 1 261 -36 110 -25 136 53
136 40 0 43 -2 37 -22z m47 -496 c90 -189 116 -372 53 -372 -8 0 -14 21 -17
63 -3 48 -15 84 -50 158 -25 53 -51 100 -58 104 -19 12 -7 -29 36 -120 37 -81
53 -145 47 -185 -2 -13 -5 -25 -6 -27 -2 -1 -27 5 -57 13 -31 8 -121 18 -202
21 -82 3 -148 8 -148 10 0 2 26 43 58 91 32 48 79 123 106 168 46 77 51 82
100 97 29 9 61 26 72 36 10 11 21 20 24 20 3 0 22 -34 42 -77z m893 -939 c-10
-71 -41 -144 -94 -225 -84 -128 -100 -125 -83 17 16 136 88 255 155 255 29 0
29 0 22 -47z m365 -272 c0 -11 -10 -41 -22 -68 l-22 -48 -4 31 c-3 35 21 104
37 104 6 0 11 -9 11 -19z m420 -116 c0 -63 -14 -91 -31 -64 -12 19 -11 70 2
107 16 48 29 29 29 -43z m-385 -247 c13 -153 7 -317 -19 -459 -13 -74 -30
-183 -36 -242 -12 -121 -49 -316 -80 -422 -18 -63 -20 -99 -20 -355 0 -188 -5
-328 -15 -411 -16 -137 -51 -319 -63 -331 -4 -4 -28 -4 -52 0 l-45 8 -7 54
c-10 87 -47 529 -58 705 -11 182 -12 664 -2 772 l8 72 69 69 c224 220 274 312
291 536 4 47 10 86 14 86 4 0 11 -37 15 -82z m-151 -2365 c28 -42 83 -117 124
-165 41 -49 72 -91 69 -94 -3 -3 -29 -8 -58 -11 l-54 -5 -51 59 c-60 69 -97
131 -115 192 -11 38 -11 44 4 53 9 5 17 18 17 28 0 34 13 22 64 -57z"/>
<path d="M10110 18804 c0 -8 3 -13 8 -10 4 2 29 -33 55 -79 26 -46 67 -105 92
-133 l44 -49 -34 -33 c-19 -18 -44 -57 -56 -86 l-22 -52 -39 59 c-38 56 -96
115 -105 105 -2 -2 19 -33 47 -68 74 -91 84 -113 81 -185 -2 -58 9 -87 24 -62
4 6 8 45 9 87 4 127 69 229 136 215 37 -7 41 14 6 23 -36 9 -113 95 -176 196
-54 87 -70 103 -70 72z"/>
<path d="M10102 18760 c0 -14 2 -19 5 -12 2 6 2 18 0 25 -3 6 -5 1 -5 -13z"/>
<path d="M10064 18637 c-16 -51 -34 -101 -38 -112 -4 -11 4 1 18 26 22 41 61
167 54 174 -2 2 -17 -38 -34 -88z"/>
<path d="M17825 18453 c-259 -131 -692 -284 -940 -332 -156 -31 -299 -62 -304
-67 -9 -9 56 -4 128 10 41 8 80 12 87 9 23 -8 85 -96 119 -168 53 -114 74
-243 76 -471 1 -135 -62 -392 -115 -470 -29 -43 -26 -57 5 -28 52 47 75 106
114 298 28 135 30 204 11 401 -19 190 -63 306 -154 407 -19 21 -33 40 -31 42
2 2 45 11 94 20 120 22 357 93 574 172 163 59 550 239 551 257 1 21 -62 -2
-215 -80z"/>
<path d="M18062 18473 c15 -128 38 -448 38 -538 0 -49 -7 -135 -14 -190 -8
-55 -17 -143 -21 -195 -15 -220 -38 -366 -101 -638 -13 -57 -24 -126 -24 -153
l0 -49 36 0 c19 0 44 5 56 11 11 6 21 9 23 7 6 -6 -191 -324 -264 -426 -38
-54 -92 -137 -120 -187 -28 -49 -116 -187 -196 -305 -79 -118 -176 -266 -214
-327 -38 -62 -96 -152 -127 -200 -64 -96 -138 -214 -271 -433 -51 -85 -109
-167 -140 -198 -29 -29 -53 -59 -53 -66 0 -37 163 -205 256 -265 51 -32 51
-33 38 -61 -8 -15 -23 -61 -33 -101 -10 -40 -25 -77 -32 -82 -18 -11 -109 27
-109 45 1 7 7 24 15 38 21 37 20 57 -2 38 -10 -9 -40 -23 -68 -33 -66 -22
-140 -13 -270 31 -168 56 -219 80 -227 106 -6 22 -6 22 -7 2 -1 -29 9 -36 119
-79 208 -81 317 -100 399 -71 54 20 54 20 41 -3 -19 -37 -11 -51 46 -76 66
-29 78 -24 94 36 5 22 15 58 21 82 16 62 35 87 67 87 62 0 354 344 584 686 59
89 108 165 108 170 0 21 -53 -46 -143 -181 -96 -145 -147 -213 -307 -408 -101
-124 -219 -247 -238 -247 -34 0 -129 68 -223 159 -117 115 -122 131 -56 185
24 20 63 70 91 118 27 46 83 137 126 203 42 66 105 165 139 220 160 255 304
478 441 678 55 82 124 190 152 240 28 51 86 142 128 202 71 103 216 337 254
413 22 42 101 79 195 91 36 5 85 17 109 26 24 10 45 15 48 13 12 -12 -130
-298 -208 -419 -31 -47 -66 -105 -78 -130 -31 -61 -89 -145 -145 -210 -25 -30
-72 -99 -103 -154 -31 -55 -79 -136 -107 -180 -87 -135 -174 -290 -181 -321
-4 -24 13 -59 105 -214 60 -102 128 -210 150 -240 98 -132 218 -323 264 -420
27 -58 67 -132 87 -165 21 -33 64 -123 95 -200 72 -176 85 -201 131 -256 20
-24 50 -72 66 -107 33 -71 61 -90 111 -72 17 5 33 8 35 5 3 -3 -13 -42 -36
-88 -43 -87 -98 -147 -215 -234 -69 -52 -75 -80 -23 -112 67 -42 103 -29 281
100 110 80 142 92 250 94 113 3 103 -1 120 38 17 39 50 245 41 255 -13 12 -23
-19 -35 -106 -15 -112 -29 -162 -44 -163 -7 -1 -40 0 -74 1 -93 3 -158 -21
-254 -92 -126 -95 -168 -120 -209 -125 -45 -6 -103 20 -98 45 2 9 42 46 89 82
122 92 170 152 219 273 27 65 44 78 130 96 30 6 75 18 100 25 56 18 132 27
125 16 -8 -13 29 -30 63 -30 34 0 82 42 82 72 0 28 -24 79 -58 127 -17 24 -36
59 -43 79 -12 37 -86 163 -156 268 -22 32 -59 102 -82 154 -22 52 -61 120 -86
150 -110 134 -130 168 -201 321 -41 89 -89 185 -107 213 -43 65 -58 109 -51
149 21 117 85 273 148 361 23 34 64 105 89 159 25 53 66 123 90 155 60 79 127
170 156 212 13 19 46 59 72 88 76 83 144 202 169 295 35 125 29 274 -15 379
-5 14 2 18 42 24 26 4 58 11 71 15 26 10 31 43 5 35 -10 -3 -54 -12 -98 -21
-53 -10 -117 -34 -190 -70 -129 -63 -192 -80 -335 -93 -76 -7 -124 -18 -169
-37 -35 -14 -98 -33 -140 -40 -81 -15 -170 -44 -193 -63 -21 -17 -84 -42 -106
-42 -27 0 -24 18 58 390 26 113 36 191 55 405 9 99 20 209 25 245 14 94 12
224 -5 432 -18 211 -34 338 -44 338 -4 0 -4 -30 1 -67z m1018 -1484 c31 -115
28 -260 -9 -377 -23 -74 -93 -189 -164 -268 -100 -112 -279 -366 -323 -460
-23 -50 -58 -114 -78 -141 -50 -70 -114 -214 -137 -308 -23 -98 -16 -130 51
-235 26 -41 51 -86 55 -100 9 -27 49 -118 101 -225 19 -40 63 -103 100 -145
50 -56 80 -104 120 -188 30 -63 84 -158 120 -212 36 -55 89 -145 118 -202 29
-57 63 -121 74 -143 26 -47 28 -78 6 -100 -17 -16 -68 -13 -89 6 -15 15 -78
10 -136 -9 -30 -11 -79 -25 -109 -32 -30 -7 -81 -26 -114 -42 -86 -43 -104
-37 -146 45 -19 37 -54 92 -78 121 -40 51 -74 120 -142 293 -15 39 -48 105
-73 145 -25 40 -62 109 -82 153 -40 87 -190 328 -241 386 -17 20 -44 58 -59
85 -41 72 -142 240 -188 311 -31 50 -38 68 -32 90 7 32 105 202 175 308 25 39
74 120 109 180 34 61 74 124 89 140 59 65 102 124 154 215 31 52 81 138 113
190 58 94 150 279 176 353 18 50 35 58 133 64 127 7 222 31 331 83 158 75 160
76 175 19z"/>
<path d="M16403 18439 c-7 -7 -8 -21 -2 -42 16 -56 14 -57 -58 -36 -80 23
-122 24 -148 5 -16 -12 -17 -16 -6 -30 7 -9 12 -16 10 -17 -2 0 -20 -3 -39 -5
-73 -10 -80 -30 -23 -65 l38 -24 -54 -12 c-66 -14 -91 -34 -71 -58 52 -62 171
-88 375 -81 109 3 129 6 138 21 13 24 1 173 -18 218 -17 42 -19 50 -6 42 5 -3
12 -1 15 3 3 5 -26 28 -64 51 -79 47 -73 44 -87 30z m67 -51 c53 -53 70 -100
70 -203 l0 -90 -162 3 c-173 3 -244 16 -287 52 -13 11 -21 23 -18 26 9 10 80
24 120 24 26 0 37 4 37 15 0 8 -6 15 -12 15 -7 0 -33 14 -58 31 l-45 30 65 -4
c36 -2 73 -7 83 -12 12 -5 17 -3 17 9 0 9 -6 16 -14 16 -19 0 -67 40 -61 51
10 14 52 11 137 -13 87 -24 105 -18 87 29 -11 30 -12 53 -1 53 5 0 23 -15 42
-32z"/>
<path d="M14600 18305 c0 -119 -77 -313 -148 -372 l-27 -23 38 0 c68 0 101
-24 143 -103 28 -53 39 -89 43 -136 3 -36 11 -66 18 -68 16 -6 22 25 14 77 -8
53 9 149 40 220 25 59 41 74 80 74 40 1 42 20 2 24 -43 4 -108 69 -139 137
-15 32 -29 91 -36 144 -6 50 -15 91 -20 91 -4 0 -8 -29 -8 -65z m53 -202 c10
-18 35 -50 58 -72 l40 -40 -23 -31 c-12 -17 -34 -67 -49 -113 l-26 -82 -23 53
c-28 64 -79 112 -120 112 l-30 0 35 53 c19 28 46 86 60 127 38 112 36 109 49
65 7 -22 20 -55 29 -72z"/>
<path d="M3317 17504 c-20 -17 -26 -30 -22 -44 9 -27 102 -170 133 -203 l26
-27 -12 -97 c-10 -76 -24 -126 -69 -237 -44 -110 -58 -156 -61 -209 -4 -61 -2
-71 19 -93 12 -13 26 -24 30 -24 3 0 44 38 90 85 45 47 88 85 94 85 12 0 55
51 88 103 10 15 22 27 27 27 5 0 30 -39 56 -87 49 -94 176 -285 278 -420 33
-44 88 -118 121 -163 82 -112 216 -224 349 -289 58 -29 116 -51 134 -51 42 0
41 16 0 25 -66 14 -215 93 -288 153 -102 83 -144 128 -241 263 -46 63 -116
158 -154 210 -101 134 -153 219 -177 283 l-20 56 23 47 c57 117 -3 248 -216
473 -44 47 -92 99 -105 116 -34 43 -68 49 -103 18z m296 -309 c43 -55 86 -105
94 -112 11 -8 12 -16 4 -30 -6 -10 -22 -44 -35 -75 -14 -32 -31 -59 -38 -59
-7 -1 -22 -2 -32 -3 -12 -1 -60 -49 -125 -127 -97 -116 -106 -124 -109 -98 -3
26 11 70 72 230 34 91 54 198 58 306 3 109 -2 110 111 -32z"/>
<path d="M10876 17314 c-3 -9 -6 -26 -6 -38 0 -13 -26 -50 -64 -92 -142 -155
-258 -301 -331 -417 -48 -76 -102 -146 -144 -187 -92 -89 -154 -213 -159 -316
-5 -88 14 -131 96 -214 76 -78 132 -95 283 -87 124 7 175 22 202 58 18 25 18
32 8 95 -18 99 -54 164 -150 266 -87 92 -203 188 -227 188 -19 0 -18 15 2 31
9 7 20 22 24 34 18 46 162 251 250 356 148 176 221 250 241 244 9 -3 20 -1 24
5 21 33 35 -8 55 -158 14 -101 8 -311 -10 -377 -24 -86 -54 -146 -86 -175 -32
-28 -41 -30 -109 -30 -41 0 -75 -4 -75 -9 0 -14 35 -23 83 -20 23 2 44 1 46
-2 2 -2 1 -42 -3 -87 -6 -81 6 -152 26 -152 4 0 8 54 8 121 l0 120 39 47 c65
78 111 221 111 346 0 20 5 36 10 36 6 0 10 6 10 14 0 7 13 40 30 72 16 32 30
65 30 72 0 6 5 12 10 12 6 0 10 -5 10 -10 0 -6 21 -24 47 -40 44 -28 48 -33
66 -107 l19 -77 -21 -17 c-25 -21 -41 -59 -41 -101 0 -60 -33 -137 -83 -196
-56 -66 -73 -96 -93 -163 -18 -58 -60 -110 -120 -145 -40 -24 -59 -54 -34 -54
6 0 10 4 10 8 0 5 17 18 39 30 63 35 107 93 127 163 14 48 31 79 73 128 36 43
66 92 86 142 16 41 59 123 95 182 56 91 70 108 99 116 19 6 35 9 36 8 1 -1 18
-26 38 -55 20 -28 37 -60 37 -70 0 -9 -11 -50 -25 -90 -14 -41 -25 -83 -25
-94 0 -11 -18 -64 -39 -117 -22 -53 -44 -124 -50 -157 -6 -32 -33 -104 -60
-159 -28 -56 -52 -122 -56 -149 -10 -70 -21 -96 -44 -96 -58 0 -91 -41 -91
-113 0 -61 -12 -75 -44 -54 -13 9 -39 35 -57 57 -36 44 -49 50 -49 20 0 -12
-7 -20 -16 -20 -12 0 -14 -4 -7 -12 6 -7 13 -53 16 -102 10 -141 67 -494 93
-574 29 -88 29 -92 3 -137 -27 -45 -23 -106 11 -188 l24 -57 -22 -20 c-32 -30
-29 -104 8 -210 16 -47 30 -91 30 -99 0 -8 -16 -30 -36 -48 l-37 -33 5 -101 5
-100 -53 -35 c-49 -30 -68 -54 -45 -54 4 0 11 -60 14 -132 3 -73 10 -145 15
-159 12 -31 45 -214 62 -345 12 -86 10 -176 -6 -329 l-6 -60 34 -16 c54 -26
98 -68 98 -94 0 -26 -12 -31 -111 -41 l-65 -6 -12 53 c-17 73 -49 137 -72 144
-22 7 -42 64 -66 194 -9 48 -20 94 -25 104 -11 20 -59 23 -77 5 -23 -23 -25 4
-8 98 22 115 14 135 -35 88 l-30 -29 3 140 c3 159 0 166 -68 120 -20 -14 -40
-22 -44 -18 -4 5 -12 78 -18 163 -11 151 -26 225 -42 215 -4 -3 -6 -14 -3 -25
3 -10 13 -97 22 -192 15 -166 17 -173 38 -176 13 -2 36 6 52 17 52 37 54 34
46 -119 -8 -152 -4 -164 44 -119 12 12 24 19 27 16 3 -2 -3 -46 -12 -96 -19
-104 -13 -125 29 -102 46 25 61 12 75 -64 21 -121 50 -199 85 -236 24 -25 40
-56 57 -116 l24 -83 35 0 c52 0 153 18 164 29 17 17 10 61 -13 86 -13 14 -43
34 -68 46 l-44 22 6 46 c15 117 18 262 6 351 -15 118 -48 304 -60 335 -5 12
-10 87 -11 165 l-2 143 39 27 39 26 -4 96 c-4 114 0 128 39 151 38 23 38 45 0
154 -36 103 -39 167 -9 199 l22 23 -27 71 c-31 85 -33 134 -6 175 24 36 25 59
5 114 -27 77 -81 395 -100 592 l-7 67 28 -2 c16 -1 40 -9 54 -19 52 -37 75
-19 83 66 7 69 17 84 63 93 42 8 61 40 75 126 6 37 27 94 54 147 27 51 51 115
59 158 8 40 31 113 50 162 20 48 36 95 36 102 0 8 11 50 25 94 14 44 25 88 25
98 0 11 -19 48 -42 83 -40 63 -42 64 -77 58 -20 -4 -40 -9 -44 -11 -5 -3 -36
-48 -70 -101 -45 -70 -63 -91 -66 -77 -2 12 7 27 23 40 31 25 31 29 9 122 -16
68 -19 73 -64 102 -26 17 -49 38 -53 46 -12 31 -37 12 -76 -57 l-40 -73 0 40
c-1 73 -41 286 -62 328 -11 22 -64 23 -72 1z m-458 -788 c34 -21 99 -77 157
-137 121 -126 160 -199 160 -299 0 -60 -2 -65 -27 -78 -49 -23 -201 -36 -271
-22 -81 16 -103 28 -159 88 -103 110 -112 181 -39 327 40 82 93 155 112 155 4
0 34 -16 67 -34z"/>
<path d="M3840 16990 c0 -5 21 -21 48 -34 54 -28 314 -279 385 -371 34 -44 70
-75 134 -115 83 -52 92 -62 158 -160 39 -58 78 -106 88 -108 32 -6 57 29 83
117 35 113 100 241 164 319 50 63 61 94 19 56 -67 -60 -155 -217 -203 -364
-39 -118 -56 -126 -101 -48 -68 116 -109 161 -192 210 -60 36 -92 63 -124 105
-75 100 -339 359 -389 382 -50 23 -70 26 -70 11z"/>
<path d="M10547 16733 c-14 -13 -7 -50 12 -67 39 -36 85 6 56 50 -15 23 -53
32 -68 17z"/>
<path d="M12313 16578 c-19 -23 -44 -135 -53 -245 -5 -58 -12 -108 -15 -111
-14 -14 -141 86 -154 121 -8 20 -8 20 -14 -2 -7 -27 62 -168 106 -214 l28 -31
-35 -75 c-51 -111 -138 -350 -134 -369 2 -9 9 -17 16 -17 12 0 183 191 224
251 13 18 28 34 33 34 13 0 145 -134 175 -178 24 -36 55 -40 74 -10 13 21 -10
91 -61 188 -27 51 -34 73 -30 103 7 54 50 134 114 214 74 92 105 142 99 159
-3 8 -9 14 -14 14 -15 0 -83 -57 -169 -142 -46 -45 -85 -79 -89 -76 -11 12
-64 288 -64 339 0 14 -6 33 -13 43 -11 15 -15 15 -24 4z m38 -188 c21 -137 33
-192 43 -209 15 -23 43 -9 96 48 69 74 160 154 167 147 7 -7 -18 -46 -83 -126
-65 -81 -124 -194 -124 -239 0 -19 17 -69 39 -115 45 -93 64 -153 50 -162 -5
-3 -57 44 -115 105 -63 66 -111 108 -119 105 -7 -3 -26 -24 -41 -47 -25 -38
-193 -237 -200 -237 -9 0 109 306 147 381 l30 59 -25 23 c-22 21 -96 137 -96
152 0 4 23 -12 51 -34 86 -68 93 -62 104 89 10 129 46 273 53 210 1 -14 12
-81 23 -150z"/>
<path d="M5882 16025 c6 -14 13 -24 14 -22 6 6 -9 47 -17 47 -5 0 -3 -11 3
-25z"/>
<path d="M13327 16006 c-3 -9 -11 -84 -17 -168 -40 -581 -66 -845 -88 -882
-20 -34 -68 -54 -129 -55 -43 -1 -230 -66 -275 -95 -14 -9 -30 -27 -36 -40
-15 -34 8 -52 88 -66 84 -14 179 -44 223 -70 19 -11 58 -23 86 -27 28 -3 54
-10 57 -14 3 -5 10 -138 15 -296 11 -305 17 -374 35 -380 10 -3 154 233 154
252 0 4 22 46 50 94 27 47 65 130 85 184 53 149 46 140 108 116 28 -11 88 -40
132 -64 59 -32 100 -46 155 -54 46 -7 100 -24 138 -43 100 -50 109 -14 23 90
-26 31 -78 102 -115 157 -38 55 -74 107 -81 115 -8 8 -23 39 -34 67 -20 51
-20 56 -5 140 8 49 29 147 46 218 87 367 101 445 79 445 -15 0 -146 -144 -219
-241 -39 -52 -84 -107 -101 -123 l-30 -29 -19 44 c-29 68 -108 274 -143 374
-18 50 -56 139 -86 199 -29 60 -53 114 -53 121 0 7 -8 20 -19 29 -16 15 -19
15 -24 2z m187 -411 c35 -93 84 -220 110 -282 l47 -112 48 53 c27 30 68 80 91
112 72 98 188 229 197 221 5 -6 -30 -185 -52 -262 -30 -107 -85 -386 -85 -430
0 -25 6 -61 14 -80 17 -40 153 -240 211 -310 80 -96 96 -138 38 -98 -45 30
-77 41 -145 49 -47 5 -90 20 -173 62 -145 72 -179 84 -199 69 -8 -7 -33 -60
-54 -118 -60 -160 -265 -543 -275 -514 -4 8 -9 103 -12 212 -13 449 -14 453
-78 453 -18 0 -59 13 -92 28 -60 29 -141 52 -247 72 -32 6 -60 15 -63 19 -10
17 37 60 83 77 26 9 67 26 92 36 25 11 80 23 123 28 89 10 131 31 151 75 17
39 33 167 46 376 5 92 12 173 15 180 2 8 9 111 15 229 6 118 13 223 16 233 9
28 103 -173 178 -378z"/>
<path d="M5872 15985 c0 -16 2 -22 5 -12 2 9 2 23 0 30 -3 6 -5 -1 -5 -18z"/>
<path d="M5901 15982 c-1 -15 26 -82 33 -82 3 0 -1 15 -8 33 -7 17 -16 39 -19
47 -3 10 -6 10 -6 2z"/>
<path d="M10335 15948 c-2 -7 -6 -38 -10 -68 -3 -30 -15 -90 -26 -133 -11 -43
-17 -83 -13 -88 6 -10 31 -7 68 7 12 5 16 0 16 -17 0 -26 -38 -149 -65 -213
-18 -42 -14 -66 10 -66 20 0 19 -11 -11 -135 -30 -124 -29 -151 4 -148 12 2
22 1 22 0 0 -2 -13 -43 -30 -92 -34 -100 -39 -169 -14 -183 14 -8 14 -15 -4
-78 -29 -102 -32 -118 -23 -133 5 -8 16 -11 26 -7 14 5 16 2 10 -11 -4 -10
-10 -67 -12 -128 -5 -106 -7 -114 -50 -201 -25 -51 -75 -132 -112 -180 -116
-152 -353 -350 -564 -469 -137 -78 -157 -92 -157 -110 0 -16 15 -21 87 -30 98
-13 275 30 353 85 14 9 45 26 70 37 53 24 247 177 343 271 l67 66 0 -54 c0
-30 -7 -109 -15 -174 -17 -134 -13 -146 41 -146 29 0 34 -3 34 -24 0 -13 -7
-43 -16 -67 -24 -67 -53 -209 -47 -228 10 -27 35 -51 55 -51 30 0 32 -27 9
-119 -28 -112 -28 -204 -1 -231 18 -18 33 -20 133 -20 120 0 137 6 137 48 0
47 -49 112 -85 112 -12 0 -24 2 -27 5 -3 3 3 36 12 74 10 37 23 117 29 177 6
60 18 150 25 199 14 92 6 138 -13 69 -5 -22 -17 -106 -26 -189 -15 -139 -44
-305 -60 -348 -7 -16 -3 -17 32 -11 36 5 42 3 67 -26 18 -22 26 -42 24 -59 -3
-26 -3 -26 -106 -29 -133 -4 -142 1 -142 79 0 33 9 98 21 145 26 107 24 126
-20 140 -19 6 -38 19 -41 29 -8 23 12 140 40 228 30 96 26 111 -28 115 -43 3
-44 4 -38 35 15 87 37 310 32 323 -3 9 6 35 20 60 14 24 24 49 22 56 -2 6 -13
-4 -24 -23 -64 -107 -336 -351 -469 -420 -155 -80 -181 -91 -243 -105 -71 -14
-184 -18 -215 -5 -24 9 -17 14 81 65 175 89 370 234 498 369 124 131 165 186
227 309 52 101 55 108 56 189 1 46 8 112 15 147 13 64 7 84 -19 62 -23 -19
-19 23 11 114 26 81 26 110 -1 100 -26 -10 -18 52 20 156 43 119 44 123 4 115
l-31 -7 7 43 c4 24 16 73 27 109 25 80 27 130 7 143 -14 9 -12 20 13 93 38
111 47 181 24 190 -10 4 -29 1 -43 -5 -14 -6 -27 -10 -29 -8 -2 1 6 36 16 77
21 81 37 210 26 210 -4 0 -8 -6 -11 -12z"/>
<path d="M5862 15905 c0 -16 2 -22 5 -12 2 9 2 23 0 30 -3 6 -5 -1 -5 -18z"/>
<path d="M5948 15874 c6 -11 29 -39 52 -62 l41 -41 -19 -28 c-11 -15 -23 -39
-26 -53 -6 -25 -6 -25 7 2 17 35 47 68 64 68 7 0 13 5 13 10 0 6 -7 10 -16 10
-9 0 -41 26 -71 57 -31 31 -51 48 -45 37z"/>
<path d="M5841 15754 c0 -11 3 -14 6 -6 3 7 2 16 -1 19 -3 4 -6 -2 -5 -13z"/>
<path d="M5829 15677 c-5 -36 5 -61 13 -35 3 7 14 9 31 4 29 -7 96 -89 97
-118 0 -24 22 -68 30 -63 5 3 2 25 -6 50 -7 25 -10 53 -7 63 6 15 5 15 -10 3
-9 -7 -17 -9 -17 -4 0 22 -69 83 -93 83 -20 0 -26 6 -29 28 -3 23 -4 22 -9
-11z"/>
<path d="M5982 15630 c0 -19 2 -27 5 -17 2 9 2 25 0 35 -3 9 -5 1 -5 -18z"/>
<path d="M16540 14400 c-25 -11 -39 -19 -32 -19 16 -1 82 26 82 33 0 4 -1 6
-2 5 -2 -1 -23 -9 -48 -19z"/>
<path d="M16458 14373 c6 -2 18 -2 25 0 6 3 1 5 -13 5 -14 0 -19 -2 -12 -5z"/>
<path d="M16408 14363 c6 -2 18 -2 25 0 6 3 1 5 -13 5 -14 0 -19 -2 -12 -5z"/>
<path d="M16338 14353 c12 -2 30 -2 40 0 9 3 -1 5 -23 4 -22 0 -30 -2 -17 -4z"/>
<path d="M16253 14343 c9 -2 25 -2 35 0 9 3 1 5 -18 5 -19 0 -27 -2 -17 -5z"/>
</g>
</svg>
