<?xml version="1.0" standalone="no"?>
<!DOCTYPE svg PUBLIC "-//W3C//DTD SVG 20010904//EN"
 "http://www.w3.org/TR/2001/REC-SVG-20010904/DTD/svg10.dtd">
<svg version="1.0" xmlns="http://www.w3.org/2000/svg"
 width="2480.000000pt" height="3508.000000pt" viewBox="0 0 2480.000000 3508.000000"
 preserveAspectRatio="xMidYMid meet">

<g transform="translate(0.000000,3508.000000) scale(0.100000,-0.100000)"
fill="#000000" stroke="none">
<path d="M9695 26613 c-11 -2 -45 -12 -75 -23 -30 -10 -82 -26 -115 -35 -67
-19 -233 -99 -304 -147 -66 -45 -260 -245 -299 -309 -131 -214 -162 -283 -213
-486 -51 -203 -59 -381 -29 -658 18 -173 54 -293 136 -456 93 -184 116 -215
201 -272 39 -25 97 -69 129 -98 167 -146 242 -182 609 -291 145 -43 307 -49
425 -18 47 12 103 26 125 30 96 16 505 251 605 346 20 19 40 34 44 34 5 0 27
-15 50 -33 71 -58 199 -139 261 -167 33 -15 92 -32 130 -39 39 -6 106 -18 150
-26 101 -18 251 -19 336 -1 110 24 393 174 496 263 92 80 210 268 267 427 51
139 89 353 87 486 -1 118 -33 292 -81 436 -32 100 -175 378 -225 439 -80 97
-288 297 -375 360 -109 79 -242 154 -315 178 -28 9 -96 26 -153 37 -93 19
-115 20 -235 11 -73 -5 -154 -16 -182 -24 -95 -28 -250 -104 -358 -176 l-107
-73 -48 30 c-26 17 -85 48 -132 70 -47 22 -110 54 -140 72 -59 35 -186 81
-288 105 -59 14 -324 20 -377 8z m365 -87 c106 -26 207 -66 295 -115 50 -28
96 -51 103 -51 36 0 162 -80 162 -102 0 -11 -92 -118 -101 -118 -4 0 -10 11
-13 25 -7 29 -68 72 -178 126 -67 34 -102 44 -212 60 -258 39 -462 19 -667
-67 -130 -55 -200 -104 -290 -205 -122 -136 -183 -248 -258 -465 l-41 -121 0
-156 c0 -252 29 -404 125 -652 113 -290 138 -333 287 -485 116 -119 176 -163
257 -186 31 -9 87 -25 124 -37 56 -16 84 -19 160 -14 51 4 124 14 162 22 39 9
99 20 135 25 74 9 186 42 245 73 62 31 226 150 274 198 23 24 86 109 139 189
53 80 102 150 108 155 7 6 14 26 17 45 3 19 20 100 37 180 28 131 31 164 33
345 2 199 2 201 -31 318 -49 174 -90 257 -182 368 l-39 46 40 62 c22 33 43 61
46 61 22 0 97 -58 121 -93 124 -180 201 -465 219 -807 14 -279 -49 -597 -148
-752 -32 -49 -35 -51 -80 -48 -28 1 -43 -19 -33 -44 21 -56 -520 -375 -724
-427 -134 -34 -264 -20 -490 52 -275 88 -359 131 -486 249 -34 31 -83 71 -111
90 -99 65 -109 79 -208 276 -80 158 -101 236 -128 481 -23 212 -21 323 12 488
27 135 92 325 133 394 19 31 46 79 61 106 36 66 110 151 217 252 75 70 105 90
220 146 73 36 148 69 167 72 19 4 64 18 100 31 58 20 84 23 216 23 92 0 171
-5 205 -13z m1458 -2 c159 -36 198 -49 270 -87 153 -80 271 -170 419 -319 79
-79 149 -152 157 -163 7 -11 48 -85 91 -165 123 -231 172 -402 182 -630 4
-108 2 -144 -22 -265 -28 -147 -73 -278 -127 -373 -18 -31 -39 -69 -47 -84
-28 -55 -151 -176 -223 -220 -311 -191 -439 -221 -728 -172 -85 14 -182 37
-215 50 -64 26 -212 119 -257 162 l-28 26 22 23 c12 13 26 23 31 23 6 0 43
-21 84 -46 102 -63 203 -84 418 -84 234 0 357 14 456 51 101 39 212 112 277
184 82 89 185 280 229 422 26 84 27 98 27 298 0 184 -2 219 -21 285 -49 172
-247 466 -420 622 -114 103 -145 123 -283 186 -157 70 -182 76 -355 76 -172 0
-302 -15 -383 -47 -32 -11 -65 -20 -74 -18 -39 5 -196 -108 -261 -188 -65 -81
-148 -245 -189 -371 l-33 -105 0 -220 c0 -215 1 -222 28 -305 40 -119 118
-265 188 -354 32 -42 59 -78 59 -81 0 -14 -74 -115 -85 -115 -32 0 -137 163
-175 273 -15 45 -42 111 -58 147 -63 138 -90 358 -74 611 22 336 69 441 318
711 48 51 139 110 272 174 157 76 210 88 440 103 13 0 53 -6 90 -15z m-1500
-235 c197 -21 313 -61 421 -145 24 -18 48 -31 52 -28 18 11 8 -16 -31 -82 -69
-118 -102 -250 -117 -464 -10 -156 -7 -249 12 -382 19 -136 38 -204 74 -277
16 -31 36 -81 46 -111 33 -102 111 -236 178 -307 l30 -32 -59 -73 c-41 -50
-90 -94 -159 -141 -156 -108 -222 -135 -415 -166 -36 -6 -105 -18 -155 -27
-49 -8 -112 -13 -140 -11 -73 7 -232 55 -279 84 -23 14 -92 78 -154 142 -128
132 -154 175 -251 419 -97 243 -131 415 -131 656 0 130 0 132 50 280 60 180
115 275 226 401 94 106 143 140 279 195 164 67 337 90 523 69z m1542 -33 c92
-13 120 -22 225 -72 121 -58 159 -84 291 -204 109 -98 228 -260 312 -425 72
-139 86 -218 80 -434 -5 -145 -9 -177 -33 -251 -31 -98 -115 -260 -178 -347
-71 -95 -196 -181 -322 -219 -51 -16 -97 -19 -315 -19 -312 0 -362 8 -458 73
-37 25 -69 46 -71 48 -2 2 15 57 38 122 60 173 75 284 75 542 -1 328 -48 569
-148 770 -73 145 -114 198 -179 231 -21 11 -35 23 -33 28 3 4 30 27 60 50 84
65 190 98 354 111 151 11 189 11 302 -4z m-818 -469 c68 -106 84 -143 120
-274 32 -115 33 -123 32 -303 -1 -159 -5 -205 -29 -325 -15 -77 -31 -146 -35
-153 -12 -23 -94 80 -148 186 -27 53 -62 134 -76 180 -24 77 -26 96 -26 273 0
156 3 202 20 262 35 132 72 227 88 227 4 0 28 -33 54 -73z"/>
<path d="M6944 26122 c-43 -27 -101 -99 -115 -141 -6 -20 -15 -40 -19 -46 -20
-26 -41 -150 -35 -198 12 -83 77 -135 139 -111 9 3 13 10 10 15 -3 5 1 6 8 4
17 -7 74 52 130 135 55 80 73 84 74 15 1 -93 4 -105 32 -134 35 -39 85 -48
132 -24 19 10 34 24 33 30 -2 7 3 10 10 7 7 -2 24 7 37 21 18 19 21 28 12 37
-16 16 -68 -3 -64 -23 2 -8 1 -11 -3 -7 -4 3 -22 0 -40 -8 -27 -11 -40 -11
-60 -2 -29 13 -32 23 -39 126 -3 41 -10 80 -16 87 -8 9 -7 14 5 19 22 8 18 54
-8 106 -43 85 -157 133 -223 92z m106 -12 c0 -5 -8 -10 -17 -10 -15 0 -16 2
-3 10 19 12 20 12 20 0z m20 -38 c40 -19 80 -74 80 -108 0 -12 -13 -36 -30
-52 -16 -17 -28 -36 -27 -44 2 -7 2 -9 -1 -5 -5 10 -42 -22 -42 -38 0 -6 -22
-39 -49 -72 -28 -34 -47 -64 -43 -66 4 -2 1 -2 -6 0 -7 1 -24 -5 -38 -14 -33
-21 -68 -4 -88 46 -16 42 -10 91 23 186 57 161 127 215 221 167z m112 -331 c2
-17 1 -28 -4 -25 -8 5 -12 54 -4 54 2 0 6 -13 8 -29z m193 -20 c3 -5 0 -13 -6
-17 -7 -4 -9 -3 -5 4 3 5 0 13 -6 15 -9 4 -10 6 -1 6 6 1 14 -3 18 -8z"/>
<path d="M6593 26072 c-10 -6 -11 -27 -3 -52 1 -3 6 8 11 24 9 34 8 38 -8 28z"/>
<path d="M3140 26039 c0 -6 -4 -7 -10 -4 -5 3 -10 -1 -10 -9 0 -9 -6 -13 -14
-10 -26 10 -90 -95 -119 -196 -17 -59 -24 -164 -14 -218 7 -39 31 -75 42 -64
5 4 5 1 1 -6 -10 -17 39 -80 71 -93 19 -7 32 -6 49 6 32 21 146 193 138 208
-4 7 -4 9 1 5 4 -4 14 0 21 10 11 14 14 14 14 2 5 -68 25 -124 41 -114 5 3 6
-1 4 -9 -7 -16 45 -64 80 -73 14 -3 41 -3 60 0 30 6 38 14 65 72 18 36 42 95
54 132 13 37 33 88 46 114 22 47 98 127 122 129 7 1 23 3 36 4 12 1 25 -2 29
-8 3 -6 1 -7 -5 -3 -8 5 -9 -34 -5 -136 5 -133 8 -146 32 -180 34 -48 70 -68
120 -68 44 0 93 18 85 31 -3 5 1 6 9 3 8 -3 20 2 27 11 14 17 40 20 40 5 0
-14 57 -70 72 -71 7 0 23 -2 36 -5 45 -8 153 70 136 98 -5 7 -2 8 6 3 10 -6
12 -4 7 9 -4 10 -3 15 3 11 13 -8 43 41 34 56 -4 8 -3 9 4 5 8 -5 12 2 12 20
0 15 3 24 6 21 10 -10 95 124 87 137 -3 6 -3 8 1 4 4 -3 23 0 41 8 32 13 33
12 39 -11 5 -20 36 -273 36 -297 0 -5 8 -8 19 -8 14 0 20 10 24 43 6 45 43
133 76 181 11 17 18 32 16 36 -2 3 15 6 38 5 l42 0 57 -115 c74 -148 91 -164
170 -151 4 0 19 40 33 89 47 159 84 217 85 132 0 -20 2 -22 10 -10 8 11 9 8 4
-12 -4 -18 -2 -28 6 -28 6 0 9 -4 6 -9 -9 -13 48 -94 90 -129 22 -19 50 -32
66 -32 15 0 30 -5 34 -11 18 -30 134 25 134 63 0 11 5 16 10 13 6 -4 9 -3 8 2
-1 4 4 19 11 32 21 38 25 159 8 209 -8 24 -13 41 -10 38 3 -3 17 3 31 14 30
25 96 43 122 35 27 -9 55 -130 64 -272 3 -49 20 -73 51 -73 26 0 75 42 75 65
0 8 4 15 10 15 5 0 8 13 7 30 -1 16 -3 30 -4 30 -4 0 -57 -96 -56 -100 1 -3
-7 -6 -18 -6 -10 0 -19 6 -19 14 0 7 -4 11 -9 8 -4 -3 -6 6 -3 20 6 32 -16
209 -31 243 -19 46 -38 61 -76 60 -48 0 -107 -22 -103 -38 1 -7 -2 -10 -8 -6
-6 4 -17 1 -25 -5 -12 -10 -22 -6 -55 24 -70 63 -141 46 -184 -45 -9 -20 -16
-40 -15 -45 1 -5 -1 -17 -5 -26 -22 -48 20 -89 77 -74 37 9 91 56 78 69 -6 6
-20 1 -40 -15 -16 -14 -28 -27 -26 -29 2 -2 -15 -4 -38 -5 -22 0 -35 2 -29 4
6 2 8 10 5 18 -7 20 24 103 50 132 29 31 70 28 109 -8 l33 -30 -33 -26 c-18
-14 -30 -30 -27 -35 10 -15 25 -10 25 8 0 9 3 13 7 10 3 -4 12 -2 19 4 20 17
28 -9 26 -90 -3 -82 -32 -149 -75 -173 -20 -11 -111 -19 -101 -9 6 6 -60 45
-71 42 -5 -1 -7 0 -3 4 4 4 -6 24 -21 46 -16 21 -39 66 -51 100 -13 33 -30 63
-37 66 -24 9 -29 1 -107 -179 -9 -20 -16 -40 -16 -45 0 -6 -8 -17 -18 -27 -18
-15 -20 -15 -38 1 -11 10 -37 52 -59 93 -62 121 -70 133 -97 153 -17 12 -33
17 -47 12 -30 -9 -81 -54 -81 -71 0 -8 -4 -14 -9 -14 -5 0 -21 -24 -35 -52
-14 -29 -26 -46 -26 -38 -1 8 -3 24 -4 35 -2 11 -6 44 -10 73 -12 101 -55 143
-110 107 -15 -10 -52 -56 -83 -104 -31 -47 -71 -108 -89 -136 -88 -135 -170
-158 -220 -62 -14 25 -14 31 0 52 64 97 96 197 76 234 -6 12 -16 21 -23 21
-27 0 -94 -90 -82 -109 3 -5 0 -11 -7 -13 -7 -3 -13 -25 -14 -54 -1 -27 -3
-51 -4 -54 -1 -3 -2 -9 -1 -14 3 -13 -50 -66 -83 -83 -19 -10 -42 -13 -70 -9
-35 6 -46 13 -68 46 -22 35 -27 55 -33 158 -8 139 -23 182 -59 182 -15 0 -26
-5 -26 -11 0 -5 -3 -8 -7 -6 -13 8 -55 -12 -48 -23 3 -5 0 -7 -8 -5 -19 8
-100 -103 -93 -128 2 -10 2 -16 -1 -13 -4 3 -23 -34 -43 -82 -47 -115 -90
-184 -116 -188 -27 -4 -93 51 -110 92 -15 36 -18 92 -6 110 9 13 57 33 97 40
35 6 75 40 75 64 0 30 -53 70 -93 70 -20 0 -37 -5 -37 -11 0 -5 -4 -8 -9 -4
-14 8 -51 -49 -67 -101 -7 -24 -12 -44 -10 -44 2 0 -14 -18 -35 -40 -51 -54
-100 -126 -96 -142 2 -7 2 -9 -1 -5 -2 5 -17 -6 -32 -25 -25 -29 -31 -32 -55
-23 -19 7 -37 28 -57 68 -28 52 -30 66 -28 140 1 45 2 94 2 110 1 15 4 27 9
27 4 0 13 17 20 38 28 85 94 157 137 149 26 -5 37 6 19 20 -17 13 -57 14 -57
2z m2395 -69 c3 -6 -1 -7 -9 -4 -18 7 -21 14 -7 14 6 0 13 -4 16 -10z m265
-16 c0 -2 -9 0 -20 6 -11 6 -20 13 -20 16 0 2 9 0 20 -6 11 -6 20 -13 20 -16z
m-1590 -96 c0 6 6 12 14 12 26 0 -12 -119 -47 -148 -12 -11 -13 -6 -6 33 5 25
13 54 19 64 5 11 7 28 4 38 -5 15 -4 15 5 3 7 -10 11 -11 11 -2z m-717 -36
c-3 -15 0 -28 8 -34 11 -8 10 -9 -3 -4 -10 3 -36 -1 -58 -9 -22 -8 -40 -11
-40 -8 0 4 -5 2 -12 -5 -21 -21 -30 -13 -23 19 6 25 4 30 -6 24 -8 -5 -11 -4
-6 1 5 5 12 9 16 9 4 0 15 8 25 17 12 12 31 17 61 16 41 -2 44 -4 38 -26z
m2124 -44 c-3 -8 -6 -5 -6 6 -1 11 2 17 5 13 3 -3 4 -12 1 -19z m-607 -138 c0
-5 -5 -10 -11 -10 -5 0 -7 5 -4 10 3 6 8 10 11 10 2 0 4 -4 4 -10z m-855 -10
c-3 -5 -12 -10 -18 -10 -7 0 -6 4 3 10 19 12 23 12 15 0z m522 -12 c-3 -8 -6
-5 -6 6 -1 11 2 17 5 13 3 -3 4 -12 1 -19z m-509 -33 c-3 -3 -9 2 -12 12 -6
14 -5 15 5 6 7 -7 10 -15 7 -18z m-181 -41 c-3 -3 -12 -4 -19 -1 -8 3 -5 6 6
6 11 1 17 -2 13 -5z m300 -20 c-3 -3 -12 -4 -19 -1 -8 3 -5 6 6 6 11 1 17 -2
13 -5z"/>
<path d="M6330 25788 c-24 -46 -51 -93 -61 -106 -10 -13 -15 -31 -12 -40 4
-14 3 -14 -5 -3 -6 8 -17 11 -27 7 -25 -9 -78 50 -94 105 -17 55 -47 99 -69
99 -36 -1 -84 -61 -89 -110 l-2 -25 25 30 c26 33 31 50 12 39 -8 -4 -10 -3 -5
2 5 5 12 9 15 9 4 0 13 4 20 8 19 13 27 2 52 -65 40 -111 85 -153 146 -136 35
9 76 64 117 157 24 54 24 55 31 25 4 -16 21 -58 37 -93 22 -47 33 -61 45 -57
8 3 12 2 9 -4 -7 -11 25 -29 43 -23 6 3 12 9 12 15 0 6 -7 7 -16 4 -8 -3 -13
-2 -10 3 3 4 -12 44 -33 87 -21 43 -42 90 -46 104 -22 73 -44 65 -95 -32z"/>
<path d="M6499 24875 c-1 -5 -1 -13 0 -17 0 -5 -3 -8 -8 -8 -5 0 -12 -33 -17
-72 -4 -40 -8 -80 -9 -88 -1 -8 -5 -42 -10 -75 -25 -198 -29 -297 -13 -318 20
-26 39 -14 72 46 16 28 34 59 41 67 20 25 57 90 51 90 -3 0 -31 -36 -62 -80
-32 -44 -60 -78 -63 -75 -6 7 -3 84 9 205 5 52 12 139 15 193 3 54 7 102 9
106 3 4 1 13 -5 21 -5 8 -9 11 -10 5z"/>
<path d="M13567 24833 c-22 -21 26 -169 108 -334 66 -131 95 -179 146 -234 44
-48 150 -120 190 -130 26 -6 26 -8 32 -123 6 -128 17 -185 77 -402 22 -80 60
-223 85 -317 49 -190 71 -246 98 -251 30 -6 31 27 4 106 -14 43 -37 122 -51
178 -14 56 -45 169 -70 251 -67 225 -87 317 -93 436 l-6 107 47 0 c93 0 125
72 85 193 -19 58 -30 75 -53 86 -59 28 -99 -28 -113 -162 -6 -57 -7 -58 -32
-52 -43 10 -118 64 -166 117 -74 83 -169 265 -240 461 -27 74 -34 85 -48 70z
m603 -503 c12 -24 20 -59 20 -89 0 -43 -4 -53 -24 -67 -14 -8 -35 -14 -48 -12
-21 3 -23 7 -20 53 5 77 29 155 48 155 2 0 13 -18 24 -40z"/>
<path d="M5971 24798 c-27 -7 -32 -12 -20 -19 11 -8 8 -9 -10 -7 -16 2 -30 -6
-44 -24 -26 -34 -15 -49 16 -21 12 11 37 25 56 32 75 25 153 -53 174 -173 10
-62 9 -73 -12 -134 -26 -75 -85 -159 -118 -168 -68 -19 -117 41 -128 154 -4
39 -11 75 -16 78 -5 3 -9 11 -9 17 0 8 3 7 9 -2 14 -22 24 81 12 125 -6 22
-18 50 -27 63 -16 22 -20 23 -98 17 -45 -4 -103 -12 -130 -19 -41 -11 -59 -11
-100 0 -28 7 -63 13 -78 13 -33 0 -46 -23 -28 -45 11 -13 9 -20 -8 -38 -11
-12 -30 -51 -42 -87 -18 -52 -21 -79 -17 -134 4 -38 10 -72 14 -75 4 -3 9 -12
11 -19 5 -28 35 -63 49 -58 8 3 11 2 8 -4 -7 -12 31 -36 73 -45 114 -24 203
64 229 226 5 35 -22 120 -44 137 -9 6 -13 12 -8 12 4 0 0 9 -10 20 -10 11 -22
17 -26 14 -5 -3 -6 1 -3 9 3 8 -2 17 -10 20 -22 9 -29 -8 -10 -24 8 -7 27 -32
41 -56 19 -33 28 -41 34 -31 5 7 9 8 9 2 0 -6 -3 -14 -7 -18 -4 -4 -6 -24 -4
-46 6 -88 -61 -210 -119 -219 -14 -1 -28 -8 -32 -15 -6 -8 -8 -7 -8 2 0 8 -6
12 -12 9 -35 -12 -109 56 -130 121 -26 77 9 236 58 268 17 11 43 15 91 13 43
-2 67 1 66 7 -2 11 114 41 177 46 27 2 37 -2 46 -19 6 -13 13 -21 15 -18 3 2
5 -4 6 -13 3 -69 2 -100 -3 -199 -6 -106 -5 -113 12 -113 15 0 16 -2 5 -9 -12
-8 -10 -17 15 -52 49 -71 111 -84 175 -37 28 21 41 46 17 32 -8 -4 -10 -3 -5
2 5 5 14 9 20 9 14 0 67 90 70 118 1 12 5 25 10 28 17 13 19 106 3 168 -21 81
-68 147 -123 172 -23 10 -43 19 -45 18 -2 0 -18 -5 -37 -11z m46 -544 c-3 -3
-12 -4 -19 -1 -8 3 -5 6 6 6 11 1 17 -2 13 -5z"/>
<path d="M4484 24771 c-43 -26 -55 -47 -16 -27 17 9 43 16 57 16 15 0 24 4 20
10 -3 5 0 7 8 4 30 -11 50 -68 44 -125 -5 -50 -37 -124 -60 -140 -5 -4 -7 -11
-3 -17 4 -6 -2 -8 -16 -4 -15 4 -19 2 -14 -7 5 -7 -2 -23 -15 -38 -26 -29 -7
-22 28 10 19 17 24 18 42 5 12 -8 18 -18 14 -22 -4 -4 0 -4 10 0 14 5 15 9 6
20 -6 8 -18 14 -26 14 -11 0 -13 5 -8 18 4 9 10 25 12 35 3 9 9 17 13 17 9 0
39 68 41 95 1 11 -1 42 -6 70 -13 80 -65 106 -131 66z"/>
<path d="M3970 24673 c-11 -15 -18 -33 -16 -40 3 -7 0 -12 -6 -10 -14 3 -70
-92 -62 -105 4 -6 3 -8 -3 -5 -14 9 -64 -87 -57 -109 4 -15 4 -16 -4 -5 -8 11
-16 5 -36 -28 -15 -23 -24 -47 -20 -54 4 -7 4 -9 -1 -5 -11 11 -36 -27 -30
-45 6 -13 -22 -45 -34 -39 -3 1 -7 -7 -7 -18 -1 -11 -5 -24 -9 -28 -5 -4 -5 2
-1 13 8 25 -37 -27 -59 -67 -9 -16 -20 -28 -26 -28 -6 0 -8 -7 -5 -17 4 -10 4
-14 0 -11 -4 4 -23 -6 -42 -22 -19 -16 -39 -27 -44 -24 -4 3 -8 1 -8 -4 0 -5
9 -12 19 -15 24 -6 64 20 55 35 -4 6 -1 9 7 6 18 -6 73 58 63 74 -4 7 -4 10 1
6 9 -9 35 9 35 24 0 5 -6 6 -12 2 -8 -4 -10 -3 -5 2 5 5 13 9 19 9 15 0 199
298 193 313 -3 7 0 10 5 7 6 -4 13 8 16 25 4 17 9 28 12 25 6 -5 47 57 58 87
3 9 13 19 21 22 12 5 13 -5 8 -67 -13 -145 -51 -422 -60 -437 -9 -15 7 -40 25
-40 24 0 31 13 36 63 1 23 9 94 17 157 15 127 22 335 12 363 -10 25 -30 21
-55 -10z m-168 -315 c-7 -7 -12 -8 -12 -2 0 14 12 26 19 19 2 -3 -1 -11 -7
-17z"/>
<path d="M6977 24632 c-15 -10 -24 -22 -20 -26 4 -4 0 -4 -9 -1 -24 9 -67 -75
-84 -165 -26 -131 -24 -125 -38 -109 -7 8 -23 46 -36 84 -12 39 -29 77 -37 86
-7 9 -11 18 -8 21 3 2 -8 17 -24 32 -33 31 -48 28 -91 -20 l-25 -28 35 24 c19
14 37 28 38 32 9 20 42 -46 76 -149 41 -123 73 -171 104 -154 14 8 24 38 41
126 15 80 29 128 47 154 24 37 37 46 102 73 17 7 32 19 32 25 0 20 -71 16
-103 -5z"/>
<path d="M4465 24470 c-3 -6 1 -7 9 -4 18 7 21 14 7 14 -6 0 -13 -4 -16 -10z"/>
<path d="M4595 24403 c32 -124 -7 -233 -100 -281 -54 -27 -135 -11 -177 35
-21 23 -57 123 -51 141 3 6 -1 12 -8 12 -8 0 -10 -16 -6 -57 5 -60 24 -113 39
-113 5 0 6 5 2 12 -4 7 -3 8 4 4 6 -4 9 -13 6 -20 -3 -9 10 -24 33 -40 69 -47
171 -30 231 39 67 75 84 148 57 241 -16 55 -44 79 -30 27z m-318 -205 c-3 -8
-6 -5 -6 6 -1 11 2 17 5 13 3 -3 4 -12 1 -19z m208 -108 c-3 -5 -12 -10 -18
-10 -7 0 -6 4 3 10 19 12 23 12 15 0z"/>
<path d="M5010 24365 c0 -8 5 -15 11 -15 5 0 8 4 5 9 -4 5 0 12 6 14 8 3 6 6
-4 6 -10 1 -18 -6 -18 -14z"/>
<path d="M3717 24263 c-4 -3 -7 -11 -7 -17 0 -6 5 -5 12 2 6 6 9 14 7 17 -3 3
-9 2 -12 -2z"/>
<path d="M14015 22309 c-68 -8 -225 -40 -295 -61 -80 -24 -235 -118 -264 -160
-29 -41 0 -43 57 -5 90 60 205 107 332 135 117 26 127 27 460 27 362 0 410 -5
671 -60 109 -24 269 -83 412 -151 85 -41 154 -105 197 -184 31 -57 68 -77 86
-48 15 22 11 33 -41 111 -76 117 -122 147 -423 273 -127 52 -361 100 -611 124
-125 11 -477 11 -581 -1z"/>
<path d="M13415 21987 c-21 -51 -22 -329 -2 -422 26 -117 72 -224 126 -294 14
-19 46 -65 71 -102 46 -69 223 -243 319 -313 66 -49 114 -63 244 -72 124 -8
117 3 117 -159 0 -177 -67 -443 -156 -617 -24 -48 -44 -94 -44 -102 0 -18 14
-28 32 -21 17 7 81 108 101 160 100 263 144 507 120 671 -7 46 -6 66 3 79 15
20 9 41 -14 50 -9 4 -66 9 -127 11 -127 5 -171 15 -223 50 -76 51 -275 240
-310 294 -19 30 -47 69 -61 85 -39 45 -107 180 -132 265 -20 66 -23 99 -24
269 -2 204 -10 239 -40 168z"/>
<path d="M19375 21850 c3 -5 3 -10 -2 -10 -4 0 -9 -12 -9 -28 -1 -15 -9 -52
-18 -83 l-17 -57 -97 -22 c-131 -29 -132 -29 -132 -46 0 -19 11 -18 115 11 49
13 91 22 93 20 3 -2 -3 -35 -12 -72 -32 -136 -51 -423 -26 -408 6 3 7 -1 4
-10 -7 -19 23 -68 37 -60 5 4 8 1 7 -6 -4 -18 52 -30 87 -19 35 11 69 46 60
61 -4 5 -1 8 6 7 7 -2 18 7 24 19 7 13 14 21 17 18 9 -9 30 53 22 66 -4 8 -3
10 4 5 7 -4 12 -3 12 2 0 5 10 20 22 33 17 19 20 20 14 5 -4 -11 -2 -43 4 -71
8 -39 17 -55 35 -65 22 -12 28 -11 50 10 28 27 27 37 -3 21 -17 -9 -22 -8 -26
7 -10 36 -17 89 -20 160 -4 115 -27 119 -64 10 -12 -37 -38 -93 -57 -124 -19
-32 -32 -61 -29 -66 3 -5 2 -7 -3 -6 -4 2 -25 -10 -45 -25 -44 -34 -73 -32
-102 6 -19 26 -21 40 -18 150 1 84 -1 117 -8 107 -15 -23 -12 -6 5 26 8 16 15
40 15 54 0 25 35 163 44 179 7 11 129 31 201 33 33 1 74 -4 90 -12 17 -7 33
-13 37 -12 7 2 21 -32 23 -58 1 -8 2 -23 3 -32 1 -9 11 -19 21 -23 10 -3 22
-16 25 -28 11 -40 34 -151 41 -197 10 -71 37 -160 46 -154 5 3 9 -2 9 -10 0
-8 9 -20 20 -26 50 -27 126 50 208 210 49 96 72 126 72 95 0 -32 41 -139 63
-163 12 -12 27 -20 35 -17 7 2 11 1 8 -4 -17 -28 95 -28 140 0 47 28 96 118
97 177 2 53 -21 144 -34 136 -5 -3 -7 1 -4 8 7 16 -94 128 -115 128 -9 0 -21
5 -27 11 -15 15 -71 -11 -104 -47 -15 -16 -34 -51 -43 -78 -19 -58 -19 -59 -6
-51 6 3 10 2 10 -4 0 -5 -6 -12 -12 -14 -9 -4 -7 -6 3 -6 16 -1 64 89 62 116
0 7 3 11 7 8 4 -2 15 4 25 15 31 34 67 25 116 -27 86 -92 107 -199 55 -281
-33 -53 -62 -72 -110 -72 -54 0 -94 44 -124 138 -13 40 -27 72 -32 72 -12 0
-70 -72 -70 -86 0 -7 -3 -14 -7 -16 -17 -7 -74 -99 -68 -108 4 -6 2 -9 -3 -8
-5 2 -28 -18 -51 -43 -22 -26 -52 -49 -65 -51 -14 -3 -24 -2 -23 1 0 3 -6 29
-15 56 -9 28 -24 96 -34 152 -10 63 -21 100 -27 96 -6 -3 -7 -1 -3 5 20 33
-79 210 -110 198 -7 -3 -16 0 -20 6 -5 7 -2 8 7 3 9 -5 11 -5 4 2 -18 18 -75
33 -75 20 0 -9 -2 -9 -8 0 -6 10 -26 11 -88 3 -43 -6 -80 -14 -82 -18 -1 -5
-16 -6 -33 -4 -22 3 -28 9 -25 21 11 33 36 135 36 143 0 4 -9 8 -21 8 -11 0
-17 -4 -14 -10z m442 -482 c-3 -8 -6 -5 -6 6 -1 11 2 17 5 13 3 -3 4 -12 1
-19z"/>
<path d="M13560 21812 c0 -34 138 -98 314 -148 50 -14 123 -36 162 -49 101
-35 272 -53 569 -61 209 -5 283 -3 375 9 63 9 149 19 190 22 90 8 193 31 232
51 21 11 28 21 26 37 -4 29 -36 33 -96 13 -26 -9 -89 -21 -142 -27 -52 -5
-156 -17 -230 -26 -204 -24 -702 -5 -850 32 -147 37 -325 88 -419 120 -108 36
-131 41 -131 27z"/>
<path d="M15566 21768 c-3 -7 -7 -49 -10 -93 -8 -114 -64 -318 -106 -391 -42
-71 -180 -212 -271 -276 -84 -61 -214 -133 -292 -165 -48 -19 -92 -26 -192
-33 -128 -8 -165 -15 -165 -29 0 -4 -10 -7 -22 -7 -22 1 -23 -4 -35 -144 -18
-220 -8 -572 22 -724 22 -110 35 -140 59 -133 29 9 30 39 7 151 -27 135 -37
338 -33 631 l3 200 132 0 c153 1 211 15 361 91 248 126 449 313 526 488 30 67
80 274 80 331 0 69 -16 115 -41 115 -11 0 -21 -6 -23 -12z"/>
<path d="M13689 21529 c-20 -38 26 -216 72 -280 46 -65 144 -112 164 -79 4 6
-25 41 -62 78 -71 69 -104 131 -118 219 -12 73 -15 83 -30 83 -8 0 -19 -10
-26 -21z"/>
<path d="M15259 21533 c-1 -5 -3 -37 -3 -73 -2 -75 -21 -123 -90 -228 -65
-100 -61 -135 10 -82 91 66 161 202 151 290 -8 67 -23 100 -47 100 -11 0 -21
-3 -21 -7z"/>
<path d="M19075 21530 c3 -5 11 -10 16 -10 6 0 7 5 4 10 -3 6 -11 10 -16 10
-6 0 -7 -4 -4 -10z"/>
<path d="M18392 21487 c-12 -7 -19 -16 -16 -20 4 -4 2 -7 -5 -7 -8 0 -11 -6
-7 -16 3 -8 2 -13 -3 -10 -12 8 -57 -97 -75 -174 -8 -35 -21 -69 -28 -77 -20
-19 -129 -56 -139 -46 -5 5 -4 24 1 43 20 69 -11 159 -60 175 -22 7 -64 -16
-98 -54 -24 -26 -102 -180 -102 -200 0 -25 19 -8 30 27 32 101 112 202 158
202 24 0 44 -50 43 -106 -1 -77 -7 -91 -52 -120 -32 -20 -39 -29 -37 -54 1
-16 6 -26 10 -24 4 3 8 -3 8 -12 0 -16 1 -16 20 1 11 10 20 24 20 32 0 9 5 11
13 7 6 -4 9 -4 5 1 -13 14 25 40 86 58 96 29 99 28 112 -22 11 -48 47 -85 75
-78 10 3 19 1 21 -5 5 -15 60 10 95 44 18 17 30 35 27 40 -3 5 0 7 6 6 12 -3
108 127 110 147 1 12 50 69 55 64 2 -2 6 -38 9 -79 9 -103 30 -163 72 -200 19
-16 41 -30 48 -30 31 0 98 98 125 183 15 46 27 47 36 5 11 -53 57 -135 80
-146 27 -12 65 9 65 35 0 15 -2 14 -18 0 -10 -10 -23 -17 -28 -17 -5 0 -2 5 6
10 10 6 11 10 3 10 -7 0 -20 14 -29 32 -20 39 -55 158 -49 168 2 4 -2 16 -10
26 -12 17 -15 17 -28 4 -21 -23 -57 -128 -51 -148 5 -13 4 -14 -4 -3 -8 11
-15 5 -32 -31 -25 -55 -52 -81 -77 -76 -32 6 -63 87 -70 182 -6 92 -19 123
-47 113 -10 -4 -14 -12 -11 -17 4 -6 1 -9 -5 -8 -15 4 -112 -133 -106 -149 3
-7 -1 -10 -11 -6 -12 5 -14 1 -9 -15 4 -11 2 -23 -3 -27 -7 -4 -8 1 -5 12 4
10 -4 5 -19 -12 -14 -16 -23 -34 -20 -39 4 -5 1 -6 -6 -1 -7 4 -22 -2 -36 -15
-30 -28 -76 -29 -110 -1 -15 11 -23 21 -17 21 7 0 8 10 3 28 -11 37 -5 49 49
108 54 57 97 134 106 191 4 30 1 43 -16 61 -24 25 -27 26 -58 9z m38 -59 c0
-53 -69 -178 -98 -178 -5 0 -9 13 -8 29 1 16 4 27 9 24 4 -2 7 2 7 11 0 21 39
108 57 129 24 25 33 21 33 -15z m28 7 c-3 -3 -9 2 -12 12 -6 14 -5 15 5 6 7
-7 10 -15 7 -18z m-115 -213 c-10 -10 -20 -17 -22 -16 -6 5 20 34 30 34 5 0 1
-8 -8 -18z m-294 -168 c-14 -27 -29 -32 -29 -9 0 18 33 54 39 42 2 -5 -2 -20
-10 -33z"/>
<path d="M13999 21468 c-34 -64 72 -368 143 -408 21 -11 30 -12 39 -3 10 10 0
37 -43 125 -65 131 -98 222 -98 273 0 41 -22 48 -41 13z"/>
<path d="M14920 21456 c-9 -12 -7 -17 9 -28 35 -22 28 -90 -24 -234 -25 -68
-43 -129 -40 -134 3 -6 15 -10 25 -10 14 0 29 17 49 58 69 137 91 284 50 336
-23 29 -50 34 -69 12z"/>
<path d="M17296 21425 c-44 -43 -69 -129 -70 -235 -1 -77 3 -101 17 -124 12
-17 24 -25 33 -22 8 3 13 2 10 -3 -11 -16 36 -20 60 -4 28 18 84 93 109 146
22 47 34 40 28 -18 -10 -82 55 -163 108 -135 33 18 59 43 59 57 0 7 5 13 11
13 5 0 7 5 4 10 -3 6 -2 10 3 10 5 0 18 21 30 48 11 26 27 64 36 85 28 65 11
40 -37 -55 -26 -51 -60 -107 -75 -124 -23 -27 -31 -29 -58 -22 -17 4 -36 19
-44 33 -14 27 -17 135 -4 194 5 26 4 32 -6 26 -9 -5 -11 -4 -6 3 10 17 -35 94
-51 88 -7 -3 -15 0 -19 6 -4 7 -3 8 4 4 7 -4 12 -5 12 -2 0 11 -80 46 -104 46
-14 0 -36 -11 -50 -25z m122 -35 c23 -16 47 -40 53 -52 12 -22 21 -94 11 -83
-3 2 -18 -21 -35 -52 -16 -31 -40 -68 -53 -82 -13 -14 -24 -29 -24 -33 0 -4
-11 -14 -23 -23 -26 -17 -89 -11 -86 9 1 6 -3 24 -10 41 -12 30 -10 142 4 164
4 7 7 28 8 47 1 20 4 29 9 21 6 -9 8 -8 8 4 0 9 9 28 21 43 27 35 65 34 117
-4z"/>
<path d="M14394 21392 c-37 -58 -54 -350 -20 -339 22 7 37 82 43 219 6 135 1
159 -23 120z"/>
<path d="M17794 21378 c-16 -19 -16 -20 -1 -9 9 8 21 11 25 7 12 -12 7 -233
-7 -356 -8 -63 -14 -129 -15 -147 -1 -17 -4 -29 -7 -28 -3 2 -11 -32 -19 -76
-10 -62 -10 -83 -1 -92 16 -16 33 10 28 41 -2 12 -1 22 3 22 5 0 11 24 15 53
12 93 36 221 47 250 7 18 7 31 0 40 -5 6 -12 74 -14 149 -2 108 -6 141 -19
153 -14 14 -17 14 -35 -7z m3 -580 c-3 -8 -6 -5 -6 6 -1 11 2 17 5 13 3 -3 4
-12 1 -19z"/>
<path d="M12085 21375 c-60 -7 -148 -20 -195 -30 -143 -29 -432 -150 -605
-253 -131 -78 -313 -231 -342 -285 -33 -64 -1 -207 119 -538 38 -103 110 -211
186 -276 36 -32 98 -88 138 -124 39 -36 92 -75 118 -87 81 -39 307 -83 451
-89 128 -5 148 -2 226 31 13 6 18 -4 27 -51 17 -84 31 -230 36 -369 l4 -122
-37 5 c-73 10 -285 -112 -394 -226 -83 -87 -102 -133 -102 -251 0 -92 1 -97
38 -162 21 -36 57 -84 81 -106 48 -44 138 -94 201 -111 93 -25 320 -43 499
-39 172 3 186 5 271 34 50 17 122 41 160 54 84 26 136 55 234 129 76 56 144
145 169 220 16 47 15 155 -2 196 -17 41 -85 136 -135 188 -37 39 -186 117
-271 142 -47 14 -186 28 -280 29 -52 1 -56 2 -72 36 -9 19 -22 51 -28 70 -22
75 -78 348 -82 403 l-5 57 51 43 c68 58 124 94 231 152 76 40 110 67 216 174
136 136 198 228 262 386 31 77 32 85 31 215 -1 118 -4 145 -28 220 -16 47 -37
101 -49 120 -29 50 -87 120 -98 120 -6 0 -20 11 -32 25 -17 21 -42 30 -117 45
-195 38 -645 51 -875 25z m631 -66 c83 -6 186 -21 241 -34 69 -17 101 -21 115
-14 14 7 18 6 18 -6 0 -8 18 -44 39 -78 62 -97 93 -202 98 -332 5 -104 3 -115
-25 -193 -57 -155 -123 -253 -262 -392 -106 -108 -138 -133 -210 -170 -171
-87 -340 -219 -327 -254 5 -13 14 -16 31 -12 23 6 24 4 19 -28 -10 -60 55
-399 94 -491 40 -95 60 -153 88 -255 26 -95 63 -160 91 -160 27 0 24 25 -20
160 -24 74 -41 138 -37 143 4 4 69 3 144 -1 123 -8 142 -12 202 -41 37 -18 86
-41 110 -51 33 -14 57 -38 102 -97 81 -108 82 -111 83 -173 1 -119 -61 -209
-216 -313 -70 -48 -250 -116 -399 -152 -83 -20 -226 -19 -453 5 -176 18 -199
23 -266 54 -130 60 -206 165 -206 287 0 87 22 148 77 209 73 82 246 188 371
228 l34 11 -7 -72 c-4 -40 -13 -106 -20 -147 -11 -63 -11 -77 0 -89 31 -32 46
10 76 204 20 132 -14 561 -54 685 -22 68 -41 74 -129 39 -80 -31 -266 -23
-441 20 -154 37 -174 47 -257 126 -36 33 -89 81 -118 105 -67 54 -147 171
-185 270 -122 319 -137 368 -137 448 0 49 1 50 68 105 131 107 258 189 397
257 154 75 325 141 432 165 186 42 541 56 839 34z"/>
<path d="M12993 21106 c-62 -52 -253 -171 -338 -211 -300 -142 -673 -241 -970
-260 -55 -4 -116 -8 -136 -10 -19 -2 -82 1 -140 5 -297 25 -289 25 -289 2 0
-25 35 -34 225 -59 113 -14 153 -15 310 -5 322 21 542 73 913 216 158 61 489
259 506 303 17 44 -35 57 -81 19z"/>
<path d="M12900 20820 c0 -6 9 -39 19 -73 26 -84 34 -177 21 -229 -6 -24 -30
-74 -52 -112 -38 -64 -39 -69 -23 -85 15 -15 20 -12 64 35 73 79 86 113 85
219 -2 96 -25 178 -65 229 -21 26 -49 35 -49 16z"/>
<path d="M12580 20640 c0 -6 13 -28 29 -50 44 -61 55 -116 46 -228 -13 -172
-13 -177 12 -180 34 -5 58 85 58 213 -1 110 -21 173 -72 228 -26 26 -73 37
-73 17z"/>
<path d="M12298 20478 c-3 -7 5 -33 16 -58 16 -35 21 -72 24 -162 3 -86 8
-120 19 -129 11 -10 18 -9 31 5 24 24 23 181 -1 253 -28 80 -76 130 -89 91z"/>
<path d="M12076 20452 c-6 -19 41 -220 70 -299 11 -30 21 -43 35 -43 32 0 23
71 -30 219 -46 133 -63 160 -75 123z"/>
<path d="M11770 20405 c0 -45 90 -227 152 -307 57 -73 154 -118 186 -86 19 19
15 27 -21 42 -73 30 -160 133 -241 284 -39 73 -76 105 -76 67z"/>
<path d="M11368 20378 c-9 -23 22 -121 55 -177 42 -69 141 -162 210 -196 67
-32 138 -38 164 -12 22 22 13 30 -67 53 -82 25 -122 48 -190 110 -65 61 -82
87 -116 174 -21 53 -46 75 -56 48z"/>
<path d="M14635 21380 c-3 -5 -1 -28 5 -50 11 -42 -3 -143 -29 -213 -13 -34
-14 -87 -3 -87 16 0 40 35 63 90 26 64 33 209 11 248 -13 23 -36 29 -47 12z"/>
<path d="M17760 21329 c-7 -11 -10 -23 -7 -25 2 -2 9 7 15 21 14 30 7 33 -8 4z"/>
<path d="M19850 20275 c-26 -32 8 -507 39 -538 35 -35 74 -5 132 103 39 73 71
107 107 112 25 3 77 -14 70 -24 -2 -2 8 -21 22 -41 19 -27 28 -33 38 -25 10 9
9 14 -4 29 -9 10 -21 16 -27 12 -6 -3 -7 -1 -3 6 10 16 -12 41 -51 57 -39 17
-75 6 -110 -34 -33 -36 -108 -144 -109 -157 -1 -5 -2 -14 -3 -18 0 -4 -9 -3
-20 2 -14 8 -21 30 -30 103 -18 143 -32 317 -31 376 1 56 -1 60 -20 37z"/>
<path d="M19395 20177 c-16 -12 -33 -27 -38 -34 -20 -32 -38 -42 -70 -36 -18
3 -71 -2 -116 -11 -83 -15 -84 -15 -125 8 -49 28 -91 39 -117 31 -23 -8 -44
-54 -31 -67 14 -14 58 -22 106 -20 47 3 19 17 -35 18 -55 1 -64 6 -55 30 9 23
93 14 115 -14 9 -10 24 -22 33 -25 9 -3 27 -25 39 -48 18 -37 21 -55 17 -133
-5 -103 -33 -175 -80 -210 -27 -19 -29 -19 -63 -3 -65 31 -90 134 -69 290 7
47 25 64 64 59 8 -1 5 3 -7 9 -30 15 -48 7 -68 -33 -33 -64 -32 -287 1 -274 9
3 12 1 9 -4 -10 -16 5 -50 21 -50 8 0 17 -6 20 -14 10 -27 59 -36 95 -18 46
23 83 80 66 100 -10 13 -9 14 1 8 23 -14 39 50 38 152 -1 85 -4 101 -24 130
-38 53 -32 58 93 68 39 3 72 8 74 10 10 9 29 -26 25 -47 -2 -13 -2 -18 2 -11
3 6 12 12 20 12 11 0 14 -18 14 -82 1 -235 72 -391 175 -383 41 3 42 4 25 16
-12 8 -11 9 6 5 15 -5 29 3 52 28 36 40 74 115 65 129 -3 6 -1 7 4 4 18 -11
36 88 29 158 -8 79 -24 118 -75 182 -67 86 -171 116 -236 70z m145 -41 c27
-13 51 -22 54 -20 3 2 4 1 1 -3 -7 -9 15 -34 25 -28 4 3 14 -3 21 -13 13 -15
12 -16 -3 -3 -24 18 -23 12 8 -49 32 -63 36 -160 9 -230 -9 -25 -17 -53 -18
-62 -1 -9 -3 -15 -5 -13 -2 2 -21 -18 -42 -44 -46 -58 -68 -66 -109 -37 -45
32 -71 95 -87 209 -17 114 -30 191 -39 223 -5 15 3 31 28 57 42 45 86 49 157
13z"/>
<path d="M13864 20151 c-126 -34 -260 -109 -343 -192 -83 -83 -105 -166 -76
-279 32 -124 68 -156 318 -280 169 -84 229 -104 382 -129 255 -40 349 -46 477
-28 114 17 279 61 335 91 37 19 96 82 118 125 14 27 16 52 13 120 -4 74 -10
96 -40 156 -46 89 -68 112 -158 165 -41 24 -92 60 -114 80 -53 48 -96 70 -139
70 -40 0 -66 -24 -51 -47 5 -9 27 -22 49 -31 22 -8 61 -32 87 -54 26 -21 81
-57 123 -79 116 -63 164 -141 165 -265 0 -113 -36 -154 -182 -204 -154 -52
-241 -63 -433 -56 -283 10 -385 36 -647 167 -191 96 -220 119 -242 197 -38
135 -11 197 130 302 122 91 260 134 419 129 106 -4 110 -3 113 17 4 30 -16 36
-133 40 -77 3 -117 0 -171 -15z"/>
<path d="M17810 20098 c-12 -40 -31 -104 -42 -141 -35 -116 -18 -144 108 -188
64 -21 109 -24 149 -9 24 9 26 8 20 -7 -4 -10 -19 -61 -34 -114 -22 -84 -24
-99 -11 -113 11 -14 15 -15 21 -4 11 21 60 206 58 220 -1 7 0 20 3 28 3 8 13
49 23 90 10 41 23 83 29 92 8 13 7 21 -1 29 -15 15 -33 3 -33 -22 0 -10 -4
-19 -9 -19 -10 0 -27 -74 -23 -103 1 -10 -2 -16 -7 -13 -4 3 -16 -3 -26 -14
-23 -26 -100 -26 -172 -1 -90 31 -98 50 -62 146 28 75 57 188 52 203 -10 27
-23 9 -43 -60z m237 -420 c-3 -8 -6 -5 -6 6 -1 11 2 17 5 13 3 -3 4 -12 1 -19z"/>
<path d="M17541 20105 c-11 -30 -18 -62 -14 -71 4 -11 2 -15 -4 -11 -6 4 -16
-7 -24 -26 -47 -117 -138 -271 -211 -356 -16 -18 -27 -36 -23 -39 8 -8 75 59
75 75 0 7 6 12 13 11 6 -2 11 5 11 14 -1 10 2 16 6 13 11 -7 56 66 52 84 -2 7
1 10 7 7 12 -8 95 159 86 173 -3 6 1 11 11 11 12 0 15 -5 9 -22 -11 -37 -17
-431 -7 -447 22 -32 32 3 32 112 0 62 7 201 15 310 9 109 13 202 10 207 -13
20 -24 8 -44 -45z m26 3 c-3 -7 -5 -2 -5 12 0 14 2 19 5 13 2 -7 2 -19 0 -25z"/>
<path d="M20440 20149 c-97 -14 -150 -39 -150 -71 0 -7 7 -32 15 -55 8 -24 24
-79 36 -124 26 -101 16 -120 -36 -69 -19 18 -38 30 -42 26 -9 -9 23 -62 36
-59 6 2 8 -4 5 -11 -6 -15 24 -36 51 -36 9 0 22 15 30 33 14 35 10 71 -21 182
-9 33 -17 71 -18 84 -1 26 6 30 109 52 61 12 115 37 115 51 0 10 -43 9 -130
-3z"/>
<path d="M18490 19721 c-7 -15 -7 -21 0 -21 12 0 25 28 17 36 -3 3 -10 -4 -17
-15z"/>
<path d="M11595 17920 c-4 -6 -17 -51 -31 -100 -27 -103 -79 -223 -143 -330
-47 -79 -207 -250 -233 -250 -9 0 -18 13 -22 32 -8 41 -33 68 -63 68 -35 0
-117 -45 -147 -80 -33 -40 -33 -64 0 -97 24 -24 30 -25 95 -21 38 3 72 2 74
-2 3 -4 -6 -51 -19 -104 -46 -181 -162 -385 -281 -494 -67 -62 -74 -72 -52
-90 31 -26 137 67 214 187 44 69 126 237 153 316 11 31 25 95 32 140 11 81 12
82 54 109 23 15 74 60 113 102 110 116 172 221 236 404 37 109 56 220 37 220
-6 0 -14 -5 -17 -10z m-474 -667 c3 -17 3 -36 -1 -43 -7 -12 -107 -30 -127
-23 -28 11 -12 44 35 74 58 37 84 35 93 -8z"/>
<path d="M12793 15783 c-46 -72 -98 -200 -112 -278 -23 -122 -41 -270 -41
-336 0 -37 -9 -114 -19 -171 -27 -140 -58 -330 -66 -403 -4 -33 -17 -114 -30
-180 -13 -66 -27 -159 -31 -207 l-7 -87 36 -36 c29 -29 42 -35 79 -35 59 0 69
-9 79 -71 10 -59 30 -563 24 -582 -4 -10 -15 -562 -18 -862 -1 -97 22 -149 85
-195 57 -42 86 -39 138 13 63 62 88 125 100 248 27 288 40 1130 20 1268 -10
71 -35 114 -69 119 -19 3 -20 7 -14 45 13 69 8 1302 -5 1498 -15 218 -25 272
-57 293 -39 26 -53 19 -92 -41z m91 -91 c25 -261 34 -1203 14 -1524 l-11 -196
-60 -26 c-44 -19 -58 -30 -55 -43 5 -27 33 -27 110 -2 53 17 72 19 81 10 7 -7
13 -62 15 -145 l4 -133 -26 -7 c-14 -3 -66 -6 -114 -5 l-89 1 -7 157 c-12 288
-20 306 -121 320 -97 13 -98 20 -50 306 12 77 35 219 50 315 14 96 35 217 46
268 10 51 19 123 19 160 0 75 23 270 45 374 13 62 67 194 102 247 15 23 17 23
28 7 7 -9 16 -47 19 -84z m6 -2303 c0 -5 -4 -9 -10 -9 -5 0 -10 7 -10 16 0 8
5 12 10 9 6 -3 10 -10 10 -16z m80 -445 c0 -22 -2 -25 -15 -14 -12 10 -13 16
-4 26 16 20 19 18 19 -12z m-187 -134 c4 -15 0 -20 -14 -20 -12 0 -19 7 -19
20 0 11 6 20 14 20 7 0 16 -9 19 -20z m175 -167 c-3 -73 -12 -141 -19 -158
-21 -48 -80 -115 -100 -115 -10 0 -34 14 -53 30 -56 50 -65 115 -40 298 l6 42
47 0 c25 0 69 7 96 14 28 8 54 15 59 15 5 1 7 -54 4 -126z"/>
<path d="M8237 15628 c-25 -19 -51 -258 -44 -413 7 -197 56 -405 127 -545 51
-101 77 -215 91 -395 14 -185 14 -207 -11 -272 -31 -84 -49 -175 -60 -306 -5
-67 -16 -198 -25 -292 -19 -223 -20 -690 0 -799 24 -139 116 -286 178 -286 35
0 129 25 157 42 26 16 62 82 84 157 23 78 39 342 32 516 -4 83 -10 245 -15
360 -10 227 -51 575 -76 641 -9 23 -24 49 -35 59 -11 10 -17 21 -15 26 3 4 9
62 14 127 12 149 80 436 128 538 67 144 121 316 134 425 11 98 7 349 -8 407
-5 22 -36 31 -48 13 -3 -6 -21 -97 -40 -203 -20 -106 -42 -211 -49 -233 -14
-38 -14 -32 -15 110 -1 166 -15 283 -35 303 -48 48 -95 -98 -133 -418 -16
-129 -28 -69 -34 165 -3 127 -9 238 -13 247 -22 49 -67 20 -86 -55 -6 -23 -22
-84 -36 -136 -14 -52 -30 -130 -36 -173 -7 -48 -14 -74 -19 -66 -4 8 -12 105
-18 217 -7 156 -13 208 -26 227 -17 26 -42 31 -68 12z m46 -235 c6 -204 16
-264 52 -308 35 -44 50 -23 64 88 11 84 58 289 79 348 8 22 9 21 16 -14 4 -21
6 -118 4 -217 -2 -168 -1 -181 18 -207 49 -66 78 -30 99 123 15 118 28 191 47
269 10 44 12 47 19 25 4 -14 7 -95 8 -180 1 -85 6 -171 11 -192 12 -43 37 -56
61 -31 24 25 57 137 71 244 15 113 28 95 22 -31 -9 -180 -51 -338 -137 -523
-19 -39 -42 -106 -51 -147 -9 -41 -26 -106 -37 -145 -26 -95 -49 -229 -49
-291 0 -60 -13 -80 -61 -88 l-36 -6 -11 72 c-6 40 -14 118 -17 173 -6 125 -33
237 -72 307 -47 84 -83 182 -104 287 -11 53 -24 121 -30 151 -11 54 -6 356 7
443 13 79 21 30 27 -150z m325 -1348 c21 -26 37 -84 47 -170 l6 -50 -53 -13
c-29 -7 -86 -16 -125 -19 -85 -7 -83 -12 -50 103 29 99 33 106 82 143 49 37
68 38 93 6z m-134 -314 c9 -14 -4 -41 -20 -41 -8 0 -14 8 -14 18 0 29 22 43
34 23z m196 -22 c0 -18 -2 -19 -15 -9 -15 12 -12 30 6 30 5 0 9 -10 9 -21z
m-243 -666 c-3 -10 -5 -4 -5 12 0 17 2 24 5 18 2 -7 2 -21 0 -30z m-7 -197 c0
-2 3 -11 6 -20 5 -12 0 -16 -18 -16 -24 0 -48 16 -48 32 0 4 14 8 30 8 17 0
30 -2 30 -4z m274 -138 c-7 -116 -24 -199 -54 -258 -16 -32 -28 -41 -63 -50
-23 -6 -50 -14 -60 -17 -38 -10 -103 78 -131 177 -8 30 -16 87 -17 125 l-3 70
60 -3 c79 -4 192 15 229 38 16 11 33 20 38 20 4 0 4 -46 1 -102z"/>
<path d="M5396 15578 c-16 -71 -26 -179 -26 -270 0 -111 -10 -146 -29 -109 -7
11 -17 21 -23 21 -6 0 -5 -7 3 -17 11 -15 10 -14 -9 1 -23 20 -30 32 -12 21 6
-3 10 -2 10 4 0 15 -64 32 -104 28 -51 -6 -80 -37 -111 -120 -33 -91 -46 -277
-24 -352 20 -67 57 -105 104 -105 21 0 34 4 30 10 -3 6 0 10 8 10 26 0 93 117
133 230 l22 65 7 -40 c4 -22 16 -59 27 -83 17 -38 21 -42 36 -31 14 11 15 11
5 -1 -7 -8 -13 -18 -13 -22 0 -17 73 -88 112 -108 47 -24 146 -40 134 -22 -4
8 -2 10 8 6 17 -7 80 32 120 75 17 17 40 31 52 31 31 0 68 48 121 157 25 52
47 92 48 91 2 -2 6 -21 9 -43 15 -104 20 -122 37 -156 43 -86 135 -127 221
-98 38 12 128 82 128 99 0 5 -9 14 -20 20 -17 9 -27 6 -58 -18 -20 -16 -52
-35 -70 -42 -69 -27 -149 25 -173 113 -6 23 -13 49 -16 57 -3 8 -7 40 -9 69
-5 75 -18 84 -55 43 -17 -19 -33 -32 -35 -29 -3 2 0 26 6 53 11 48 6 113 -11
146 -5 10 -23 25 -39 33 -34 17 -60 9 -92 -29 -25 -30 -59 -84 -62 -99 -1 -6
-8 -22 -15 -35 -7 -13 -10 -30 -7 -37 3 -8 0 -15 -7 -18 -8 -2 -12 -36 -12
-104 0 -90 3 -105 23 -132 l22 -31 -24 -21 c-14 -12 -23 -27 -19 -32 3 -6 1
-7 -4 -4 -6 4 -28 0 -49 -9 -90 -38 -188 20 -247 145 -30 64 -31 66 -29 220 1
86 6 190 12 231 5 41 11 116 12 165 3 86 2 90 -19 93 -17 2 -24 -3 -27 -20z
m560 -363 c10 -55 -6 -163 -32 -223 -13 -30 -21 -58 -18 -63 3 -5 2 -8 -3 -7
-4 2 -24 -15 -44 -37 -31 -33 -39 -37 -52 -27 -41 34 -26 207 25 310 54 107
109 127 124 47z m-668 -11 c12 -8 27 -25 34 -37 14 -27 28 -98 18 -92 -5 3
-11 -2 -14 -11 -10 -25 -7 -34 9 -34 17 0 21 -16 5 -22 -6 -2 -11 -17 -13 -35
-1 -17 -6 -29 -11 -25 -5 3 -7 -5 -3 -17 3 -13 3 -21 0 -18 -9 10 -63 -107
-57 -125 2 -9 0 -19 -5 -23 -7 -4 -8 1 -4 12 6 16 5 16 -10 4 -9 -7 -17 -19
-17 -26 0 -18 -46 -39 -67 -30 -10 5 -21 8 -25 7 -4 -1 -4 6 -1 15 4 10 2 14
-4 10 -7 -5 -9 0 -6 13 3 11 1 20 -5 20 -7 0 -9 40 -7 113 4 144 24 237 64
294 19 27 85 31 119 7z m758 -113 c-4 -5 0 -11 6 -14 7 -3 3 -4 -9 -4 -17 1
-19 4 -11 14 12 15 22 18 14 4z m-765 -284 c-10 -9 -11 -8 -5 6 3 10 9 15 12
12 3 -3 0 -11 -7 -18z m-31 -61 c0 -2 -7 -9 -15 -16 -13 -11 -14 -10 -9 4 5
14 24 23 24 12z"/>
<path d="M10670 15568 c-53 -15 -253 -103 -361 -158 -92 -48 -219 -91 -305
-104 -68 -10 -299 -128 -415 -212 -29 -21 -69 -67 -105 -121 -31 -49 -81 -117
-110 -153 -28 -36 -58 -78 -66 -95 -35 -71 -72 -210 -103 -390 -7 -44 -19
-113 -26 -153 -10 -58 -10 -94 -1 -170 7 -53 12 -125 12 -160 0 -98 27 -197
80 -297 65 -122 84 -160 116 -230 19 -40 56 -89 110 -146 44 -47 96 -108 114
-135 58 -86 173 -214 220 -245 24 -16 83 -41 130 -55 138 -41 200 -66 285
-110 l80 -42 245 -4 245 -3 57 28 c81 39 106 48 167 58 31 5 79 24 113 44 33
19 88 42 124 50 93 21 115 35 219 141 51 52 98 94 104 94 7 0 48 26 93 57 83
58 194 183 223 250 8 18 29 59 48 92 35 59 127 262 127 279 0 5 18 72 40 148
62 215 55 283 -55 535 -66 150 -85 216 -85 295 0 55 -54 200 -102 274 -24 38
-58 70 -108 105 -60 41 -81 63 -114 120 -55 93 -135 172 -221 216 -77 40 -166
69 -214 69 -17 0 -54 9 -83 20 -29 11 -59 20 -66 20 -7 0 -54 18 -105 39 -58
25 -121 44 -170 50 -90 13 -90 13 -137 -1z m151 -44 c45 -8 111 -28 145 -44
34 -15 77 -31 95 -35 17 -4 50 -16 73 -26 22 -10 56 -19 74 -19 42 0 174 -46
227 -78 22 -14 59 -40 81 -59 41 -33 51 -46 128 -166 27 -42 54 -69 105 -101
48 -31 77 -58 99 -94 50 -82 90 -191 97 -267 9 -98 27 -153 90 -283 58 -120
95 -239 95 -306 0 -52 -24 -163 -48 -230 -11 -28 -25 -76 -32 -106 -12 -52
-59 -167 -96 -235 -9 -16 -33 -62 -54 -102 -20 -39 -54 -95 -76 -123 -21 -29
-48 -65 -59 -81 -11 -15 -33 -35 -50 -45 -112 -64 -226 -149 -273 -203 -59
-68 -107 -97 -183 -111 -27 -5 -80 -27 -117 -48 -40 -24 -87 -42 -116 -46 -27
-3 -91 -24 -142 -46 l-94 -40 -227 6 -228 7 -75 37 c-94 46 -157 70 -289 110
-103 31 -106 33 -173 103 -38 40 -100 113 -138 162 -38 50 -99 122 -136 160
-50 54 -78 95 -119 180 -29 61 -69 137 -89 170 -52 85 -67 142 -77 290 -5 72
-11 168 -15 215 -5 74 -1 110 35 285 57 285 68 316 151 425 31 41 68 95 82
120 44 77 108 140 207 204 134 87 276 151 386 171 52 10 99 25 110 35 19 17
226 120 241 120 3 0 47 19 98 41 95 44 160 67 187 68 9 1 54 -6 100 -15z"/>
<path d="M10660 15441 c-75 -14 -297 -115 -363 -165 -51 -39 -192 -101 -283
-124 -45 -12 -128 -44 -185 -71 -86 -42 -124 -68 -215 -150 -106 -95 -114
-106 -158 -197 -29 -59 -50 -120 -55 -158 -5 -33 -16 -88 -25 -121 -9 -33 -16
-96 -15 -145 0 -47 -6 -111 -15 -142 -28 -107 -29 -139 -6 -263 19 -107 62
-258 123 -429 28 -80 98 -185 188 -281 41 -44 101 -111 134 -149 70 -81 132
-125 183 -133 51 -7 152 -43 184 -65 15 -10 56 -32 91 -49 61 -28 74 -30 263
-40 149 -8 231 -7 327 2 123 12 131 14 174 47 46 35 93 51 148 52 61 0 165 64
265 162 89 88 117 108 215 156 22 11 69 48 105 83 55 53 76 84 123 180 38 79
60 138 67 183 6 37 20 91 30 119 40 102 79 294 80 382 0 90 -63 258 -134 354
-49 66 -74 137 -82 228 -9 109 -31 145 -110 184 -61 29 -115 85 -180 186 -66
103 -124 175 -165 203 -17 13 -62 26 -113 35 -58 9 -113 26 -168 53 -46 22
-112 47 -148 57 -76 20 -215 28 -280 16z m211 -51 c57 -12 131 -37 189 -65 64
-30 119 -48 170 -56 41 -6 87 -17 101 -25 35 -18 91 -87 173 -212 70 -106 131
-164 208 -195 47 -20 59 -44 69 -143 10 -98 39 -180 82 -232 42 -50 114 -203
129 -274 9 -43 9 -75 -1 -144 -17 -113 -44 -227 -71 -289 -12 -27 -25 -79 -29
-115 -7 -47 -24 -97 -66 -182 -50 -104 -65 -125 -124 -177 -36 -32 -100 -76
-141 -97 -56 -29 -98 -63 -165 -130 -97 -98 -182 -149 -263 -159 -73 -9 -96
-16 -132 -45 -49 -38 -76 -51 -93 -44 -8 2 -49 0 -93 -6 -98 -14 -72 -15 -314
3 -189 13 -210 16 -260 42 -30 15 -66 35 -80 45 -30 20 -131 56 -181 64 -47 8
-117 59 -166 121 -22 28 -76 88 -120 135 -135 146 -159 188 -238 424 -39 116
-62 202 -74 288 -20 135 -19 183 5 249 10 27 18 85 20 150 2 62 9 121 17 141
8 18 17 59 21 91 5 34 25 95 51 151 41 88 50 99 152 190 125 112 161 136 269
172 43 14 86 31 94 38 8 7 38 18 65 25 63 15 177 66 234 104 48 33 160 88 261
130 54 23 112 36 196 46 6 0 53 -8 105 -19z"/>
<path d="M10567 15214 c-14 -15 -6 -34 14 -34 14 0 19 5 17 17 -3 18 -20 27
-31 17z"/>
<path d="M10435 14991 c-134 -31 -176 -46 -220 -82 -16 -14 -64 -41 -105 -61
-41 -20 -94 -50 -117 -67 -95 -69 -255 -318 -319 -498 -32 -89 -34 -101 -34
-227 0 -221 52 -366 204 -565 106 -140 191 -214 311 -272 153 -73 211 -88 395
-105 207 -19 248 -15 420 37 158 48 340 153 451 260 122 119 211 266 249 414
34 132 22 338 -29 516 -23 81 -34 102 -80 159 -20 25 -57 74 -83 110 -52 75
-162 182 -228 224 -25 15 -69 43 -99 61 -77 48 -209 94 -321 110 -142 22 -255
18 -395 -14z m370 -40 c135 -23 220 -54 327 -117 99 -59 243 -193 309 -289 27
-38 63 -88 79 -109 52 -67 100 -281 100 -442 0 -84 -30 -204 -71 -287 -83
-168 -279 -349 -464 -430 -92 -40 -264 -86 -331 -89 -68 -3 -310 19 -369 34
-57 14 -214 78 -255 103 -106 66 -268 257 -338 395 -58 118 -72 180 -72 331 0
118 2 134 31 211 56 154 176 354 258 432 17 16 86 57 153 92 110 55 123 65
121 87 -2 32 20 41 139 62 51 9 109 20 128 24 58 15 139 12 255 -8z"/>
<path d="M10714 14277 c-12 -6 -33 -21 -48 -31 -26 -19 -27 -19 -50 3 -27 26
-63 25 -80 -1 -7 -12 -6 -31 7 -70 43 -135 85 -152 161 -66 25 29 53 68 62 87
15 30 15 38 3 60 -17 30 -28 34 -55 18z"/>
<path d="M9687 14736 c-7 -18 1 -26 25 -26 13 0 18 6 16 17 -4 22 -34 29 -41
9z"/>
<path d="M11574 14665 c-4 -9 -2 -21 4 -27 16 -16 47 -5 47 17 0 26 -42 34
-51 10z"/>
<path d="M9546 13795 c-18 -19 -10 -45 14 -45 28 0 45 27 30 45 -16 19 -25 19
-44 0z"/>
<path d="M11710 13586 c0 -21 5 -26 26 -26 21 0 25 4 22 23 -2 14 -11 23 -25
25 -19 3 -23 -1 -23 -22z"/>
<path d="M10090 13025 c0 -10 7 -15 18 -13 21 4 19 22 -2 26 -10 2 -16 -3 -16
-13z"/>
<path d="M10781 12916 c-14 -16 -9 -46 7 -46 5 0 15 7 22 16 11 12 11 18 -2
30 -13 13 -16 13 -27 0z"/>
<path d="M4820 15247 c0 -22 11 -47 20 -47 13 0 5 53 -9 58 -6 2 -11 -3 -11
-11z"/>
<path d="M3143 15167 c-31 -17 -66 -65 -57 -78 4 -7 3 -9 -3 -6 -9 6 -20 -17
-27 -53 -1 -3 -4 -9 -8 -15 -34 -55 -35 -314 -1 -380 32 -60 111 -97 164 -76
31 12 70 46 62 55 -3 3 0 6 8 6 8 0 25 17 39 38 14 20 27 39 30 42 3 3 14 25
25 49 l20 45 8 -42 c5 -24 12 -40 17 -37 4 3 6 -3 3 -13 -4 -18 50 -81 71 -83
6 0 22 -3 36 -5 13 -2 31 -2 39 1 14 5 14 7 1 16 -12 8 -10 9 6 5 61 -17 133
190 107 308 -7 33 -5 43 12 61 30 32 128 77 123 57 -1 -4 6 -31 15 -61 9 -30
17 -65 17 -78 0 -13 3 -22 8 -20 4 3 8 -41 10 -97 4 -102 10 -124 32 -111 9 6
9 10 -1 16 -11 7 -10 9 4 9 19 0 24 20 5 20 -9 0 -10 3 -2 8 6 4 14 30 17 58
11 100 59 224 87 224 14 0 33 -51 54 -142 10 -43 23 -75 28 -72 5 3 8 0 7 -7
-4 -21 28 -77 51 -89 24 -13 54 0 71 31 13 25 81 229 82 246 0 7 4 10 8 7 4
-2 9 1 11 8 3 7 10 -10 17 -38 48 -184 103 -264 166 -241 23 10 63 78 91 157
14 41 29 79 34 83 4 5 17 -23 29 -63 12 -39 26 -68 31 -65 5 3 7 -1 4 -9 -11
-30 56 -126 88 -126 11 0 48 38 48 50 0 5 -7 7 -15 4 -8 -4 -13 -10 -10 -14 3
-4 -2 -11 -11 -14 -24 -9 -31 -7 -14 4 10 7 12 12 4 18 -18 12 -50 81 -84 184
-45 136 -60 138 -109 15 -52 -129 -86 -187 -111 -187 -19 0 -61 79 -86 160
-31 107 -43 130 -65 130 -16 0 -66 -86 -55 -97 2 -3 -3 -13 -11 -23 -9 -10
-26 -50 -38 -89 -27 -83 -42 -106 -60 -91 -6 5 -16 6 -20 2 -5 -4 -5 -2 -2 4
3 6 0 22 -7 35 -7 14 -23 62 -35 107 -40 148 -56 171 -105 152 -23 -8 -86
-116 -86 -147 0 -8 -4 -11 -10 -8 -5 3 -10 18 -10 32 0 26 -47 142 -59 144
-53 11 -88 -1 -146 -52 -19 -17 -33 -25 -30 -17 8 20 -57 103 -78 102 -9 -1
-14 2 -11 7 11 19 -26 8 -54 -16 -35 -30 -56 -76 -50 -110 3 -13 1 -22 -3 -19
-5 3 -9 -8 -9 -25 0 -32 39 -71 69 -71 18 1 111 49 96 50 -5 0 -2 5 8 11 51
30 53 -59 4 -200 -9 -24 -13 -49 -11 -56 3 -7 1 -16 -5 -20 -7 -4 -8 1 -4 12
5 14 2 14 -16 -4 -14 -15 -34 -23 -56 -23 -62 0 -85 34 -110 163 -3 15 -9 27
-13 27 -4 0 -20 -28 -37 -63 -16 -34 -32 -64 -35 -67 -3 -3 -16 -21 -28 -40
-12 -19 -22 -32 -22 -28 0 3 -14 -7 -31 -23 -17 -16 -38 -29 -46 -29 -8 0 -12
-4 -9 -9 4 -5 -11 -5 -35 0 -22 5 -44 7 -49 4 -5 -3 -12 0 -16 6 -5 8 -3 9 7
3 8 -4 2 6 -13 24 -36 43 -48 90 -48 185 0 138 46 299 100 349 9 9 30 18 46
21 l29 4 -30 1 c-16 1 -40 -4 -52 -11z m453 -87 c7 -7 16 -20 19 -31 4 -11 10
-17 14 -15 6 4 7 -26 3 -61 -1 -6 -19 -22 -39 -34 -21 -13 -40 -26 -43 -31 -3
-4 -19 -4 -35 1 -29 7 -30 10 -29 62 1 32 9 69 20 89 10 19 17 38 16 42 -2 9
57 -9 74 -22z"/>
<path d="M6478 14985 c-7 -9 -19 -22 -26 -30 -7 -8 -10 -20 -6 -26 4 -8 3 -9
-4 -5 -6 4 -21 -3 -32 -14 -21 -21 -21 -22 -3 -35 25 -20 28 -19 44 13 8 15
17 29 20 32 3 3 14 19 23 37 17 34 6 54 -16 28z"/>
<path d="M5366 13891 c-3 -5 3 -11 14 -14 13 -3 20 -14 20 -29 0 -23 11 -151
29 -349 11 -114 30 -177 60 -196 27 -17 49 5 95 92 38 72 25 64 -38 -24 -18
-24 -34 -37 -39 -32 -11 11 -34 127 -42 213 -3 35 -8 77 -10 93 -2 17 -6 59
-10 95 -8 94 -15 133 -27 148 -12 14 -44 16 -52 3z"/>
<path d="M3255 13809 c-82 -13 -155 -52 -155 -81 0 -4 5 -7 11 -5 15 3 20 -43
7 -63 -6 -10 -7 -7 -2 10 9 37 -11 13 -25 -29 -20 -60 -14 -108 14 -127 24
-16 30 -15 98 5 104 31 148 28 192 -10 47 -42 62 -73 70 -146 12 -99 -32 -174
-123 -214 -55 -24 -88 -24 -134 0 -21 10 -39 16 -41 12 -2 -3 -2 -1 -1 6 2 7
-1 15 -7 18 -5 4 -20 27 -34 53 l-24 47 -1 -32 c0 -35 18 -83 32 -83 4 0 8 -6
8 -13 0 -7 15 -24 33 -38 27 -20 43 -24 102 -24 51 0 77 5 97 19 15 10 25 22
22 27 -3 5 1 6 8 4 19 -7 62 40 53 56 -5 7 -4 10 2 6 12 -7 38 37 48 81 6 30
-6 105 -27 162 -11 31 -62 90 -77 90 -6 0 -11 5 -11 11 0 6 -7 9 -15 5 -8 -3
-15 -1 -15 4 0 18 -83 10 -154 -14 -64 -22 -69 -23 -85 -7 -22 22 -12 84 24
150 32 57 57 71 130 71 62 0 85 7 85 26 0 13 -31 35 -47 33 -4 -1 -30 -5 -58
-10z m2 -25 c-3 -3 -12 -4 -19 -1 -8 3 -5 6 6 6 11 1 17 -2 13 -5z"/>
<path d="M4817 13803 c-5 -4 -12 -8 -15 -8 -69 -4 -142 -186 -127 -315 4 -30
8 -56 9 -58 2 -1 6 25 9 59 8 92 23 93 31 2 18 -201 84 -323 175 -323 59 0
126 84 136 172 3 24 8 56 11 71 7 35 -5 169 -15 163 -4 -3 -7 10 -7 27 0 48
-50 149 -89 180 -34 27 -104 45 -118 30z m85 -58 c28 -11 75 -98 90 -162 7
-32 11 -101 10 -153 -2 -78 -7 -104 -28 -148 -31 -63 -61 -87 -95 -73 -57 21
-94 97 -118 236 -7 39 -17 88 -22 110 -14 54 -18 95 -10 95 3 0 12 13 19 28 6
16 22 39 35 52 12 14 21 27 20 31 -2 7 74 -5 99 -16z m86 -80 c-3 -3 -9 2 -12
12 -6 14 -5 15 5 6 7 -7 10 -15 7 -18z m-231 -297 c-3 -8 -6 -5 -6 6 -1 11 2
17 5 13 3 -3 4 -12 1 -19z m260 -20 c-3 -8 -6 -5 -6 6 -1 11 2 17 5 13 3 -3 4
-12 1 -19z"/>
<path d="M4375 13791 c-35 -15 -58 -48 -51 -74 3 -14 12 -27 21 -30 11 -5 13
0 9 22 -5 22 -1 32 17 45 26 18 84 22 94 6 4 -6 10 -8 14 -6 3 3 8 -3 9 -12
13 -129 14 -126 -15 -181 -22 -44 -35 -56 -61 -63 -29 -8 -41 -26 -26 -41 8
-8 54 14 54 26 0 18 51 -37 71 -76 24 -46 41 -133 34 -168 -3 -14 -18 -39 -33
-55 -22 -23 -37 -30 -77 -32 -27 -2 -58 -6 -69 -9 -12 -3 -16 -1 -12 6 4 6 1
11 -7 11 -8 0 -38 16 -66 35 -28 20 -56 33 -61 30 -5 -3 -7 0 -4 8 3 8 -1 21
-8 28 -7 8 -19 25 -25 39 l-12 25 0 -29 c-1 -44 38 -103 94 -141 92 -63 204
-62 270 2 21 21 34 41 31 50 -4 9 -2 11 6 7 8 -5 10 12 6 62 -6 79 -28 131
-82 187 -32 34 -34 40 -21 53 15 16 19 28 16 53 -2 7 2 10 8 7 15 -10 34 72
27 116 -9 53 -27 90 -43 84 -7 -3 -12 0 -10 7 2 14 -68 20 -98 8z"/>
<path d="M6110 13753 c-103 -11 -202 -34 -217 -49 -15 -15 -18 -41 -18 -178
-1 -176 -6 -205 -35 -203 -10 1 -17 4 -14 8 7 11 -32 70 -40 62 -4 -4 -4 0 -1
8 12 32 -59 160 -89 158 -6 0 -22 -14 -36 -32 -18 -25 -19 -28 -4 -14 35 30
48 21 77 -53 15 -38 27 -74 27 -80 0 -6 5 -8 11 -4 7 4 10 1 7 -7 -6 -16 23
-79 44 -97 21 -17 55 -3 67 26 21 54 24 84 10 93 -10 6 -11 9 -1 9 9 0 12 33
12 129 0 94 4 131 13 140 8 6 45 13 83 16 111 9 173 24 184 45 17 32 14 33
-80 23z"/>
<path d="M2808 13723 c-9 -10 -30 -47 -47 -83 -22 -48 -27 -67 -18 -73 8 -6 7
-7 -5 -4 -10 4 -22 -3 -32 -18 -19 -29 -20 -39 -3 -29 7 4 9 3 4 -2 -5 -5 -13
-9 -19 -9 -6 0 -16 -8 -22 -19 -6 -10 -22 -31 -35 -45 -40 -45 -61 -78 -53
-86 4 -5 2 -6 -4 -2 -11 6 -121 -111 -116 -125 1 -4 -4 -8 -10 -8 -16 -1 -98
-77 -98 -90 0 -24 35 -5 95 52 36 33 63 63 61 66 -3 2 8 15 25 29 16 14 26 29
23 34 -3 5 -1 8 3 7 14 -4 109 107 162 189 76 119 71 114 65 63 -3 -25 -11
-63 -16 -85 -17 -67 -37 -216 -31 -231 3 -8 0 -14 -6 -14 -8 0 -11 -27 -9 -87
3 -73 6 -88 20 -91 11 -2 23 8 33 28 9 18 12 29 6 26 -7 -5 -11 9 -11 42 0 56
42 362 65 467 8 39 15 80 15 93 0 26 -21 29 -42 5z m-3 -163 c3 -5 1 -10 -4
-10 -6 0 -11 5 -11 10 0 6 2 10 4 10 3 0 8 -4 11 -10z m-165 -143 c0 -2 -10
-12 -22 -23 l-23 -19 19 23 c18 21 26 27 26 19z"/>
<path d="M3950 13406 c0 -9 5 -16 10 -16 6 0 10 4 10 9 0 6 -4 13 -10 16 -5 3
-10 -1 -10 -9z"/>
<path d="M13930 12029 c0 -42 90 -307 140 -412 26 -56 61 -108 97 -147 l56
-61 -2 -122 c-2 -136 19 -271 63 -398 66 -190 155 -352 190 -347 35 5 24 54
-33 148 -108 179 -171 399 -171 598 l0 103 35 -7 c64 -12 115 27 115 87 0 38
-28 88 -60 104 -29 15 -34 15 -56 1 -13 -9 -33 -35 -45 -58 l-22 -43 -39 45
c-51 57 -114 188 -177 365 -64 182 -61 175 -77 175 -9 0 -14 -11 -14 -31z
m434 -522 c13 -36 -2 -61 -39 -65 -41 -5 -46 8 -25 56 23 50 49 54 64 9z"/>
<path d="M13830 10515 c-9 -11 -15 -109 -21 -383 -4 -202 -6 -377 -3 -388 5
-20 1 -22 -83 -27 -201 -12 -390 -57 -533 -126 -168 -83 -311 -158 -340 -181
-19 -15 -63 -43 -96 -64 -93 -57 -165 -126 -279 -268 -141 -178 -270 -426
-386 -744 -57 -158 -88 -499 -55 -607 18 -59 42 -97 61 -97 20 0 19 31 -5 125
-27 106 -25 191 10 383 25 141 36 178 84 285 30 67 64 147 76 177 105 268 345
584 533 700 49 30 99 62 112 70 21 13 30 11 107 -23 45 -20 119 -48 163 -63
44 -14 81 -27 83 -29 2 -2 -30 -54 -71 -117 -41 -62 -96 -152 -122 -200 -43
-81 -48 -87 -73 -83 -147 25 -217 41 -339 76 -148 43 -200 46 -155 9 13 -10
49 -29 80 -40 79 -30 293 -88 353 -96 27 -4 51 -10 54 -14 2 -4 -13 -47 -35
-96 -22 -49 -49 -126 -61 -171 -14 -52 -27 -83 -35 -83 -39 0 -294 46 -394 70
-133 33 -181 39 -187 24 -7 -22 367 -123 520 -140 63 -7 67 -14 48 -81 -5 -17
-17 -105 -26 -195 -10 -90 -19 -164 -20 -166 -6 -7 -277 70 -379 108 -116 43
-146 48 -146 27 0 -30 193 -112 399 -172 l116 -33 -5 -79 c-3 -43 -4 -165 -4
-270 1 -106 1 -193 0 -193 0 0 -55 14 -121 31 -187 48 -198 50 -212 45 -23 -9
-14 -35 15 -42 15 -4 49 -16 75 -27 27 -11 94 -32 149 -46 l101 -26 42 -170
c24 -94 53 -197 65 -230 38 -107 39 -99 -11 -91 -24 3 -99 18 -167 33 -89 20
-125 24 -133 16 -6 -6 -8 -16 -5 -21 10 -16 130 -53 265 -82 l125 -26 39 -65
c81 -134 213 -273 311 -330 49 -28 50 -29 20 -29 -17 0 -77 7 -134 15 -93 14
-115 22 -219 77 -64 34 -134 74 -156 89 -45 31 -189 170 -282 273 -53 58 -65
67 -78 56 -25 -20 -17 -49 29 -114 52 -72 221 -240 286 -283 25 -16 99 -58
165 -92 109 -58 130 -65 235 -82 134 -22 230 -24 316 -6 36 8 71 10 84 5 16
-6 29 -3 46 11 19 15 48 20 142 26 140 8 302 36 402 70 191 65 389 151 470
205 47 32 114 71 150 89 80 39 276 229 379 366 88 117 195 289 221 356 39 97
109 363 120 454 12 93 6 295 -11 395 -15 90 -113 334 -167 418 -27 42 -64 106
-81 141 -17 35 -52 96 -78 135 -26 39 -62 94 -80 121 -86 130 -294 348 -398
415 -71 46 -310 146 -444 185 -87 26 -244 35 -256 15 -9 -15 30 -27 129 -40
71 -9 125 -26 271 -85 100 -40 197 -81 216 -90 112 -58 307 -258 429 -440 30
-44 71 -106 92 -137 21 -31 56 -94 78 -140 22 -46 54 -104 70 -129 47 -70 139
-321 151 -413 7 -46 9 -149 6 -245 -5 -164 -5 -168 -55 -336 -63 -211 -70
-228 -145 -345 -107 -167 -167 -242 -304 -377 -106 -106 -147 -140 -203 -168
-39 -20 -103 -56 -141 -81 -69 -44 -222 -112 -405 -179 -107 -40 -327 -88
-376 -83 l-33 4 25 11 c14 7 82 34 151 61 205 79 259 119 384 281 45 59 79 93
95 97 76 18 280 87 290 99 7 8 10 22 8 32 -3 15 -12 18 -54 15 -28 -1 -80 -11
-117 -21 -37 -10 -67 -15 -67 -11 0 4 23 47 51 96 28 49 65 120 82 159 17 38
35 75 41 82 6 6 64 23 129 38 210 47 273 82 221 125 -12 11 -24 10 -67 -3 -58
-18 -240 -57 -245 -52 -2 1 8 43 22 91 28 103 96 403 96 427 0 17 5 19 105 42
174 40 295 88 295 119 0 32 -35 29 -248 -19 -67 -15 -124 -26 -126 -24 -2 2 1
31 6 64 11 71 13 286 3 342 l-6 41 86 41 c86 42 107 63 87 83 -8 8 -31 3 -82
-16 -39 -14 -77 -26 -85 -26 -7 0 -17 15 -20 33 -4 17 -27 99 -52 181 -35 115
-43 157 -38 187 6 32 4 39 -10 39 -10 0 -26 23 -45 63 -31 68 -99 165 -167
239 l-45 47 27 32 c24 29 25 33 10 48 -14 15 -19 14 -54 -5 l-38 -21 -39 33
c-64 54 -129 86 -170 82 -47 -4 -63 -27 -44 -62 16 -31 30 -34 30 -6 0 11 2
20 5 20 27 0 155 -90 155 -109 0 -9 -164 -71 -191 -71 -4 0 -19 35 -34 78 -39
108 -92 208 -127 237 -33 28 -79 33 -98 10 -21 -26 -43 -19 -36 11 4 15 2 32
-6 41 -7 8 -18 31 -24 51 -10 28 -10 37 1 48 9 9 15 61 20 168 9 192 0 639
-13 644 -5 1 -15 -4 -22 -13z m-25 -859 c17 -12 16 -14 -17 -20 -98 -18 -341
-167 -428 -263 -48 -53 -52 -55 -88 -48 -45 8 -282 84 -282 90 0 9 258 134
346 168 67 26 127 40 239 56 147 20 194 27 206 30 3 0 14 -5 24 -13z m25 -95
c0 -10 -45 -86 -101 -170 -86 -130 -103 -150 -122 -146 -12 3 -67 14 -121 25
-55 11 -102 23 -105 26 -18 18 193 176 319 239 93 47 130 55 130 26z m142 -58
c44 -50 125 -260 108 -277 -12 -12 -333 -15 -363 -4 -22 9 -21 12 80 164 68
104 105 139 117 110 3 -7 9 -5 16 7 6 9 15 17 19 17 4 0 15 -8 23 -17z m561
-373 c46 -58 117 -182 117 -205 0 -17 -368 -101 -382 -87 -5 6 -65 251 -75
312 -4 23 0 27 44 38 26 7 77 26 113 41 l65 28 29 -26 c16 -14 56 -60 89 -101z
m-1063 79 c52 -11 101 -23 108 -25 8 -2 -9 -47 -56 -141 -38 -76 -77 -159 -87
-186 l-18 -47 -81 6 c-125 9 -227 22 -234 29 -9 9 57 128 152 273 67 104 83
122 101 118 11 -3 63 -15 115 -27z m463 -54 c103 0 187 0 187 0 6 0 77 -322
72 -327 -22 -20 -587 -39 -671 -22 -29 6 -32 10 -26 33 8 33 107 238 140 291
25 39 26 40 68 33 23 -5 126 -8 230 -8z m747 -340 c0 -6 18 -71 40 -144 22
-73 40 -146 40 -161 0 -27 -3 -29 -72 -44 -64 -14 -363 -66 -379 -66 -3 0 -9
71 -12 158 -3 86 -9 167 -13 179 -5 19 -1 22 33 28 116 19 242 49 287 70 46
20 52 21 64 7 6 -9 12 -21 12 -27z m-1435 -55 c72 -6 135 -13 141 -15 7 -2 3
-28 -13 -77 -21 -64 -46 -158 -67 -250 -6 -25 -11 -28 -44 -28 -44 1 -322 36
-328 42 -8 9 44 167 86 256 41 88 45 93 70 89 14 -3 84 -11 155 -17z m976 -45
c4 -16 7 -96 8 -176 l1 -147 -117 -13 c-131 -16 -529 -19 -665 -6 l-87 9 6 31
c3 18 24 97 47 177 l41 145 255 -3 c140 -1 293 2 340 7 47 5 103 8 125 7 36
-1 41 -4 46 -31z m562 -361 c13 -79 -7 -371 -26 -390 -16 -16 -281 -52 -412
-56 -76 -3 -89 -1 -87 12 2 8 12 98 23 200 11 102 21 190 23 196 3 6 33 14 68
18 82 10 368 63 376 71 14 14 28 -5 35 -51z m-1651 -14 c84 -12 154 -23 154
-23 1 -1 -4 -38 -11 -82 -8 -44 -19 -140 -26 -214 l-12 -133 -66 6 c-116 12
-296 38 -302 45 -11 10 34 400 49 425 2 4 17 6 32 2 16 -3 97 -15 182 -26z
m1098 -57 c0 -59 -39 -377 -48 -384 -23 -21 -692 -39 -831 -22 l-54 6 7 91 c6
93 41 324 50 333 2 3 67 0 143 -6 223 -18 587 -9 726 18 4 0 7 -16 7 -36z
m-1084 -459 l81 -7 -2 -263 c-2 -145 -4 -265 -6 -265 -22 -8 -354 33 -366 44
-17 18 -26 246 -15 380 6 76 13 141 16 145 3 5 51 0 108 -9 57 -10 139 -21
184 -25z m1594 25 c0 -6 -18 -92 -40 -192 -44 -199 -76 -312 -94 -326 -25 -21
-506 -62 -506 -43 0 5 11 38 24 73 26 71 43 135 81 314 14 66 30 124 35 129 4
4 68 13 142 18 73 5 171 15 218 22 111 17 140 18 140 5z m-965 -55 c154 4 304
9 334 13 l54 6 -5 -29 c-32 -196 -110 -467 -143 -502 -10 -11 -74 -14 -306
-15 -162 0 -322 3 -356 7 l-63 8 0 257 c0 142 2 260 5 262 2 3 48 1 102 -4 54
-5 224 -6 378 -3z m-696 -564 c79 -10 147 -22 151 -27 5 -4 18 -62 30 -128 18
-102 47 -233 66 -297 5 -16 -3 -18 -78 -18 -46 0 -120 3 -164 6 l-82 7 -21 46
c-32 70 -121 383 -121 426 0 14 6 16 38 10 20 -4 102 -15 181 -25z m1491 -5
c0 -27 -144 -292 -186 -342 -15 -18 -46 -28 -149 -48 -153 -29 -325 -54 -325
-46 0 3 17 47 39 96 21 50 55 140 75 202 l37 111 137 6 c75 4 173 10 217 15
101 10 155 12 155 6z m-825 -33 c204 1 240 -1 237 -13 -7 -36 -88 -252 -122
-325 l-37 -81 -138 -6 c-189 -9 -283 -9 -289 2 -15 24 -98 419 -91 431 2 3 48
2 102 -2 54 -4 206 -7 338 -6z m529 -454 c-22 -37 -103 -123 -146 -154 -27
-20 -105 -60 -175 -90 -138 -59 -210 -101 -247 -144 -18 -22 -33 -29 -70 -31
-25 -2 -50 1 -55 6 -15 15 -117 224 -141 288 -14 37 -19 62 -13 68 5 5 85 8
182 7 l172 -3 -51 -105 c-28 -58 -65 -119 -82 -137 -33 -34 -31 -55 4 -45 42
11 104 87 158 194 l54 105 115 13 c64 6 145 18 181 25 89 17 123 18 114 3z
m-938 -53 c6 -2 23 -38 38 -82 16 -43 48 -119 73 -170 25 -51 42 -97 38 -103
-10 -17 -47 -11 -105 16 -40 18 -85 56 -165 137 -90 91 -165 186 -165 210 0 4
270 -3 286 -8z"/>
<path d="M15553 9908 c-12 -14 -27 -57 -38 -108 -41 -196 -126 -390 -230 -529
-53 -70 -63 -101 -31 -101 8 0 36 28 64 63 103 131 169 272 221 477 20 78 40
142 46 142 5 1 35 -37 67 -83 87 -125 140 -174 238 -221 47 -22 86 -42 88 -43
2 -2 -18 -35 -44 -75 -96 -149 -149 -301 -174 -502 -7 -54 -16 -98 -21 -98 -5
0 -20 21 -33 48 -48 94 -160 235 -217 276 -35 24 -93 21 -126 -8 -23 -21 -26
-28 -17 -43 12 -19 18 -19 70 -8 27 6 35 1 82 -47 83 -87 124 -145 177 -252
44 -87 54 -101 75 -101 36 0 44 25 79 232 35 207 62 293 129 411 61 107 90
142 127 148 39 7 55 21 55 50 0 31 -32 47 -80 39 -30 -5 -54 0 -115 27 -97 41
-146 84 -246 214 -95 122 -110 132 -146 92z"/>
<path d="M19784 8675 c-3 -8 -4 -37 -2 -65 2 -37 -1 -51 -12 -56 -8 -3 -75
-19 -149 -35 -74 -16 -140 -34 -147 -40 -27 -22 -8 -62 19 -41 19 15 116 40
182 47 33 3 69 7 80 8 15 1 19 -3 18 -18 -2 -11 -7 -84 -13 -162 -5 -78 -15
-164 -20 -190 -17 -72 -92 -224 -131 -261 -30 -30 -39 -33 -84 -30 -44 3 -50
6 -47 23 11 73 6 143 -15 187 -24 51 -47 63 -96 53 -71 -16 -136 -80 -316
-314 -14 -19 -33 -42 -43 -52 -9 -10 -14 -20 -10 -23 3 -3 -1 -6 -8 -6 -7 0
-21 -7 -31 -16 -10 -9 -26 -13 -37 -10 -29 10 -71 79 -82 134 -5 27 -10 53
-11 58 -1 5 -1 51 0 102 1 87 3 94 22 99 44 12 104 50 103 66 -1 9 2 14 7 12
4 -3 13 3 18 14 14 25 14 44 1 36 -6 -4 -7 1 -3 11 8 23 -33 53 -74 54 -40 0
-68 -33 -89 -107 l-16 -54 -96 6 c-57 4 -107 3 -122 -3 l-25 -10 28 -7 c15 -4
38 -4 52 -1 14 4 25 2 25 -4 0 -5 26 -10 58 -11 54 -1 128 -16 90 -18 -22 -1
-26 -53 -17 -218 1 -29 6 -53 11 -53 5 0 7 -4 4 -9 -7 -10 21 -68 50 -104 26
-32 69 -50 98 -41 44 13 153 142 143 169 -4 8 -1 12 6 10 7 -3 39 32 72 76 78
105 82 110 134 147 51 37 95 42 111 12 16 -30 23 -109 13 -155 -9 -40 -9 -40
-66 -47 -33 -4 -65 -15 -77 -26 -26 -24 -35 -72 -18 -93 14 -19 65 -38 54 -21
-4 6 2 8 15 5 15 -4 31 6 65 42 43 46 45 47 90 42 96 -10 153 35 216 171 22
48 46 101 54 117 l15 30 -6 -32 c-10 -50 34 -161 58 -146 5 3 7 2 4 -4 -10
-15 42 -64 92 -86 32 -14 75 -22 141 -25 92 -4 97 -3 165 30 79 38 117 67 108
81 -3 6 -2 7 4 4 10 -7 32 15 71 70 24 34 28 48 10 37 -7 -4 -8 -3 -4 5 4 6
12 8 18 5 7 -5 9 -1 5 9 -4 11 -2 14 9 10 9 -3 14 -19 14 -45 0 -57 42 -130
91 -157 123 -69 292 -5 360 137 25 50 17 70 -12 30 -28 -39 -141 -115 -189
-128 -29 -8 -52 -8 -82 0 -92 24 -116 60 -119 173 -2 93 -11 111 -39 78 -11
-13 -20 -31 -20 -40 0 -9 -9 -22 -20 -29 -24 -15 -25 -8 -5 47 10 31 11 41 2
41 -9 0 -9 2 -1 8 21 13 27 87 10 126 -8 20 -19 37 -23 37 -53 8 -81 4 -106
-14 -87 -65 -170 -313 -137 -412 7 -20 10 -39 7 -42 -15 -15 -117 -18 -177 -5
-36 8 -73 15 -82 15 -9 1 -16 3 -14 5 7 6 -59 68 -68 63 -5 -2 -6 1 -2 7 4 6
0 24 -8 40 -34 65 -41 224 -20 457 l5 60 42 1 c54 2 269 43 283 55 6 5 13 7
16 4 7 -7 136 34 143 45 4 6 10 8 15 5 4 -3 13 2 20 9 9 12 7 17 -7 24 -13 6
-80 -5 -226 -39 -115 -26 -225 -49 -245 -51 -36 -3 -36 -3 -39 37 -4 57 -12
85 -24 85 -5 0 -12 -7 -15 -15z m151 -125 c3 -5 1 -10 -4 -10 -6 0 -11 5 -11
10 0 6 2 10 4 10 3 0 8 -4 11 -10z m477 -238 c-8 -2 -8 -8 0 -22 18 -28 -5
-151 -41 -224 -40 -80 -111 -162 -134 -153 -15 5 -17 19 -15 91 2 46 6 80 9
74 4 -5 9 5 13 24 16 86 97 208 138 208 10 0 18 5 18 11 0 5 5 7 12 3 9 -6 9
-9 0 -12z m-105 -27 c0 -8 -4 -12 -9 -9 -5 3 -6 10 -3 15 9 13 12 11 12 -6z
m-1367 -70 c21 -25 3 -58 -45 -88 -26 -15 -50 -25 -55 -22 -10 6 9 61 33 98
19 30 48 35 67 12z m467 -131 c-3 -3 -12 -4 -19 -1 -8 3 -5 6 6 6 11 1 17 -2
13 -5z m1100 -86 c-3 -8 -6 -5 -6 6 -1 11 2 17 5 13 3 -3 4 -12 1 -19z m-1359
-128 c-7 -11 -15 -15 -17 -9 -2 6 3 15 10 20 20 12 21 11 7 -11z m242 -82 c0
-16 -48 -58 -67 -58 -10 0 -24 10 -32 23 -7 12 -10 19 -6 15 5 -5 14 0 20 10
13 18 85 27 85 10z"/>
<path d="M18163 8644 c-14 -21 -17 -52 -17 -177 -1 -148 10 -364 20 -400 3 -9
-4 -33 -16 -52 -12 -19 -19 -39 -15 -45 4 -6 1 -9 -7 -8 -7 2 -12 -5 -12 -14
1 -10 -2 -15 -7 -12 -5 3 -35 -23 -66 -56 -53 -57 -59 -62 -91 -56 l-34 5 23
-19 c24 -22 39 -25 39 -10 0 5 3 9 8 9 24 -4 40 6 84 53 27 29 57 65 66 80 25
43 37 41 38 -6 0 -22 1 -102 3 -176 1 -74 0 -160 -4 -190 -7 -53 -70 -253 -87
-276 -5 -6 -6 -19 -2 -28 3 -9 1 -16 -5 -16 -16 0 -13 -36 4 -50 8 -7 22 -10
30 -6 19 7 48 73 41 92 -3 7 0 14 5 16 13 4 31 86 23 100 -4 6 -3 8 3 5 16
-10 25 53 11 71 -10 12 -10 14 -1 9 12 -8 18 7 26 58 5 32 45 104 108 192 31
44 54 84 51 88 -4 4 -2 5 3 4 6 -2 24 4 40 13 17 8 42 18 57 22 36 8 50 -14
77 -119 21 -83 47 -120 64 -90 10 18 3 54 -24 139 -31 95 -68 124 -135 103
-53 -16 -152 -116 -138 -139 4 -7 3 -8 -4 -4 -7 4 -27 -16 -51 -54 -21 -34
-40 -56 -43 -48 -2 7 -5 74 -7 148 -1 74 -4 156 -7 183 -3 29 2 61 11 83 8 20
12 41 8 48 -3 6 -3 8 2 4 16 -15 55 126 61 223 7 99 -8 218 -30 242 -6 7 -12
19 -14 27 -5 21 -43 60 -59 60 -7 0 -20 -12 -30 -26z m79 -52 c27 -59 37 -122
32 -202 -6 -90 -25 -178 -52 -240 l-19 -45 -7 80 c-4 44 -10 101 -15 127 -11
66 -11 307 0 314 5 3 7 10 4 15 -4 5 4 4 17 -2 13 -6 31 -27 40 -47z"/>
<path d="M12223 7798 c-5 -7 -15 -33 -22 -58 -36 -125 -157 -338 -298 -524
-66 -88 -80 -112 -73 -127 6 -10 10 -27 10 -38 0 -24 20 -27 49 -9 16 10 25 7
58 -17 136 -101 235 -261 327 -530 48 -140 53 -150 78 -153 36 -4 36 -3 48
256 10 222 19 273 70 412 41 111 56 137 87 152 41 20 38 34 -16 73 -58 42
-151 149 -200 230 -52 86 -70 148 -71 241 0 90 -19 128 -47 92z m-3 -211 c0
-34 71 -174 118 -233 22 -29 65 -77 95 -108 l55 -56 -28 -53 c-40 -72 -97
-248 -110 -333 -5 -38 -10 -111 -10 -161 0 -51 -4 -93 -9 -93 -4 0 -19 28 -31
63 -33 90 -96 213 -145 282 -59 83 -185 201 -224 210 -17 4 -31 9 -31 12 0 2
17 25 39 51 55 67 185 274 229 364 38 80 52 94 52 55z"/>
<path d="M20956 6928 c3 -18 10 -55 15 -81 5 -26 11 -71 14 -100 3 -29 8 -72
12 -97 9 -66 10 -77 17 -165 10 -116 16 -141 37 -164 24 -26 30 -26 58 -2 14
12 19 25 15 37 -4 15 -4 16 4 5 8 -11 15 -4 33 30 13 24 22 47 21 52 -1 4 1 7
6 7 4 0 18 19 31 43 30 54 76 87 124 87 31 0 40 -6 65 -42 16 -24 48 -80 70
-124 51 -101 79 -118 107 -64 17 34 20 126 4 167 -6 15 -17 66 -26 113 -18
107 -12 114 92 107 77 -4 185 10 185 25 0 5 4 7 9 3 14 -8 91 35 91 51 0 17
-29 31 -39 18 -3 -5 -13 -9 -21 -9 -8 0 -46 -6 -85 -12 -38 -7 -110 -16 -160
-22 -73 -7 -92 -13 -107 -31 -23 -28 -23 -47 3 -166 12 -55 24 -119 27 -142 5
-54 -12 -77 -29 -39 -7 15 -16 27 -21 27 -4 0 -7 3 -6 8 4 13 -23 53 -32 47
-6 -3 -7 0 -4 8 3 8 0 18 -7 23 -8 5 -10 3 -4 -6 5 -8 4 -11 -3 -6 -6 4 -9 13
-6 20 8 21 -62 76 -97 76 -34 0 -75 -23 -104 -59 -11 -13 -30 -35 -43 -49 -12
-14 -32 -42 -44 -61 -12 -20 -28 -42 -35 -49 -7 -7 -13 -18 -13 -23 0 -5 -6
-9 -14 -9 -14 0 -26 41 -26 89 0 21 -2 23 -11 11 -7 -11 -8 -5 -4 21 10 58
-40 361 -74 452 -15 38 -32 34 -25 -5z m614 -582 c0 -3 -4 -8 -10 -11 -5 -3
-10 -1 -10 4 0 6 5 11 10 11 6 0 10 -2 10 -4z"/>
<path d="M19747 6856 c-21 -8 -47 -24 -57 -37 -22 -25 -27 -54 -7 -43 9 5 9 4
1 -5 -7 -7 -10 -20 -7 -30 5 -19 43 -47 43 -32 0 6 -4 13 -10 16 -5 3 -10 21
-10 38 0 25 7 37 28 49 27 16 133 32 130 19 -3 -10 38 -71 44 -66 12 12 -10
-76 -22 -90 -10 -12 -10 -19 -1 -28 9 -9 13 -7 17 11 4 12 10 22 15 22 4 0 11
15 14 34 10 52 -25 123 -69 141 -43 18 -60 18 -109 1z"/>
<path d="M18705 6801 c-38 -10 -83 -21 -99 -25 -23 -6 -27 -9 -15 -17 11 -7
11 -9 -4 -9 -10 0 -16 -4 -12 -9 3 -6 24 -5 53 3 26 8 81 19 122 26 41 7 80
19 87 27 7 9 13 11 18 4 3 -6 2 -11 -4 -11 -6 0 -8 -6 -5 -13 3 -8 -5 -56 -17
-108 -12 -52 -23 -107 -24 -124 -2 -16 -6 -38 -10 -48 -4 -9 -5 -25 -3 -35 3
-11 -1 -18 -11 -19 -78 -5 -240 -57 -292 -94 -43 -30 -23 -35 48 -11 62 22
195 60 230 66 19 4 21 2 13 -17 -15 -36 -43 -274 -36 -302 8 -30 42 -31 40 -2
-1 9 1 17 5 17 4 0 8 21 9 48 2 26 5 54 7 62 3 8 7 35 9 60 10 98 19 155 25
160 3 3 6 28 7 55 1 59 9 117 23 165 21 76 23 136 6 154 -21 21 -80 20 -170
-3z m92 -7 c-3 -3 -12 -4 -19 -1 -8 3 -5 6 6 6 11 1 17 -2 13 -5z m-70 -20
c-3 -3 -12 -4 -19 -1 -8 3 -5 6 6 6 11 1 17 -2 13 -5z m46 -584 c-3 -12 -8
-19 -11 -16 -5 6 5 36 12 36 2 0 2 -9 -1 -20z"/>
<path d="M20269 6809 c-14 -5 -33 -24 -42 -42 -10 -17 -28 -52 -42 -76 -14
-24 -22 -48 -18 -54 3 -5 2 -7 -3 -4 -6 3 -20 -22 -33 -56 -13 -34 -27 -71
-32 -82 -8 -20 -13 -73 -10 -107 0 -10 20 -40 44 -67 23 -27 50 -60 59 -74 28
-40 111 -76 169 -73 46 2 54 6 94 50 54 60 81 146 72 230 -6 63 -82 230 -99
220 -6 -4 -8 1 -4 13 4 13 -3 30 -24 53 -16 18 -30 36 -30 40 0 7 -55 40 -67
39 -4 0 -20 -5 -34 -10z m57 -44 c12 -8 24 -12 28 -10 3 3 4 2 2 -1 -3 -3 10
-29 28 -57 38 -61 94 -195 102 -246 3 -20 -1 -62 -10 -94 -8 -32 -13 -64 -10
-71 3 -8 1 -17 -5 -21 -7 -4 -9 1 -5 12 3 11 -3 7 -16 -10 -37 -46 -73 -60
-123 -46 -23 7 -49 18 -58 26 -8 7 -20 13 -25 13 -11 0 -68 90 -82 130 -10 27
-4 152 8 160 3 3 28 48 54 100 46 91 72 130 85 130 4 0 16 -7 27 -15z m122
-140 c-3 -3 -9 2 -12 12 -6 14 -5 15 5 6 7 -7 10 -15 7 -18z"/>
<path d="M18250 6616 c-13 -34 -23 -71 -24 -83 0 -11 -4 -19 -7 -17 -3 2 -15
-16 -25 -39 -10 -23 -36 -70 -56 -104 -21 -35 -38 -65 -38 -68 0 -3 -11 -23
-25 -44 -14 -21 -23 -44 -20 -52 3 -8 -1 -23 -9 -34 -9 -11 -16 -15 -16 -8 0
6 5 15 10 18 6 3 10 11 10 18 0 6 -13 -4 -30 -23 -16 -19 -27 -41 -25 -48 3
-7 1 -11 -4 -8 -4 3 -16 -3 -26 -14 -9 -10 -30 -22 -47 -25 -22 -5 -26 -10
-18 -20 11 -13 63 -8 55 5 -3 4 3 7 13 6 9 0 16 5 14 12 -1 8 2 11 6 8 11 -6
90 92 116 142 9 18 14 38 10 45 -4 7 -4 9 1 5 11 -11 41 31 76 107 17 36 33
64 35 62 2 -2 -3 -52 -11 -113 -7 -60 -17 -152 -21 -204 -5 -82 -4 -97 10
-109 29 -24 38 2 47 138 5 71 20 210 33 308 13 98 21 183 19 189 -10 27 -33 6
-53 -50z"/>
<path d="M19845 6630 c-10 -11 -26 -22 -36 -25 -11 -4 -17 -10 -14 -15 3 -4
-3 -6 -14 -3 -10 3 -22 0 -25 -6 -4 -6 8 -13 28 -17 24 -4 49 -21 78 -53 24
-25 46 -45 50 -44 4 2 5 -3 2 -10 -2 -7 3 -30 12 -52 26 -62 22 -134 -11 -183
-35 -53 -74 -76 -166 -97 -109 -24 -215 -1 -281 63 -16 14 -28 21 -28 14 0 -6
10 -21 23 -32 20 -19 20 -21 2 -14 -47 16 44 -56 96 -77 44 -17 67 -20 124
-16 76 6 168 34 159 48 -3 5 1 6 9 4 17 -7 69 33 61 46 -3 5 0 8 8 7 7 -2 25
21 40 52 26 51 27 59 18 114 -13 81 -44 142 -103 203 -41 43 -48 53 -34 59 9
3 14 10 11 15 -3 5 2 9 10 9 17 0 22 15 7 24 -4 3 -16 -3 -26 -14z m95 -436
c0 -8 -19 -13 -24 -6 -3 5 1 9 9 9 8 0 15 -2 15 -3z"/>
<path d="M19212 6528 c5 -15 28 -18 29 -3 0 6 -7 12 -17 13 -10 3 -15 -1 -12
-10z"/>
<path d="M19263 6354 c-9 -25 13 -40 26 -16 10 19 6 32 -11 32 -5 0 -11 -7
-15 -16z m27 2 c0 -3 -4 -8 -10 -11 -5 -3 -10 -1 -10 4 0 6 5 11 10 11 6 0 10
-2 10 -4z"/>
</g>
</svg>
